<?xml version="1.0" encoding="UTF-8" standalone="no"?>
<!DOCTYPE svg PUBLIC "-//W3C//DTD SVG 1.1//EN"
 "http://www.w3.org/Graphics/SVG/1.1/DTD/svg11.dtd">
<!-- Generated by graphviz version 2.43.0 (0)
 -->
<!-- Title: Graphical Class Hierarchy Pages: 1 -->
<svg width="277pt" height="66pt"
 viewBox="0.00 0.00 277.00 66.00" xmlns="http://www.w3.org/2000/svg" xmlns:xlink="http://www.w3.org/1999/xlink">
<g id="graph0" class="graph" transform="scale(1 1) rotate(0) translate(4 62)">
<title>Graphical Class Hierarchy</title>
<!-- Node4 -->
<g id="node1" class="node">
<title>Node4</title>
<g id="a_node1"><a xlink:title=" ">
<polygon fill="none" stroke="#bfbfbf" points="6.5,-38.5 6.5,-57.5 101.5,-57.5 101.5,-38.5 6.5,-38.5"/>
<text text-anchor="middle" x="54" y="-45.5" font-family="Helvetica,sans-Serif" font-size="10.00">csl::ag::element</text>
</a>
</g>
</g>
<!-- Node0 -->
<g id="node2" class="node">
<title>Node0</title>
<g id="a_node2"><a xlink:href="structcsl_1_1tuplelike_1_1element_3_01I_00_01T_01_4.html" target="_top" xlink:title=" ">
<polygon fill="none" stroke="black" points="144,-14 144,-44 269,-44 269,-14 144,-14"/>
<text text-anchor="start" x="152" y="-32" font-family="Helvetica,sans-Serif" font-size="10.00">csl::tuplelike::element</text>
<text text-anchor="middle" x="206.5" y="-21" font-family="Helvetica,sans-Serif" font-size="10.00">&lt; I, T &gt;</text>
</a>
</g>
</g>
<!-- Node4&#45;&gt;Node0 -->
<g id="edge1" class="edge">
<title>Node4&#45;&gt;Node0</title>
<path fill="none" stroke="midnightblue" d="M111.99,-40.81C122.38,-39.49 133.27,-38.12 143.79,-36.79"/>
<polygon fill="midnightblue" stroke="midnightblue" points="111.28,-37.37 101.79,-42.09 112.15,-44.31 111.28,-37.37"/>
</g>
<!-- Node16 -->
<g id="node3" class="node">
<title>Node16</title>
<g id="a_node3"><a xlink:title=" ">
<polygon fill="none" stroke="#bfbfbf" points="0,-0.5 0,-19.5 108,-19.5 108,-0.5 0,-0.5"/>
<text text-anchor="middle" x="54" y="-7.5" font-family="Helvetica,sans-Serif" font-size="10.00">std::tuple_element</text>
</a>
</g>
</g>
<!-- Node16&#45;&gt;Node0 -->
<g id="edge2" class="edge">
<title>Node16&#45;&gt;Node0</title>
<path fill="none" stroke="midnightblue" d="M118,-17.95C126.57,-19.04 135.37,-20.15 143.92,-21.23"/>
<polygon fill="midnightblue" stroke="midnightblue" points="118.42,-14.48 108.06,-16.7 117.54,-21.42 118.42,-14.48"/>
</g>
</g>
</svg>
