<?xml version="1.0" encoding="UTF-8" standalone="no"?>
<!DOCTYPE svg PUBLIC "-//W3C//DTD SVG 1.1//EN"
 "http://www.w3.org/Graphics/SVG/1.1/DTD/svg11.dtd">
<!-- Generated by graphviz version 2.43.0 (0)
 -->
<!-- Title: Graphical Class Hierarchy Pages: 1 -->
<svg width="466pt" height="104pt"
 viewBox="0.00 0.00 466.00 104.00" xmlns="http://www.w3.org/2000/svg" xmlns:xlink="http://www.w3.org/1999/xlink">
<g id="graph0" class="graph" transform="scale(1 1) rotate(0) translate(4 100)">
<title>Graphical Class Hierarchy</title>
<!-- Node7 -->
<g id="node1" class="node">
<title>Node7</title>
<g id="a_node1"><a xlink:title=" ">
<polygon fill="none" stroke="#bfbfbf" points="0,-57.5 0,-76.5 122,-76.5 122,-57.5 0,-57.5"/>
<text text-anchor="middle" x="61" y="-64.5" font-family="Helvetica,sans-Serif" font-size="10.00">std::integral_constant</text>
</a>
</g>
</g>
<!-- Node0 -->
<g id="node2" class="node">
<title>Node0</title>
<g id="a_node2"><a xlink:href="structcsl_1_1ag_1_1size.html" target="_top" xlink:title=" ">
<polygon fill="none" stroke="black" points="173,-76.5 173,-95.5 275,-95.5 275,-76.5 173,-76.5"/>
<text text-anchor="middle" x="224" y="-83.5" font-family="Helvetica,sans-Serif" font-size="10.00">csl::ag::size&lt; T &gt;</text>
</a>
</g>
</g>
<!-- Node7&#45;&gt;Node0 -->
<g id="edge1" class="edge">
<title>Node7&#45;&gt;Node0</title>
<path fill="none" stroke="midnightblue" d="M132.65,-75.34C146.16,-76.93 160.06,-78.57 172.77,-80.07"/>
<polygon fill="midnightblue" stroke="midnightblue" points="132.75,-71.83 122.41,-74.13 131.93,-78.78 132.75,-71.83"/>
</g>
<!-- Node10 -->
<g id="node4" class="node">
<title>Node10</title>
<g id="a_node4"><a xlink:href="structcsl_1_1ag_1_1tuple__size.html" target="_top" xlink:title=" ">
<polygon fill="none" stroke="black" points="158,-38.5 158,-57.5 290,-57.5 290,-38.5 158,-38.5"/>
<text text-anchor="middle" x="224" y="-45.5" font-family="Helvetica,sans-Serif" font-size="10.00">csl::ag::tuple_size&lt; T &gt;</text>
</a>
</g>
</g>
<!-- Node7&#45;&gt;Node10 -->
<g id="edge3" class="edge">
<title>Node7&#45;&gt;Node10</title>
<path fill="none" stroke="midnightblue" d="M132.59,-58.67C141.02,-57.67 149.6,-56.66 157.94,-55.68"/>
<polygon fill="midnightblue" stroke="midnightblue" points="131.93,-55.22 122.41,-59.87 132.75,-62.17 131.93,-55.22"/>
</g>
<!-- Node1 -->
<g id="node3" class="node">
<title>Node1</title>
<g id="a_node3"><a xlink:href="structcsl_1_1tuplelike_1_1size_3_01T_01_4.html" target="_top" xlink:title=" ">
<polygon fill="none" stroke="black" points="326,-38.5 326,-57.5 458,-57.5 458,-38.5 326,-38.5"/>
<text text-anchor="middle" x="392" y="-45.5" font-family="Helvetica,sans-Serif" font-size="10.00">csl::tuplelike::size&lt; T &gt;</text>
</a>
</g>
</g>
<!-- Node0&#45;&gt;Node1 -->
<g id="edge2" class="edge">
<title>Node0&#45;&gt;Node1</title>
<path fill="none" stroke="midnightblue" d="M276.65,-74.18C300.06,-68.82 327.36,-62.57 349.41,-57.52"/>
<polygon fill="midnightblue" stroke="midnightblue" points="275.86,-70.77 266.89,-76.41 277.42,-77.59 275.86,-70.77"/>
</g>
<!-- Node17 -->
<g id="node5" class="node">
<title>Node17</title>
<g id="a_node5"><a xlink:title=" ">
<polygon fill="none" stroke="#bfbfbf" points="180.5,-0.5 180.5,-19.5 267.5,-19.5 267.5,-0.5 180.5,-0.5"/>
<text text-anchor="middle" x="224" y="-7.5" font-family="Helvetica,sans-Serif" font-size="10.00">std::tuple_size</text>
</a>
</g>
</g>
<!-- Node17&#45;&gt;Node1 -->
<g id="edge4" class="edge">
<title>Node17&#45;&gt;Node1</title>
<path fill="none" stroke="midnightblue" d="M276.65,-21.82C300.06,-27.18 327.36,-33.43 349.41,-38.48"/>
<polygon fill="midnightblue" stroke="midnightblue" points="277.42,-18.41 266.89,-19.59 275.86,-25.23 277.42,-18.41"/>
</g>
</g>
</svg>
