<?xml version="1.0" encoding="UTF-8" standalone="no"?>
<!DOCTYPE svg PUBLIC "-//W3C//DTD SVG 1.1//EN"
 "http://www.w3.org/Graphics/SVG/1.1/DTD/svg11.dtd">
<!-- Generated by graphviz version 2.43.0 (0)
 -->
<!-- Title: csl::tuplelike::size&lt; T &gt; Pages: 1 -->
<svg width="479pt" height="83pt"
 viewBox="0.00 0.00 479.00 82.50" xmlns="http://www.w3.org/2000/svg" xmlns:xlink="http://www.w3.org/1999/xlink">
<g id="graph0" class="graph" transform="scale(1 1) rotate(0) translate(4 78.5)">
<title>csl::tuplelike::size&lt; T &gt;</title>
<!-- Node1 -->
<g id="node1" class="node">
<title>Node1</title>
<g id="a_node1"><a xlink:title=" ">
<polygon fill="#bfbfbf" stroke="black" points="339,-19.5 339,-38.5 471,-38.5 471,-19.5 339,-19.5"/>
<text text-anchor="middle" x="405" y="-26.5" font-family="Helvetica,sans-Serif" font-size="10.00">csl::tuplelike::size&lt; T &gt;</text>
</a>
</g>
</g>
<!-- Node2 -->
<g id="node2" class="node">
<title>Node2</title>
<g id="a_node2"><a xlink:href="structcsl_1_1ag_1_1size.html" target="_top" xlink:title=" ">
<polygon fill="none" stroke="black" points="194,-38.5 194,-57.5 296,-57.5 296,-38.5 194,-38.5"/>
<text text-anchor="middle" x="245" y="-45.5" font-family="Helvetica,sans-Serif" font-size="10.00">csl::ag::size&lt; T &gt;</text>
</a>
</g>
</g>
<!-- Node2&#45;&gt;Node1 -->
<g id="edge1" class="edge">
<title>Node2&#45;&gt;Node1</title>
<path fill="none" stroke="midnightblue" d="M306.4,-40.74C316.98,-39.46 328.04,-38.13 338.75,-36.85"/>
<polygon fill="midnightblue" stroke="midnightblue" points="305.94,-37.27 296.43,-41.94 306.77,-44.22 305.94,-37.27"/>
</g>
<!-- Node3 -->
<g id="node3" class="node">
<title>Node3</title>
<g id="a_node3"><a xlink:title=" ">
<polygon fill="none" stroke="#bfbfbf" points="0,-22 0,-74 151,-74 151,-22 0,-22"/>
<text text-anchor="start" x="8" y="-62" font-family="Helvetica,sans-Serif" font-size="10.00">std::integral_constant</text>
<text text-anchor="start" x="8" y="-51" font-family="Helvetica,sans-Serif" font-size="10.00">&lt; std::size_t, details</text>
<text text-anchor="start" x="8" y="-40" font-family="Helvetica,sans-Serif" font-size="10.00">::fields_count&lt; std::remove</text>
<text text-anchor="middle" x="75.5" y="-29" font-family="Helvetica,sans-Serif" font-size="10.00">_reference_t&lt; T &gt; &gt; &gt;</text>
</a>
</g>
</g>
<!-- Node3&#45;&gt;Node2 -->
<g id="edge2" class="edge">
<title>Node3&#45;&gt;Node2</title>
<path fill="none" stroke="midnightblue" d="M161.51,-48C172.5,-48 183.46,-48 193.64,-48"/>
<polygon fill="midnightblue" stroke="midnightblue" points="161.43,-44.5 151.43,-48 161.43,-51.5 161.43,-44.5"/>
</g>
<!-- Node4 -->
<g id="node4" class="node">
<title>Node4</title>
<g id="a_node4"><a xlink:title=" ">
<polygon fill="none" stroke="#bfbfbf" points="187,-0.5 187,-19.5 303,-19.5 303,-0.5 187,-0.5"/>
<text text-anchor="middle" x="245" y="-7.5" font-family="Helvetica,sans-Serif" font-size="10.00">std::tuple_size&lt; T &gt;</text>
</a>
</g>
</g>
<!-- Node4&#45;&gt;Node1 -->
<g id="edge3" class="edge">
<title>Node4&#45;&gt;Node1</title>
<path fill="none" stroke="midnightblue" d="M313.03,-18.06C321.63,-19.09 330.42,-20.15 338.99,-21.18"/>
<polygon fill="midnightblue" stroke="midnightblue" points="313.39,-14.58 303.04,-16.86 312.55,-21.53 313.39,-14.58"/>
</g>
</g>
</svg>
