<?xml version="1.0" encoding="UTF-8" standalone="no"?>
<!DOCTYPE svg PUBLIC "-//W3C//DTD SVG 1.1//EN"
 "http://www.w3.org/Graphics/SVG/1.1/DTD/svg11.dtd">
<!-- Generated by graphviz version 2.43.0 (0)
 -->
<!-- Title: csl::tuplelike::element&lt; I, T &gt; Pages: 1 -->
<svg width="266pt" height="106pt"
 viewBox="0.00 0.00 266.00 106.00" xmlns="http://www.w3.org/2000/svg" xmlns:xlink="http://www.w3.org/1999/xlink">
<g id="graph0" class="graph" transform="scale(1 1) rotate(0) translate(4 102)">
<title>csl::tuplelike::element&lt; I, T &gt;</title>
<!-- Node1 -->
<g id="node1" class="node">
<title>Node1</title>
<g id="a_node1"><a xlink:title=" ">
<polygon fill="#bfbfbf" stroke="black" points="72.5,-0.5 72.5,-30.5 197.5,-30.5 197.5,-0.5 72.5,-0.5"/>
<text text-anchor="start" x="80.5" y="-18.5" font-family="Helvetica,sans-Serif" font-size="10.00">csl::tuplelike::element</text>
<text text-anchor="middle" x="135" y="-7.5" font-family="Helvetica,sans-Serif" font-size="10.00">&lt; I, T &gt;</text>
</a>
</g>
</g>
<!-- Node2 -->
<g id="node2" class="node">
<title>Node2</title>
<g id="a_node2"><a xlink:title=" ">
<polygon fill="none" stroke="#bfbfbf" points="0,-73 0,-92 132,-92 132,-73 0,-73"/>
<text text-anchor="middle" x="66" y="-80" font-family="Helvetica,sans-Serif" font-size="10.00">csl::ag::element&lt; I, T &gt;</text>
</a>
</g>
</g>
<!-- Node2&#45;&gt;Node1 -->
<g id="edge1" class="edge">
<title>Node2&#45;&gt;Node1</title>
<path fill="none" stroke="midnightblue" d="M82.86,-65.62C94.23,-54.91 109.1,-40.9 120.04,-30.59"/>
<polygon fill="midnightblue" stroke="midnightblue" points="80.18,-63.33 75.31,-72.73 84.98,-68.42 80.18,-63.33"/>
</g>
<!-- Node3 -->
<g id="node3" class="node">
<title>Node3</title>
<g id="a_node3"><a xlink:title=" ">
<polygon fill="none" stroke="#bfbfbf" points="150,-67.5 150,-97.5 258,-97.5 258,-67.5 150,-67.5"/>
<text text-anchor="start" x="158" y="-85.5" font-family="Helvetica,sans-Serif" font-size="10.00">std::tuple_element</text>
<text text-anchor="middle" x="204" y="-74.5" font-family="Helvetica,sans-Serif" font-size="10.00">&lt; I, T &gt;</text>
</a>
</g>
</g>
<!-- Node3&#45;&gt;Node1 -->
<g id="edge2" class="edge">
<title>Node3&#45;&gt;Node1</title>
<path fill="none" stroke="midnightblue" d="M181.51,-60.31C171.16,-50.56 159.16,-39.26 149.94,-30.58"/>
<polygon fill="midnightblue" stroke="midnightblue" points="179.35,-63.09 189.03,-67.4 184.15,-57.99 179.35,-63.09"/>
</g>
</g>
</svg>
