<?xml version="1.0" encoding="UTF-8" standalone="no"?>
<!DOCTYPE svg PUBLIC "-//W3C//DTD SVG 1.1//EN"
 "http://www.w3.org/Graphics/SVG/1.1/DTD/svg11.dtd">
<!-- Generated by graphviz version 2.43.0 (0)
 -->
<!-- Title: Graphical Class Hierarchy Pages: 1 -->
<svg width="293pt" height="264pt"
 viewBox="0.00 0.00 293.00 264.00" xmlns="http://www.w3.org/2000/svg" xmlns:xlink="http://www.w3.org/1999/xlink">
<g id="graph0" class="graph" transform="scale(1 1) rotate(0) translate(4 260)">
<title>Graphical Class Hierarchy</title>
<!-- Node0 -->
<g id="Node000000" class="node">
<title>Node0</title>
<g id="a_Node000000"><a xlink:title=" ">
<polygon fill="#e0e0e0" stroke="#999999" points="102,-148.5 0,-148.5 0,-129.5 102,-129.5 102,-148.5"/>
<text text-anchor="middle" x="51" y="-136.5" font-family="Helvetica,sans-Serif" font-size="10.00">std::type_identity</text>
</a>
</g>
</g>
<!-- Node1 -->
<g id="Node000001" class="node">
<title>Node1</title>
<g id="a_Node000001"><a xlink:href="structcsl_1_1ensure_1_1type__traits_1_1unwrap__result__type.html" target="_top" xlink:title=" ">
<polygon fill="white" stroke="#666666" points="275.5,-256 147.5,-256 147.5,-226 275.5,-226 275.5,-256"/>
<text text-anchor="start" x="155.5" y="-244" font-family="Helvetica,sans-Serif" font-size="10.00">csl::ensure::type_traits</text>
<text text-anchor="middle" x="211.5" y="-233" font-family="Helvetica,sans-Serif" font-size="10.00">::type&lt; T &gt;</text>
</a>
</g>
</g>
<!-- Node0&#45;&gt;Node1 -->
<g id="edge11_Node000000_Node000001" class="edge">
<title>Node0&#45;&gt;Node1</title>
<g id="a_edge11_Node000000_Node000001"><a xlink:title=" ">
<path fill="none" stroke="#63b8ff" d="M66.99,-156.31C82.99,-173.82 109.87,-200.59 138,-217 143.73,-220.34 149.98,-223.29 156.34,-225.88"/>
<polygon fill="#63b8ff" stroke="#63b8ff" points="69.32,-153.67 60.05,-148.54 64.1,-158.33 69.32,-153.67"/>
</a>
</g>
</g>
<!-- Node2 -->
<g id="Node000002" class="node">
<title>Node2</title>
<g id="a_Node000002"><a xlink:href="structcsl_1_1ensure_1_1type__traits_1_1unwrap__result__type_3_01T_01_4.html" target="_top" xlink:title=" ">
<polygon fill="white" stroke="#666666" points="285,-208 138,-208 138,-178 285,-178 285,-208"/>
<text text-anchor="start" x="146" y="-196" font-family="Helvetica,sans-Serif" font-size="10.00">csl::ensure::type_traits</text>
<text text-anchor="middle" x="211.5" y="-185" font-family="Helvetica,sans-Serif" font-size="10.00">::unwrap_result_type&lt; T &gt;</text>
</a>
</g>
</g>
<!-- Node0&#45;&gt;Node2 -->
<g id="edge12_Node000000_Node000002" class="edge">
<title>Node0&#45;&gt;Node2</title>
<g id="a_edge12_Node000000_Node000002"><a xlink:title=" ">
<path fill="none" stroke="#63b8ff" d="M88.66,-151.93C103.91,-157.27 121.79,-163.49 138,-169 146.54,-171.9 155.65,-174.95 164.44,-177.87"/>
<polygon fill="#63b8ff" stroke="#63b8ff" points="89.67,-148.58 79.08,-148.57 87.35,-155.18 89.67,-148.58"/>
</a>
</g>
</g>
<!-- Node3 -->
<g id="Node000003" class="node">
<title>Node3</title>
<g id="a_Node000003"><a xlink:href="structcsl_1_1ensure_1_1type__traits_1_1tag__type_3_01csl_1_1ensure_1_1strong__type_3_01T_00_01tag_01_4_01_4.html" target="_top" xlink:title=" ">
<polygon fill="white" stroke="#666666" points="282.5,-159.5 140.5,-159.5 140.5,-118.5 282.5,-118.5 282.5,-159.5"/>
<text text-anchor="start" x="148.5" y="-147.5" font-family="Helvetica,sans-Serif" font-size="10.00">csl::ensure::type_traits</text>
<text text-anchor="start" x="148.5" y="-136.5" font-family="Helvetica,sans-Serif" font-size="10.00">::tag_type&lt; csl::ensure</text>
<text text-anchor="middle" x="211.5" y="-125.5" font-family="Helvetica,sans-Serif" font-size="10.00">::strong_type&lt; T, tag &gt; &gt;</text>
</a>
</g>
</g>
<!-- Node0&#45;&gt;Node3 -->
<g id="edge13_Node000000_Node000003" class="edge">
<title>Node0&#45;&gt;Node3</title>
<g id="a_edge13_Node000000_Node000003"><a xlink:title=" ">
<path fill="none" stroke="#63b8ff" d="M112.33,-139C121.5,-139 131.04,-139 140.4,-139"/>
<polygon fill="#63b8ff" stroke="#63b8ff" points="112.15,-135.5 102.15,-139 112.15,-142.5 112.15,-135.5"/>
</a>
</g>
</g>
<!-- Node4 -->
<g id="Node000004" class="node">
<title>Node4</title>
<g id="a_Node000004"><a xlink:href="structcsl_1_1ensure_1_1type__traits_1_1underlying__type_3_01csl_1_1ensure_1_1strong__type_3_01T_00_01tag_01_4_01_4.html" target="_top" xlink:title=" ">
<polygon fill="white" stroke="#666666" points="281.5,-100 141.5,-100 141.5,-48 281.5,-48 281.5,-100"/>
<text text-anchor="start" x="149.5" y="-88" font-family="Helvetica,sans-Serif" font-size="10.00">csl::ensure::type_traits</text>
<text text-anchor="start" x="149.5" y="-77" font-family="Helvetica,sans-Serif" font-size="10.00">::underlying_type&lt; csl</text>
<text text-anchor="start" x="149.5" y="-66" font-family="Helvetica,sans-Serif" font-size="10.00">::ensure::strong_type&lt; T,</text>
<text text-anchor="middle" x="211.5" y="-55" font-family="Helvetica,sans-Serif" font-size="10.00"> tag &gt; &gt;</text>
</a>
</g>
</g>
<!-- Node0&#45;&gt;Node4 -->
<g id="edge14_Node000000_Node000004" class="edge">
<title>Node0&#45;&gt;Node4</title>
<g id="a_edge14_Node000000_Node000004"><a xlink:title=" ">
<path fill="none" stroke="#63b8ff" d="M84.81,-125.54C102.77,-118.18 125.63,-108.8 146.93,-100.07"/>
<polygon fill="#63b8ff" stroke="#63b8ff" points="83.31,-122.38 75.39,-129.41 85.97,-128.85 83.31,-122.38"/>
</a>
</g>
</g>
<!-- Node5 -->
<g id="Node000005" class="node">
<title>Node5</title>
<g id="a_Node000005"><a xlink:href="structcsl_1_1ensure_1_1type__traits_1_1unwrap__result__type.html" target="_top" xlink:title=" ">
<polygon fill="white" stroke="#666666" points="285,-30 138,-30 138,0 285,0 285,-30"/>
<text text-anchor="start" x="146" y="-18" font-family="Helvetica,sans-Serif" font-size="10.00">csl::ensure::type_traits</text>
<text text-anchor="middle" x="211.5" y="-7" font-family="Helvetica,sans-Serif" font-size="10.00">::unwrap_result_type&lt; T &gt;</text>
</a>
</g>
</g>
<!-- Node0&#45;&gt;Node5 -->
<g id="edge15_Node000000_Node000005" class="edge">
<title>Node0&#45;&gt;Node5</title>
<g id="a_edge15_Node000000_Node000005"><a xlink:title=" ">
<path fill="none" stroke="#63b8ff" d="M63.26,-120.65C77.86,-98.31 105.37,-60.85 138,-39 143.07,-35.61 148.65,-32.66 154.41,-30.1"/>
<polygon fill="#63b8ff" stroke="#63b8ff" points="60.23,-118.89 57.81,-129.21 66.13,-122.65 60.23,-118.89"/>
</a>
</g>
</g>
</g>
</svg>
