<?xml version="1.0" encoding="UTF-8" standalone="no"?>
<!DOCTYPE svg PUBLIC "-//W3C//DTD SVG 1.1//EN"
 "http://www.w3.org/Graphics/SVG/1.1/DTD/svg11.dtd">
<!-- Generated by graphviz version 2.43.0 (0)
 -->
<!-- Title: Graphical Class Hierarchy Pages: 1 -->
<svg width="315pt" height="379pt"
 viewBox="0.00 0.00 315.00 378.50" xmlns="http://www.w3.org/2000/svg" xmlns:xlink="http://www.w3.org/1999/xlink">
<g id="graph0" class="graph" transform="scale(1 1) rotate(0) translate(4 374.5)">
<title>Graphical Class Hierarchy</title>
<!-- Node0 -->
<g id="Node000000" class="node">
<title>Node0</title>
<g id="a_Node000000"><a xlink:title=" ">
<polygon fill="#e0e0e0" stroke="#999999" points="89,-173 0,-173 0,-154 89,-154 89,-173"/>
<text text-anchor="middle" x="44.5" y="-161" font-family="Helvetica,sans-Serif" font-size="10.00">std::false_type</text>
</a>
</g>
</g>
<!-- Node1 -->
<g id="Node000001" class="node">
<title>Node1</title>
<g id="a_Node000001"><a xlink:href="structcsl_1_1ensure_1_1type__traits_1_1is__strong__type_3_01csl_1_1ensure_1_1strong__type_3_01T_00_01tag_01_4_01_4.html" target="_top" xlink:title=" ">
<polygon fill="white" stroke="#666666" points="283,-370.5 149,-370.5 149,-318.5 283,-318.5 283,-370.5"/>
<text text-anchor="start" x="157" y="-358.5" font-family="Helvetica,sans-Serif" font-size="10.00">csl::ensure::type_traits</text>
<text text-anchor="start" x="157" y="-347.5" font-family="Helvetica,sans-Serif" font-size="10.00">::is_strong_type&lt; csl::</text>
<text text-anchor="start" x="157" y="-336.5" font-family="Helvetica,sans-Serif" font-size="10.00">ensure::strong_type&lt; T,</text>
<text text-anchor="middle" x="216" y="-325.5" font-family="Helvetica,sans-Serif" font-size="10.00"> tag &gt; &gt;</text>
</a>
</g>
</g>
<!-- Node0&#45;&gt;Node1 -->
<g id="edge2_Node000000_Node000001" class="edge">
<title>Node0&#45;&gt;Node1</title>
<g id="a_edge2_Node000000_Node000001"><a xlink:title=" ">
<path fill="none" stroke="#63b8ff" d="M54.92,-182.48C73.58,-219.86 114.4,-300.18 125,-309.5 132.05,-315.7 140.32,-320.86 148.94,-325.15"/>
<polygon fill="#63b8ff" stroke="#63b8ff" points="57.87,-180.57 50.28,-173.18 51.61,-183.69 57.87,-180.57"/>
</a>
</g>
</g>
<!-- Node3 -->
<g id="Node000003" class="node">
<title>Node3</title>
<g id="a_Node000003"><a xlink:href="structcsl_1_1ensure_1_1type__traits_1_1is__strong__type__of_3_01csl_1_1ensure_1_1strong__type_3_278d03b3379a243c4468182589364d4c.html" target="_top" xlink:title=" ">
<polygon fill="white" stroke="#666666" points="296.5,-300 135.5,-300 135.5,-237 296.5,-237 296.5,-300"/>
<text text-anchor="start" x="143.5" y="-288" font-family="Helvetica,sans-Serif" font-size="10.00">csl::ensure::type_traits</text>
<text text-anchor="start" x="143.5" y="-277" font-family="Helvetica,sans-Serif" font-size="10.00">::is_strong_type_of&lt; csl</text>
<text text-anchor="start" x="143.5" y="-266" font-family="Helvetica,sans-Serif" font-size="10.00">::ensure::strong_type&lt; strong</text>
<text text-anchor="start" x="143.5" y="-255" font-family="Helvetica,sans-Serif" font-size="10.00">_underlying_t, strong_tag_t</text>
<text text-anchor="middle" x="216" y="-244" font-family="Helvetica,sans-Serif" font-size="10.00"> &gt;, strong_underlying_t &gt;</text>
</a>
</g>
</g>
<!-- Node0&#45;&gt;Node3 -->
<g id="edge3_Node000000_Node000003" class="edge">
<title>Node0&#45;&gt;Node3</title>
<g id="a_edge3_Node000000_Node000003"><a xlink:title=" ">
<path fill="none" stroke="#63b8ff" d="M63.41,-180.1C78.91,-193.92 102.35,-213.53 125,-227.5 130.26,-230.74 135.82,-233.89 141.5,-236.89"/>
<polygon fill="#63b8ff" stroke="#63b8ff" points="65.43,-177.21 55.67,-173.09 60.73,-182.4 65.43,-177.21"/>
</a>
</g>
</g>
<!-- Node4 -->
<g id="Node000004" class="node">
<title>Node4</title>
<g id="a_Node000004"><a xlink:href="structcsl_1_1ensure_1_1type__traits_1_1is__tagged__by_3_01csl_1_1ensure_1_1strong__type_3_01stroa832901c0edf7e41bac213e26e3a0af9.html" target="_top" xlink:title=" ">
<polygon fill="white" stroke="#666666" points="307,-218.5 125,-218.5 125,-166.5 307,-166.5 307,-218.5"/>
<text text-anchor="start" x="133" y="-206.5" font-family="Helvetica,sans-Serif" font-size="10.00">csl::ensure::type_traits</text>
<text text-anchor="start" x="133" y="-195.5" font-family="Helvetica,sans-Serif" font-size="10.00">::is_tagged_by&lt; csl::ensure</text>
<text text-anchor="start" x="133" y="-184.5" font-family="Helvetica,sans-Serif" font-size="10.00">::strong_type&lt; strong_underlying</text>
<text text-anchor="middle" x="216" y="-173.5" font-family="Helvetica,sans-Serif" font-size="10.00">_t, strong_tag_t &gt;, strong_tag_t &gt;</text>
</a>
</g>
</g>
<!-- Node0&#45;&gt;Node4 -->
<g id="edge4_Node000000_Node000004" class="edge">
<title>Node0&#45;&gt;Node4</title>
<g id="a_edge4_Node000000_Node000004"><a xlink:title=" ">
<path fill="none" stroke="#63b8ff" d="M99.23,-172.69C107.4,-174.09 116.01,-175.56 124.7,-177.05"/>
<polygon fill="#63b8ff" stroke="#63b8ff" points="99.6,-169.2 89.15,-170.97 98.42,-176.1 99.6,-169.2"/>
</a>
</g>
</g>
<!-- Node5 -->
<g id="Node000005" class="node">
<title>Node5</title>
<g id="a_Node000005"><a xlink:href="structcsl_1_1ensure_1_1type__traits_1_1is__strong__type.html" target="_top" xlink:title=" ">
<polygon fill="white" stroke="#666666" points="299,-148.5 133,-148.5 133,-118.5 299,-118.5 299,-148.5"/>
<text text-anchor="start" x="141" y="-136.5" font-family="Helvetica,sans-Serif" font-size="10.00">csl::ensure::type_traits</text>
<text text-anchor="middle" x="216" y="-125.5" font-family="Helvetica,sans-Serif" font-size="10.00">::is_strong_type&lt; typename &gt;</text>
</a>
</g>
</g>
<!-- Node0&#45;&gt;Node5 -->
<g id="edge5_Node000000_Node000005" class="edge">
<title>Node0&#45;&gt;Node5</title>
<g id="a_edge5_Node000000_Node000005"><a xlink:title=" ">
<path fill="none" stroke="#63b8ff" d="M99.21,-153.99C109.97,-152.09 121.51,-150.05 132.99,-148.02"/>
<polygon fill="#63b8ff" stroke="#63b8ff" points="98.39,-150.58 89.15,-155.77 99.61,-157.48 98.39,-150.58"/>
</a>
</g>
</g>
<!-- Node6 -->
<g id="Node000006" class="node">
<title>Node6</title>
<g id="a_Node000006"><a xlink:href="structcsl_1_1ensure_1_1type__traits_1_1is__strong__type__of.html" target="_top" xlink:title=" ">
<polygon fill="white" stroke="#666666" points="302.5,-100 129.5,-100 129.5,-59 302.5,-59 302.5,-100"/>
<text text-anchor="start" x="137.5" y="-88" font-family="Helvetica,sans-Serif" font-size="10.00">csl::ensure::type_traits</text>
<text text-anchor="start" x="137.5" y="-77" font-family="Helvetica,sans-Serif" font-size="10.00">::is_strong_type_of&lt; typename,</text>
<text text-anchor="middle" x="216" y="-66" font-family="Helvetica,sans-Serif" font-size="10.00"> typename &gt;</text>
</a>
</g>
</g>
<!-- Node0&#45;&gt;Node6 -->
<g id="edge6_Node000000_Node000006" class="edge">
<title>Node0&#45;&gt;Node6</title>
<g id="a_edge6_Node000000_Node000006"><a xlink:title=" ">
<path fill="none" stroke="#63b8ff" d="M65.54,-147.6C81.07,-135.86 103.5,-120.13 125,-109.5 131.79,-106.14 139.05,-103.02 146.38,-100.16"/>
<polygon fill="#63b8ff" stroke="#63b8ff" points="63.04,-145.11 57.25,-153.98 67.31,-150.65 63.04,-145.11"/>
</a>
</g>
</g>
<!-- Node7 -->
<g id="Node000007" class="node">
<title>Node7</title>
<g id="a_Node000007"><a xlink:href="structcsl_1_1ensure_1_1type__traits_1_1is__tagged__by.html" target="_top" xlink:title=" ">
<polygon fill="white" stroke="#666666" points="291.5,-41 140.5,-41 140.5,0 291.5,0 291.5,-41"/>
<text text-anchor="start" x="148.5" y="-29" font-family="Helvetica,sans-Serif" font-size="10.00">csl::ensure::type_traits</text>
<text text-anchor="start" x="148.5" y="-18" font-family="Helvetica,sans-Serif" font-size="10.00">::is_tagged_by&lt; typename,</text>
<text text-anchor="middle" x="216" y="-7" font-family="Helvetica,sans-Serif" font-size="10.00"> typename &gt;</text>
</a>
</g>
</g>
<!-- Node0&#45;&gt;Node7 -->
<g id="edge7_Node000000_Node000007" class="edge">
<title>Node0&#45;&gt;Node7</title>
<g id="a_edge7_Node000000_Node000007"><a xlink:title=" ">
<path fill="none" stroke="#63b8ff" d="M53.8,-144.74C65.9,-119.5 90.73,-74.85 125,-49.5 129.75,-45.99 134.95,-42.89 140.37,-40.16"/>
<polygon fill="#63b8ff" stroke="#63b8ff" points="50.55,-143.42 49.53,-153.97 56.91,-146.36 50.55,-143.42"/>
</a>
</g>
</g>
<!-- Node2 -->
<g id="Node000002" class="node">
<title>Node2</title>
<g id="a_Node000002"><a xlink:title=" ">
<polygon fill="#e0e0e0" stroke="#999999" points="86.5,-278 2.5,-278 2.5,-259 86.5,-259 86.5,-278"/>
<text text-anchor="middle" x="44.5" y="-266" font-family="Helvetica,sans-Serif" font-size="10.00">std::true_type</text>
</a>
</g>
</g>
<!-- Node2&#45;&gt;Node1 -->
<g id="edge8_Node000002_Node000001" class="edge">
<title>Node2&#45;&gt;Node1</title>
<g id="a_edge8_Node000002_Node000001"><a xlink:title=" ">
<path fill="none" stroke="#63b8ff" d="M71.83,-282.96C87.15,-291.16 106.94,-301.36 125,-309.5 132.64,-312.94 140.73,-316.38 148.8,-319.68"/>
<polygon fill="#63b8ff" stroke="#63b8ff" points="73.38,-279.83 62.92,-278.16 70.06,-285.99 73.38,-279.83"/>
</a>
</g>
</g>
<!-- Node2&#45;&gt;Node3 -->
<g id="edge9_Node000002_Node000003" class="edge">
<title>Node2&#45;&gt;Node3</title>
<g id="a_edge9_Node000002_Node000003"><a xlink:title=" ">
<path fill="none" stroke="#63b8ff" d="M96.86,-268.5C108.97,-268.5 122.16,-268.5 135.19,-268.5"/>
<polygon fill="#63b8ff" stroke="#63b8ff" points="96.53,-265 86.53,-268.5 96.53,-272 96.53,-265"/>
</a>
</g>
</g>
<!-- Node2&#45;&gt;Node4 -->
<g id="edge10_Node000002_Node000004" class="edge">
<title>Node2&#45;&gt;Node4</title>
<g id="a_edge10_Node000002_Node000004"><a xlink:title=" ">
<path fill="none" stroke="#63b8ff" d="M72.5,-254.19C87.75,-246.29 107.27,-236.49 125,-228.5 132.36,-225.18 140.13,-221.84 147.89,-218.61"/>
<polygon fill="#63b8ff" stroke="#63b8ff" points="70.85,-251.11 63.6,-258.84 74.08,-257.31 70.85,-251.11"/>
</a>
</g>
</g>
</g>
</svg>
