<?xml version="1.0" encoding="UTF-8" standalone="no"?>
<!DOCTYPE svg PUBLIC "-//W3C//DTD SVG 1.1//EN"
 "http://www.w3.org/Graphics/SVG/1.1/DTD/svg11.dtd">
<!-- Generated by graphviz version 2.43.0 (0)
 -->
<!-- Title: csl::ensure::type_traits::unwrap_result_type&lt; T &gt; Pages: 1 -->
<svg width="274pt" height="115pt"
 viewBox="0.00 0.00 273.50 115.00" xmlns="http://www.w3.org/2000/svg" xmlns:xlink="http://www.w3.org/1999/xlink">
<g id="graph0" class="graph" transform="scale(1 1) rotate(0) translate(4 111)">
<title>csl::ensure::type_traits::unwrap_result_type&lt; T &gt;</title>
<!-- Node1 -->
<g id="Node000001" class="node">
<title>Node1</title>
<g id="a_Node000001"><a xlink:title=" ">
<polygon fill="#999999" stroke="#666666" points="210,-30 63,-30 63,0 210,0 210,-30"/>
<text text-anchor="start" x="71" y="-18" font-family="Helvetica,sans-Serif" font-size="10.00">csl::ensure::type_traits</text>
<text text-anchor="middle" x="136.5" y="-7" font-family="Helvetica,sans-Serif" font-size="10.00">::unwrap_result_type&lt; T &gt;</text>
</a>
</g>
</g>
<!-- Node2 -->
<g id="Node000002" class="node">
<title>Node2</title>
<g id="a_Node000002"><a xlink:title=" ">
<polygon fill="white" stroke="#bfbfbf" points="131,-96 0,-96 0,-77 131,-77 131,-96"/>
<text text-anchor="middle" x="65.5" y="-84" font-family="Helvetica,sans-Serif" font-size="10.00">std::type_identity&lt; T &gt;</text>
</a>
</g>
</g>
<!-- Node2&#45;&gt;Node1 -->
<g id="edge1_Node000001_Node000002" class="edge">
<title>Node2&#45;&gt;Node1</title>
<g id="a_edge1_Node000001_Node000002"><a xlink:title=" ">
<path fill="none" stroke="#63b8ff" d="M81.47,-69.87C93.65,-57.95 110.28,-41.67 122.06,-30.14"/>
<polygon fill="#63b8ff" stroke="#63b8ff" points="78.9,-67.48 74.21,-76.98 83.8,-72.48 78.9,-67.48"/>
</a>
</g>
</g>
<!-- Node3 -->
<g id="Node000003" class="node">
<title>Node3</title>
<g id="a_Node000003"><a xlink:title=" ">
<polygon fill="white" stroke="#bfbfbf" points="265.5,-107 149.5,-107 149.5,-66 265.5,-66 265.5,-107"/>
<text text-anchor="start" x="157.5" y="-95" font-family="Helvetica,sans-Serif" font-size="10.00">std::type_identity</text>
<text text-anchor="start" x="157.5" y="-84" font-family="Helvetica,sans-Serif" font-size="10.00">&lt; underlying_type_t</text>
<text text-anchor="middle" x="207.5" y="-73" font-family="Helvetica,sans-Serif" font-size="10.00">&lt; T &gt; &gt;</text>
</a>
</g>
</g>
<!-- Node3&#45;&gt;Node1 -->
<g id="edge2_Node000001_Node000003" class="edge">
<title>Node3&#45;&gt;Node1</title>
<g id="a_edge2_Node000001_Node000003"><a xlink:title=" ">
<path fill="none" stroke="#63b8ff" d="M179.97,-58.55C170.02,-48.81 159.2,-38.22 150.84,-30.04"/>
<polygon fill="#63b8ff" stroke="#63b8ff" points="177.75,-61.28 187.34,-65.77 182.65,-56.27 177.75,-61.28"/>
</a>
</g>
</g>
</g>
</svg>
