<?xml version="1.0" encoding="UTF-8" standalone="no"?>
<!DOCTYPE svg PUBLIC "-//W3C//DTD SVG 1.1//EN"
 "http://www.w3.org/Graphics/SVG/1.1/DTD/svg11.dtd">
<!-- Generated by graphviz version 2.43.0 (0)
 -->
<!-- Title: csl Pages: 1 -->
<svg width="1752pt" height="294pt"
 viewBox="0.00 0.00 1751.81 294.15" xmlns="http://www.w3.org/2000/svg" xmlns:xlink="http://www.w3.org/1999/xlink">
<g id="graph0" class="graph" transform="scale(1 1) rotate(0) translate(4 290.15)">
<title>csl</title>
<polygon fill="white" stroke="transparent" points="-4,4 -4,-290.15 1747.81,-290.15 1747.81,4 -4,4"/>
<g id="clust1" class="cluster">
<title>clusterLegend</title>
<polygon fill="none" stroke="black" points="8,-8 8,-278.15 636,-278.15 636,-8 8,-8"/>
<text text-anchor="middle" x="322" y="-262.95" font-family="Times,serif" font-size="14.00">Legend</text>
</g>
<!-- legendNode0 -->
<g id="node1" class="node">
<title>legendNode0</title>
<polygon fill="none" stroke="black" points="339.03,-211.2 342.36,-211.3 345.65,-211.45 348.89,-211.64 352.08,-211.89 355.19,-212.18 358.22,-212.52 361.14,-212.9 363.96,-213.33 366.66,-213.8 369.23,-214.31 371.66,-214.87 373.95,-215.46 376.08,-216.09 378.05,-216.76 379.86,-217.46 381.5,-218.19 382.96,-218.95 384.25,-219.74 385.36,-220.56 386.29,-221.4 387.05,-222.26 387.63,-223.14 388.03,-224.04 388.26,-224.95 388.32,-225.87 388.22,-226.8 387.96,-227.74 387.54,-228.68 386.97,-229.62 386.26,-230.56 385.42,-231.5 384.44,-232.43 383.35,-233.35 382.13,-234.27 380.81,-235.16 379.39,-236.04 377.88,-236.9 376.28,-237.74 374.6,-238.56 372.85,-239.35 371.04,-240.11 369.16,-240.85 367.24,-241.55 365.27,-242.21 363.25,-242.84 361.2,-243.44 359.12,-243.99 357.01,-244.5 354.88,-244.98 352.73,-245.4 350.56,-245.79 348.38,-246.12 346.18,-246.42 343.98,-246.66 341.77,-246.86 339.55,-247 337.33,-247.1 335.11,-247.15 332.89,-247.15 330.67,-247.1 328.45,-247 326.23,-246.86 324.02,-246.66 321.82,-246.42 319.62,-246.12 317.44,-245.79 315.27,-245.4 313.12,-244.98 310.99,-244.5 308.88,-243.99 306.8,-243.44 304.75,-242.84 302.73,-242.21 300.76,-241.55 298.84,-240.85 296.96,-240.11 295.15,-239.35 293.4,-238.56 291.72,-237.74 290.12,-236.9 288.61,-236.04 287.19,-235.16 285.87,-234.27 284.65,-233.35 283.56,-232.43 282.58,-231.5 281.74,-230.56 281.03,-229.62 280.46,-228.68 280.04,-227.74 279.78,-226.8 279.68,-225.87 279.74,-224.95 279.97,-224.04 280.37,-223.14 280.95,-222.26 281.71,-221.4 282.64,-220.56 283.75,-219.74 285.04,-218.95 286.5,-218.19 288.14,-217.46 289.95,-216.76 291.92,-216.09 294.05,-215.46 296.34,-214.87 298.77,-214.31 301.34,-213.8 304.04,-213.33 306.86,-212.9 309.78,-212.52 312.81,-212.18 315.92,-211.89 319.11,-211.64 322.35,-211.45 325.64,-211.3 328.97,-211.2 332.32,-211.15 335.68,-211.15 339.03,-211.2"/>
<text text-anchor="middle" x="334" y="-226.05" font-family="Times,serif" font-size="12.00">Executable</text>
</g>
<!-- legendNode1 -->
<g id="node2" class="node">
<title>legendNode1</title>
<polygon fill="none" stroke="black" points="150.09,-125.26 150.09,-140.17 110.79,-150.72 55.21,-150.72 15.91,-140.17 15.91,-125.26 55.21,-114.72 110.79,-114.72 150.09,-125.26"/>
<text text-anchor="middle" x="83" y="-129.62" font-family="Times,serif" font-size="12.00">Static Library</text>
</g>
<!-- legendNode0&#45;&gt;legendNode1 -->
<g id="edge1" class="edge">
<title>legendNode0&#45;&gt;legendNode1</title>
<path fill="none" stroke="black" d="M297.77,-214.52C253.73,-197.95 179.29,-169.94 130.64,-151.64"/>
<polygon fill="black" stroke="black" points="131.87,-148.36 121.28,-148.12 129.4,-154.92 131.87,-148.36"/>
</g>
<!-- legendNode2 -->
<g id="node3" class="node">
<title>legendNode2</title>
<polygon fill="none" stroke="black" points="319.1,-125.26 319.1,-140.17 276.28,-150.72 215.72,-150.72 172.9,-140.17 172.9,-125.26 215.72,-114.72 276.28,-114.72 319.1,-125.26"/>
<polygon fill="none" stroke="black" points="323.09,-122.12 323.09,-143.31 276.76,-154.72 215.24,-154.72 168.91,-143.31 168.91,-122.12 215.24,-110.72 276.76,-110.72 323.09,-122.12"/>
<text text-anchor="middle" x="246" y="-129.62" font-family="Times,serif" font-size="12.00">Shared Library</text>
</g>
<!-- legendNode0&#45;&gt;legendNode2 -->
<g id="edge2" class="edge">
<title>legendNode0&#45;&gt;legendNode2</title>
<path fill="none" stroke="black" d="M318.27,-211.27C305.61,-197.68 287.53,-178.29 272.63,-162.29"/>
<polygon fill="black" stroke="black" points="274.98,-159.68 265.6,-154.75 269.86,-164.45 274.98,-159.68"/>
</g>
<!-- legendNode3 -->
<g id="node4" class="node">
<title>legendNode3</title>
<polygon fill="none" stroke="black" points="496.92,-125.26 496.92,-140.17 453.62,-150.72 392.38,-150.72 349.08,-140.17 349.08,-125.26 392.38,-114.72 453.62,-114.72 496.92,-125.26"/>
<polygon fill="none" stroke="black" points="500.92,-122.12 500.92,-143.32 454.1,-154.72 391.9,-154.72 345.08,-143.32 345.08,-122.12 391.9,-110.72 454.1,-110.72 500.92,-122.12"/>
<polygon fill="none" stroke="black" points="504.92,-118.97 504.92,-146.46 454.58,-158.72 391.42,-158.72 341.08,-146.46 341.08,-118.97 391.42,-106.72 454.58,-106.72 504.92,-118.97"/>
<text text-anchor="middle" x="423" y="-129.62" font-family="Times,serif" font-size="12.00">Module Library</text>
</g>
<!-- legendNode0&#45;&gt;legendNode3 -->
<!-- legendNode7 -->
<g id="node8" class="node">
<title>legendNode7</title>
<polygon fill="none" stroke="black" points="627.5,-150.72 522.5,-150.72 522.5,-114.72 627.5,-114.72 627.5,-150.72"/>
<text text-anchor="middle" x="575" y="-129.62" font-family="Times,serif" font-size="12.00">Custom Target</text>
</g>
<!-- legendNode0&#45;&gt;legendNode7 -->
<!-- legendNode4 -->
<g id="node5" class="node">
<title>legendNode4</title>
<polygon fill="none" stroke="black" points="200.14,-39.56 108,-52 15.86,-39.56 51.05,-19.44 164.95,-19.44 200.14,-39.56"/>
<text text-anchor="middle" x="108" y="-30.9" font-family="Times,serif" font-size="12.00">Interface Library</text>
</g>
<!-- legendNode1&#45;&gt;legendNode4 -->
<g id="edge4" class="edge">
<title>legendNode1&#45;&gt;legendNode4</title>
<path fill="none" stroke="black" stroke-dasharray="5,2" d="M87.47,-114.43C91.28,-99.67 96.83,-78.21 101.2,-61.32"/>
<polygon fill="black" stroke="black" points="104.62,-62.05 103.74,-51.5 97.84,-60.3 104.62,-62.05"/>
<text text-anchor="middle" x="131.5" y="-73.8" font-family="Times,serif" font-size="14.00">Interface</text>
</g>
<!-- legendNode5 -->
<g id="node6" class="node">
<title>legendNode5</title>
<polygon fill="none" stroke="black" points="367.77,-34 330.39,-52 255.61,-52 218.23,-34 255.61,-16 330.39,-16 367.77,-34"/>
<text text-anchor="middle" x="293" y="-30.9" font-family="Times,serif" font-size="12.00">Object Library</text>
</g>
<!-- legendNode2&#45;&gt;legendNode5 -->
<g id="edge5" class="edge">
<title>legendNode2&#45;&gt;legendNode5</title>
<path fill="none" stroke="black" stroke-dasharray="1,5" d="M256.43,-110.25C263.46,-95.78 272.78,-76.6 280.26,-61.22"/>
<polygon fill="black" stroke="black" points="283.41,-62.74 284.63,-52.22 277.11,-59.68 283.41,-62.74"/>
<text text-anchor="middle" x="302" y="-73.8" font-family="Times,serif" font-size="14.00">Private</text>
</g>
<!-- legendNode6 -->
<g id="node7" class="node">
<title>legendNode6</title>
<polygon fill="none" stroke="black" points="554.95,-29.99 538.12,-45.22 470,-52 401.88,-45.22 385.05,-29.99 432.2,-17.78 507.8,-17.78 554.95,-29.99"/>
<text text-anchor="middle" x="470" y="-30.9" font-family="Times,serif" font-size="12.00">Unknown Library</text>
</g>
<!-- legendNode3&#45;&gt;legendNode6 -->
<g id="edge6" class="edge">
<title>legendNode3&#45;&gt;legendNode6</title>
<path fill="none" stroke="black" d="M435.23,-106.56C442.12,-92.37 450.71,-74.69 457.63,-60.45"/>
<polygon fill="black" stroke="black" points="460.89,-61.76 462.11,-51.23 454.59,-58.7 460.89,-61.76"/>
</g>
<!-- node0 -->
<g id="node9" class="node">
<title>node0</title>
<polygon fill="none" stroke="black" points="1279.87,-238.4 1222,-259.09 1164.13,-238.4 1186.23,-204.93 1257.77,-204.93 1279.87,-238.4"/>
<text text-anchor="middle" x="1222" y="-232.55" font-family="Times,serif" font-size="12.00">csl</text>
<text text-anchor="middle" x="1222" y="-219.55" font-family="Times,serif" font-size="12.00">(csl::csl)</text>
</g>
<!-- node1 -->
<g id="node10" class="node">
<title>node1</title>
<polygon fill="none" stroke="black" points="758.62,-141.97 702,-162.65 645.38,-141.97 667,-108.5 737,-108.5 758.62,-141.97"/>
<text text-anchor="middle" x="702" y="-136.12" font-family="Times,serif" font-size="12.00">csl_ag</text>
<text text-anchor="middle" x="702" y="-123.12" font-family="Times,serif" font-size="12.00">(csl::ag)</text>
</g>
<!-- node0&#45;&gt;node1 -->
<g id="edge8" class="edge">
<title>node0&#45;&gt;node1</title>
<path fill="none" stroke="black" stroke-dasharray="5,2" d="M1172.6,-225.43C1088.05,-219.8 910.83,-203.75 767,-162.43 759.74,-160.35 752.24,-157.62 745.03,-154.68"/>
<polygon fill="black" stroke="black" points="745.99,-151.28 735.42,-150.56 743.24,-157.72 745.99,-151.28"/>
</g>
<!-- node2 -->
<g id="node11" class="node">
<title>node2</title>
<polygon fill="none" stroke="black" points="933.83,-141.97 855,-162.65 776.17,-141.97 806.28,-108.5 903.72,-108.5 933.83,-141.97"/>
<text text-anchor="middle" x="855" y="-136.12" font-family="Times,serif" font-size="12.00">csl_ensure</text>
<text text-anchor="middle" x="855" y="-123.12" font-family="Times,serif" font-size="12.00">(csl::ensure)</text>
</g>
<!-- node0&#45;&gt;node2 -->
<g id="edge9" class="edge">
<title>node0&#45;&gt;node2</title>
<path fill="none" stroke="black" stroke-dasharray="5,2" d="M1176.76,-218.72C1121.33,-206.89 1024.7,-185.34 943,-162.43 933.25,-159.7 922.97,-156.57 913.01,-153.41"/>
<polygon fill="black" stroke="black" points="913.78,-149.98 903.19,-150.25 911.64,-156.65 913.78,-149.98"/>
</g>
<!-- node3 -->
<g id="node12" class="node">
<title>node3</title>
<polygon fill="none" stroke="black" points="1144.29,-141.97 1048,-162.65 951.71,-141.97 988.49,-108.5 1107.51,-108.5 1144.29,-141.97"/>
<text text-anchor="middle" x="1048" y="-136.12" font-family="Times,serif" font-size="12.00">csl_functional</text>
<text text-anchor="middle" x="1048" y="-123.12" font-family="Times,serif" font-size="12.00">(csl::functional)</text>
</g>
<!-- node0&#45;&gt;node3 -->
<g id="edge10" class="edge">
<title>node0&#45;&gt;node3</title>
<path fill="none" stroke="black" stroke-dasharray="5,2" d="M1184.24,-207.66C1158.09,-193.47 1123.08,-174.47 1095.1,-159.28"/>
<polygon fill="black" stroke="black" points="1096.74,-156.19 1086.28,-154.49 1093.4,-162.34 1096.74,-156.19"/>
</g>
<!-- node4 -->
<g id="node13" class="node">
<title>node4</title>
<polygon fill="none" stroke="black" points="1281.37,-141.97 1222,-162.65 1162.63,-141.97 1185.31,-108.5 1258.69,-108.5 1281.37,-141.97"/>
<text text-anchor="middle" x="1222" y="-136.12" font-family="Times,serif" font-size="12.00">csl_mp</text>
<text text-anchor="middle" x="1222" y="-123.12" font-family="Times,serif" font-size="12.00">(csl::mp)</text>
</g>
<!-- node0&#45;&gt;node4 -->
<g id="edge11" class="edge">
<title>node0&#45;&gt;node4</title>
<path fill="none" stroke="black" stroke-dasharray="5,2" d="M1222,-204.81C1222,-195.12 1222,-183.62 1222,-172.72"/>
<polygon fill="black" stroke="black" points="1225.5,-172.53 1222,-162.53 1218.5,-172.53 1225.5,-172.53"/>
</g>
<!-- node5 -->
<g id="node14" class="node">
<title>node5</title>
<polygon fill="none" stroke="black" points="1423.11,-141.97 1361,-162.65 1298.89,-141.97 1322.61,-108.5 1399.39,-108.5 1423.11,-141.97"/>
<text text-anchor="middle" x="1361" y="-136.12" font-family="Times,serif" font-size="12.00">csl_test</text>
<text text-anchor="middle" x="1361" y="-123.12" font-family="Times,serif" font-size="12.00">(csl::test)</text>
</g>
<!-- node0&#45;&gt;node5 -->
<g id="edge12" class="edge">
<title>node0&#45;&gt;node5</title>
<path fill="none" stroke="black" stroke-dasharray="5,2" d="M1256.36,-204.81C1276.85,-190.89 1302.87,-173.21 1323.84,-158.96"/>
<polygon fill="black" stroke="black" points="1325.89,-161.8 1332.19,-153.29 1321.95,-156.01 1325.89,-161.8"/>
</g>
<!-- node6 -->
<g id="node15" class="node">
<title>node6</title>
<polygon fill="none" stroke="black" points="1612.81,-141.97 1527,-162.65 1441.19,-141.97 1473.97,-108.5 1580.03,-108.5 1612.81,-141.97"/>
<text text-anchor="middle" x="1527" y="-136.12" font-family="Times,serif" font-size="12.00">csl_typeinfo</text>
<text text-anchor="middle" x="1527" y="-123.12" font-family="Times,serif" font-size="12.00">(csl::typeinfo)</text>
</g>
<!-- node0&#45;&gt;node6 -->
<g id="edge13" class="edge">
<title>node0&#45;&gt;node6</title>
<path fill="none" stroke="black" stroke-dasharray="5,2" d="M1264.73,-214.92C1316.76,-198.81 1405.04,-171.48 1464.65,-153.02"/>
<polygon fill="black" stroke="black" points="1465.81,-156.33 1474.33,-150.02 1463.74,-149.64 1465.81,-156.33"/>
</g>
<!-- node7 -->
<g id="node16" class="node">
<title>node7</title>
<polygon fill="none" stroke="black" points="1743.62,-141.97 1687,-162.65 1630.38,-141.97 1652,-108.5 1722,-108.5 1743.62,-141.97"/>
<text text-anchor="middle" x="1687" y="-136.12" font-family="Times,serif" font-size="12.00">csl_wf</text>
<text text-anchor="middle" x="1687" y="-123.12" font-family="Times,serif" font-size="12.00">(csl::wf)</text>
</g>
<!-- node0&#45;&gt;node7 -->
<g id="edge14" class="edge">
<title>node0&#45;&gt;node7</title>
<path fill="none" stroke="black" stroke-dasharray="5,2" d="M1270.6,-224.16C1346.79,-217.03 1498.4,-199.24 1622,-162.43 1629.23,-160.28 1636.72,-157.51 1643.93,-154.55"/>
<polygon fill="black" stroke="black" points="1645.73,-157.59 1653.54,-150.43 1642.97,-151.16 1645.73,-157.59"/>
</g>
</g>
</svg>
