<?xml version="1.0" encoding="UTF-8" standalone="no"?>
<!DOCTYPE svg PUBLIC "-//W3C//DTD SVG 1.1//EN"
 "http://www.w3.org/Graphics/SVG/1.1/DTD/svg11.dtd">
<!-- Generated by graphviz version 2.43.0 (0)
 -->
<!-- Title: Graphical Class Hierarchy Pages: 1 -->
<svg width="300pt" height="98pt"
 viewBox="0.00 0.00 300.00 97.50" xmlns="http://www.w3.org/2000/svg" xmlns:xlink="http://www.w3.org/1999/xlink">
<g id="graph0" class="graph" transform="scale(1 1) rotate(0) translate(4 93.5)">
<title>Graphical Class Hierarchy</title>
<!-- Node0 -->
<g id="Node000000" class="node">
<title>Node0</title>
<g id="a_Node000000"><a xlink:title=" ">
<polygon fill="#e0e0e0" stroke="#999999" points="124,-62.5 0,-62.5 0,-21.5 124,-21.5 124,-62.5"/>
<text text-anchor="start" x="8" y="-50.5" font-family="Helvetica,sans-Serif" font-size="10.00">csl::functional::details</text>
<text text-anchor="start" x="8" y="-39.5" font-family="Helvetica,sans-Serif" font-size="10.00">::function_trait_impl&lt;</text>
<text text-anchor="middle" x="62" y="-28.5" font-family="Helvetica,sans-Serif" font-size="10.00"> R, C, Args... &gt;</text>
</a>
</g>
</g>
<!-- Node1 -->
<g id="Node000001" class="node">
<title>Node1</title>
<g id="a_Node000001"><a xlink:href="structcsl_1_1functional_1_1function__trait_3_01R_07C_1_1_5_08_07Args_8_8_8_08_01noexcept_01_4.html" target="_top" xlink:title=" ">
<polygon fill="white" stroke="#666666" points="291.5,-89.5 160.5,-89.5 160.5,-48.5 291.5,-48.5 291.5,-89.5"/>
<text text-anchor="start" x="168.5" y="-77.5" font-family="Helvetica,sans-Serif" font-size="10.00">csl::functional::function</text>
<text text-anchor="start" x="168.5" y="-66.5" font-family="Helvetica,sans-Serif" font-size="10.00">_trait&lt; R(C::*)(Args...)</text>
<text text-anchor="middle" x="226" y="-55.5" font-family="Helvetica,sans-Serif" font-size="10.00"> noexcept &gt;</text>
</a>
</g>
</g>
<!-- Node0&#45;&gt;Node1 -->
<g id="edge19_Node000000_Node000001" class="edge">
<title>Node0&#45;&gt;Node1</title>
<g id="a_edge19_Node000000_Node000001"><a xlink:title=" ">
<path fill="none" stroke="#63b8ff" d="M134.34,-53.89C143.02,-55.34 151.85,-56.81 160.43,-58.24"/>
<polygon fill="#63b8ff" stroke="#63b8ff" points="134.68,-50.4 124.25,-52.21 133.53,-57.3 134.68,-50.4"/>
</a>
</g>
</g>
<!-- Node2 -->
<g id="Node000002" class="node">
<title>Node2</title>
<g id="a_Node000002"><a xlink:href="structcsl_1_1functional_1_1function__trait_3_01R_07C_1_1_5_08_07Args_8_8_8_08_4.html" target="_top" xlink:title=" ">
<polygon fill="white" stroke="#666666" points="292,-30 160,-30 160,0 292,0 292,-30"/>
<text text-anchor="start" x="168" y="-18" font-family="Helvetica,sans-Serif" font-size="10.00">csl::functional::function</text>
<text text-anchor="middle" x="226" y="-7" font-family="Helvetica,sans-Serif" font-size="10.00">_trait&lt; R(C::*)(Args...)&gt;</text>
</a>
</g>
</g>
<!-- Node0&#45;&gt;Node2 -->
<g id="edge20_Node000000_Node000002" class="edge">
<title>Node0&#45;&gt;Node2</title>
<g id="a_edge20_Node000000_Node000002"><a xlink:title=" ">
<path fill="none" stroke="#63b8ff" d="M134.19,-30.14C142.74,-28.71 151.43,-27.26 159.89,-25.85"/>
<polygon fill="#63b8ff" stroke="#63b8ff" points="133.53,-26.7 124.25,-31.79 134.68,-33.6 133.53,-26.7"/>
</a>
</g>
</g>
</g>
</svg>
