<?xml version="1.0" encoding="UTF-8" standalone="no"?>
<!DOCTYPE svg PUBLIC "-//W3C//DTD SVG 1.1//EN"
 "http://www.w3.org/Graphics/SVG/1.1/DTD/svg11.dtd">
<!-- Generated by graphviz version 2.43.0 (0)
 -->
<!-- Title: Graphical Class Hierarchy Pages: 1 -->
<svg width="345pt" height="108pt"
 viewBox="0.00 0.00 345.00 108.00" xmlns="http://www.w3.org/2000/svg" xmlns:xlink="http://www.w3.org/1999/xlink">
<g id="graph0" class="graph" transform="scale(1 1) rotate(0) translate(4 104)">
<title>Graphical Class Hierarchy</title>
<!-- Node0 -->
<g id="Node000000" class="node">
<title>Node0</title>
<g id="a_Node000000"><a xlink:title=" ">
<polygon fill="#e0e0e0" stroke="#999999" points="156,-70 0,-70 0,-29 156,-29 156,-70"/>
<text text-anchor="start" x="8" y="-58" font-family="Helvetica,sans-Serif" font-size="10.00">csl::functional::details</text>
<text text-anchor="start" x="8" y="-47" font-family="Helvetica,sans-Serif" font-size="10.00">::function_trait_impl&lt;</text>
<text text-anchor="middle" x="78" y="-36" font-family="Helvetica,sans-Serif" font-size="10.00"> R, const volatile C, Args... &gt;</text>
</a>
</g>
</g>
<!-- Node1 -->
<g id="Node000001" class="node">
<title>Node1</title>
<g id="a_Node000001"><a xlink:href="structcsl_1_1functional_1_1function__trait_3_01R_07C_1_1_5_08_07Args_8_8_8_08_01const_01volatile_01_4.html" target="_top" xlink:title=" ">
<polygon fill="white" stroke="#666666" points="330,-100 199,-100 199,-59 330,-59 330,-100"/>
<text text-anchor="start" x="207" y="-88" font-family="Helvetica,sans-Serif" font-size="10.00">csl::functional::function</text>
<text text-anchor="start" x="207" y="-77" font-family="Helvetica,sans-Serif" font-size="10.00">_trait&lt; R(C::*)(Args...)</text>
<text text-anchor="middle" x="264.5" y="-66" font-family="Helvetica,sans-Serif" font-size="10.00"> const volatile &gt;</text>
</a>
</g>
</g>
<!-- Node0&#45;&gt;Node1 -->
<g id="edge23_Node000000_Node000001" class="edge">
<title>Node0&#45;&gt;Node1</title>
<g id="a_edge23_Node000000_Node000001"><a xlink:title=" ">
<path fill="none" stroke="#63b8ff" d="M166.24,-63.68C177.24,-65.47 188.34,-67.28 198.91,-69"/>
<polygon fill="#63b8ff" stroke="#63b8ff" points="166.61,-60.2 156.18,-62.05 165.48,-67.11 166.61,-60.2"/>
</a>
</g>
</g>
<!-- Node2 -->
<g id="Node000002" class="node">
<title>Node2</title>
<g id="a_Node000002"><a xlink:href="structcsl_1_1functional_1_1function__trait_3_01R_07C_1_1_5_08_07Args_8_8_8_08_01const_01volatile_01noexcept_01_4.html" target="_top" xlink:title=" ">
<polygon fill="white" stroke="#666666" points="337,-41 192,-41 192,0 337,0 337,-41"/>
<text text-anchor="start" x="200" y="-29" font-family="Helvetica,sans-Serif" font-size="10.00">csl::functional::function</text>
<text text-anchor="start" x="200" y="-18" font-family="Helvetica,sans-Serif" font-size="10.00">_trait&lt; R(C::*)(Args...)</text>
<text text-anchor="middle" x="264.5" y="-7" font-family="Helvetica,sans-Serif" font-size="10.00"> const volatile noexcept &gt;</text>
</a>
</g>
</g>
<!-- Node0&#45;&gt;Node2 -->
<g id="edge24_Node000000_Node000002" class="edge">
<title>Node0&#45;&gt;Node2</title>
<g id="a_edge24_Node000000_Node000002"><a xlink:title=" ">
<path fill="none" stroke="#63b8ff" d="M166.24,-35.79C174.85,-34.43 183.51,-33.07 191.94,-31.75"/>
<polygon fill="#63b8ff" stroke="#63b8ff" points="165.51,-32.36 156.18,-37.37 166.6,-39.27 165.51,-32.36"/>
</a>
</g>
</g>
</g>
</svg>
