<?xml version="1.0" encoding="UTF-8" standalone="no"?>
<!DOCTYPE svg PUBLIC "-//W3C//DTD SVG 1.1//EN"
 "http://www.w3.org/Graphics/SVG/1.1/DTD/svg11.dtd">
<!-- Generated by graphviz version 2.43.0 (0)
 -->
<!-- Title: Graphical Class Hierarchy Pages: 1 -->
<svg width="299pt" height="108pt"
 viewBox="0.00 0.00 299.00 108.00" xmlns="http://www.w3.org/2000/svg" xmlns:xlink="http://www.w3.org/1999/xlink">
<g id="graph0" class="graph" transform="scale(1 1) rotate(0) translate(4 104)">
<title>Graphical Class Hierarchy</title>
<!-- Node0 -->
<g id="Node000000" class="node">
<title>Node0</title>
<g id="a_Node000000"><a xlink:title=" ">
<polygon fill="#e0e0e0" stroke="#999999" points="124,-70 0,-70 0,-29 124,-29 124,-70"/>
<text text-anchor="start" x="8" y="-58" font-family="Helvetica,sans-Serif" font-size="10.00">csl::functional::details</text>
<text text-anchor="start" x="8" y="-47" font-family="Helvetica,sans-Serif" font-size="10.00">::function_trait_impl&lt;</text>
<text text-anchor="middle" x="62" y="-36" font-family="Helvetica,sans-Serif" font-size="10.00"> R, const C, Args... &gt;</text>
</a>
</g>
</g>
<!-- Node1 -->
<g id="Node000001" class="node">
<title>Node1</title>
<g id="a_Node000001"><a xlink:href="structcsl_1_1functional_1_1function__trait_3_01R_07C_1_1_5_08_07Args_8_8_8_08_01const_01_4.html" target="_top" xlink:title=" ">
<polygon fill="white" stroke="#666666" points="291,-100 160,-100 160,-59 291,-59 291,-100"/>
<text text-anchor="start" x="168" y="-88" font-family="Helvetica,sans-Serif" font-size="10.00">csl::functional::function</text>
<text text-anchor="start" x="168" y="-77" font-family="Helvetica,sans-Serif" font-size="10.00">_trait&lt; R(C::*)(Args...)</text>
<text text-anchor="middle" x="225.5" y="-66" font-family="Helvetica,sans-Serif" font-size="10.00"> const &gt;</text>
</a>
</g>
</g>
<!-- Node0&#45;&gt;Node1 -->
<g id="edge21_Node000000_Node000001" class="edge">
<title>Node0&#45;&gt;Node1</title>
<g id="a_edge21_Node000000_Node000001"><a xlink:title=" ">
<path fill="none" stroke="#63b8ff" d="M134.05,-62.7C142.63,-64.29 151.37,-65.92 159.86,-67.49"/>
<polygon fill="#63b8ff" stroke="#63b8ff" points="134.53,-59.23 124.06,-60.84 133.25,-66.11 134.53,-59.23"/>
</a>
</g>
</g>
<!-- Node2 -->
<g id="Node000002" class="node">
<title>Node2</title>
<g id="a_Node000002"><a xlink:href="structcsl_1_1functional_1_1function__trait_3_01R_07C_1_1_5_08_07Args_8_8_8_08_01const_01noexcept_01_4.html" target="_top" xlink:title=" ">
<polygon fill="white" stroke="#666666" points="291,-41 160,-41 160,0 291,0 291,-41"/>
<text text-anchor="start" x="168" y="-29" font-family="Helvetica,sans-Serif" font-size="10.00">csl::functional::function</text>
<text text-anchor="start" x="168" y="-18" font-family="Helvetica,sans-Serif" font-size="10.00">_trait&lt; R(C::*)(Args...)</text>
<text text-anchor="middle" x="225.5" y="-7" font-family="Helvetica,sans-Serif" font-size="10.00"> const noexcept &gt;</text>
</a>
</g>
</g>
<!-- Node0&#45;&gt;Node2 -->
<g id="edge22_Node000000_Node000002" class="edge">
<title>Node0&#45;&gt;Node2</title>
<g id="a_edge22_Node000000_Node000002"><a xlink:title=" ">
<path fill="none" stroke="#63b8ff" d="M134.05,-36.74C142.63,-35.2 151.37,-33.63 159.86,-32.11"/>
<polygon fill="#63b8ff" stroke="#63b8ff" points="133.28,-33.32 124.06,-38.54 134.52,-40.21 133.28,-33.32"/>
</a>
</g>
</g>
</g>
</svg>
