<?xml version="1.0" encoding="UTF-8" standalone="no"?>
<!DOCTYPE svg PUBLIC "-//W3C//DTD SVG 1.1//EN"
 "http://www.w3.org/Graphics/SVG/1.1/DTD/svg11.dtd">
<!-- Generated by graphviz version 2.43.0 (0)
 -->
<!-- Title: Graphical Class Hierarchy Pages: 1 -->
<svg width="312pt" height="130pt"
 viewBox="0.00 0.00 312.00 130.00" xmlns="http://www.w3.org/2000/svg" xmlns:xlink="http://www.w3.org/1999/xlink">
<g id="graph0" class="graph" transform="scale(1 1) rotate(0) translate(4 126)">
<title>Graphical Class Hierarchy</title>
<!-- Node0 -->
<g id="Node000000" class="node">
<title>Node0</title>
<g id="a_Node000000"><a xlink:title=" ">
<polygon fill="#e0e0e0" stroke="#999999" points="89,-46 0,-46 0,-27 89,-27 89,-46"/>
<text text-anchor="middle" x="44.5" y="-34" font-family="Helvetica,sans-Serif" font-size="10.00">std::false_type</text>
</a>
</g>
</g>
<!-- Node1 -->
<g id="Node000001" class="node">
<title>Node1</title>
<g id="a_Node000001"><a xlink:href="structcsl_1_1functional_1_1type__traits_1_1is__simple__callable_3_01F_00_01std_1_1void__t_3_01ty5d3a64cf3b9024538921dcc70788bbab.html" target="_top" xlink:title=" ">
<polygon fill="white" stroke="#666666" points="304,-122 125,-122 125,-59 304,-59 304,-122"/>
<text text-anchor="start" x="133" y="-110" font-family="Helvetica,sans-Serif" font-size="10.00">csl::functional::type</text>
<text text-anchor="start" x="133" y="-99" font-family="Helvetica,sans-Serif" font-size="10.00">_traits::is_simple_callable</text>
<text text-anchor="start" x="133" y="-88" font-family="Helvetica,sans-Serif" font-size="10.00">&lt; F, std::void_t&lt; typename</text>
<text text-anchor="start" x="133" y="-77" font-family="Helvetica,sans-Serif" font-size="10.00"> csl::functional::function</text>
<text text-anchor="middle" x="214.5" y="-66" font-family="Helvetica,sans-Serif" font-size="10.00">_trait&lt; F &gt;::arguments_type &gt; &gt;</text>
</a>
</g>
</g>
<!-- Node0&#45;&gt;Node1 -->
<g id="edge30_Node000000_Node000001" class="edge">
<title>Node0&#45;&gt;Node1</title>
<g id="a_edge30_Node000000_Node000001"><a xlink:title=" ">
<path fill="none" stroke="#63b8ff" d="M84.83,-49.14C96.89,-53.02 110.68,-57.45 124.64,-61.94"/>
<polygon fill="#63b8ff" stroke="#63b8ff" points="85.74,-45.76 75.15,-46.03 83.6,-52.42 85.74,-45.76"/>
</a>
</g>
</g>
<!-- Node3 -->
<g id="Node000003" class="node">
<title>Node3</title>
<g id="a_Node000003"><a xlink:href="structcsl_1_1functional_1_1type__traits_1_1is__simple__callable.html" target="_top" xlink:title=" ">
<polygon fill="white" stroke="#666666" points="286,-41 143,-41 143,0 286,0 286,-41"/>
<text text-anchor="start" x="151" y="-29" font-family="Helvetica,sans-Serif" font-size="10.00">csl::functional::type</text>
<text text-anchor="start" x="151" y="-18" font-family="Helvetica,sans-Serif" font-size="10.00">_traits::is_simple_callable</text>
<text text-anchor="middle" x="214.5" y="-7" font-family="Helvetica,sans-Serif" font-size="10.00">&lt; F, class &gt;</text>
</a>
</g>
</g>
<!-- Node0&#45;&gt;Node3 -->
<g id="edge31_Node000000_Node000003" class="edge">
<title>Node0&#45;&gt;Node3</title>
<g id="a_edge31_Node000000_Node000003"><a xlink:title=" ">
<path fill="none" stroke="#63b8ff" d="M99.45,-31.36C113.22,-30.05 128.22,-28.62 142.69,-27.24"/>
<polygon fill="#63b8ff" stroke="#63b8ff" points="98.82,-27.91 89.2,-32.34 99.49,-34.87 98.82,-27.91"/>
</a>
</g>
</g>
<!-- Node2 -->
<g id="Node000002" class="node">
<title>Node2</title>
<g id="a_Node000002"><a xlink:title=" ">
<polygon fill="#e0e0e0" stroke="#999999" points="86.5,-100 2.5,-100 2.5,-81 86.5,-81 86.5,-100"/>
<text text-anchor="middle" x="44.5" y="-88" font-family="Helvetica,sans-Serif" font-size="10.00">std::true_type</text>
</a>
</g>
</g>
<!-- Node2&#45;&gt;Node1 -->
<g id="edge32_Node000002_Node000001" class="edge">
<title>Node2&#45;&gt;Node1</title>
<g id="a_edge32_Node000002_Node000001"><a xlink:title=" ">
<path fill="none" stroke="#63b8ff" d="M96.76,-90.5C105.67,-90.5 115.17,-90.5 124.74,-90.5"/>
<polygon fill="#63b8ff" stroke="#63b8ff" points="96.6,-87 86.6,-90.5 96.6,-94 96.6,-87"/>
</a>
</g>
</g>
</g>
</svg>
