<?xml version="1.0" encoding="UTF-8" standalone="no"?>
<!DOCTYPE svg PUBLIC "-//W3C//DTD SVG 1.1//EN"
 "http://www.w3.org/Graphics/SVG/1.1/DTD/svg11.dtd">
<!-- Generated by graphviz version 2.43.0 (0)
 -->
<!-- Title: Graphical Class Hierarchy Pages: 1 -->
<svg width="302pt" height="108pt"
 viewBox="0.00 0.00 302.00 108.00" xmlns="http://www.w3.org/2000/svg" xmlns:xlink="http://www.w3.org/1999/xlink">
<g id="graph0" class="graph" transform="scale(1 1) rotate(0) translate(4 104)">
<title>Graphical Class Hierarchy</title>
<!-- Node0 -->
<g id="Node000000" class="node">
<title>Node0</title>
<g id="a_Node000000"><a xlink:title=" ">
<polygon fill="#e0e0e0" stroke="#999999" points="127,-70 0,-70 0,-29 127,-29 127,-70"/>
<text text-anchor="start" x="8" y="-58" font-family="Helvetica,sans-Serif" font-size="10.00">csl::functional::details</text>
<text text-anchor="start" x="8" y="-47" font-family="Helvetica,sans-Serif" font-size="10.00">::function_trait_impl&lt;</text>
<text text-anchor="middle" x="63.5" y="-36" font-family="Helvetica,sans-Serif" font-size="10.00"> R, volatile C, Args... &gt;</text>
</a>
</g>
</g>
<!-- Node1 -->
<g id="Node000001" class="node">
<title>Node1</title>
<g id="a_Node000001"><a xlink:href="structcsl_1_1functional_1_1function__trait_3_01R_07C_1_1_5_08_07Args_8_8_8_08_01volatile_01_4.html" target="_top" xlink:title=" ">
<polygon fill="white" stroke="#666666" points="294,-100 163,-100 163,-59 294,-59 294,-100"/>
<text text-anchor="start" x="171" y="-88" font-family="Helvetica,sans-Serif" font-size="10.00">csl::functional::function</text>
<text text-anchor="start" x="171" y="-77" font-family="Helvetica,sans-Serif" font-size="10.00">_trait&lt; R(C::*)(Args...)</text>
<text text-anchor="middle" x="228.5" y="-66" font-family="Helvetica,sans-Serif" font-size="10.00"> volatile &gt;</text>
</a>
</g>
</g>
<!-- Node0&#45;&gt;Node1 -->
<g id="edge25_Node000000_Node000001" class="edge">
<title>Node0&#45;&gt;Node1</title>
<g id="a_edge25_Node000000_Node000001"><a xlink:title=" ">
<path fill="none" stroke="#63b8ff" d="M137.09,-62.86C145.7,-64.45 154.46,-66.06 162.95,-67.62"/>
<polygon fill="#63b8ff" stroke="#63b8ff" points="137.52,-59.38 127.05,-61.01 136.26,-66.27 137.52,-59.38"/>
</a>
</g>
</g>
<!-- Node2 -->
<g id="Node000002" class="node">
<title>Node2</title>
<g id="a_Node000002"><a xlink:href="structcsl_1_1functional_1_1function__trait_3_01R_07C_1_1_5_08_07Args_8_8_8_08_01volatile_01noexcept_01_4.html" target="_top" xlink:title=" ">
<polygon fill="white" stroke="#666666" points="294,-41 163,-41 163,0 294,0 294,-41"/>
<text text-anchor="start" x="171" y="-29" font-family="Helvetica,sans-Serif" font-size="10.00">csl::functional::function</text>
<text text-anchor="start" x="171" y="-18" font-family="Helvetica,sans-Serif" font-size="10.00">_trait&lt; R(C::*)(Args...)</text>
<text text-anchor="middle" x="228.5" y="-7" font-family="Helvetica,sans-Serif" font-size="10.00"> volatile noexcept &gt;</text>
</a>
</g>
</g>
<!-- Node0&#45;&gt;Node2 -->
<g id="edge26_Node000000_Node000002" class="edge">
<title>Node0&#45;&gt;Node2</title>
<g id="a_edge26_Node000000_Node000002"><a xlink:title=" ">
<path fill="none" stroke="#63b8ff" d="M137.09,-36.59C145.7,-35.05 154.46,-33.5 162.95,-31.98"/>
<polygon fill="#63b8ff" stroke="#63b8ff" points="136.29,-33.17 127.05,-38.37 137.51,-40.06 136.29,-33.17"/>
</a>
</g>
</g>
</g>
</svg>
