<?xml version="1.0" encoding="UTF-8" standalone="no"?>
<!DOCTYPE svg PUBLIC "-//W3C//DTD SVG 1.1//EN"
 "http://www.w3.org/Graphics/SVG/1.1/DTD/svg11.dtd">
<!-- Generated by graphviz version 2.43.0 (0)
 -->
<!-- Title: Graphical Class Hierarchy Pages: 1 -->
<svg width="343pt" height="1001pt"
 viewBox="0.00 0.00 343.00 1000.50" xmlns="http://www.w3.org/2000/svg" xmlns:xlink="http://www.w3.org/1999/xlink">
<g id="graph0" class="graph" transform="scale(1 1) rotate(0) translate(4 996.5)">
<title>Graphical Class Hierarchy</title>
<!-- Node0 -->
<g id="Node000000" class="node">
<title>Node0</title>
<g id="a_Node000000"><a xlink:title=" ">
<polygon fill="#e0e0e0" stroke="#999999" points="124,-547 0,-547 0,-506 124,-506 124,-547"/>
<text text-anchor="start" x="8" y="-535" font-family="Helvetica,sans-Serif" font-size="10.00">csl::functional::details</text>
<text text-anchor="start" x="8" y="-524" font-family="Helvetica,sans-Serif" font-size="10.00">::function_trait_impl&lt;</text>
<text text-anchor="middle" x="62" y="-513" font-family="Helvetica,sans-Serif" font-size="10.00"> R, Args... &gt;</text>
</a>
</g>
</g>
<!-- Node1 -->
<g id="Node000001" class="node">
<title>Node1</title>
<g id="a_Node000001"><a xlink:href="structcsl_1_1functional_1_1function__trait_3_01R_07_5_08_07Args_8_8_8_08_01noexcept_01_4.html" target="_top" xlink:title=" ">
<polygon fill="white" stroke="#666666" points="332.5,-992.5 162.5,-992.5 162.5,-962.5 332.5,-962.5 332.5,-992.5"/>
<text text-anchor="start" x="170.5" y="-980.5" font-family="Helvetica,sans-Serif" font-size="10.00">csl::functional::function</text>
<text text-anchor="middle" x="247.5" y="-969.5" font-family="Helvetica,sans-Serif" font-size="10.00">_trait&lt; R(*)(Args...) noexcept &gt;</text>
</a>
</g>
</g>
<!-- Node0&#45;&gt;Node1 -->
<g id="edge1_Node000000_Node000001" class="edge">
<title>Node0&#45;&gt;Node1</title>
<g id="a_edge1_Node000000_Node000001"><a xlink:title=" ">
<path fill="none" stroke="#63b8ff" d="M65.93,-557.32C74.93,-645.43 104.91,-895.74 160,-953.5 163.23,-956.88 166.89,-959.8 170.83,-962.32"/>
<polygon fill="#63b8ff" stroke="#63b8ff" points="69.4,-556.77 64.92,-547.17 62.43,-557.47 69.4,-556.77"/>
</a>
</g>
</g>
<!-- Node2 -->
<g id="Node000002" class="node">
<title>Node2</title>
<g id="a_Node000002"><a xlink:href="structcsl_1_1functional_1_1function__trait_3_01R_07_5_08_07Args_8_8_8_08_4.html" target="_top" xlink:title=" ">
<polygon fill="white" stroke="#666666" points="313,-944.5 182,-944.5 182,-914.5 313,-914.5 313,-944.5"/>
<text text-anchor="start" x="190" y="-932.5" font-family="Helvetica,sans-Serif" font-size="10.00">csl::functional::function</text>
<text text-anchor="middle" x="247.5" y="-921.5" font-family="Helvetica,sans-Serif" font-size="10.00">_trait&lt; R(*)(Args...)&gt;</text>
</a>
</g>
</g>
<!-- Node0&#45;&gt;Node2 -->
<g id="edge2_Node000000_Node000002" class="edge">
<title>Node0&#45;&gt;Node2</title>
<g id="a_edge2_Node000000_Node000002"><a xlink:title=" ">
<path fill="none" stroke="#63b8ff" d="M66.86,-557.09C77.68,-638.07 110.75,-855.25 160,-905.5 166.11,-911.73 173.68,-916.39 181.79,-919.86"/>
<polygon fill="#63b8ff" stroke="#63b8ff" points="70.31,-556.49 65.54,-547.03 63.37,-557.41 70.31,-556.49"/>
</a>
</g>
</g>
<!-- Node3 -->
<g id="Node000003" class="node">
<title>Node3</title>
<g id="a_Node000003"><a xlink:href="structcsl_1_1functional_1_1function__trait_3_01R_07Args_8_8_8_08_01const_01_4.html" target="_top" xlink:title=" ">
<polygon fill="white" stroke="#666666" points="317,-896.5 178,-896.5 178,-866.5 317,-866.5 317,-896.5"/>
<text text-anchor="start" x="186" y="-884.5" font-family="Helvetica,sans-Serif" font-size="10.00">csl::functional::function</text>
<text text-anchor="middle" x="247.5" y="-873.5" font-family="Helvetica,sans-Serif" font-size="10.00">_trait&lt; R(Args...) const &gt;</text>
</a>
</g>
</g>
<!-- Node0&#45;&gt;Node3 -->
<g id="edge3_Node000000_Node000003" class="edge">
<title>Node0&#45;&gt;Node3</title>
<g id="a_edge3_Node000000_Node000003"><a xlink:title=" ">
<path fill="none" stroke="#63b8ff" d="M62.69,-557.44C63.77,-622.54 75.77,-774.48 160,-857.5 165.11,-862.53 171.17,-866.53 177.68,-869.71"/>
<polygon fill="#63b8ff" stroke="#63b8ff" points="66.19,-557.37 62.6,-547.41 59.19,-557.44 66.19,-557.37"/>
</a>
</g>
</g>
<!-- Node4 -->
<g id="Node000004" class="node">
<title>Node4</title>
<g id="a_Node000004"><a xlink:href="structcsl_1_1functional_1_1function__trait_3_01R_07Args_8_8_8_08_01const_01noexcept_01_4.html" target="_top" xlink:title=" ">
<polygon fill="white" stroke="#666666" points="313,-848 182,-848 182,-807 313,-807 313,-848"/>
<text text-anchor="start" x="190" y="-836" font-family="Helvetica,sans-Serif" font-size="10.00">csl::functional::function</text>
<text text-anchor="start" x="190" y="-825" font-family="Helvetica,sans-Serif" font-size="10.00">_trait&lt; R(Args...) const</text>
<text text-anchor="middle" x="247.5" y="-814" font-family="Helvetica,sans-Serif" font-size="10.00"> noexcept &gt;</text>
</a>
</g>
</g>
<!-- Node0&#45;&gt;Node4 -->
<g id="edge4_Node000000_Node000004" class="edge">
<title>Node0&#45;&gt;Node4</title>
<g id="a_edge4_Node000000_Node000004"><a xlink:title=" ">
<path fill="none" stroke="#63b8ff" d="M65.35,-557.07C71.26,-612.81 91.58,-731.37 160,-798.5 166.22,-804.6 173.76,-809.42 181.76,-813.22"/>
<polygon fill="#63b8ff" stroke="#63b8ff" points="68.83,-556.72 64.38,-547.11 61.86,-557.4 68.83,-556.72"/>
</a>
</g>
</g>
<!-- Node5 -->
<g id="Node000005" class="node">
<title>Node5</title>
<g id="a_Node000005"><a xlink:href="structcsl_1_1functional_1_1function__trait_3_01R_07Args_8_8_8_08_01const_01volatile_01_4.html" target="_top" xlink:title=" ">
<polygon fill="white" stroke="#666666" points="313,-789 182,-789 182,-748 313,-748 313,-789"/>
<text text-anchor="start" x="190" y="-777" font-family="Helvetica,sans-Serif" font-size="10.00">csl::functional::function</text>
<text text-anchor="start" x="190" y="-766" font-family="Helvetica,sans-Serif" font-size="10.00">_trait&lt; R(Args...) const</text>
<text text-anchor="middle" x="247.5" y="-755" font-family="Helvetica,sans-Serif" font-size="10.00"> volatile &gt;</text>
</a>
</g>
</g>
<!-- Node0&#45;&gt;Node5 -->
<g id="edge5_Node000000_Node000005" class="edge">
<title>Node0&#45;&gt;Node5</title>
<g id="a_edge5_Node000000_Node000005"><a xlink:title=" ">
<path fill="none" stroke="#63b8ff" d="M68.81,-556.97C79.13,-602.94 104.97,-689.91 160,-739.5 166.35,-745.23 173.88,-749.83 181.79,-753.52"/>
<polygon fill="#63b8ff" stroke="#63b8ff" points="72.19,-556.05 66.67,-547.01 65.35,-557.52 72.19,-556.05"/>
</a>
</g>
</g>
<!-- Node6 -->
<g id="Node000006" class="node">
<title>Node6</title>
<g id="a_Node000006"><a xlink:href="structcsl_1_1functional_1_1function__trait_3_01R_07Args_8_8_8_08_01const_01volatile_01noexcept_01_4.html" target="_top" xlink:title=" ">
<polygon fill="white" stroke="#666666" points="313,-730 182,-730 182,-689 313,-689 313,-730"/>
<text text-anchor="start" x="190" y="-718" font-family="Helvetica,sans-Serif" font-size="10.00">csl::functional::function</text>
<text text-anchor="start" x="190" y="-707" font-family="Helvetica,sans-Serif" font-size="10.00">_trait&lt; R(Args...) const</text>
<text text-anchor="middle" x="247.5" y="-696" font-family="Helvetica,sans-Serif" font-size="10.00"> volatile noexcept &gt;</text>
</a>
</g>
</g>
<!-- Node0&#45;&gt;Node6 -->
<g id="edge6_Node000000_Node000006" class="edge">
<title>Node0&#45;&gt;Node6</title>
<g id="a_edge6_Node000000_Node000006"><a xlink:title=" ">
<path fill="none" stroke="#63b8ff" d="M74.84,-556.73C89.77,-591.11 118.6,-646.71 160,-679.5 166.48,-684.63 173.9,-688.92 181.6,-692.49"/>
<polygon fill="#63b8ff" stroke="#63b8ff" points="77.94,-555.06 70.83,-547.21 71.49,-557.78 77.94,-555.06"/>
</a>
</g>
</g>
<!-- Node7 -->
<g id="Node000007" class="node">
<title>Node7</title>
<g id="a_Node000007"><a xlink:href="structcsl_1_1functional_1_1function__trait_3_01R_07Args_8_8_8_08_01noexcept_01_4.html" target="_top" xlink:title=" ">
<polygon fill="white" stroke="#666666" points="326.5,-670.5 168.5,-670.5 168.5,-640.5 326.5,-640.5 326.5,-670.5"/>
<text text-anchor="start" x="176.5" y="-658.5" font-family="Helvetica,sans-Serif" font-size="10.00">csl::functional::function</text>
<text text-anchor="middle" x="247.5" y="-647.5" font-family="Helvetica,sans-Serif" font-size="10.00">_trait&lt; R(Args...) noexcept &gt;</text>
</a>
</g>
</g>
<!-- Node0&#45;&gt;Node7 -->
<g id="edge7_Node000000_Node000007" class="edge">
<title>Node0&#45;&gt;Node7</title>
<g id="a_edge7_Node000000_Node000007"><a xlink:title=" ">
<path fill="none" stroke="#63b8ff" d="M82.59,-555.38C100.19,-579.17 128.11,-612.05 160,-631.5 165.59,-634.91 171.67,-637.85 177.93,-640.37"/>
<polygon fill="#63b8ff" stroke="#63b8ff" points="85.28,-553.13 76.59,-547.07 79.61,-557.23 85.28,-553.13"/>
</a>
</g>
</g>
<!-- Node8 -->
<g id="Node000008" class="node">
<title>Node8</title>
<g id="a_Node000008"><a xlink:href="structcsl_1_1functional_1_1function__trait_3_01R_07Args_8_8_8_08_01volatile_01_4.html" target="_top" xlink:title=" ">
<polygon fill="white" stroke="#666666" points="322,-622.5 173,-622.5 173,-592.5 322,-592.5 322,-622.5"/>
<text text-anchor="start" x="181" y="-610.5" font-family="Helvetica,sans-Serif" font-size="10.00">csl::functional::function</text>
<text text-anchor="middle" x="247.5" y="-599.5" font-family="Helvetica,sans-Serif" font-size="10.00">_trait&lt; R(Args...) volatile &gt;</text>
</a>
</g>
</g>
<!-- Node0&#45;&gt;Node8 -->
<g id="edge8_Node000000_Node000008" class="edge">
<title>Node0&#45;&gt;Node8</title>
<g id="a_edge8_Node000000_Node000008"><a xlink:title=" ">
<path fill="none" stroke="#63b8ff" d="M102.03,-552.59C119.26,-563.26 140.09,-575.06 160,-583.5 167.75,-586.78 176.08,-589.75 184.4,-592.39"/>
<polygon fill="#63b8ff" stroke="#63b8ff" points="103.7,-549.5 93.37,-547.13 99.97,-555.42 103.7,-549.5"/>
</a>
</g>
</g>
<!-- Node9 -->
<g id="Node000009" class="node">
<title>Node9</title>
<g id="a_Node000009"><a xlink:href="structcsl_1_1functional_1_1function__trait_3_01R_07Args_8_8_8_08_01volatile_01noexcept_01_4.html" target="_top" xlink:title=" ">
<polygon fill="white" stroke="#666666" points="316.5,-574 178.5,-574 178.5,-533 316.5,-533 316.5,-574"/>
<text text-anchor="start" x="186.5" y="-562" font-family="Helvetica,sans-Serif" font-size="10.00">csl::functional::function</text>
<text text-anchor="start" x="186.5" y="-551" font-family="Helvetica,sans-Serif" font-size="10.00">_trait&lt; R(Args...) volatile</text>
<text text-anchor="middle" x="247.5" y="-540" font-family="Helvetica,sans-Serif" font-size="10.00"> noexcept &gt;</text>
</a>
</g>
</g>
<!-- Node0&#45;&gt;Node9 -->
<g id="edge9_Node000000_Node000009" class="edge">
<title>Node0&#45;&gt;Node9</title>
<g id="a_edge9_Node000000_Node000009"><a xlink:title=" ">
<path fill="none" stroke="#63b8ff" d="M134.05,-536.95C148.62,-539.1 163.93,-541.35 178.39,-543.48"/>
<polygon fill="#63b8ff" stroke="#63b8ff" points="134.51,-533.48 124.1,-535.49 133.49,-540.41 134.51,-533.48"/>
</a>
</g>
</g>
<!-- Node10 -->
<g id="Node000010" class="node">
<title>Node10</title>
<g id="a_Node000010"><a xlink:href="structcsl_1_1functional_1_1function__trait_3_01R_07Args_8_8_8_08_4.html" target="_top" xlink:title=" ">
<polygon fill="white" stroke="#666666" points="313,-514.5 182,-514.5 182,-484.5 313,-484.5 313,-514.5"/>
<text text-anchor="start" x="190" y="-502.5" font-family="Helvetica,sans-Serif" font-size="10.00">csl::functional::function</text>
<text text-anchor="middle" x="247.5" y="-491.5" font-family="Helvetica,sans-Serif" font-size="10.00">_trait&lt; R(Args...)&gt;</text>
</a>
</g>
</g>
<!-- Node0&#45;&gt;Node10 -->
<g id="edge10_Node000000_Node000010" class="edge">
<title>Node0&#45;&gt;Node10</title>
<g id="a_edge10_Node000000_Node000010"><a xlink:title=" ">
<path fill="none" stroke="#63b8ff" d="M134.27,-516.01C149.96,-513.71 166.48,-511.27 181.89,-509.01"/>
<polygon fill="#63b8ff" stroke="#63b8ff" points="133.49,-512.59 124.1,-517.51 134.51,-519.52 133.49,-512.59"/>
</a>
</g>
</g>
<!-- Node11 -->
<g id="Node000011" class="node">
<title>Node11</title>
<g id="a_Node000011"><a xlink:href="structcsl_1_1functional_1_1function__trait_3_01std_1_1function_3_01R_07Args_8_8_8_08_01const_01_4_01_4.html" target="_top" xlink:title=" ">
<polygon fill="white" stroke="#666666" points="313,-466 182,-466 182,-425 313,-425 313,-466"/>
<text text-anchor="start" x="190" y="-454" font-family="Helvetica,sans-Serif" font-size="10.00">csl::functional::function</text>
<text text-anchor="start" x="190" y="-443" font-family="Helvetica,sans-Serif" font-size="10.00">_trait&lt; std::function&lt;</text>
<text text-anchor="middle" x="247.5" y="-432" font-family="Helvetica,sans-Serif" font-size="10.00"> R(Args...) const &gt; &gt;</text>
</a>
</g>
</g>
<!-- Node0&#45;&gt;Node11 -->
<g id="edge11_Node000000_Node000011" class="edge">
<title>Node0&#45;&gt;Node11</title>
<g id="a_edge11_Node000000_Node000011"><a xlink:title=" ">
<path fill="none" stroke="#63b8ff" d="M108.38,-500.84C124.43,-492.25 142.78,-482.96 160,-475.5 167.58,-472.21 175.66,-469.02 183.7,-466.03"/>
<polygon fill="#63b8ff" stroke="#63b8ff" points="106.34,-497.96 99.21,-505.8 109.67,-504.12 106.34,-497.96"/>
</a>
</g>
</g>
<!-- Node12 -->
<g id="Node000012" class="node">
<title>Node12</title>
<g id="a_Node000012"><a xlink:href="structcsl_1_1functional_1_1function__trait_3_01std_1_1function_3_01R_07Args_8_8_8_08_01const_01noexcept_01_4_01_4.html" target="_top" xlink:title=" ">
<polygon fill="white" stroke="#666666" points="329.5,-407 165.5,-407 165.5,-366 329.5,-366 329.5,-407"/>
<text text-anchor="start" x="173.5" y="-395" font-family="Helvetica,sans-Serif" font-size="10.00">csl::functional::function</text>
<text text-anchor="start" x="173.5" y="-384" font-family="Helvetica,sans-Serif" font-size="10.00">_trait&lt; std::function&lt;</text>
<text text-anchor="middle" x="247.5" y="-373" font-family="Helvetica,sans-Serif" font-size="10.00"> R(Args...) const noexcept &gt; &gt;</text>
</a>
</g>
</g>
<!-- Node0&#45;&gt;Node12 -->
<g id="edge12_Node000000_Node000012" class="edge">
<title>Node0&#45;&gt;Node12</title>
<g id="a_edge12_Node000000_Node000012"><a xlink:title=" ">
<path fill="none" stroke="#63b8ff" d="M82.08,-497.5C99.67,-472.83 127.85,-438.07 160,-416.5 165.15,-413.05 170.73,-409.95 176.51,-407.18"/>
<polygon fill="#63b8ff" stroke="#63b8ff" points="79.17,-495.56 76.32,-505.76 84.91,-499.57 79.17,-495.56"/>
</a>
</g>
</g>
<!-- Node13 -->
<g id="Node000013" class="node">
<title>Node13</title>
<g id="a_Node000013"><a xlink:href="structcsl_1_1functional_1_1function__trait_3_01std_1_1function_3_01R_07Args_8_8_8_08_01const_01volatile_01_4_01_4.html" target="_top" xlink:title=" ">
<polygon fill="white" stroke="#666666" points="325.5,-348 169.5,-348 169.5,-307 325.5,-307 325.5,-348"/>
<text text-anchor="start" x="177.5" y="-336" font-family="Helvetica,sans-Serif" font-size="10.00">csl::functional::function</text>
<text text-anchor="start" x="177.5" y="-325" font-family="Helvetica,sans-Serif" font-size="10.00">_trait&lt; std::function&lt;</text>
<text text-anchor="middle" x="247.5" y="-314" font-family="Helvetica,sans-Serif" font-size="10.00"> R(Args...) const volatile &gt; &gt;</text>
</a>
</g>
</g>
<!-- Node0&#45;&gt;Node13 -->
<g id="edge13_Node000000_Node000013" class="edge">
<title>Node0&#45;&gt;Node13</title>
<g id="a_edge13_Node000000_Node000013"><a xlink:title=" ">
<path fill="none" stroke="#63b8ff" d="M72.93,-496.04C86.71,-458.37 115.11,-394.68 160,-357.5 164.28,-353.95 169.01,-350.81 173.99,-348.04"/>
<polygon fill="#63b8ff" stroke="#63b8ff" points="69.47,-495.34 69.43,-505.93 76.07,-497.67 69.47,-495.34"/>
</a>
</g>
</g>
<!-- Node14 -->
<g id="Node000014" class="node">
<title>Node14</title>
<g id="a_Node000014"><a xlink:href="structcsl_1_1functional_1_1function__trait_3_01std_1_1function_3_01R_07Args_8_8_8_08_01const_01volatile_01noexcept_01_4_01_4.html" target="_top" xlink:title=" ">
<polygon fill="white" stroke="#666666" points="314.5,-288.5 180.5,-288.5 180.5,-236.5 314.5,-236.5 314.5,-288.5"/>
<text text-anchor="start" x="188.5" y="-276.5" font-family="Helvetica,sans-Serif" font-size="10.00">csl::functional::function</text>
<text text-anchor="start" x="188.5" y="-265.5" font-family="Helvetica,sans-Serif" font-size="10.00">_trait&lt; std::function&lt;</text>
<text text-anchor="start" x="188.5" y="-254.5" font-family="Helvetica,sans-Serif" font-size="10.00"> R(Args...) const volatile</text>
<text text-anchor="middle" x="247.5" y="-243.5" font-family="Helvetica,sans-Serif" font-size="10.00"> noexcept &gt; &gt;</text>
</a>
</g>
</g>
<!-- Node0&#45;&gt;Node14 -->
<g id="edge14_Node000000_Node000014" class="edge">
<title>Node0&#45;&gt;Node14</title>
<g id="a_edge14_Node000000_Node000014"><a xlink:title=" ">
<path fill="none" stroke="#63b8ff" d="M68.36,-495.83C78.26,-447.72 103.79,-354.27 160,-298.5 165.89,-292.66 172.86,-287.71 180.26,-283.54"/>
<polygon fill="#63b8ff" stroke="#63b8ff" points="64.87,-495.44 66.37,-505.93 71.73,-496.79 64.87,-495.44"/>
</a>
</g>
</g>
<!-- Node15 -->
<g id="Node000015" class="node">
<title>Node15</title>
<g id="a_Node000015"><a xlink:href="structcsl_1_1functional_1_1function__trait_3_01std_1_1function_3_01R_07Args_8_8_8_08_01noexcept_01_4_01_4.html" target="_top" xlink:title=" ">
<polygon fill="white" stroke="#666666" points="315,-218 180,-218 180,-177 315,-177 315,-218"/>
<text text-anchor="start" x="188" y="-206" font-family="Helvetica,sans-Serif" font-size="10.00">csl::functional::function</text>
<text text-anchor="start" x="188" y="-195" font-family="Helvetica,sans-Serif" font-size="10.00">_trait&lt; std::function&lt;</text>
<text text-anchor="middle" x="247.5" y="-184" font-family="Helvetica,sans-Serif" font-size="10.00"> R(Args...) noexcept &gt; &gt;</text>
</a>
</g>
</g>
<!-- Node0&#45;&gt;Node15 -->
<g id="edge15_Node000000_Node000015" class="edge">
<title>Node0&#45;&gt;Node15</title>
<g id="a_edge15_Node000000_Node000015"><a xlink:title=" ">
<path fill="none" stroke="#63b8ff" d="M64.28,-495.62C68.41,-435.74 85.92,-303.09 160,-227.5 165.67,-221.71 172.52,-217.04 179.85,-213.26"/>
<polygon fill="#63b8ff" stroke="#63b8ff" points="60.76,-495.73 63.65,-505.93 67.75,-496.16 60.76,-495.73"/>
</a>
</g>
</g>
<!-- Node16 -->
<g id="Node000016" class="node">
<title>Node16</title>
<g id="a_Node000016"><a xlink:href="structcsl_1_1functional_1_1function__trait_3_01std_1_1function_3_01R_07Args_8_8_8_08_01volatile_01_4_01_4.html" target="_top" xlink:title=" ">
<polygon fill="white" stroke="#666666" points="313,-159 182,-159 182,-118 313,-118 313,-159"/>
<text text-anchor="start" x="190" y="-147" font-family="Helvetica,sans-Serif" font-size="10.00">csl::functional::function</text>
<text text-anchor="start" x="190" y="-136" font-family="Helvetica,sans-Serif" font-size="10.00">_trait&lt; std::function&lt;</text>
<text text-anchor="middle" x="247.5" y="-125" font-family="Helvetica,sans-Serif" font-size="10.00"> R(Args...) volatile &gt; &gt;</text>
</a>
</g>
</g>
<!-- Node0&#45;&gt;Node16 -->
<g id="edge16_Node000000_Node000016" class="edge">
<title>Node0&#45;&gt;Node16</title>
<g id="a_edge16_Node000000_Node000016"><a xlink:title=" ">
<path fill="none" stroke="#63b8ff" d="M62.28,-495.93C62.38,-427.89 72.22,-262.58 160,-168.5 166.07,-161.99 173.63,-156.9 181.73,-152.9"/>
<polygon fill="#63b8ff" stroke="#63b8ff" points="58.78,-496.01 62.34,-505.99 65.78,-495.97 58.78,-496.01"/>
</a>
</g>
</g>
<!-- Node17 -->
<g id="Node000017" class="node">
<title>Node17</title>
<g id="a_Node000017"><a xlink:href="structcsl_1_1functional_1_1function__trait_3_01std_1_1function_3_01R_07Args_8_8_8_08_01volatile_01noexcept_01_4_01_4.html" target="_top" xlink:title=" ">
<polygon fill="white" stroke="#666666" points="335,-100 160,-100 160,-59 335,-59 335,-100"/>
<text text-anchor="start" x="168" y="-88" font-family="Helvetica,sans-Serif" font-size="10.00">csl::functional::function</text>
<text text-anchor="start" x="168" y="-77" font-family="Helvetica,sans-Serif" font-size="10.00">_trait&lt; std::function&lt;</text>
<text text-anchor="middle" x="247.5" y="-66" font-family="Helvetica,sans-Serif" font-size="10.00"> R(Args...) volatile noexcept &gt; &gt;</text>
</a>
</g>
</g>
<!-- Node0&#45;&gt;Node17 -->
<g id="edge17_Node000000_Node000017" class="edge">
<title>Node0&#45;&gt;Node17</title>
<g id="a_edge17_Node000000_Node000017"><a xlink:title=" ">
<path fill="none" stroke="#63b8ff" d="M66.28,-495.97C76.11,-409.82 107.92,-167.38 160,-109.5 163.19,-105.96 166.82,-102.83 170.74,-100.07"/>
<polygon fill="#63b8ff" stroke="#63b8ff" points="62.8,-495.58 65.17,-505.9 69.76,-496.36 62.8,-495.58"/>
</a>
</g>
</g>
<!-- Node18 -->
<g id="Node000018" class="node">
<title>Node18</title>
<g id="a_Node000018"><a xlink:href="structcsl_1_1functional_1_1function__trait_3_01std_1_1function_3_01R_07Args_8_8_8_08_4_01_4.html" target="_top" xlink:title=" ">
<polygon fill="white" stroke="#666666" points="313,-41 182,-41 182,0 313,0 313,-41"/>
<text text-anchor="start" x="190" y="-29" font-family="Helvetica,sans-Serif" font-size="10.00">csl::functional::function</text>
<text text-anchor="start" x="190" y="-18" font-family="Helvetica,sans-Serif" font-size="10.00">_trait&lt; std::function&lt;</text>
<text text-anchor="middle" x="247.5" y="-7" font-family="Helvetica,sans-Serif" font-size="10.00"> R(Args...)&gt; &gt;</text>
</a>
</g>
</g>
<!-- Node0&#45;&gt;Node18 -->
<g id="edge18_Node000000_Node000018" class="edge">
<title>Node0&#45;&gt;Node18</title>
<g id="a_edge18_Node000000_Node000018"><a xlink:title=" ">
<path fill="none" stroke="#63b8ff" d="M65.33,-495.86C73.09,-401.55 100.97,-117.95 160,-50.5 165.97,-43.68 173.57,-38.41 181.77,-34.34"/>
<polygon fill="#63b8ff" stroke="#63b8ff" points="61.84,-495.65 64.52,-505.89 68.81,-496.21 61.84,-495.65"/>
</a>
</g>
</g>
</g>
</svg>
