<?xml version="1.0" encoding="UTF-8" standalone="no"?>
<!DOCTYPE svg PUBLIC "-//W3C//DTD SVG 1.1//EN"
 "http://www.w3.org/Graphics/SVG/1.1/DTD/svg11.dtd">
<!-- Generated by graphviz version 2.43.0 (0)
 -->
<!-- Title: Graphical Class Hierarchy Pages: 1 -->
<svg width="516pt" height="146pt"
 viewBox="0.00 0.00 516.00 146.00" xmlns="http://www.w3.org/2000/svg" xmlns:xlink="http://www.w3.org/1999/xlink">
<g id="graph0" class="graph" transform="scale(1 1) rotate(0) translate(4 142)">
<title>Graphical Class Hierarchy</title>
<!-- Node0 -->
<g id="Node000000" class="node">
<title>Node0</title>
<g id="a_Node000000"><a xlink:title=" ">
<polygon fill="#e0e0e0" stroke="#999999" points="98,-78.5 0,-78.5 0,-59.5 98,-59.5 98,-78.5"/>
<text text-anchor="middle" x="49" y="-66.5" font-family="Helvetica,sans-Serif" font-size="10.00">std::is_invocable</text>
</a>
</g>
</g>
<!-- Node1 -->
<g id="Node000001" class="node">
<title>Node1</title>
<g id="a_Node000001"><a xlink:href="structcsl_1_1wf_1_1mp_1_1is__invocable.html" target="_top" xlink:title=" ">
<polygon fill="white" stroke="#666666" points="288.5,-138 152.5,-138 152.5,-108 288.5,-108 288.5,-138"/>
<text text-anchor="start" x="160.5" y="-126" font-family="Helvetica,sans-Serif" font-size="10.00">csl::wf::mp::is_invocable</text>
<text text-anchor="middle" x="220.5" y="-115" font-family="Helvetica,sans-Serif" font-size="10.00">&lt; F, args_types... &gt;</text>
</a>
</g>
</g>
<!-- Node0&#45;&gt;Node1 -->
<g id="edge22_Node000000_Node000001" class="edge">
<title>Node0&#45;&gt;Node1</title>
<g id="a_edge22_Node000000_Node000001"><a xlink:title=" ">
<path fill="none" stroke="#63b8ff" d="M86.49,-82.02C101.2,-87.16 118.35,-93.01 134,-98 144.46,-101.33 155.7,-104.74 166.47,-107.92"/>
<polygon fill="#63b8ff" stroke="#63b8ff" points="87.34,-78.61 76.75,-78.6 85.02,-85.22 87.34,-78.61"/>
</a>
</g>
</g>
<!-- Node3 -->
<g id="Node000003" class="node">
<title>Node3</title>
<g id="a_Node000003"><a xlink:href="structcsl_1_1wf_1_1mp_1_1is__invocable.html" target="_top" xlink:title=" ">
<polygon fill="white" stroke="#666666" points="307,-89.5 134,-89.5 134,-48.5 307,-48.5 307,-89.5"/>
<text text-anchor="start" x="142" y="-77.5" font-family="Helvetica,sans-Serif" font-size="10.00">csl::wf::mp::is_invocable</text>
<text text-anchor="start" x="142" y="-66.5" font-family="Helvetica,sans-Serif" font-size="10.00">&lt; F, std::remove_cvref</text>
<text text-anchor="middle" x="220.5" y="-55.5" font-family="Helvetica,sans-Serif" font-size="10.00">_t&lt; ttps_type &gt;, args_types... &gt;</text>
</a>
</g>
</g>
<!-- Node0&#45;&gt;Node3 -->
<g id="edge24_Node000000_Node000003" class="edge">
<title>Node0&#45;&gt;Node3</title>
<g id="a_edge24_Node000000_Node000003"><a xlink:title=" ">
<path fill="none" stroke="#63b8ff" d="M108.31,-69C116.53,-69 125.12,-69 133.72,-69"/>
<polygon fill="#63b8ff" stroke="#63b8ff" points="108.12,-65.5 98.12,-69 108.12,-72.5 108.12,-65.5"/>
</a>
</g>
</g>
<!-- Node5 -->
<g id="Node000005" class="node">
<title>Node5</title>
<g id="a_Node000005"><a xlink:href="structcsl_1_1wf_1_1mp_1_1is__invocable.html" target="_top" xlink:title=" ">
<polygon fill="white" stroke="#666666" points="288.5,-30 152.5,-30 152.5,0 288.5,0 288.5,-30"/>
<text text-anchor="start" x="160.5" y="-18" font-family="Helvetica,sans-Serif" font-size="10.00">csl::wf::mp::is_invocable</text>
<text text-anchor="middle" x="220.5" y="-7" font-family="Helvetica,sans-Serif" font-size="10.00">&lt; F, args_types &gt;</text>
</a>
</g>
</g>
<!-- Node0&#45;&gt;Node5 -->
<g id="edge26_Node000000_Node000005" class="edge">
<title>Node0&#45;&gt;Node5</title>
<g id="a_edge26_Node000000_Node000005"><a xlink:title=" ">
<path fill="none" stroke="#63b8ff" d="M84.66,-56.01C99.74,-50.52 117.66,-44.2 134,-39 143.55,-35.96 153.76,-32.91 163.68,-30.07"/>
<polygon fill="#63b8ff" stroke="#63b8ff" points="83.39,-52.75 75.21,-59.48 85.8,-59.32 83.39,-52.75"/>
</a>
</g>
</g>
<!-- Node2 -->
<g id="Node000002" class="node">
<title>Node2</title>
<g id="a_Node000002"><a xlink:href="structcsl_1_1wf_1_1mp_1_1is__invocable_3_01F_00_01ttps_3_4_00_01args__types_8_8_8_01_4.html" target="_top" xlink:title=" ">
<polygon fill="white" stroke="#666666" points="503,-138 348,-138 348,-108 503,-108 503,-138"/>
<text text-anchor="start" x="356" y="-126" font-family="Helvetica,sans-Serif" font-size="10.00">csl::wf::mp::is_invocable</text>
<text text-anchor="middle" x="425.5" y="-115" font-family="Helvetica,sans-Serif" font-size="10.00">&lt; F, ttps&lt;&gt;, args_types... &gt;</text>
</a>
</g>
</g>
<!-- Node1&#45;&gt;Node2 -->
<g id="edge23_Node000001_Node000002" class="edge">
<title>Node1&#45;&gt;Node2</title>
<g id="a_edge23_Node000001_Node000002"><a xlink:title=" ">
<path fill="none" stroke="#63b8ff" d="M298.9,-123C314.89,-123 331.73,-123 347.7,-123"/>
<polygon fill="#63b8ff" stroke="#63b8ff" points="298.53,-119.5 288.53,-123 298.53,-126.5 298.53,-119.5"/>
</a>
</g>
</g>
<!-- Node4 -->
<g id="Node000004" class="node">
<title>Node4</title>
<g id="a_Node000004"><a xlink:href="structcsl_1_1wf_1_1mp_1_1is__invocable_3_01F_00_01ttps__type_00_01args__types_8_8_8_01_4.html" target="_top" xlink:title=" ">
<polygon fill="white" stroke="#666666" points="508,-84 343,-84 343,-54 508,-54 508,-84"/>
<text text-anchor="start" x="351" y="-72" font-family="Helvetica,sans-Serif" font-size="10.00">csl::wf::mp::is_invocable</text>
<text text-anchor="middle" x="425.5" y="-61" font-family="Helvetica,sans-Serif" font-size="10.00">&lt; F, ttps_type, args_types... &gt;</text>
</a>
</g>
</g>
<!-- Node3&#45;&gt;Node4 -->
<g id="edge25_Node000003_Node000004" class="edge">
<title>Node3&#45;&gt;Node4</title>
<g id="a_edge25_Node000003_Node000004"><a xlink:title=" ">
<path fill="none" stroke="#63b8ff" d="M317.12,-69C325.77,-69 334.47,-69 342.99,-69"/>
<polygon fill="#63b8ff" stroke="#63b8ff" points="317,-65.5 307,-69 317,-72.5 317,-65.5"/>
</a>
</g>
</g>
</g>
</svg>
