<?xml version="1.0" encoding="UTF-8" standalone="no"?>
<!DOCTYPE svg PUBLIC "-//W3C//DTD SVG 1.1//EN"
 "http://www.w3.org/Graphics/SVG/1.1/DTD/svg11.dtd">
<!-- Generated by graphviz version 2.43.0 (0)
 -->
<!-- Title: Graphical Class Hierarchy Pages: 1 -->
<svg width="530pt" height="162pt"
 viewBox="0.00 0.00 530.00 161.50" xmlns="http://www.w3.org/2000/svg" xmlns:xlink="http://www.w3.org/1999/xlink">
<g id="graph0" class="graph" transform="scale(1 1) rotate(0) translate(4 157.5)">
<title>Graphical Class Hierarchy</title>
<!-- Node0 -->
<g id="Node000000" class="node">
<title>Node0</title>
<g id="a_Node000000"><a xlink:title=" ">
<polygon fill="#e0e0e0" stroke="#999999" points="143,-83.5 0,-83.5 0,-64.5 143,-64.5 143,-83.5"/>
<text text-anchor="middle" x="71.5" y="-71.5" font-family="Helvetica,sans-Serif" font-size="10.00">std::is_nothrow_invocable</text>
</a>
</g>
</g>
<!-- Node1 -->
<g id="Node000001" class="node">
<title>Node1</title>
<g id="a_Node000001"><a xlink:href="structcsl_1_1wf_1_1mp_1_1is__nothrow__invocable.html" target="_top" xlink:title=" ">
<polygon fill="white" stroke="#666666" points="345,-148 179,-148 179,-118 345,-118 345,-148"/>
<text text-anchor="start" x="187" y="-136" font-family="Helvetica,sans-Serif" font-size="10.00">csl::wf::mp::is_nothrow</text>
<text text-anchor="middle" x="262" y="-125" font-family="Helvetica,sans-Serif" font-size="10.00">_invocable&lt; F, args_types... &gt;</text>
</a>
</g>
</g>
<!-- Node0&#45;&gt;Node1 -->
<g id="edge32_Node000000_Node000001" class="edge">
<title>Node0&#45;&gt;Node1</title>
<g id="a_edge32_Node000000_Node000001"><a xlink:title=" ">
<path fill="none" stroke="#63b8ff" d="M110.41,-86.79C130.71,-93.56 156.16,-101.91 179,-109 188.49,-111.95 198.63,-115 208.43,-117.89"/>
<polygon fill="#63b8ff" stroke="#63b8ff" points="111.49,-83.46 100.9,-83.61 109.27,-90.1 111.49,-83.46"/>
</a>
</g>
</g>
<!-- Node3 -->
<g id="Node000003" class="node">
<title>Node3</title>
<g id="a_Node000003"><a xlink:href="structcsl_1_1wf_1_1mp_1_1is__nothrow__invocable.html" target="_top" xlink:title=" ">
<polygon fill="white" stroke="#666666" points="337.5,-100 186.5,-100 186.5,-48 337.5,-48 337.5,-100"/>
<text text-anchor="start" x="194.5" y="-88" font-family="Helvetica,sans-Serif" font-size="10.00">csl::wf::mp::is_nothrow</text>
<text text-anchor="start" x="194.5" y="-77" font-family="Helvetica,sans-Serif" font-size="10.00">_invocable&lt; F, std::remove</text>
<text text-anchor="start" x="194.5" y="-66" font-family="Helvetica,sans-Serif" font-size="10.00">_cvref_t&lt; ttps_type &gt;, args</text>
<text text-anchor="middle" x="262" y="-55" font-family="Helvetica,sans-Serif" font-size="10.00">_types... &gt;</text>
</a>
</g>
</g>
<!-- Node0&#45;&gt;Node3 -->
<g id="edge34_Node000000_Node000003" class="edge">
<title>Node0&#45;&gt;Node3</title>
<g id="a_edge34_Node000000_Node000003"><a xlink:title=" ">
<path fill="none" stroke="#63b8ff" d="M153.25,-74C164.26,-74 175.52,-74 186.41,-74"/>
<polygon fill="#63b8ff" stroke="#63b8ff" points="153.23,-70.5 143.23,-74 153.23,-77.5 153.23,-70.5"/>
</a>
</g>
</g>
<!-- Node5 -->
<g id="Node000005" class="node">
<title>Node5</title>
<g id="a_Node000005"><a xlink:href="structcsl_1_1wf_1_1mp_1_1is__nothrow__invocable.html" target="_top" xlink:title=" ">
<polygon fill="white" stroke="#666666" points="340.5,-30 183.5,-30 183.5,0 340.5,0 340.5,-30"/>
<text text-anchor="start" x="191.5" y="-18" font-family="Helvetica,sans-Serif" font-size="10.00">csl::wf::mp::is_nothrow</text>
<text text-anchor="middle" x="262" y="-7" font-family="Helvetica,sans-Serif" font-size="10.00">_invocable&lt; F, args_types &gt;</text>
</a>
</g>
</g>
<!-- Node0&#45;&gt;Node5 -->
<g id="edge36_Node000000_Node000005" class="edge">
<title>Node0&#45;&gt;Node5</title>
<g id="a_edge36_Node000000_Node000005"><a xlink:title=" ">
<path fill="none" stroke="#63b8ff" d="M110.41,-61.21C130.71,-54.44 156.16,-46.09 179,-39 188.49,-36.05 198.63,-33 208.43,-30.11"/>
<polygon fill="#63b8ff" stroke="#63b8ff" points="109.27,-57.9 100.9,-64.39 111.49,-64.54 109.27,-57.9"/>
</a>
</g>
</g>
<!-- Node2 -->
<g id="Node000002" class="node">
<title>Node2</title>
<g id="a_Node000002"><a xlink:href="structcsl_1_1wf_1_1mp_1_1is__nothrow__invocable_3_01F_00_01ttps_3_4_00_01args__types_8_8_8_01_4.html" target="_top" xlink:title=" ">
<polygon fill="white" stroke="#666666" points="517,-153.5 386,-153.5 386,-112.5 517,-112.5 517,-153.5"/>
<text text-anchor="start" x="394" y="-141.5" font-family="Helvetica,sans-Serif" font-size="10.00">csl::wf::mp::is_nothrow</text>
<text text-anchor="start" x="394" y="-130.5" font-family="Helvetica,sans-Serif" font-size="10.00">_invocable&lt; F, ttps&lt;&gt;,</text>
<text text-anchor="middle" x="451.5" y="-119.5" font-family="Helvetica,sans-Serif" font-size="10.00"> args_types... &gt;</text>
</a>
</g>
</g>
<!-- Node1&#45;&gt;Node2 -->
<g id="edge33_Node000001_Node000002" class="edge">
<title>Node1&#45;&gt;Node2</title>
<g id="a_edge33_Node000001_Node000002"><a xlink:title=" ">
<path fill="none" stroke="#63b8ff" d="M355.47,-133C365.72,-133 375.99,-133 385.79,-133"/>
<polygon fill="#63b8ff" stroke="#63b8ff" points="355.24,-129.5 345.24,-133 355.24,-136.5 355.24,-129.5"/>
</a>
</g>
</g>
<!-- Node4 -->
<g id="Node000004" class="node">
<title>Node4</title>
<g id="a_Node000004"><a xlink:href="structcsl_1_1wf_1_1mp_1_1is__nothrow__invocable_3_01F_00_01ttps__type_00_01args__types_8_8_8_01_4.html" target="_top" xlink:title=" ">
<polygon fill="white" stroke="#666666" points="522,-94.5 381,-94.5 381,-53.5 522,-53.5 522,-94.5"/>
<text text-anchor="start" x="389" y="-82.5" font-family="Helvetica,sans-Serif" font-size="10.00">csl::wf::mp::is_nothrow</text>
<text text-anchor="start" x="389" y="-71.5" font-family="Helvetica,sans-Serif" font-size="10.00">_invocable&lt; F, ttps_type,</text>
<text text-anchor="middle" x="451.5" y="-60.5" font-family="Helvetica,sans-Serif" font-size="10.00"> args_types... &gt;</text>
</a>
</g>
</g>
<!-- Node3&#45;&gt;Node4 -->
<g id="edge35_Node000003_Node000004" class="edge">
<title>Node3&#45;&gt;Node4</title>
<g id="a_edge35_Node000003_Node000004"><a xlink:title=" ">
<path fill="none" stroke="#63b8ff" d="M347.78,-74C358.89,-74 370.17,-74 380.99,-74"/>
<polygon fill="#63b8ff" stroke="#63b8ff" points="347.64,-70.5 337.64,-74 347.64,-77.5 347.64,-70.5"/>
</a>
</g>
</g>
</g>
</svg>
