<?xml version="1.0" encoding="UTF-8" standalone="no"?>
<!DOCTYPE svg PUBLIC "-//W3C//DTD SVG 1.1//EN"
 "http://www.w3.org/Graphics/SVG/1.1/DTD/svg11.dtd">
<!-- Generated by graphviz version 2.43.0 (0)
 -->
<!-- Title: Graphical Class Hierarchy Pages: 1 -->
<svg width="516pt" height="282pt"
 viewBox="0.00 0.00 516.00 282.00" xmlns="http://www.w3.org/2000/svg" xmlns:xlink="http://www.w3.org/1999/xlink">
<g id="graph0" class="graph" transform="scale(1 1) rotate(0) translate(4 278)">
<title>Graphical Class Hierarchy</title>
<!-- Node0 -->
<g id="Node000000" class="node">
<title>Node0</title>
<g id="a_Node000000"><a xlink:title=" ">
<polygon fill="#e0e0e0" stroke="#999999" points="98,-151.5 0,-151.5 0,-132.5 98,-132.5 98,-151.5"/>
<text text-anchor="middle" x="49" y="-139.5" font-family="Helvetica,sans-Serif" font-size="10.00">std::is_invocable</text>
</a>
</g>
</g>
<!-- Node1 -->
<g id="Node000001" class="node">
<title>Node1</title>
<g id="a_Node000001"><a xlink:href="structcsl_1_1wf_1_1mp_1_1is__invocable.html" target="_top" xlink:title=" ">
<polygon fill="white" stroke="#666666" points="288.5,-274 152.5,-274 152.5,-244 288.5,-244 288.5,-274"/>
<text text-anchor="start" x="160.5" y="-262" font-family="Helvetica,sans-Serif" font-size="10.00">csl::wf::mp::is_invocable</text>
<text text-anchor="middle" x="220.5" y="-251" font-family="Helvetica,sans-Serif" font-size="10.00">&lt; F, args_types... &gt;</text>
</a>
</g>
</g>
<!-- Node0&#45;&gt;Node1 -->
<g id="edge27_Node000000_Node000001" class="edge">
<title>Node0&#45;&gt;Node1</title>
<g id="a_edge27_Node000000_Node000001"><a xlink:title=" ">
<path fill="none" stroke="#63b8ff" d="M62.75,-159.81C77.74,-179.55 104.35,-211.09 134,-230 142.72,-235.56 152.63,-240.19 162.53,-243.98"/>
<polygon fill="#63b8ff" stroke="#63b8ff" points="65.48,-157.61 56.71,-151.66 59.85,-161.78 65.48,-157.61"/>
</a>
</g>
</g>
<!-- Node2 -->
<g id="Node000002" class="node">
<title>Node2</title>
<g id="a_Node000002"><a xlink:href="structcsl_1_1wf_1_1mp_1_1is__invocable_3_01F_00_01ttps_3_4_00_01args__types_8_8_8_01_4.html" target="_top" xlink:title=" ">
<polygon fill="white" stroke="#666666" points="503,-252 348,-252 348,-222 503,-222 503,-252"/>
<text text-anchor="start" x="356" y="-240" font-family="Helvetica,sans-Serif" font-size="10.00">csl::wf::mp::is_invocable</text>
<text text-anchor="middle" x="425.5" y="-229" font-family="Helvetica,sans-Serif" font-size="10.00">&lt; F, ttps&lt;&gt;, args_types... &gt;</text>
</a>
</g>
</g>
<!-- Node0&#45;&gt;Node2 -->
<g id="edge33_Node000000_Node000002" class="edge">
<title>Node0&#45;&gt;Node2</title>
<g id="a_edge33_Node000000_Node000002"><a xlink:title=" ">
<path fill="none" stroke="#63b8ff" d="M69.17,-158.15C85.38,-170.87 109.76,-187.92 134,-197 203.49,-223.02 288.02,-232.38 347.93,-235.61"/>
<polygon fill="#63b8ff" stroke="#63b8ff" points="71.04,-155.16 61.07,-151.6 66.65,-160.61 71.04,-155.16"/>
</a>
</g>
</g>
<!-- Node3 -->
<g id="Node000003" class="node">
<title>Node3</title>
<g id="a_Node000003"><a xlink:href="structcsl_1_1wf_1_1mp_1_1is__invocable.html" target="_top" xlink:title=" ">
<polygon fill="white" stroke="#666666" points="307,-187.5 134,-187.5 134,-146.5 307,-146.5 307,-187.5"/>
<text text-anchor="start" x="142" y="-175.5" font-family="Helvetica,sans-Serif" font-size="10.00">csl::wf::mp::is_invocable</text>
<text text-anchor="start" x="142" y="-164.5" font-family="Helvetica,sans-Serif" font-size="10.00">&lt; F, std::remove_cvref</text>
<text text-anchor="middle" x="220.5" y="-153.5" font-family="Helvetica,sans-Serif" font-size="10.00">_t&lt; ttps_type &gt;, args_types... &gt;</text>
</a>
</g>
</g>
<!-- Node0&#45;&gt;Node3 -->
<g id="edge29_Node000000_Node000003" class="edge">
<title>Node0&#45;&gt;Node3</title>
<g id="a_edge29_Node000000_Node000003"><a xlink:title=" ">
<path fill="none" stroke="#63b8ff" d="M108.03,-150.56C116.34,-151.78 125.02,-153.06 133.72,-154.35"/>
<polygon fill="#63b8ff" stroke="#63b8ff" points="108.52,-147.09 98.12,-149.1 107.5,-154.02 108.52,-147.09"/>
</a>
</g>
</g>
<!-- Node4 -->
<g id="Node000004" class="node">
<title>Node4</title>
<g id="a_Node000004"><a xlink:href="structcsl_1_1wf_1_1mp_1_1is__invocable_3_01F_00_01ttps__type_00_01args__types_8_8_8_01_4.html" target="_top" xlink:title=" ">
<polygon fill="white" stroke="#666666" points="508,-160 343,-160 343,-130 508,-130 508,-160"/>
<text text-anchor="start" x="351" y="-148" font-family="Helvetica,sans-Serif" font-size="10.00">csl::wf::mp::is_invocable</text>
<text text-anchor="middle" x="425.5" y="-137" font-family="Helvetica,sans-Serif" font-size="10.00">&lt; F, ttps_type, args_types... &gt;</text>
</a>
</g>
</g>
<!-- Node0&#45;&gt;Node4 -->
<g id="edge34_Node000000_Node000004" class="edge">
<title>Node0&#45;&gt;Node4</title>
<g id="a_edge34_Node000000_Node000004"><a xlink:title=" ">
<path fill="none" stroke="#63b8ff" d="M108.66,-138.85C117.16,-138.5 125.8,-138.2 134,-138 210.87,-136.17 230.15,-135.71 307,-138 318.64,-138.35 330.93,-138.89 342.99,-139.51"/>
<polygon fill="#63b8ff" stroke="#63b8ff" points="108.24,-135.36 98.4,-139.3 108.55,-142.36 108.24,-135.36"/>
</a>
</g>
</g>
<!-- Node5 -->
<g id="Node000005" class="node">
<title>Node5</title>
<g id="a_Node000005"><a xlink:href="structcsl_1_1wf_1_1mp_1_1is__invocable_3_01F_00_01ttps_3_01ttps__args_8_8_8_01_4_00_01args__types_8_8_8_01_4.html" target="_top" xlink:title=" ">
<polygon fill="white" stroke="#666666" points="288.5,-89.5 152.5,-89.5 152.5,-48.5 288.5,-48.5 288.5,-89.5"/>
<text text-anchor="start" x="160.5" y="-77.5" font-family="Helvetica,sans-Serif" font-size="10.00">csl::wf::mp::is_invocable</text>
<text text-anchor="start" x="160.5" y="-66.5" font-family="Helvetica,sans-Serif" font-size="10.00">&lt; F, ttps&lt; ttps_args...</text>
<text text-anchor="middle" x="220.5" y="-55.5" font-family="Helvetica,sans-Serif" font-size="10.00"> &gt;, args_types... &gt;</text>
</a>
</g>
</g>
<!-- Node0&#45;&gt;Node5 -->
<g id="edge31_Node000000_Node000005" class="edge">
<title>Node0&#45;&gt;Node5</title>
<g id="a_edge31_Node000000_Node000005"><a xlink:title=" ">
<path fill="none" stroke="#63b8ff" d="M79.99,-128.12C95.96,-120.8 115.98,-111.76 134,-104 145.05,-99.24 156.96,-94.27 168.28,-89.61"/>
<polygon fill="#63b8ff" stroke="#63b8ff" points="78.24,-125.06 70.62,-132.42 81.17,-131.43 78.24,-125.06"/>
</a>
</g>
</g>
<!-- Node7 -->
<g id="Node000007" class="node">
<title>Node7</title>
<g id="a_Node000007"><a xlink:href="structcsl_1_1wf_1_1mp_1_1is__invocable.html" target="_top" xlink:title=" ">
<polygon fill="white" stroke="#666666" points="288.5,-30 152.5,-30 152.5,0 288.5,0 288.5,-30"/>
<text text-anchor="start" x="160.5" y="-18" font-family="Helvetica,sans-Serif" font-size="10.00">csl::wf::mp::is_invocable</text>
<text text-anchor="middle" x="220.5" y="-7" font-family="Helvetica,sans-Serif" font-size="10.00">&lt; F, args_types &gt;</text>
</a>
</g>
</g>
<!-- Node0&#45;&gt;Node7 -->
<g id="edge35_Node000000_Node000007" class="edge">
<title>Node0&#45;&gt;Node7</title>
<g id="a_edge35_Node000000_Node000007"><a xlink:title=" ">
<path fill="none" stroke="#63b8ff" d="M60.18,-123.54C73.91,-100.34 100.56,-60.91 134,-39 139.67,-35.28 145.92,-32.13 152.38,-29.47"/>
<polygon fill="#63b8ff" stroke="#63b8ff" points="57.04,-121.98 55.1,-132.39 63.11,-125.46 57.04,-121.98"/>
</a>
</g>
</g>
<!-- Node1&#45;&gt;Node2 -->
<g id="edge28_Node000001_Node000002" class="edge">
<title>Node1&#45;&gt;Node2</title>
<g id="a_edge28_Node000001_Node000002"><a xlink:title=" ">
<path fill="none" stroke="#63b8ff" d="M298.9,-250.61C314.89,-248.88 331.73,-247.05 347.7,-245.32"/>
<polygon fill="#63b8ff" stroke="#63b8ff" points="298.1,-247.18 288.53,-251.74 298.85,-254.14 298.1,-247.18"/>
</a>
</g>
</g>
<!-- Node3&#45;&gt;Node4 -->
<g id="edge30_Node000003_Node000004" class="edge">
<title>Node3&#45;&gt;Node4</title>
<g id="a_edge30_Node000003_Node000004"><a xlink:title=" ">
<path fill="none" stroke="#63b8ff" d="M317.12,-156.64C325.77,-155.7 334.47,-154.76 342.99,-153.83"/>
<polygon fill="#63b8ff" stroke="#63b8ff" points="316.57,-153.18 307,-157.73 317.32,-160.14 316.57,-153.18"/>
</a>
</g>
</g>
<!-- Node6 -->
<g id="Node000006" class="node">
<title>Node6</title>
<g id="a_Node000006"><a xlink:href="structcsl_1_1wf_1_1mp_1_1is__invocable__with_3_01F_00_01ttps_3_01ttps__args_8_8_8_01_4_00_01args6c0024fa11d1ff50fd9c101bdc9a5f76.html" target="_top" xlink:title=" ">
<polygon fill="white" stroke="#666666" points="501,-89.5 350,-89.5 350,-48.5 501,-48.5 501,-89.5"/>
<text text-anchor="start" x="358" y="-77.5" font-family="Helvetica,sans-Serif" font-size="10.00">csl::wf::mp::is_invocable</text>
<text text-anchor="start" x="358" y="-66.5" font-family="Helvetica,sans-Serif" font-size="10.00">_with&lt; F, ttps&lt; ttps_args...</text>
<text text-anchor="middle" x="425.5" y="-55.5" font-family="Helvetica,sans-Serif" font-size="10.00"> &gt;, args&lt; args_types... &gt; &gt;</text>
</a>
</g>
</g>
<!-- Node5&#45;&gt;Node6 -->
<g id="edge32_Node000005_Node000006" class="edge">
<title>Node5&#45;&gt;Node6</title>
<g id="a_edge32_Node000005_Node000006"><a xlink:title=" ">
<path fill="none" stroke="#63b8ff" d="M298.81,-69C315.54,-69 333.2,-69 349.83,-69"/>
<polygon fill="#63b8ff" stroke="#63b8ff" points="298.53,-65.5 288.53,-69 298.53,-72.5 298.53,-65.5"/>
</a>
</g>
</g>
</g>
</svg>
