<?xml version="1.0" encoding="UTF-8" standalone="no"?>
<!DOCTYPE svg PUBLIC "-//W3C//DTD SVG 1.1//EN"
 "http://www.w3.org/Graphics/SVG/1.1/DTD/svg11.dtd">
<!-- Generated by graphviz version 2.43.0 (0)
 -->
<!-- Title: Graphical Class Hierarchy Pages: 1 -->
<svg width="521pt" height="179pt"
 viewBox="0.00 0.00 521.00 179.00" xmlns="http://www.w3.org/2000/svg" xmlns:xlink="http://www.w3.org/1999/xlink">
<g id="graph0" class="graph" transform="scale(1 1) rotate(0) translate(4 175)">
<title>Graphical Class Hierarchy</title>
<!-- Node0 -->
<g id="Node000000" class="node">
<title>Node0</title>
<g id="a_Node000000"><a xlink:title=" ">
<polygon fill="#e0e0e0" stroke="#999999" points="152,-95 0,-95 0,-76 152,-76 152,-95"/>
<text text-anchor="middle" x="76" y="-83" font-family="Helvetica,sans-Serif" font-size="10.00">std::is_nothrow_invocable_r</text>
</a>
</g>
</g>
<!-- Node1 -->
<g id="Node000001" class="node">
<title>Node1</title>
<g id="a_Node000001"><a xlink:href="structcsl_1_1wf_1_1mp_1_1is__nothrow__invocable__r.html" target="_top" xlink:title=" ">
<polygon fill="white" stroke="#666666" points="333.5,-171 198.5,-171 198.5,-130 333.5,-130 333.5,-171"/>
<text text-anchor="start" x="206.5" y="-159" font-family="Helvetica,sans-Serif" font-size="10.00">csl::wf::mp::is_nothrow</text>
<text text-anchor="start" x="206.5" y="-148" font-family="Helvetica,sans-Serif" font-size="10.00">_invocable_r&lt; R, F, args</text>
<text text-anchor="middle" x="266" y="-137" font-family="Helvetica,sans-Serif" font-size="10.00">_types... &gt;</text>
</a>
</g>
</g>
<!-- Node0&#45;&gt;Node1 -->
<g id="edge37_Node000000_Node000001" class="edge">
<title>Node0&#45;&gt;Node1</title>
<g id="a_edge37_Node000000_Node000001"><a xlink:title=" ">
<path fill="none" stroke="#63b8ff" d="M114.25,-98.38C140.33,-107.39 175.72,-119.63 205.66,-129.98"/>
<polygon fill="#63b8ff" stroke="#63b8ff" points="115.33,-95.05 104.74,-95.09 113.05,-101.67 115.33,-95.05"/>
</a>
</g>
</g>
<!-- Node3 -->
<g id="Node000003" class="node">
<title>Node3</title>
<g id="a_Node000003"><a xlink:href="structcsl_1_1wf_1_1mp_1_1is__nothrow__invocable__r.html" target="_top" xlink:title=" ">
<polygon fill="white" stroke="#666666" points="344,-111.5 188,-111.5 188,-59.5 344,-59.5 344,-111.5"/>
<text text-anchor="start" x="196" y="-99.5" font-family="Helvetica,sans-Serif" font-size="10.00">csl::wf::mp::is_nothrow</text>
<text text-anchor="start" x="196" y="-88.5" font-family="Helvetica,sans-Serif" font-size="10.00">_invocable_r&lt; R, F, std</text>
<text text-anchor="start" x="196" y="-77.5" font-family="Helvetica,sans-Serif" font-size="10.00">::remove_cvref_t&lt; ttps_type</text>
<text text-anchor="middle" x="266" y="-66.5" font-family="Helvetica,sans-Serif" font-size="10.00"> &gt;, args_types... &gt;</text>
</a>
</g>
</g>
<!-- Node0&#45;&gt;Node3 -->
<g id="edge39_Node000000_Node000003" class="edge">
<title>Node0&#45;&gt;Node3</title>
<g id="a_edge39_Node000000_Node000003"><a xlink:title=" ">
<path fill="none" stroke="#63b8ff" d="M162.12,-85.5C170.69,-85.5 179.37,-85.5 187.85,-85.5"/>
<polygon fill="#63b8ff" stroke="#63b8ff" points="162.11,-82 152.11,-85.5 162.11,-89 162.11,-82"/>
</a>
</g>
</g>
<!-- Node5 -->
<g id="Node000005" class="node">
<title>Node5</title>
<g id="a_Node000005"><a xlink:href="structcsl_1_1wf_1_1mp_1_1is__nothrow__invocable__r.html" target="_top" xlink:title=" ">
<polygon fill="white" stroke="#666666" points="333.5,-41 198.5,-41 198.5,0 333.5,0 333.5,-41"/>
<text text-anchor="start" x="206.5" y="-29" font-family="Helvetica,sans-Serif" font-size="10.00">csl::wf::mp::is_nothrow</text>
<text text-anchor="start" x="206.5" y="-18" font-family="Helvetica,sans-Serif" font-size="10.00">_invocable_r&lt; R, F, args</text>
<text text-anchor="middle" x="266" y="-7" font-family="Helvetica,sans-Serif" font-size="10.00">_types &gt;</text>
</a>
</g>
</g>
<!-- Node0&#45;&gt;Node5 -->
<g id="edge41_Node000000_Node000005" class="edge">
<title>Node0&#45;&gt;Node5</title>
<g id="a_edge41_Node000000_Node000005"><a xlink:title=" ">
<path fill="none" stroke="#63b8ff" d="M114.25,-72.62C140.33,-63.61 175.72,-51.37 205.66,-41.02"/>
<polygon fill="#63b8ff" stroke="#63b8ff" points="113.05,-69.33 104.74,-75.91 115.33,-75.95 113.05,-69.33"/>
</a>
</g>
</g>
<!-- Node2 -->
<g id="Node000002" class="node">
<title>Node2</title>
<g id="a_Node000002"><a xlink:href="structcsl_1_1wf_1_1mp_1_1is__nothrow__invocable__r_3_01R_00_01F_00_01ttps_3_4_00_01args__types_8_8_8_01_4.html" target="_top" xlink:title=" ">
<polygon fill="white" stroke="#666666" points="513,-171 380,-171 380,-130 513,-130 513,-171"/>
<text text-anchor="start" x="388" y="-159" font-family="Helvetica,sans-Serif" font-size="10.00">csl::wf::mp::is_nothrow</text>
<text text-anchor="start" x="388" y="-148" font-family="Helvetica,sans-Serif" font-size="10.00">_invocable_r&lt; R, F, ttps</text>
<text text-anchor="middle" x="446.5" y="-137" font-family="Helvetica,sans-Serif" font-size="10.00">&lt;&gt;, args_types... &gt;</text>
</a>
</g>
</g>
<!-- Node1&#45;&gt;Node2 -->
<g id="edge38_Node000001_Node000002" class="edge">
<title>Node1&#45;&gt;Node2</title>
<g id="a_edge38_Node000001_Node000002"><a xlink:title=" ">
<path fill="none" stroke="#63b8ff" d="M344.07,-150.5C355.96,-150.5 368.14,-150.5 379.75,-150.5"/>
<polygon fill="#63b8ff" stroke="#63b8ff" points="343.72,-147 333.72,-150.5 343.72,-154 343.72,-147"/>
</a>
</g>
</g>
<!-- Node4 -->
<g id="Node000004" class="node">
<title>Node4</title>
<g id="a_Node000004"><a xlink:href="structcsl_1_1wf_1_1mp_1_1is__nothrow__invocable__r_3_01R_00_01F_00_01ttps__type_00_01args__types_8_8_8_01_4.html" target="_top" xlink:title=" ">
<polygon fill="white" stroke="#666666" points="513,-106 380,-106 380,-65 513,-65 513,-106"/>
<text text-anchor="start" x="388" y="-94" font-family="Helvetica,sans-Serif" font-size="10.00">csl::wf::mp::is_nothrow</text>
<text text-anchor="start" x="388" y="-83" font-family="Helvetica,sans-Serif" font-size="10.00">_invocable_r&lt; R, F, ttps</text>
<text text-anchor="middle" x="446.5" y="-72" font-family="Helvetica,sans-Serif" font-size="10.00">_type, args_types... &gt;</text>
</a>
</g>
</g>
<!-- Node3&#45;&gt;Node4 -->
<g id="edge40_Node000003_Node000004" class="edge">
<title>Node3&#45;&gt;Node4</title>
<g id="a_edge40_Node000003_Node000004"><a xlink:title=" ">
<path fill="none" stroke="#63b8ff" d="M354.32,-85.5C362.92,-85.5 371.55,-85.5 379.87,-85.5"/>
<polygon fill="#63b8ff" stroke="#63b8ff" points="354.25,-82 344.25,-85.5 354.25,-89 354.25,-82"/>
</a>
</g>
</g>
</g>
</svg>
