<?xml version="1.0" encoding="UTF-8" standalone="no"?>
<!DOCTYPE svg PUBLIC "-//W3C//DTD SVG 1.1//EN"
 "http://www.w3.org/Graphics/SVG/1.1/DTD/svg11.dtd">
<!-- Generated by graphviz version 2.43.0 (0)
 -->
<!-- Title: Graphical Class Hierarchy Pages: 1 -->
<svg width="451pt" height="162pt"
 viewBox="0.00 0.00 451.00 161.50" xmlns="http://www.w3.org/2000/svg" xmlns:xlink="http://www.w3.org/1999/xlink">
<g id="graph0" class="graph" transform="scale(1 1) rotate(0) translate(4 157.5)">
<title>Graphical Class Hierarchy</title>
<!-- Node0 -->
<g id="Node000000" class="node">
<title>Node0</title>
<g id="a_Node000000"><a xlink:title=" ">
<polygon fill="#e0e0e0" stroke="#999999" points="103,-83.5 0,-83.5 0,-64.5 103,-64.5 103,-83.5"/>
<text text-anchor="middle" x="51.5" y="-71.5" font-family="Helvetica,sans-Serif" font-size="10.00">std::invoke_result</text>
</a>
</g>
</g>
<!-- Node1 -->
<g id="Node000001" class="node">
<title>Node1</title>
<g id="a_Node000001"><a xlink:href="structcsl_1_1wf_1_1mp_1_1invoke__result.html" target="_top" xlink:title=" ">
<polygon fill="white" stroke="#666666" points="285,-148 139,-148 139,-118 285,-118 285,-148"/>
<text text-anchor="start" x="147" y="-136" font-family="Helvetica,sans-Serif" font-size="10.00">csl::wf::mp::invoke</text>
<text text-anchor="middle" x="212" y="-125" font-family="Helvetica,sans-Serif" font-size="10.00">_result&lt; F, args_types... &gt;</text>
</a>
</g>
</g>
<!-- Node0&#45;&gt;Node1 -->
<g id="edge17_Node000000_Node000001" class="edge">
<title>Node0&#45;&gt;Node1</title>
<g id="a_edge17_Node000000_Node000001"><a xlink:title=" ">
<path fill="none" stroke="#63b8ff" d="M84.66,-87.57C100.86,-94.27 120.87,-102.32 139,-109 147.16,-112.01 155.9,-115.06 164.37,-117.93"/>
<polygon fill="#63b8ff" stroke="#63b8ff" points="85.69,-84.21 75.11,-83.6 83,-90.67 85.69,-84.21"/>
</a>
</g>
</g>
<!-- Node3 -->
<g id="Node000003" class="node">
<title>Node3</title>
<g id="a_Node000003"><a xlink:href="structcsl_1_1wf_1_1mp_1_1invoke__result.html" target="_top" xlink:title=" ">
<polygon fill="white" stroke="#666666" points="277.5,-100 146.5,-100 146.5,-48 277.5,-48 277.5,-100"/>
<text text-anchor="start" x="154.5" y="-88" font-family="Helvetica,sans-Serif" font-size="10.00">csl::wf::mp::invoke</text>
<text text-anchor="start" x="154.5" y="-77" font-family="Helvetica,sans-Serif" font-size="10.00">_result&lt; F, std::remove</text>
<text text-anchor="start" x="154.5" y="-66" font-family="Helvetica,sans-Serif" font-size="10.00">_cvref_t&lt; ttps_type &gt;,</text>
<text text-anchor="middle" x="212" y="-55" font-family="Helvetica,sans-Serif" font-size="10.00"> args_types... &gt;</text>
</a>
</g>
</g>
<!-- Node0&#45;&gt;Node3 -->
<g id="edge19_Node000000_Node000003" class="edge">
<title>Node0&#45;&gt;Node3</title>
<g id="a_edge19_Node000000_Node000003"><a xlink:title=" ">
<path fill="none" stroke="#63b8ff" d="M113.3,-74C124.13,-74 135.46,-74 146.4,-74"/>
<polygon fill="#63b8ff" stroke="#63b8ff" points="113.09,-70.5 103.09,-74 113.09,-77.5 113.09,-70.5"/>
</a>
</g>
</g>
<!-- Node5 -->
<g id="Node000005" class="node">
<title>Node5</title>
<g id="a_Node000005"><a xlink:href="structcsl_1_1wf_1_1mp_1_1invoke__result.html" target="_top" xlink:title=" ">
<polygon fill="white" stroke="#666666" points="280.5,-30 143.5,-30 143.5,0 280.5,0 280.5,-30"/>
<text text-anchor="start" x="151.5" y="-18" font-family="Helvetica,sans-Serif" font-size="10.00">csl::wf::mp::invoke</text>
<text text-anchor="middle" x="212" y="-7" font-family="Helvetica,sans-Serif" font-size="10.00">_result&lt; F, args_types &gt;</text>
</a>
</g>
</g>
<!-- Node0&#45;&gt;Node5 -->
<g id="edge21_Node000000_Node000005" class="edge">
<title>Node0&#45;&gt;Node5</title>
<g id="a_edge21_Node000000_Node000005"><a xlink:title=" ">
<path fill="none" stroke="#63b8ff" d="M84.66,-60.43C100.86,-53.73 120.87,-45.68 139,-39 147.16,-35.99 155.9,-32.94 164.37,-30.07"/>
<polygon fill="#63b8ff" stroke="#63b8ff" points="83,-57.33 75.11,-64.4 85.69,-63.79 83,-57.33"/>
</a>
</g>
</g>
<!-- Node2 -->
<g id="Node000002" class="node">
<title>Node2</title>
<g id="a_Node000002"><a xlink:href="structcsl_1_1wf_1_1mp_1_1invoke__result_3_01F_00_01ttps_3_4_00_01args__types_8_8_8_01_4.html" target="_top" xlink:title=" ">
<polygon fill="white" stroke="#666666" points="437.5,-153.5 326.5,-153.5 326.5,-112.5 437.5,-112.5 437.5,-153.5"/>
<text text-anchor="start" x="334.5" y="-141.5" font-family="Helvetica,sans-Serif" font-size="10.00">csl::wf::mp::invoke</text>
<text text-anchor="start" x="334.5" y="-130.5" font-family="Helvetica,sans-Serif" font-size="10.00">_result&lt; F, ttps&lt;&gt;,</text>
<text text-anchor="middle" x="382" y="-119.5" font-family="Helvetica,sans-Serif" font-size="10.00"> args_types... &gt;</text>
</a>
</g>
</g>
<!-- Node1&#45;&gt;Node2 -->
<g id="edge18_Node000001_Node000002" class="edge">
<title>Node1&#45;&gt;Node2</title>
<g id="a_edge18_Node000001_Node000002"><a xlink:title=" ">
<path fill="none" stroke="#63b8ff" d="M295.29,-133C305.83,-133 316.4,-133 326.35,-133"/>
<polygon fill="#63b8ff" stroke="#63b8ff" points="295.22,-129.5 285.22,-133 295.22,-136.5 295.22,-129.5"/>
</a>
</g>
</g>
<!-- Node4 -->
<g id="Node000004" class="node">
<title>Node4</title>
<g id="a_Node000004"><a xlink:href="structcsl_1_1wf_1_1mp_1_1invoke__result_3_01F_00_01ttps__type_00_01args__types_8_8_8_01_4.html" target="_top" xlink:title=" ">
<polygon fill="white" stroke="#666666" points="443,-94.5 321,-94.5 321,-53.5 443,-53.5 443,-94.5"/>
<text text-anchor="start" x="329" y="-82.5" font-family="Helvetica,sans-Serif" font-size="10.00">csl::wf::mp::invoke</text>
<text text-anchor="start" x="329" y="-71.5" font-family="Helvetica,sans-Serif" font-size="10.00">_result&lt; F, ttps_type,</text>
<text text-anchor="middle" x="382" y="-60.5" font-family="Helvetica,sans-Serif" font-size="10.00"> args_types... &gt;</text>
</a>
</g>
</g>
<!-- Node3&#45;&gt;Node4 -->
<g id="edge20_Node000003_Node000004" class="edge">
<title>Node3&#45;&gt;Node4</title>
<g id="a_edge20_Node000003_Node000004"><a xlink:title=" ">
<path fill="none" stroke="#63b8ff" d="M287.99,-74C299.01,-74 310.23,-74 320.9,-74"/>
<polygon fill="#63b8ff" stroke="#63b8ff" points="287.95,-70.5 277.95,-74 287.95,-77.5 287.95,-70.5"/>
</a>
</g>
</g>
</g>
</svg>
