<?xml version="1.0" encoding="UTF-8" standalone="no"?>
<!DOCTYPE svg PUBLIC "-//W3C//DTD SVG 1.1//EN"
 "http://www.w3.org/Graphics/SVG/1.1/DTD/svg11.dtd">
<!-- Generated by graphviz version 2.43.0 (0)
 -->
<!-- Title: Graphical Class Hierarchy Pages: 1 -->
<svg width="287pt" height="98pt"
 viewBox="0.00 0.00 287.00 97.50" xmlns="http://www.w3.org/2000/svg" xmlns:xlink="http://www.w3.org/1999/xlink">
<g id="graph0" class="graph" transform="scale(1 1) rotate(0) translate(4 93.5)">
<title>Graphical Class Hierarchy</title>
<!-- Node0 -->
<g id="Node000000" class="node">
<title>Node0</title>
<g id="a_Node000000"><a xlink:title=" ">
<polygon fill="#e0e0e0" stroke="#999999" points="107,-57 0,-57 0,-27 107,-27 107,-57"/>
<text text-anchor="start" x="8" y="-45" font-family="Helvetica,sans-Serif" font-size="10.00">decltypestd::index</text>
<text text-anchor="middle" x="53.5" y="-34" font-family="Helvetica,sans-Serif" font-size="10.00">_sequence</text>
</a>
</g>
</g>
<!-- Node1 -->
<g id="Node000001" class="node">
<title>Node1</title>
<g id="a_Node000001"><a xlink:href="structcsl_1_1wf_1_1mp_1_1apply__result_3_01F_00_01ttps_3_01ttps__args_8_8_8_01_4_00_01tuple__type_01_4.html" target="_top" xlink:title=" ">
<polygon fill="white" stroke="#666666" points="277,-89.5 145,-89.5 145,-48.5 277,-48.5 277,-89.5"/>
<text text-anchor="start" x="153" y="-77.5" font-family="Helvetica,sans-Serif" font-size="10.00">csl::wf::mp::apply</text>
<text text-anchor="start" x="153" y="-66.5" font-family="Helvetica,sans-Serif" font-size="10.00">_result&lt; F, ttps&lt; ttps</text>
<text text-anchor="middle" x="211" y="-55.5" font-family="Helvetica,sans-Serif" font-size="10.00">_args... &gt;, tuple_type &gt;</text>
</a>
</g>
</g>
<!-- Node0&#45;&gt;Node1 -->
<g id="edge12_Node000000_Node000001" class="edge">
<title>Node0&#45;&gt;Node1</title>
<g id="a_edge12_Node000000_Node000001"><a xlink:title=" ">
<path fill="none" stroke="#63b8ff" d="M117,-52.85C126.22,-54.45 135.73,-56.1 145,-57.71"/>
<polygon fill="#63b8ff" stroke="#63b8ff" points="117.6,-49.4 107.15,-51.14 116.4,-56.3 117.6,-49.4"/>
</a>
</g>
</g>
<!-- Node2 -->
<g id="Node000002" class="node">
<title>Node2</title>
<g id="a_Node000002"><a xlink:href="structcsl_1_1wf_1_1mp_1_1apply__result_3_01F_00_01tuple__type_01_4.html" target="_top" xlink:title=" ">
<polygon fill="white" stroke="#666666" points="279,-30 143,-30 143,0 279,0 279,-30"/>
<text text-anchor="start" x="151" y="-18" font-family="Helvetica,sans-Serif" font-size="10.00">csl::wf::mp::apply</text>
<text text-anchor="middle" x="211" y="-7" font-family="Helvetica,sans-Serif" font-size="10.00">_result&lt; F, tuple_type &gt;</text>
</a>
</g>
</g>
<!-- Node0&#45;&gt;Node2 -->
<g id="edge13_Node000000_Node000002" class="edge">
<title>Node0&#45;&gt;Node2</title>
<g id="a_edge13_Node000000_Node000002"><a xlink:title=" ">
<path fill="none" stroke="#63b8ff" d="M117.25,-31.1C125.66,-29.64 134.32,-28.14 142.8,-26.67"/>
<polygon fill="#63b8ff" stroke="#63b8ff" points="116.4,-27.7 107.15,-32.86 117.6,-34.6 116.4,-27.7"/>
</a>
</g>
</g>
</g>
</svg>
