<?xml version="1.0" encoding="UTF-8" standalone="no"?>
<!DOCTYPE svg PUBLIC "-//W3C//DTD SVG 1.1//EN"
 "http://www.w3.org/Graphics/SVG/1.1/DTD/svg11.dtd">
<!-- Generated by graphviz version 2.43.0 (0)
 -->
<!-- Title: Graphical Class Hierarchy Pages: 1 -->
<svg width="271pt" height="134pt"
 viewBox="0.00 0.00 271.00 134.00" xmlns="http://www.w3.org/2000/svg" xmlns:xlink="http://www.w3.org/1999/xlink">
<g id="graph0" class="graph" transform="scale(1 1) rotate(0) translate(4 130)">
<title>Graphical Class Hierarchy</title>
<!-- Node0 -->
<g id="Node000000" class="node">
<title>Node0</title>
<g id="a_Node000000"><a xlink:title=" ">
<polygon fill="#e0e0e0" stroke="#999999" points="84,-72.5 0,-72.5 0,-53.5 84,-53.5 84,-72.5"/>
<text text-anchor="middle" x="42" y="-60.5" font-family="Helvetica,sans-Serif" font-size="10.00">std::true_type</text>
</a>
</g>
</g>
<!-- Node1 -->
<g id="Node000001" class="node">
<title>Node1</title>
<g id="a_Node000001"><a xlink:href="structcsl_1_1wf_1_1is__repeater_3_01repeater_3_01times_00_01T_01_4_01_4.html" target="_top" xlink:title=" ">
<polygon fill="white" stroke="#666666" points="263,-126 120,-126 120,-96 263,-96 263,-126"/>
<text text-anchor="start" x="128" y="-114" font-family="Helvetica,sans-Serif" font-size="10.00">csl::wf::is_repeater</text>
<text text-anchor="middle" x="191.5" y="-103" font-family="Helvetica,sans-Serif" font-size="10.00">&lt; repeater&lt; times, T &gt; &gt;</text>
</a>
</g>
</g>
<!-- Node0&#45;&gt;Node1 -->
<g id="edge42_Node000000_Node000001" class="edge">
<title>Node0&#45;&gt;Node1</title>
<g id="a_edge42_Node000000_Node000001"><a xlink:title=" ">
<path fill="none" stroke="#63b8ff" d="M82.07,-75.71C101.15,-81.92 124.25,-89.44 144.21,-95.94"/>
<polygon fill="#63b8ff" stroke="#63b8ff" points="83.09,-72.36 72.49,-72.6 80.92,-79.02 83.09,-72.36"/>
</a>
</g>
</g>
<!-- Node2 -->
<g id="Node000002" class="node">
<title>Node2</title>
<g id="a_Node000002"><a xlink:href="structcsl_1_1wf_1_1mp_1_1is__args_3_01args_3_01Ts_8_8_8_01_4_01_4.html" target="_top" xlink:title=" ">
<polygon fill="white" stroke="#666666" points="246.5,-78 136.5,-78 136.5,-48 246.5,-48 246.5,-78"/>
<text text-anchor="start" x="144.5" y="-66" font-family="Helvetica,sans-Serif" font-size="10.00">csl::wf::mp::is_args</text>
<text text-anchor="middle" x="191.5" y="-55" font-family="Helvetica,sans-Serif" font-size="10.00">&lt; args&lt; Ts... &gt; &gt;</text>
</a>
</g>
</g>
<!-- Node0&#45;&gt;Node2 -->
<g id="edge43_Node000000_Node000002" class="edge">
<title>Node0&#45;&gt;Node2</title>
<g id="a_edge43_Node000000_Node000002"><a xlink:title=" ">
<path fill="none" stroke="#63b8ff" d="M94.25,-63C107.87,-63 122.62,-63 136.39,-63"/>
<polygon fill="#63b8ff" stroke="#63b8ff" points="94.09,-59.5 84.09,-63 94.09,-66.5 94.09,-59.5"/>
</a>
</g>
</g>
<!-- Node3 -->
<g id="Node000003" class="node">
<title>Node3</title>
<g id="a_Node000003"><a xlink:href="structcsl_1_1wf_1_1mp_1_1is__ttps_3_01ttps_3_01Ts_8_8_8_01_4_01_4.html" target="_top" xlink:title=" ">
<polygon fill="white" stroke="#666666" points="245,-30 138,-30 138,0 245,0 245,-30"/>
<text text-anchor="start" x="146" y="-18" font-family="Helvetica,sans-Serif" font-size="10.00">csl::wf::mp::is_ttps</text>
<text text-anchor="middle" x="191.5" y="-7" font-family="Helvetica,sans-Serif" font-size="10.00">&lt; ttps&lt; Ts... &gt; &gt;</text>
</a>
</g>
</g>
<!-- Node0&#45;&gt;Node3 -->
<g id="edge44_Node000000_Node000003" class="edge">
<title>Node0&#45;&gt;Node3</title>
<g id="a_edge44_Node000000_Node000003"><a xlink:title=" ">
<path fill="none" stroke="#63b8ff" d="M82.07,-50.29C101.15,-44.08 124.25,-36.56 144.21,-30.06"/>
<polygon fill="#63b8ff" stroke="#63b8ff" points="80.92,-46.98 72.49,-53.4 83.09,-53.64 80.92,-46.98"/>
</a>
</g>
</g>
</g>
</svg>
