<?xml version="1.0" encoding="UTF-8" standalone="no"?>
<!DOCTYPE svg PUBLIC "-//W3C//DTD SVG 1.1//EN"
 "http://www.w3.org/Graphics/SVG/1.1/DTD/svg11.dtd">
<!-- Generated by graphviz version 2.43.0 (0)
 -->
<!-- Title: Graphical Class Hierarchy Pages: 1 -->
<svg width="451pt" height="292pt"
 viewBox="0.00 0.00 451.00 292.00" xmlns="http://www.w3.org/2000/svg" xmlns:xlink="http://www.w3.org/1999/xlink">
<g id="graph0" class="graph" transform="scale(1 1) rotate(0) translate(4 288)">
<title>Graphical Class Hierarchy</title>
<!-- Node0 -->
<g id="Node000000" class="node">
<title>Node0</title>
<g id="a_Node000000"><a xlink:title=" ">
<polygon fill="#e0e0e0" stroke="#999999" points="103,-154.5 0,-154.5 0,-135.5 103,-135.5 103,-154.5"/>
<text text-anchor="middle" x="51.5" y="-142.5" font-family="Helvetica,sans-Serif" font-size="10.00">std::invoke_result</text>
</a>
</g>
</g>
<!-- Node1 -->
<g id="Node000001" class="node">
<title>Node1</title>
<g id="a_Node000001"><a xlink:href="structcsl_1_1wf_1_1mp_1_1invoke__result.html" target="_top" xlink:title=" ">
<polygon fill="white" stroke="#666666" points="285,-284 139,-284 139,-254 285,-254 285,-284"/>
<text text-anchor="start" x="147" y="-272" font-family="Helvetica,sans-Serif" font-size="10.00">csl::wf::mp::invoke</text>
<text text-anchor="middle" x="212" y="-261" font-family="Helvetica,sans-Serif" font-size="10.00">_result&lt; F, args_types... &gt;</text>
</a>
</g>
</g>
<!-- Node0&#45;&gt;Node1 -->
<g id="edge19_Node000000_Node000001" class="edge">
<title>Node0&#45;&gt;Node1</title>
<g id="a_edge19_Node000000_Node000001"><a xlink:title=" ">
<path fill="none" stroke="#63b8ff" d="M64.96,-163.01C80.27,-183.98 108.05,-218.48 139,-240 146.75,-245.38 155.64,-249.99 164.47,-253.85"/>
<polygon fill="#63b8ff" stroke="#63b8ff" points="67.67,-160.78 59.01,-154.67 61.97,-164.84 67.67,-160.78"/>
</a>
</g>
</g>
<!-- Node2 -->
<g id="Node000002" class="node">
<title>Node2</title>
<g id="a_Node000002"><a xlink:href="structcsl_1_1wf_1_1mp_1_1invoke__result_3_01F_00_01ttps_3_4_00_01args__types_8_8_8_01_4.html" target="_top" xlink:title=" ">
<polygon fill="white" stroke="#666666" points="437.5,-260.5 326.5,-260.5 326.5,-219.5 437.5,-219.5 437.5,-260.5"/>
<text text-anchor="start" x="334.5" y="-248.5" font-family="Helvetica,sans-Serif" font-size="10.00">csl::wf::mp::invoke</text>
<text text-anchor="start" x="334.5" y="-237.5" font-family="Helvetica,sans-Serif" font-size="10.00">_result&lt; F, ttps&lt;&gt;,</text>
<text text-anchor="middle" x="382" y="-226.5" font-family="Helvetica,sans-Serif" font-size="10.00"> args_types... &gt;</text>
</a>
</g>
</g>
<!-- Node0&#45;&gt;Node2 -->
<g id="edge24_Node000000_Node000002" class="edge">
<title>Node0&#45;&gt;Node2</title>
<g id="a_edge24_Node000000_Node000002"><a xlink:title=" ">
<path fill="none" stroke="#63b8ff" d="M70.12,-161.64C86.59,-176.15 112.54,-196.47 139,-207 200.07,-231.3 275.9,-238.27 326.23,-239.99"/>
<polygon fill="#63b8ff" stroke="#63b8ff" points="72.18,-158.78 62.42,-154.66 67.48,-163.97 72.18,-158.78"/>
</a>
</g>
</g>
<!-- Node3 -->
<g id="Node000003" class="node">
<title>Node3</title>
<g id="a_Node000003"><a xlink:href="structcsl_1_1wf_1_1mp_1_1invoke__result.html" target="_top" xlink:title=" ">
<polygon fill="white" stroke="#666666" points="277.5,-198 146.5,-198 146.5,-146 277.5,-146 277.5,-198"/>
<text text-anchor="start" x="154.5" y="-186" font-family="Helvetica,sans-Serif" font-size="10.00">csl::wf::mp::invoke</text>
<text text-anchor="start" x="154.5" y="-175" font-family="Helvetica,sans-Serif" font-size="10.00">_result&lt; F, std::remove</text>
<text text-anchor="start" x="154.5" y="-164" font-family="Helvetica,sans-Serif" font-size="10.00">_cvref_t&lt; ttps_type &gt;,</text>
<text text-anchor="middle" x="212" y="-153" font-family="Helvetica,sans-Serif" font-size="10.00"> args_types... &gt;</text>
</a>
</g>
</g>
<!-- Node0&#45;&gt;Node3 -->
<g id="edge21_Node000000_Node000003" class="edge">
<title>Node0&#45;&gt;Node3</title>
<g id="a_edge21_Node000000_Node000003"><a xlink:title=" ">
<path fill="none" stroke="#63b8ff" d="M112.96,-155.3C123.9,-157.16 135.35,-159.11 146.4,-160.99"/>
<polygon fill="#63b8ff" stroke="#63b8ff" points="113.53,-151.85 103.09,-153.62 112.36,-158.75 113.53,-151.85"/>
</a>
</g>
</g>
<!-- Node4 -->
<g id="Node000004" class="node">
<title>Node4</title>
<g id="a_Node000004"><a xlink:href="structcsl_1_1wf_1_1mp_1_1invoke__result_3_01F_00_01ttps__type_00_01args__types_8_8_8_01_4.html" target="_top" xlink:title=" ">
<polygon fill="white" stroke="#666666" points="443,-177.5 321,-177.5 321,-136.5 443,-136.5 443,-177.5"/>
<text text-anchor="start" x="329" y="-165.5" font-family="Helvetica,sans-Serif" font-size="10.00">csl::wf::mp::invoke</text>
<text text-anchor="start" x="329" y="-154.5" font-family="Helvetica,sans-Serif" font-size="10.00">_result&lt; F, ttps_type,</text>
<text text-anchor="middle" x="382" y="-143.5" font-family="Helvetica,sans-Serif" font-size="10.00"> args_types... &gt;</text>
</a>
</g>
</g>
<!-- Node0&#45;&gt;Node4 -->
<g id="edge25_Node000000_Node000004" class="edge">
<title>Node0&#45;&gt;Node4</title>
<g id="a_edge25_Node000000_Node000004"><a xlink:title=" ">
<path fill="none" stroke="#63b8ff" d="M113.25,-138.67C121.89,-137.98 130.66,-137.38 139,-137 203.82,-134.01 220.45,-130.35 285,-137 296.69,-138.2 309.05,-140.21 320.87,-142.5"/>
<polygon fill="#63b8ff" stroke="#63b8ff" points="112.88,-135.19 103.22,-139.52 113.48,-142.16 112.88,-135.19"/>
</a>
</g>
</g>
<!-- Node5 -->
<g id="Node000005" class="node">
<title>Node5</title>
<g id="a_Node000005"><a xlink:href="structcsl_1_1wf_1_1mp_1_1invoke__result_3_01F_00_01ttps_3_01ttps__args_8_8_8_01_4_00_01args__types_8_8_8_01_4.html" target="_top" xlink:title=" ">
<polygon fill="white" stroke="#666666" points="283.5,-89.5 140.5,-89.5 140.5,-48.5 283.5,-48.5 283.5,-89.5"/>
<text text-anchor="start" x="148.5" y="-77.5" font-family="Helvetica,sans-Serif" font-size="10.00">csl::wf::mp::invoke</text>
<text text-anchor="start" x="148.5" y="-66.5" font-family="Helvetica,sans-Serif" font-size="10.00">_result&lt; F, ttps&lt; ttps</text>
<text text-anchor="middle" x="212" y="-55.5" font-family="Helvetica,sans-Serif" font-size="10.00">_args... &gt;, args_types... &gt;</text>
</a>
</g>
</g>
<!-- Node0&#45;&gt;Node5 -->
<g id="edge23_Node000000_Node000005" class="edge">
<title>Node0&#45;&gt;Node5</title>
<g id="a_edge23_Node000000_Node000005"><a xlink:title=" ">
<path fill="none" stroke="#63b8ff" d="M81.62,-131.03C105.87,-119.41 140.72,-102.7 168.15,-89.55"/>
<polygon fill="#63b8ff" stroke="#63b8ff" points="80.08,-127.89 72.57,-135.37 83.1,-134.21 80.08,-127.89"/>
</a>
</g>
</g>
<!-- Node6 -->
<g id="Node000006" class="node">
<title>Node6</title>
<g id="a_Node000006"><a xlink:href="structcsl_1_1wf_1_1mp_1_1invoke__result.html" target="_top" xlink:title=" ">
<polygon fill="white" stroke="#666666" points="280.5,-30 143.5,-30 143.5,0 280.5,0 280.5,-30"/>
<text text-anchor="start" x="151.5" y="-18" font-family="Helvetica,sans-Serif" font-size="10.00">csl::wf::mp::invoke</text>
<text text-anchor="middle" x="212" y="-7" font-family="Helvetica,sans-Serif" font-size="10.00">_result&lt; F, args_types &gt;</text>
</a>
</g>
</g>
<!-- Node0&#45;&gt;Node6 -->
<g id="edge26_Node000000_Node000006" class="edge">
<title>Node0&#45;&gt;Node6</title>
<g id="a_edge26_Node000000_Node000006"><a xlink:title=" ">
<path fill="none" stroke="#63b8ff" d="M62.96,-126.58C77.24,-103.02 104.98,-62.48 139,-39 143.99,-35.56 149.51,-32.58 155.21,-30"/>
<polygon fill="#63b8ff" stroke="#63b8ff" points="59.91,-124.86 57.85,-135.26 65.94,-128.42 59.91,-124.86"/>
</a>
</g>
</g>
<!-- Node1&#45;&gt;Node2 -->
<g id="edge20_Node000001_Node000002" class="edge">
<title>Node1&#45;&gt;Node2</title>
<g id="a_edge20_Node000001_Node000002"><a xlink:title=" ">
<path fill="none" stroke="#63b8ff" d="M295.29,-254.79C305.83,-252.98 316.4,-251.15 326.35,-249.43"/>
<polygon fill="#63b8ff" stroke="#63b8ff" points="294.48,-251.38 285.22,-256.53 295.67,-258.28 294.48,-251.38"/>
</a>
</g>
</g>
<!-- Node3&#45;&gt;Node4 -->
<g id="edge22_Node000003_Node000004" class="edge">
<title>Node3&#45;&gt;Node4</title>
<g id="a_edge22_Node000003_Node000004"><a xlink:title=" ">
<path fill="none" stroke="#63b8ff" d="M287.99,-165.3C299.01,-164.32 310.23,-163.32 320.9,-162.37"/>
<polygon fill="#63b8ff" stroke="#63b8ff" points="287.6,-161.83 277.95,-166.2 288.22,-168.8 287.6,-161.83"/>
</a>
</g>
</g>
</g>
</svg>
