<?xml version="1.0" encoding="UTF-8" standalone="no"?>
<!DOCTYPE svg PUBLIC "-//W3C//DTD SVG 1.1//EN"
 "http://www.w3.org/Graphics/SVG/1.1/DTD/svg11.dtd">
<!-- Generated by graphviz version 2.43.0 (0)
 -->
<!-- Title: Graphical Class Hierarchy Pages: 1 -->
<svg width="538pt" height="314pt"
 viewBox="0.00 0.00 538.00 314.00" xmlns="http://www.w3.org/2000/svg" xmlns:xlink="http://www.w3.org/1999/xlink">
<g id="graph0" class="graph" transform="scale(1 1) rotate(0) translate(4 310)">
<title>Graphical Class Hierarchy</title>
<!-- Node0 -->
<g id="Node000000" class="node">
<title>Node0</title>
<g id="a_Node000000"><a xlink:title=" ">
<polygon fill="#e0e0e0" stroke="#999999" points="152,-165 0,-165 0,-146 152,-146 152,-165"/>
<text text-anchor="middle" x="76" y="-153" font-family="Helvetica,sans-Serif" font-size="10.00">std::is_nothrow_invocable_r</text>
</a>
</g>
</g>
<!-- Node1 -->
<g id="Node000001" class="node">
<title>Node1</title>
<g id="a_Node000001"><a xlink:href="structcsl_1_1wf_1_1mp_1_1is__nothrow__invocable__r.html" target="_top" xlink:title=" ">
<polygon fill="white" stroke="#666666" points="342,-306 207,-306 207,-265 342,-265 342,-306"/>
<text text-anchor="start" x="215" y="-294" font-family="Helvetica,sans-Serif" font-size="10.00">csl::wf::mp::is_nothrow</text>
<text text-anchor="start" x="215" y="-283" font-family="Helvetica,sans-Serif" font-size="10.00">_invocable_r&lt; R, F, args</text>
<text text-anchor="middle" x="274.5" y="-272" font-family="Helvetica,sans-Serif" font-size="10.00">_types... &gt;</text>
</a>
</g>
</g>
<!-- Node0&#45;&gt;Node1 -->
<g id="edge53_Node000000_Node000001" class="edge">
<title>Node0&#45;&gt;Node1</title>
<g id="a_edge53_Node000000_Node000001"><a xlink:title=" ">
<path fill="none" stroke="#63b8ff" d="M93.25,-172.39C113.78,-192.99 150.92,-227.86 188,-250.5 196.76,-255.85 206.49,-260.71 216.14,-265"/>
<polygon fill="#63b8ff" stroke="#63b8ff" points="95.49,-169.69 85.99,-165 90.5,-174.59 95.49,-169.69"/>
</a>
</g>
</g>
<!-- Node2 -->
<g id="Node000002" class="node">
<title>Node2</title>
<g id="a_Node000002"><a xlink:href="structcsl_1_1wf_1_1mp_1_1is__nothrow__invocable__r_3_01R_00_01F_00_01ttps_3_4_00_01args__types_8_8_8_01_4.html" target="_top" xlink:title=" ">
<polygon fill="white" stroke="#666666" points="530,-271 397,-271 397,-230 530,-230 530,-271"/>
<text text-anchor="start" x="405" y="-259" font-family="Helvetica,sans-Serif" font-size="10.00">csl::wf::mp::is_nothrow</text>
<text text-anchor="start" x="405" y="-248" font-family="Helvetica,sans-Serif" font-size="10.00">_invocable_r&lt; R, F, ttps</text>
<text text-anchor="middle" x="463.5" y="-237" font-family="Helvetica,sans-Serif" font-size="10.00">&lt;&gt;, args_types... &gt;</text>
</a>
</g>
</g>
<!-- Node0&#45;&gt;Node2 -->
<g id="edge58_Node000000_Node000002" class="edge">
<title>Node0&#45;&gt;Node2</title>
<g id="a_edge58_Node000000_Node000002"><a xlink:title=" ">
<path fill="none" stroke="#63b8ff" d="M98.61,-170.95C120.16,-185.52 154.76,-206.69 188,-217.5 257.04,-239.96 340.32,-247.4 396.91,-249.73"/>
<polygon fill="#63b8ff" stroke="#63b8ff" points="100.44,-167.96 90.22,-165.16 96.46,-173.72 100.44,-167.96"/>
</a>
</g>
</g>
<!-- Node3 -->
<g id="Node000003" class="node">
<title>Node3</title>
<g id="a_Node000003"><a xlink:href="structcsl_1_1wf_1_1mp_1_1is__nothrow__invocable__r.html" target="_top" xlink:title=" ">
<polygon fill="white" stroke="#666666" points="352.5,-208.5 196.5,-208.5 196.5,-156.5 352.5,-156.5 352.5,-208.5"/>
<text text-anchor="start" x="204.5" y="-196.5" font-family="Helvetica,sans-Serif" font-size="10.00">csl::wf::mp::is_nothrow</text>
<text text-anchor="start" x="204.5" y="-185.5" font-family="Helvetica,sans-Serif" font-size="10.00">_invocable_r&lt; R, F, std</text>
<text text-anchor="start" x="204.5" y="-174.5" font-family="Helvetica,sans-Serif" font-size="10.00">::remove_cvref_t&lt; ttps_type</text>
<text text-anchor="middle" x="274.5" y="-163.5" font-family="Helvetica,sans-Serif" font-size="10.00"> &gt;, args_types... &gt;</text>
</a>
</g>
</g>
<!-- Node0&#45;&gt;Node3 -->
<g id="edge55_Node000000_Node000003" class="edge">
<title>Node0&#45;&gt;Node3</title>
<g id="a_edge55_Node000000_Node000003"><a xlink:title=" ">
<path fill="none" stroke="#63b8ff" d="M156.3,-166.4C169.56,-168.22 183.29,-170.1 196.48,-171.92"/>
<polygon fill="#63b8ff" stroke="#63b8ff" points="156.66,-162.91 146.28,-165.02 155.71,-169.85 156.66,-162.91"/>
</a>
</g>
</g>
<!-- Node4 -->
<g id="Node000004" class="node">
<title>Node4</title>
<g id="a_Node000004"><a xlink:href="structcsl_1_1wf_1_1mp_1_1is__nothrow__invocable__r_3_01R_00_01F_00_01ttps__type_00_01args__types_8_8_8_01_4.html" target="_top" xlink:title=" ">
<polygon fill="white" stroke="#666666" points="530,-188 397,-188 397,-147 530,-147 530,-188"/>
<text text-anchor="start" x="405" y="-176" font-family="Helvetica,sans-Serif" font-size="10.00">csl::wf::mp::is_nothrow</text>
<text text-anchor="start" x="405" y="-165" font-family="Helvetica,sans-Serif" font-size="10.00">_invocable_r&lt; R, F, ttps</text>
<text text-anchor="middle" x="463.5" y="-154" font-family="Helvetica,sans-Serif" font-size="10.00">_type, args_types... &gt;</text>
</a>
</g>
</g>
<!-- Node0&#45;&gt;Node4 -->
<g id="edge59_Node000000_Node000004" class="edge">
<title>Node0&#45;&gt;Node4</title>
<g id="a_edge59_Node000000_Node000004"><a xlink:title=" ">
<path fill="none" stroke="#63b8ff" d="M162.54,-147.52C219.01,-143.62 294.57,-141.02 361,-147.5 372.71,-148.64 385.07,-150.51 396.98,-152.66"/>
<polygon fill="#63b8ff" stroke="#63b8ff" points="161.94,-144.06 152.22,-148.26 162.44,-151.04 161.94,-144.06"/>
</a>
</g>
</g>
<!-- Node5 -->
<g id="Node000005" class="node">
<title>Node5</title>
<g id="a_Node000005"><a xlink:href="structcsl_1_1wf_1_1mp_1_1is__nothrow__invocable__r_3_01R_00_01F_00_01ttps_3_01ttps__args_8_8_8_01_4_00_01args__types_8_8_8_01_4.html" target="_top" xlink:title=" ">
<polygon fill="white" stroke="#666666" points="361,-100 188,-100 188,-59 361,-59 361,-100"/>
<text text-anchor="start" x="196" y="-88" font-family="Helvetica,sans-Serif" font-size="10.00">csl::wf::mp::is_nothrow</text>
<text text-anchor="start" x="196" y="-77" font-family="Helvetica,sans-Serif" font-size="10.00">_invocable_r&lt; R, F, ttps</text>
<text text-anchor="middle" x="274.5" y="-66" font-family="Helvetica,sans-Serif" font-size="10.00">&lt; ttps_args... &gt;, args_types... &gt;</text>
</a>
</g>
</g>
<!-- Node0&#45;&gt;Node5 -->
<g id="edge57_Node000000_Node000005" class="edge">
<title>Node0&#45;&gt;Node5</title>
<g id="a_edge57_Node000000_Node000005"><a xlink:title=" ">
<path fill="none" stroke="#63b8ff" d="M111.52,-142.15C141.63,-130.5 185.77,-113.43 220.37,-100.05"/>
<polygon fill="#63b8ff" stroke="#63b8ff" points="109.95,-139 101.89,-145.87 112.48,-145.53 109.95,-139"/>
</a>
</g>
</g>
<!-- Node6 -->
<g id="Node000006" class="node">
<title>Node6</title>
<g id="a_Node000006"><a xlink:href="structcsl_1_1wf_1_1mp_1_1is__nothrow__invocable__r.html" target="_top" xlink:title=" ">
<polygon fill="white" stroke="#666666" points="342,-41 207,-41 207,0 342,0 342,-41"/>
<text text-anchor="start" x="215" y="-29" font-family="Helvetica,sans-Serif" font-size="10.00">csl::wf::mp::is_nothrow</text>
<text text-anchor="start" x="215" y="-18" font-family="Helvetica,sans-Serif" font-size="10.00">_invocable_r&lt; R, F, args</text>
<text text-anchor="middle" x="274.5" y="-7" font-family="Helvetica,sans-Serif" font-size="10.00">_types &gt;</text>
</a>
</g>
</g>
<!-- Node0&#45;&gt;Node6 -->
<g id="edge60_Node000000_Node000006" class="edge">
<title>Node0&#45;&gt;Node6</title>
<g id="a_edge60_Node000000_Node000006"><a xlink:title=" ">
<path fill="none" stroke="#63b8ff" d="M91.14,-137.86C110.65,-114.59 147.99,-73.74 188,-49.5 193.9,-45.93 200.3,-42.72 206.84,-39.87"/>
<polygon fill="#63b8ff" stroke="#63b8ff" points="88.21,-135.91 84.56,-145.85 93.62,-140.35 88.21,-135.91"/>
</a>
</g>
</g>
<!-- Node1&#45;&gt;Node2 -->
<g id="edge54_Node000001_Node000002" class="edge">
<title>Node1&#45;&gt;Node2</title>
<g id="a_edge54_Node000001_Node000002"><a xlink:title=" ">
<path fill="none" stroke="#63b8ff" d="M352.32,-271.12C367.07,-268.36 382.39,-265.49 396.75,-262.81"/>
<polygon fill="#63b8ff" stroke="#63b8ff" points="351.4,-267.73 342.22,-273.01 352.69,-274.61 351.4,-267.73"/>
</a>
</g>
</g>
<!-- Node3&#45;&gt;Node4 -->
<g id="edge56_Node000003_Node000004" class="edge">
<title>Node3&#45;&gt;Node4</title>
<g id="a_edge56_Node000003_Node000004"><a xlink:title=" ">
<path fill="none" stroke="#63b8ff" d="M362.69,-175.51C374.19,-174.58 385.81,-173.65 396.86,-172.77"/>
<polygon fill="#63b8ff" stroke="#63b8ff" points="362.33,-172.02 352.64,-176.31 362.89,-179 362.33,-172.02"/>
</a>
</g>
</g>
</g>
</svg>
