<?xml version="1.0" encoding="UTF-8" standalone="no"?>
<!DOCTYPE svg PUBLIC "-//W3C//DTD SVG 1.1//EN"
 "http://www.w3.org/Graphics/SVG/1.1/DTD/svg11.dtd">
<!-- Generated by graphviz version 2.43.0 (0)
 -->
<!-- Title: Graphical Class Hierarchy Pages: 1 -->
<svg width="496pt" height="156pt"
 viewBox="0.00 0.00 496.00 155.50" xmlns="http://www.w3.org/2000/svg" xmlns:xlink="http://www.w3.org/1999/xlink">
<g id="graph0" class="graph" transform="scale(1 1) rotate(0) translate(4 151.5)">
<title>Graphical Class Hierarchy</title>
<!-- Node0 -->
<g id="Node000000" class="node">
<title>Node0</title>
<g id="a_Node000000"><a xlink:title=" ">
<polygon fill="#e0e0e0" stroke="#999999" points="107,-78.5 0,-78.5 0,-59.5 107,-59.5 107,-78.5"/>
<text text-anchor="middle" x="53.5" y="-66.5" font-family="Helvetica,sans-Serif" font-size="10.00">std::is_invocable_r</text>
</a>
</g>
</g>
<!-- Node1 -->
<g id="Node000001" class="node">
<title>Node1</title>
<g id="a_Node000001"><a xlink:href="structcsl_1_1wf_1_1mp_1_1is__invocable__r.html" target="_top" xlink:title=" ">
<polygon fill="white" stroke="#666666" points="297.5,-140 161.5,-140 161.5,-110 297.5,-110 297.5,-140"/>
<text text-anchor="start" x="169.5" y="-128" font-family="Helvetica,sans-Serif" font-size="10.00">csl::wf::mp::is_invocable</text>
<text text-anchor="middle" x="229.5" y="-117" font-family="Helvetica,sans-Serif" font-size="10.00">_r&lt; R, F, args_types... &gt;</text>
</a>
</g>
</g>
<!-- Node0&#45;&gt;Node1 -->
<g id="edge27_Node000000_Node000001" class="edge">
<title>Node0&#45;&gt;Node1</title>
<g id="a_edge27_Node000000_Node000001"><a xlink:title=" ">
<path fill="none" stroke="#63b8ff" d="M93.32,-81.82C108.77,-86.9 126.71,-92.76 143,-98 155.15,-101.91 168.29,-106.08 180.54,-109.95"/>
<polygon fill="#63b8ff" stroke="#63b8ff" points="94.16,-78.41 83.57,-78.61 91.98,-85.06 94.16,-78.41"/>
</a>
</g>
</g>
<!-- Node3 -->
<g id="Node000003" class="node">
<title>Node3</title>
<g id="a_Node000003"><a xlink:href="structcsl_1_1wf_1_1mp_1_1is__invocable__r.html" target="_top" xlink:title=" ">
<polygon fill="white" stroke="#666666" points="316,-89.5 143,-89.5 143,-48.5 316,-48.5 316,-89.5"/>
<text text-anchor="start" x="151" y="-77.5" font-family="Helvetica,sans-Serif" font-size="10.00">csl::wf::mp::is_invocable</text>
<text text-anchor="start" x="151" y="-66.5" font-family="Helvetica,sans-Serif" font-size="10.00">_r&lt; R, F, std::remove_cvref</text>
<text text-anchor="middle" x="229.5" y="-55.5" font-family="Helvetica,sans-Serif" font-size="10.00">_t&lt; ttps_type &gt;, args_types... &gt;</text>
</a>
</g>
</g>
<!-- Node0&#45;&gt;Node3 -->
<g id="edge29_Node000000_Node000003" class="edge">
<title>Node0&#45;&gt;Node3</title>
<g id="a_edge29_Node000000_Node000003"><a xlink:title=" ">
<path fill="none" stroke="#63b8ff" d="M117.19,-69C125.54,-69 134.23,-69 142.89,-69"/>
<polygon fill="#63b8ff" stroke="#63b8ff" points="117.18,-65.5 107.18,-69 117.18,-72.5 117.18,-65.5"/>
</a>
</g>
</g>
<!-- Node5 -->
<g id="Node000005" class="node">
<title>Node5</title>
<g id="a_Node000005"><a xlink:href="structcsl_1_1wf_1_1mp_1_1is__invocable__r.html" target="_top" xlink:title=" ">
<polygon fill="white" stroke="#666666" points="297.5,-30 161.5,-30 161.5,0 297.5,0 297.5,-30"/>
<text text-anchor="start" x="169.5" y="-18" font-family="Helvetica,sans-Serif" font-size="10.00">csl::wf::mp::is_invocable</text>
<text text-anchor="middle" x="229.5" y="-7" font-family="Helvetica,sans-Serif" font-size="10.00">_r&lt; R, F, args_types &gt;</text>
</a>
</g>
</g>
<!-- Node0&#45;&gt;Node5 -->
<g id="edge31_Node000000_Node000005" class="edge">
<title>Node0&#45;&gt;Node5</title>
<g id="a_edge31_Node000000_Node000005"><a xlink:title=" ">
<path fill="none" stroke="#63b8ff" d="M90.97,-56.15C106.89,-50.67 125.8,-44.32 143,-39 152.72,-35.99 163.11,-32.94 173.18,-30.06"/>
<polygon fill="#63b8ff" stroke="#63b8ff" points="89.8,-52.85 81.49,-59.43 92.09,-59.47 89.8,-52.85"/>
</a>
</g>
</g>
<!-- Node2 -->
<g id="Node000002" class="node">
<title>Node2</title>
<g id="a_Node000002"><a xlink:href="structcsl_1_1wf_1_1mp_1_1is__invocable__r_3_01R_00_01F_00_01ttps_3_4_00_01args__types_8_8_8_01_4.html" target="_top" xlink:title=" ">
<polygon fill="white" stroke="#666666" points="488,-147.5 352,-147.5 352,-106.5 488,-106.5 488,-147.5"/>
<text text-anchor="start" x="360" y="-135.5" font-family="Helvetica,sans-Serif" font-size="10.00">csl::wf::mp::is_invocable</text>
<text text-anchor="start" x="360" y="-124.5" font-family="Helvetica,sans-Serif" font-size="10.00">_r&lt; R, F, ttps&lt;&gt;, args</text>
<text text-anchor="middle" x="420" y="-113.5" font-family="Helvetica,sans-Serif" font-size="10.00">_types... &gt;</text>
</a>
</g>
</g>
<!-- Node1&#45;&gt;Node2 -->
<g id="edge28_Node000001_Node000002" class="edge">
<title>Node1&#45;&gt;Node2</title>
<g id="a_edge28_Node000001_Node000002"><a xlink:title=" ">
<path fill="none" stroke="#63b8ff" d="M308.17,-125.82C322.64,-125.98 337.65,-126.14 351.77,-126.29"/>
<polygon fill="#63b8ff" stroke="#63b8ff" points="307.79,-122.32 297.75,-125.71 307.72,-129.32 307.79,-122.32"/>
</a>
</g>
</g>
<!-- Node4 -->
<g id="Node000004" class="node">
<title>Node4</title>
<g id="a_Node000004"><a xlink:href="structcsl_1_1wf_1_1mp_1_1is__invocable__r_3_01R_00_01F_00_01ttps__type_00_01args__types_8_8_8_01_4.html" target="_top" xlink:title=" ">
<polygon fill="white" stroke="#666666" points="488,-88.5 352,-88.5 352,-47.5 488,-47.5 488,-88.5"/>
<text text-anchor="start" x="360" y="-76.5" font-family="Helvetica,sans-Serif" font-size="10.00">csl::wf::mp::is_invocable</text>
<text text-anchor="start" x="360" y="-65.5" font-family="Helvetica,sans-Serif" font-size="10.00">_r&lt; R, F, ttps_type, args</text>
<text text-anchor="middle" x="420" y="-54.5" font-family="Helvetica,sans-Serif" font-size="10.00">_types... &gt;</text>
</a>
</g>
</g>
<!-- Node3&#45;&gt;Node4 -->
<g id="edge30_Node000003_Node000004" class="edge">
<title>Node3&#45;&gt;Node4</title>
<g id="a_edge30_Node000003_Node000004"><a xlink:title=" ">
<path fill="none" stroke="#63b8ff" d="M326.32,-68.49C334.95,-68.45 343.56,-68.4 351.86,-68.36"/>
<polygon fill="#63b8ff" stroke="#63b8ff" points="326.18,-64.99 316.2,-68.55 326.22,-71.99 326.18,-64.99"/>
</a>
</g>
</g>
</g>
</svg>
