<?xml version="1.0" encoding="UTF-8" standalone="no"?>
<!DOCTYPE svg PUBLIC "-//W3C//DTD SVG 1.1//EN"
 "http://www.w3.org/Graphics/SVG/1.1/DTD/svg11.dtd">
<!-- Generated by graphviz version 2.43.0 (0)
 -->
<!-- Title: Graphical Class Hierarchy Pages: 1 -->
<svg width="496pt" height="282pt"
 viewBox="0.00 0.00 496.00 282.00" xmlns="http://www.w3.org/2000/svg" xmlns:xlink="http://www.w3.org/1999/xlink">
<g id="graph0" class="graph" transform="scale(1 1) rotate(0) translate(4 278)">
<title>Graphical Class Hierarchy</title>
<!-- Node0 -->
<g id="Node000000" class="node">
<title>Node0</title>
<g id="a_Node000000"><a xlink:title=" ">
<polygon fill="#e0e0e0" stroke="#999999" points="107,-151.5 0,-151.5 0,-132.5 107,-132.5 107,-151.5"/>
<text text-anchor="middle" x="53.5" y="-139.5" font-family="Helvetica,sans-Serif" font-size="10.00">std::is_invocable_r</text>
</a>
</g>
</g>
<!-- Node1 -->
<g id="Node000001" class="node">
<title>Node1</title>
<g id="a_Node000001"><a xlink:href="structcsl_1_1wf_1_1mp_1_1is__invocable__r.html" target="_top" xlink:title=" ">
<polygon fill="white" stroke="#666666" points="297.5,-274 161.5,-274 161.5,-244 297.5,-244 297.5,-274"/>
<text text-anchor="start" x="169.5" y="-262" font-family="Helvetica,sans-Serif" font-size="10.00">csl::wf::mp::is_invocable</text>
<text text-anchor="middle" x="229.5" y="-251" font-family="Helvetica,sans-Serif" font-size="10.00">_r&lt; R, F, args_types... &gt;</text>
</a>
</g>
</g>
<!-- Node0&#45;&gt;Node1 -->
<g id="edge36_Node000000_Node000001" class="edge">
<title>Node0&#45;&gt;Node1</title>
<g id="a_edge36_Node000000_Node000001"><a xlink:title=" ">
<path fill="none" stroke="#63b8ff" d="M67.93,-159.51C83.87,-179.2 112.2,-210.91 143,-230 151.93,-235.53 162.04,-240.15 172.1,-243.97"/>
<polygon fill="#63b8ff" stroke="#63b8ff" points="70.65,-157.31 61.7,-151.64 65.16,-161.65 70.65,-157.31"/>
</a>
</g>
</g>
<!-- Node2 -->
<g id="Node000002" class="node">
<title>Node2</title>
<g id="a_Node000002"><a xlink:href="structcsl_1_1wf_1_1mp_1_1is__invocable__r_3_01R_00_01F_00_01ttps_3_4_00_01args__types_8_8_8_01_4.html" target="_top" xlink:title=" ">
<polygon fill="white" stroke="#666666" points="488,-250.5 352,-250.5 352,-209.5 488,-209.5 488,-250.5"/>
<text text-anchor="start" x="360" y="-238.5" font-family="Helvetica,sans-Serif" font-size="10.00">csl::wf::mp::is_invocable</text>
<text text-anchor="start" x="360" y="-227.5" font-family="Helvetica,sans-Serif" font-size="10.00">_r&lt; R, F, ttps&lt;&gt;, args</text>
<text text-anchor="middle" x="420" y="-216.5" font-family="Helvetica,sans-Serif" font-size="10.00">_types... &gt;</text>
</a>
</g>
</g>
<!-- Node0&#45;&gt;Node2 -->
<g id="edge41_Node000000_Node000002" class="edge">
<title>Node0&#45;&gt;Node2</title>
<g id="a_edge41_Node000000_Node000002"><a xlink:title=" ">
<path fill="none" stroke="#63b8ff" d="M74.33,-157.89C91.46,-170.7 117.42,-188.02 143,-197 211.53,-221.05 294.87,-228.23 351.93,-230.06"/>
<polygon fill="#63b8ff" stroke="#63b8ff" points="76.29,-154.98 66.22,-151.67 72.02,-160.53 76.29,-154.98"/>
</a>
</g>
</g>
<!-- Node3 -->
<g id="Node000003" class="node">
<title>Node3</title>
<g id="a_Node000003"><a xlink:href="structcsl_1_1wf_1_1mp_1_1is__invocable__r.html" target="_top" xlink:title=" ">
<polygon fill="white" stroke="#666666" points="316,-187.5 143,-187.5 143,-146.5 316,-146.5 316,-187.5"/>
<text text-anchor="start" x="151" y="-175.5" font-family="Helvetica,sans-Serif" font-size="10.00">csl::wf::mp::is_invocable</text>
<text text-anchor="start" x="151" y="-164.5" font-family="Helvetica,sans-Serif" font-size="10.00">_r&lt; R, F, std::remove_cvref</text>
<text text-anchor="middle" x="229.5" y="-153.5" font-family="Helvetica,sans-Serif" font-size="10.00">_t&lt; ttps_type &gt;, args_types... &gt;</text>
</a>
</g>
</g>
<!-- Node0&#45;&gt;Node3 -->
<g id="edge38_Node000000_Node000003" class="edge">
<title>Node0&#45;&gt;Node3</title>
<g id="a_edge38_Node000000_Node000003"><a xlink:title=" ">
<path fill="none" stroke="#63b8ff" d="M117.19,-151.01C125.54,-152.21 134.23,-153.45 142.89,-154.7"/>
<polygon fill="#63b8ff" stroke="#63b8ff" points="117.57,-147.53 107.18,-149.57 116.58,-154.46 117.57,-147.53"/>
</a>
</g>
</g>
<!-- Node4 -->
<g id="Node000004" class="node">
<title>Node4</title>
<g id="a_Node000004"><a xlink:href="structcsl_1_1wf_1_1mp_1_1is__invocable__r_3_01R_00_01F_00_01ttps__type_00_01args__types_8_8_8_01_4.html" target="_top" xlink:title=" ">
<polygon fill="white" stroke="#666666" points="488,-172.5 352,-172.5 352,-131.5 488,-131.5 488,-172.5"/>
<text text-anchor="start" x="360" y="-160.5" font-family="Helvetica,sans-Serif" font-size="10.00">csl::wf::mp::is_invocable</text>
<text text-anchor="start" x="360" y="-149.5" font-family="Helvetica,sans-Serif" font-size="10.00">_r&lt; R, F, ttps_type, args</text>
<text text-anchor="middle" x="420" y="-138.5" font-family="Helvetica,sans-Serif" font-size="10.00">_types... &gt;</text>
</a>
</g>
</g>
<!-- Node0&#45;&gt;Node4 -->
<g id="edge42_Node000000_Node000004" class="edge">
<title>Node0&#45;&gt;Node4</title>
<g id="a_edge42_Node000000_Node000004"><a xlink:title=" ">
<path fill="none" stroke="#63b8ff" d="M117.38,-138.01C125.98,-137.59 134.71,-137.23 143,-137 219.86,-134.83 239.31,-131.45 316,-137 327.63,-137.84 339.93,-139.21 351.84,-140.79"/>
<polygon fill="#63b8ff" stroke="#63b8ff" points="117.17,-134.52 107.36,-138.52 117.53,-141.51 117.17,-134.52"/>
</a>
</g>
</g>
<!-- Node5 -->
<g id="Node000005" class="node">
<title>Node5</title>
<g id="a_Node000005"><a xlink:href="structcsl_1_1wf_1_1mp_1_1is__invocable__r_3_01R_00_01F_00_01ttps_3_01ttps__args_8_8_8_01_4_00_01args__types_8_8_8_01_4.html" target="_top" xlink:title=" ">
<polygon fill="white" stroke="#666666" points="302.5,-89.5 156.5,-89.5 156.5,-48.5 302.5,-48.5 302.5,-89.5"/>
<text text-anchor="start" x="164.5" y="-77.5" font-family="Helvetica,sans-Serif" font-size="10.00">csl::wf::mp::is_invocable</text>
<text text-anchor="start" x="164.5" y="-66.5" font-family="Helvetica,sans-Serif" font-size="10.00">_r&lt; R, F, ttps&lt; ttps_args...</text>
<text text-anchor="middle" x="229.5" y="-55.5" font-family="Helvetica,sans-Serif" font-size="10.00"> &gt;, args_types... &gt;</text>
</a>
</g>
</g>
<!-- Node0&#45;&gt;Node5 -->
<g id="edge40_Node000000_Node000005" class="edge">
<title>Node0&#45;&gt;Node5</title>
<g id="a_edge40_Node000000_Node000005"><a xlink:title=" ">
<path fill="none" stroke="#63b8ff" d="M86.03,-128.31C102.9,-121.02 124.05,-111.95 143,-104 154.24,-99.29 166.34,-94.29 177.81,-89.59"/>
<polygon fill="#63b8ff" stroke="#63b8ff" points="84.43,-125.19 76.64,-132.37 87.21,-131.61 84.43,-125.19"/>
</a>
</g>
</g>
<!-- Node6 -->
<g id="Node000006" class="node">
<title>Node6</title>
<g id="a_Node000006"><a xlink:href="structcsl_1_1wf_1_1mp_1_1is__invocable__r.html" target="_top" xlink:title=" ">
<polygon fill="white" stroke="#666666" points="297.5,-30 161.5,-30 161.5,0 297.5,0 297.5,-30"/>
<text text-anchor="start" x="169.5" y="-18" font-family="Helvetica,sans-Serif" font-size="10.00">csl::wf::mp::is_invocable</text>
<text text-anchor="middle" x="229.5" y="-7" font-family="Helvetica,sans-Serif" font-size="10.00">_r&lt; R, F, args_types &gt;</text>
</a>
</g>
</g>
<!-- Node0&#45;&gt;Node6 -->
<g id="edge43_Node000000_Node000006" class="edge">
<title>Node0&#45;&gt;Node6</title>
<g id="a_edge43_Node000000_Node000006"><a xlink:title=" ">
<path fill="none" stroke="#63b8ff" d="M65.27,-123.86C79.94,-100.72 108.4,-61.05 143,-39 148.72,-35.35 155,-32.25 161.48,-29.62"/>
<polygon fill="#63b8ff" stroke="#63b8ff" points="62.27,-122.05 60.01,-132.4 68.23,-125.72 62.27,-122.05"/>
</a>
</g>
</g>
<!-- Node1&#45;&gt;Node2 -->
<g id="edge37_Node000001_Node000002" class="edge">
<title>Node1&#45;&gt;Node2</title>
<g id="a_edge37_Node000001_Node000002"><a xlink:title=" ">
<path fill="none" stroke="#63b8ff" d="M307.75,-247.11C322.35,-244.87 337.51,-242.54 351.77,-240.34"/>
<polygon fill="#63b8ff" stroke="#63b8ff" points="307.11,-243.67 297.75,-248.65 308.17,-250.59 307.11,-243.67"/>
</a>
</g>
</g>
<!-- Node3&#45;&gt;Node4 -->
<g id="edge39_Node000003_Node000004" class="edge">
<title>Node3&#45;&gt;Node4</title>
<g id="a_edge39_Node000003_Node000004"><a xlink:title=" ">
<path fill="none" stroke="#63b8ff" d="M326.32,-159.38C334.95,-158.69 343.56,-158 351.86,-157.34"/>
<polygon fill="#63b8ff" stroke="#63b8ff" points="325.89,-155.9 316.2,-160.18 326.45,-162.88 325.89,-155.9"/>
</a>
</g>
</g>
</g>
</svg>
