<?xml version="1.0" encoding="UTF-8" standalone="no"?>
<!DOCTYPE svg PUBLIC "-//W3C//DTD SVG 1.1//EN"
 "http://www.w3.org/Graphics/SVG/1.1/DTD/svg11.dtd">
<!-- Generated by graphviz version 2.43.0 (0)
 -->
<!-- Title: Graphical Class Hierarchy Pages: 1 -->
<svg width="530pt" height="292pt"
 viewBox="0.00 0.00 530.00 292.00" xmlns="http://www.w3.org/2000/svg" xmlns:xlink="http://www.w3.org/1999/xlink">
<g id="graph0" class="graph" transform="scale(1 1) rotate(0) translate(4 288)">
<title>Graphical Class Hierarchy</title>
<!-- Node0 -->
<g id="Node000000" class="node">
<title>Node0</title>
<g id="a_Node000000"><a xlink:title=" ">
<polygon fill="#e0e0e0" stroke="#999999" points="143,-154.5 0,-154.5 0,-135.5 143,-135.5 143,-154.5"/>
<text text-anchor="middle" x="71.5" y="-142.5" font-family="Helvetica,sans-Serif" font-size="10.00">std::is_nothrow_invocable</text>
</a>
</g>
</g>
<!-- Node1 -->
<g id="Node000001" class="node">
<title>Node1</title>
<g id="a_Node000001"><a xlink:href="structcsl_1_1wf_1_1mp_1_1is__nothrow__invocable.html" target="_top" xlink:title=" ">
<polygon fill="white" stroke="#666666" points="345,-284 179,-284 179,-254 345,-254 345,-284"/>
<text text-anchor="start" x="187" y="-272" font-family="Helvetica,sans-Serif" font-size="10.00">csl::wf::mp::is_nothrow</text>
<text text-anchor="middle" x="262" y="-261" font-family="Helvetica,sans-Serif" font-size="10.00">_invocable&lt; F, args_types... &gt;</text>
</a>
</g>
</g>
<!-- Node0&#45;&gt;Node1 -->
<g id="edge44_Node000000_Node000001" class="edge">
<title>Node0&#45;&gt;Node1</title>
<g id="a_edge44_Node000000_Node000001"><a xlink:title=" ">
<path fill="none" stroke="#63b8ff" d="M87.78,-162.23C107.16,-183.18 142.48,-218.4 179,-240 188.1,-245.38 198.35,-249.99 208.45,-253.84"/>
<polygon fill="#63b8ff" stroke="#63b8ff" points="90.25,-159.75 80.93,-154.71 85.07,-164.46 90.25,-159.75"/>
</a>
</g>
</g>
<!-- Node2 -->
<g id="Node000002" class="node">
<title>Node2</title>
<g id="a_Node000002"><a xlink:href="structcsl_1_1wf_1_1mp_1_1is__nothrow__invocable_3_01F_00_01ttps_3_4_00_01args__types_8_8_8_01_4.html" target="_top" xlink:title=" ">
<polygon fill="white" stroke="#666666" points="517,-256.5 386,-256.5 386,-215.5 517,-215.5 517,-256.5"/>
<text text-anchor="start" x="394" y="-244.5" font-family="Helvetica,sans-Serif" font-size="10.00">csl::wf::mp::is_nothrow</text>
<text text-anchor="start" x="394" y="-233.5" font-family="Helvetica,sans-Serif" font-size="10.00">_invocable&lt; F, ttps&lt;&gt;,</text>
<text text-anchor="middle" x="451.5" y="-222.5" font-family="Helvetica,sans-Serif" font-size="10.00"> args_types... &gt;</text>
</a>
</g>
</g>
<!-- Node0&#45;&gt;Node2 -->
<g id="edge50_Node000000_Node000002" class="edge">
<title>Node0&#45;&gt;Node2</title>
<g id="a_edge50_Node000000_Node000002"><a xlink:title=" ">
<path fill="none" stroke="#63b8ff" d="M93.04,-160.52C113.61,-175.18 146.77,-196.43 179,-207 247.24,-229.37 329.8,-235.42 385.83,-236.63"/>
<polygon fill="#63b8ff" stroke="#63b8ff" points="94.92,-157.56 84.78,-154.51 90.8,-163.22 94.92,-157.56"/>
</a>
</g>
</g>
<!-- Node3 -->
<g id="Node000003" class="node">
<title>Node3</title>
<g id="a_Node000003"><a xlink:href="structcsl_1_1wf_1_1mp_1_1is__nothrow__invocable.html" target="_top" xlink:title=" ">
<polygon fill="white" stroke="#666666" points="337.5,-198 186.5,-198 186.5,-146 337.5,-146 337.5,-198"/>
<text text-anchor="start" x="194.5" y="-186" font-family="Helvetica,sans-Serif" font-size="10.00">csl::wf::mp::is_nothrow</text>
<text text-anchor="start" x="194.5" y="-175" font-family="Helvetica,sans-Serif" font-size="10.00">_invocable&lt; F, std::remove</text>
<text text-anchor="start" x="194.5" y="-164" font-family="Helvetica,sans-Serif" font-size="10.00">_cvref_t&lt; ttps_type &gt;, args</text>
<text text-anchor="middle" x="262" y="-153" font-family="Helvetica,sans-Serif" font-size="10.00">_types... &gt;</text>
</a>
</g>
</g>
<!-- Node0&#45;&gt;Node3 -->
<g id="edge46_Node000000_Node000003" class="edge">
<title>Node0&#45;&gt;Node3</title>
<g id="a_edge46_Node000000_Node000003"><a xlink:title=" ">
<path fill="none" stroke="#63b8ff" d="M149.18,-155.98C161.49,-157.75 174.21,-159.57 186.47,-161.32"/>
<polygon fill="#63b8ff" stroke="#63b8ff" points="149.35,-152.47 138.96,-154.52 148.36,-159.4 149.35,-152.47"/>
</a>
</g>
</g>
<!-- Node4 -->
<g id="Node000004" class="node">
<title>Node4</title>
<g id="a_Node000004"><a xlink:href="structcsl_1_1wf_1_1mp_1_1is__nothrow__invocable_3_01F_00_01ttps__type_00_01args__types_8_8_8_01_4.html" target="_top" xlink:title=" ">
<polygon fill="white" stroke="#666666" points="522,-181.5 381,-181.5 381,-140.5 522,-140.5 522,-181.5"/>
<text text-anchor="start" x="389" y="-169.5" font-family="Helvetica,sans-Serif" font-size="10.00">csl::wf::mp::is_nothrow</text>
<text text-anchor="start" x="389" y="-158.5" font-family="Helvetica,sans-Serif" font-size="10.00">_invocable&lt; F, ttps_type,</text>
<text text-anchor="middle" x="451.5" y="-147.5" font-family="Helvetica,sans-Serif" font-size="10.00"> args_types... &gt;</text>
</a>
</g>
</g>
<!-- Node0&#45;&gt;Node4 -->
<g id="edge51_Node000000_Node000004" class="edge">
<title>Node0&#45;&gt;Node4</title>
<g id="a_edge51_Node000000_Node000004"><a xlink:title=" ">
<path fill="none" stroke="#63b8ff" d="M153.28,-136.68C207.64,-132.54 280.82,-129.79 345,-137 356.67,-138.31 368.92,-140.41 380.79,-142.84"/>
<polygon fill="#63b8ff" stroke="#63b8ff" points="152.71,-133.21 143.02,-137.5 153.26,-140.19 152.71,-133.21"/>
</a>
</g>
</g>
<!-- Node5 -->
<g id="Node000005" class="node">
<title>Node5</title>
<g id="a_Node000005"><a xlink:href="structcsl_1_1wf_1_1mp_1_1is__nothrow__invocable_3_01F_00_01ttps_3_01ttps__args_8_8_8_01_4_00_01args__types_8_8_8_01_4.html" target="_top" xlink:title=" ">
<polygon fill="white" stroke="#666666" points="333.5,-89.5 190.5,-89.5 190.5,-48.5 333.5,-48.5 333.5,-89.5"/>
<text text-anchor="start" x="198.5" y="-77.5" font-family="Helvetica,sans-Serif" font-size="10.00">csl::wf::mp::is_nothrow</text>
<text text-anchor="start" x="198.5" y="-66.5" font-family="Helvetica,sans-Serif" font-size="10.00">_invocable&lt; F, ttps&lt; ttps</text>
<text text-anchor="middle" x="262" y="-55.5" font-family="Helvetica,sans-Serif" font-size="10.00">_args... &gt;, args_types... &gt;</text>
</a>
</g>
</g>
<!-- Node0&#45;&gt;Node5 -->
<g id="edge48_Node000000_Node000005" class="edge">
<title>Node0&#45;&gt;Node5</title>
<g id="a_edge48_Node000000_Node000005"><a xlink:title=" ">
<path fill="none" stroke="#63b8ff" d="M106,-131.5C134.87,-119.86 176.99,-102.87 210.04,-89.55"/>
<polygon fill="#63b8ff" stroke="#63b8ff" points="104.34,-128.39 96.37,-135.37 106.96,-134.88 104.34,-128.39"/>
</a>
</g>
</g>
<!-- Node7 -->
<g id="Node000007" class="node">
<title>Node7</title>
<g id="a_Node000007"><a xlink:href="structcsl_1_1wf_1_1mp_1_1is__nothrow__invocable.html" target="_top" xlink:title=" ">
<polygon fill="white" stroke="#666666" points="340.5,-30 183.5,-30 183.5,0 340.5,0 340.5,-30"/>
<text text-anchor="start" x="191.5" y="-18" font-family="Helvetica,sans-Serif" font-size="10.00">csl::wf::mp::is_nothrow</text>
<text text-anchor="middle" x="262" y="-7" font-family="Helvetica,sans-Serif" font-size="10.00">_invocable&lt; F, args_types &gt;</text>
</a>
</g>
</g>
<!-- Node0&#45;&gt;Node7 -->
<g id="edge52_Node000000_Node000007" class="edge">
<title>Node0&#45;&gt;Node7</title>
<g id="a_edge52_Node000000_Node000007"><a xlink:title=" ">
<path fill="none" stroke="#63b8ff" d="M85.76,-127.09C104.13,-103.5 139.57,-62.31 179,-39 184.75,-35.6 191.01,-32.66 197.42,-30.11"/>
<polygon fill="#63b8ff" stroke="#63b8ff" points="82.86,-125.12 79.58,-135.19 88.42,-129.36 82.86,-125.12"/>
</a>
</g>
</g>
<!-- Node1&#45;&gt;Node2 -->
<g id="edge45_Node000001_Node000002" class="edge">
<title>Node1&#45;&gt;Node2</title>
<g id="a_edge45_Node000001_Node000002"><a xlink:title=" ">
<path fill="none" stroke="#63b8ff" d="M355.15,-252.78C365.51,-250.96 375.89,-249.13 385.79,-247.39"/>
<polygon fill="#63b8ff" stroke="#63b8ff" points="354.48,-249.35 345.24,-254.53 355.7,-256.24 354.48,-249.35"/>
</a>
</g>
</g>
<!-- Node3&#45;&gt;Node4 -->
<g id="edge47_Node000003_Node000004" class="edge">
<title>Node3&#45;&gt;Node4</title>
<g id="a_edge47_Node000003_Node000004"><a xlink:title=" ">
<path fill="none" stroke="#63b8ff" d="M347.78,-167.03C358.89,-166.37 370.17,-165.71 380.99,-165.08"/>
<polygon fill="#63b8ff" stroke="#63b8ff" points="347.42,-163.54 337.64,-167.62 347.83,-170.53 347.42,-163.54"/>
</a>
</g>
</g>
<!-- Node6 -->
<g id="Node000006" class="node">
<title>Node6</title>
<g id="a_Node000006"><a xlink:href="structcsl_1_1wf_1_1mp_1_1is__nothrow__invocable__with_3_01F_00_01ttps_3_01ttps__args_8_8_8_01_4_d69ccbd7299decd496d45803e91e61fb.html" target="_top" xlink:title=" ">
<polygon fill="white" stroke="#666666" points="520,-95 383,-95 383,-43 520,-43 520,-95"/>
<text text-anchor="start" x="391" y="-83" font-family="Helvetica,sans-Serif" font-size="10.00">csl::wf::mp::is_nothrow</text>
<text text-anchor="start" x="391" y="-72" font-family="Helvetica,sans-Serif" font-size="10.00">_invocable_with&lt; F, ttps</text>
<text text-anchor="start" x="391" y="-61" font-family="Helvetica,sans-Serif" font-size="10.00">&lt; ttps_args... &gt;, args&lt;</text>
<text text-anchor="middle" x="451.5" y="-50" font-family="Helvetica,sans-Serif" font-size="10.00"> args_types... &gt; &gt;</text>
</a>
</g>
</g>
<!-- Node5&#45;&gt;Node6 -->
<g id="edge49_Node000005_Node000006" class="edge">
<title>Node5&#45;&gt;Node6</title>
<g id="a_edge49_Node000005_Node000006"><a xlink:title=" ">
<path fill="none" stroke="#63b8ff" d="M343.91,-69C356.86,-69 370.14,-69 382.74,-69"/>
<polygon fill="#63b8ff" stroke="#63b8ff" points="343.62,-65.5 333.62,-69 343.62,-72.5 343.62,-65.5"/>
</a>
</g>
</g>
</g>
</svg>
