<?xml version="1.0" encoding="UTF-8" standalone="no"?>
<!DOCTYPE svg PUBLIC "-//W3C//DTD SVG 1.1//EN"
 "http://www.w3.org/Graphics/SVG/1.1/DTD/svg11.dtd">
<!-- Generated by graphviz version 2.43.0 (0)
 -->
<!-- Title: Graphical Class Hierarchy Pages: 1 -->
<svg width="276pt" height="246pt"
 viewBox="0.00 0.00 276.00 245.50" xmlns="http://www.w3.org/2000/svg" xmlns:xlink="http://www.w3.org/1999/xlink">
<g id="graph0" class="graph" transform="scale(1 1) rotate(0) translate(4 241.5)">
<title>Graphical Class Hierarchy</title>
<!-- Node0 -->
<g id="Node000000" class="node">
<title>Node0</title>
<g id="a_Node000000"><a xlink:title=" ">
<polygon fill="#e0e0e0" stroke="#999999" points="89,-115 0,-115 0,-96 89,-96 89,-115"/>
<text text-anchor="middle" x="44.5" y="-103" font-family="Helvetica,sans-Serif" font-size="10.00">std::false_type</text>
</a>
</g>
</g>
<!-- Node1 -->
<g id="Node000001" class="node">
<title>Node1</title>
<g id="a_Node000001"><a xlink:href="structcsl_1_1wf_1_1is__repeater_3_01repeater_3_01times_00_01T_01_4_01_4.html" target="_top" xlink:title=" ">
<polygon fill="white" stroke="#666666" points="268,-237.5 125,-237.5 125,-207.5 268,-207.5 268,-237.5"/>
<text text-anchor="start" x="133" y="-225.5" font-family="Helvetica,sans-Serif" font-size="10.00">csl::wf::is_repeater</text>
<text text-anchor="middle" x="196.5" y="-214.5" font-family="Helvetica,sans-Serif" font-size="10.00">&lt; repeater&lt; times, T &gt; &gt;</text>
</a>
</g>
</g>
<!-- Node0&#45;&gt;Node1 -->
<g id="edge10_Node000000_Node000001" class="edge">
<title>Node0&#45;&gt;Node1</title>
<g id="a_edge10_Node000000_Node000001"><a xlink:title=" ">
<path fill="none" stroke="#63b8ff" d="M60.34,-122.92C83.21,-149.75 124.49,-198.16 125,-198.5 130.03,-201.91 135.59,-204.88 141.31,-207.45"/>
<polygon fill="#63b8ff" stroke="#63b8ff" points="62.79,-120.4 53.64,-115.06 57.46,-124.94 62.79,-120.4"/>
</a>
</g>
</g>
<!-- Node3 -->
<g id="Node000003" class="node">
<title>Node3</title>
<g id="a_Node000003"><a xlink:href="structcsl_1_1wf_1_1mp_1_1is__args_3_01args_3_01Ts_8_8_8_01_4_01_4.html" target="_top" xlink:title=" ">
<polygon fill="white" stroke="#666666" points="251.5,-189.5 141.5,-189.5 141.5,-159.5 251.5,-159.5 251.5,-189.5"/>
<text text-anchor="start" x="149.5" y="-177.5" font-family="Helvetica,sans-Serif" font-size="10.00">csl::wf::mp::is_args</text>
<text text-anchor="middle" x="196.5" y="-166.5" font-family="Helvetica,sans-Serif" font-size="10.00">&lt; args&lt; Ts... &gt; &gt;</text>
</a>
</g>
</g>
<!-- Node0&#45;&gt;Node3 -->
<g id="edge11_Node000000_Node000003" class="edge">
<title>Node0&#45;&gt;Node3</title>
<g id="a_edge11_Node000000_Node000003"><a xlink:title=" ">
<path fill="none" stroke="#63b8ff" d="M69.48,-120.64C84.95,-130 105.71,-141.85 125,-150.5 132.08,-153.67 139.71,-156.68 147.25,-159.42"/>
<polygon fill="#63b8ff" stroke="#63b8ff" points="70.95,-117.43 60.59,-115.17 67.28,-123.39 70.95,-117.43"/>
</a>
</g>
</g>
<!-- Node4 -->
<g id="Node000004" class="node">
<title>Node4</title>
<g id="a_Node000004"><a xlink:href="structcsl_1_1wf_1_1mp_1_1is__ttps_3_01ttps_3_01Ts_8_8_8_01_4_01_4.html" target="_top" xlink:title=" ">
<polygon fill="white" stroke="#666666" points="250,-141.5 143,-141.5 143,-111.5 250,-111.5 250,-141.5"/>
<text text-anchor="start" x="151" y="-129.5" font-family="Helvetica,sans-Serif" font-size="10.00">csl::wf::mp::is_ttps</text>
<text text-anchor="middle" x="196.5" y="-118.5" font-family="Helvetica,sans-Serif" font-size="10.00">&lt; ttps&lt; Ts... &gt; &gt;</text>
</a>
</g>
</g>
<!-- Node0&#45;&gt;Node4 -->
<g id="edge12_Node000000_Node000004" class="edge">
<title>Node0&#45;&gt;Node4</title>
<g id="a_edge12_Node000000_Node000004"><a xlink:title=" ">
<path fill="none" stroke="#63b8ff" d="M99.38,-113.04C113.54,-115.03 128.8,-117.16 142.89,-119.14"/>
<polygon fill="#63b8ff" stroke="#63b8ff" points="99.68,-109.55 89.29,-111.63 98.71,-116.48 99.68,-109.55"/>
</a>
</g>
</g>
<!-- Node5 -->
<g id="Node000005" class="node">
<title>Node5</title>
<g id="a_Node000005"><a xlink:href="structcsl_1_1wf_1_1is__repeater.html" target="_top" xlink:title=" ">
<polygon fill="white" stroke="#666666" points="265,-93 128,-93 128,-74 265,-74 265,-93"/>
<text text-anchor="middle" x="196.5" y="-81" font-family="Helvetica,sans-Serif" font-size="10.00">csl::wf::is_repeater&lt; T &gt;</text>
</a>
</g>
</g>
<!-- Node0&#45;&gt;Node5 -->
<g id="edge13_Node000000_Node000005" class="edge">
<title>Node0&#45;&gt;Node5</title>
<g id="a_edge13_Node000000_Node000005"><a xlink:title=" ">
<path fill="none" stroke="#63b8ff" d="M99.2,-97.62C109.34,-96.14 120.03,-94.57 130.47,-93.04"/>
<polygon fill="#63b8ff" stroke="#63b8ff" points="98.68,-94.16 89.29,-99.08 99.69,-101.09 98.68,-94.16"/>
</a>
</g>
</g>
<!-- Node6 -->
<g id="Node000006" class="node">
<title>Node6</title>
<g id="a_Node000006"><a xlink:href="structcsl_1_1wf_1_1mp_1_1is__args.html" target="_top" xlink:title=" ">
<polygon fill="white" stroke="#666666" points="265.5,-56 127.5,-56 127.5,-37 265.5,-37 265.5,-56"/>
<text text-anchor="middle" x="196.5" y="-44" font-family="Helvetica,sans-Serif" font-size="10.00">csl::wf::mp::is_args&lt; T &gt;</text>
</a>
</g>
</g>
<!-- Node0&#45;&gt;Node6 -->
<g id="edge14_Node000000_Node000006" class="edge">
<title>Node0&#45;&gt;Node6</title>
<g id="a_edge14_Node000000_Node000006"><a xlink:title=" ">
<path fill="none" stroke="#63b8ff" d="M70.31,-90.86C85.66,-82.27 106.01,-71.72 125,-64.5 133.5,-61.27 142.8,-58.43 151.77,-56.02"/>
<polygon fill="#63b8ff" stroke="#63b8ff" points="68.4,-87.91 61.45,-95.91 71.87,-94 68.4,-87.91"/>
</a>
</g>
</g>
<!-- Node7 -->
<g id="Node000007" class="node">
<title>Node7</title>
<g id="a_Node000007"><a xlink:href="structcsl_1_1wf_1_1mp_1_1is__ttps.html" target="_top" xlink:title=" ">
<polygon fill="white" stroke="#666666" points="264.5,-19 128.5,-19 128.5,0 264.5,0 264.5,-19"/>
<text text-anchor="middle" x="196.5" y="-7" font-family="Helvetica,sans-Serif" font-size="10.00">csl::wf::mp::is_ttps&lt; T &gt;</text>
</a>
</g>
</g>
<!-- Node0&#45;&gt;Node7 -->
<g id="edge15_Node000000_Node000007" class="edge">
<title>Node0&#45;&gt;Node7</title>
<g id="a_edge15_Node000000_Node000007"><a xlink:title=" ">
<path fill="none" stroke="#63b8ff" d="M58.63,-88.03C72.99,-70.17 97.64,-42.91 125,-27.5 131.05,-24.09 137.76,-21.32 144.56,-19.06"/>
<polygon fill="#63b8ff" stroke="#63b8ff" points="55.84,-85.92 52.44,-95.95 61.36,-90.23 55.84,-85.92"/>
</a>
</g>
</g>
<!-- Node2 -->
<g id="Node000002" class="node">
<title>Node2</title>
<g id="a_Node000002"><a xlink:title=" ">
<polygon fill="#e0e0e0" stroke="#999999" points="86.5,-184 2.5,-184 2.5,-165 86.5,-165 86.5,-184"/>
<text text-anchor="middle" x="44.5" y="-172" font-family="Helvetica,sans-Serif" font-size="10.00">std::true_type</text>
</a>
</g>
</g>
<!-- Node2&#45;&gt;Node1 -->
<g id="edge16_Node000002_Node000001" class="edge">
<title>Node2&#45;&gt;Node1</title>
<g id="a_edge16_Node000002_Node000001"><a xlink:title=" ">
<path fill="none" stroke="#63b8ff" d="M85.23,-187.21C104.64,-193.42 128.13,-200.94 148.43,-207.44"/>
<polygon fill="#63b8ff" stroke="#63b8ff" points="86.09,-183.81 75.49,-184.1 83.95,-190.48 86.09,-183.81"/>
</a>
</g>
</g>
<!-- Node2&#45;&gt;Node3 -->
<g id="edge17_Node000002_Node000003" class="edge">
<title>Node2&#45;&gt;Node3</title>
<g id="a_edge17_Node000002_Node000003"><a xlink:title=" ">
<path fill="none" stroke="#63b8ff" d="M97.03,-174.5C111.33,-174.5 126.88,-174.5 141.32,-174.5"/>
<polygon fill="#63b8ff" stroke="#63b8ff" points="96.89,-171 86.89,-174.5 96.89,-178 96.89,-171"/>
</a>
</g>
</g>
<!-- Node2&#45;&gt;Node4 -->
<g id="edge18_Node000002_Node000004" class="edge">
<title>Node2&#45;&gt;Node4</title>
<g id="a_edge18_Node000002_Node000004"><a xlink:title=" ">
<path fill="none" stroke="#63b8ff" d="M85.23,-161.79C104.64,-155.58 128.13,-148.06 148.43,-141.56"/>
<polygon fill="#63b8ff" stroke="#63b8ff" points="83.95,-158.52 75.49,-164.9 86.09,-165.19 83.95,-158.52"/>
</a>
</g>
</g>
</g>
</svg>
