<?xml version="1.0" encoding="UTF-8" standalone="no"?>
<!DOCTYPE svg PUBLIC "-//W3C//DTD SVG 1.1//EN"
 "http://www.w3.org/Graphics/SVG/1.1/DTD/svg11.dtd">
<!-- Generated by graphviz version 2.43.0 (0)
 -->
<!-- Title: csl::wf::mp::is_nothrow_invocable&lt; F, ttps&lt;&gt;, args_types... &gt; Pages: 1 -->
<svg width="520pt" height="65pt"
 viewBox="0.00 0.00 520.00 64.50" xmlns="http://www.w3.org/2000/svg" xmlns:xlink="http://www.w3.org/1999/xlink">
<g id="graph0" class="graph" transform="scale(1 1) rotate(0) translate(4 60.5)">
<title>csl::wf::mp::is_nothrow_invocable&lt; F, ttps&lt;&gt;, args_types... &gt;</title>
<!-- Node1 -->
<g id="Node000001" class="node">
<title>Node1</title>
<g id="a_Node000001"><a xlink:title=" ">
<polygon fill="#999999" stroke="#666666" points="512,-56.5 381,-56.5 381,-15.5 512,-15.5 512,-56.5"/>
<text text-anchor="start" x="389" y="-44.5" font-family="Helvetica,sans-Serif" font-size="10.00">csl::wf::mp::is_nothrow</text>
<text text-anchor="start" x="389" y="-33.5" font-family="Helvetica,sans-Serif" font-size="10.00">_invocable&lt; F, ttps&lt;&gt;,</text>
<text text-anchor="middle" x="446.5" y="-22.5" font-family="Helvetica,sans-Serif" font-size="10.00"> args_types... &gt;</text>
</a>
</g>
</g>
<!-- Node2 -->
<g id="Node000002" class="node">
<title>Node2</title>
<g id="a_Node000002"><a xlink:title=" ">
<polygon fill="white" stroke="#bfbfbf" points="143,-51 0,-51 0,-21 143,-21 143,-51"/>
<text text-anchor="start" x="8" y="-39" font-family="Helvetica,sans-Serif" font-size="10.00">std::is_nothrow_invocable</text>
<text text-anchor="middle" x="71.5" y="-28" font-family="Helvetica,sans-Serif" font-size="10.00">&lt; F, args_types... &gt;</text>
</a>
</g>
</g>
<!-- Node2&#45;&gt;Node1 -->
<g id="edge1_Node000001_Node000002" class="edge">
<title>Node2&#45;&gt;Node1</title>
<g id="a_edge1_Node000001_Node000002"><a xlink:title=" ">
<path fill="none" stroke="#63b8ff" d="M153.37,-38.52C162.02,-38.71 170.69,-38.88 179,-39 252.77,-40.04 271.23,-40.1 345,-39 356.61,-38.83 368.96,-38.54 380.9,-38.21"/>
<polygon fill="#63b8ff" stroke="#63b8ff" points="153.33,-35.01 143.24,-38.27 153.16,-42.01 153.33,-35.01"/>
</a>
</g>
</g>
<!-- Node3 -->
<g id="Node000003" class="node">
<title>Node3</title>
<g id="a_Node000003"><a xlink:href="structcsl_1_1wf_1_1mp_1_1is__nothrow__invocable.html" target="_top" xlink:title=" ">
<polygon fill="white" stroke="#bfbfbf" points="345,-30 179,-30 179,0 345,0 345,-30"/>
<text text-anchor="start" x="187" y="-18" font-family="Helvetica,sans-Serif" font-size="10.00">csl::wf::mp::is_nothrow</text>
<text text-anchor="middle" x="262" y="-7" font-family="Helvetica,sans-Serif" font-size="10.00">_invocable&lt; F, args_types... &gt;</text>
</a>
</g>
</g>
<!-- Node2&#45;&gt;Node3 -->
<g id="edge3_Node000003_Node000002" class="edge">
<title>Node2&#45;&gt;Node3</title>
<g id="a_edge3_Node000003_Node000002"><a xlink:title=" ">
<path fill="none" stroke="#63b8ff" d="M153.39,-26.99C161.8,-26.05 170.35,-25.1 178.77,-24.16"/>
<polygon fill="#63b8ff" stroke="#63b8ff" points="152.78,-23.53 143.23,-28.12 153.55,-30.49 152.78,-23.53"/>
</a>
</g>
</g>
<!-- Node3&#45;&gt;Node1 -->
<g id="edge2_Node000001_Node000003" class="edge">
<title>Node3&#45;&gt;Node1</title>
<g id="a_edge2_Node000001_Node000003"><a xlink:title=" ">
<path fill="none" stroke="#63b8ff" d="M355.26,-25.62C363.87,-26.61 372.46,-27.6 380.74,-28.55"/>
<polygon fill="#63b8ff" stroke="#63b8ff" points="355.51,-22.12 345.17,-24.46 354.71,-29.08 355.51,-22.12"/>
</a>
</g>
</g>
</g>
</svg>
