<?xml version="1.0" encoding="UTF-8" standalone="no"?>
<!DOCTYPE svg PUBLIC "-//W3C//DTD SVG 1.1//EN"
 "http://www.w3.org/Graphics/SVG/1.1/DTD/svg11.dtd">
<!-- Generated by graphviz version 2.43.0 (0)
 -->
<!-- Title: csl::wf::mp::is_invocable&lt; F, ttps_type, args_types... &gt; Pages: 1 -->
<svg width="525pt" height="68pt"
 viewBox="0.00 0.00 525.00 67.50" xmlns="http://www.w3.org/2000/svg" xmlns:xlink="http://www.w3.org/1999/xlink">
<g id="graph0" class="graph" transform="scale(1 1) rotate(0) translate(4 63.5)">
<title>csl::wf::mp::is_invocable&lt; F, ttps_type, args_types... &gt;</title>
<!-- Node1 -->
<g id="Node000001" class="node">
<title>Node1</title>
<g id="a_Node000001"><a xlink:title=" ">
<polygon fill="#999999" stroke="#666666" points="517,-59.5 352,-59.5 352,-29.5 517,-29.5 517,-59.5"/>
<text text-anchor="start" x="360" y="-47.5" font-family="Helvetica,sans-Serif" font-size="10.00">csl::wf::mp::is_invocable</text>
<text text-anchor="middle" x="434.5" y="-36.5" font-family="Helvetica,sans-Serif" font-size="10.00">&lt; F, ttps_type, args_types... &gt;</text>
</a>
</g>
</g>
<!-- Node2 -->
<g id="Node000002" class="node">
<title>Node2</title>
<g id="a_Node000002"><a xlink:title=" ">
<polygon fill="white" stroke="#bfbfbf" points="107,-59.5 0,-59.5 0,-29.5 107,-29.5 107,-59.5"/>
<text text-anchor="start" x="8" y="-47.5" font-family="Helvetica,sans-Serif" font-size="10.00">std::is_invocable&lt;</text>
<text text-anchor="middle" x="53.5" y="-36.5" font-family="Helvetica,sans-Serif" font-size="10.00"> F, args_types... &gt;</text>
</a>
</g>
</g>
<!-- Node2&#45;&gt;Node1 -->
<g id="edge1_Node000001_Node000002" class="edge">
<title>Node2&#45;&gt;Node1</title>
<g id="a_edge1_Node000001_Node000002"><a xlink:title=" ">
<path fill="none" stroke="#63b8ff" d="M117.37,-49.29C125.98,-49.79 134.7,-50.22 143,-50.5 219.84,-53.1 239.14,-52.46 316,-50.5 327.64,-50.2 339.92,-49.74 351.98,-49.2"/>
<polygon fill="#63b8ff" stroke="#63b8ff" points="117.55,-45.79 107.35,-48.67 117.12,-52.78 117.55,-45.79"/>
</a>
</g>
</g>
<!-- Node3 -->
<g id="Node000003" class="node">
<title>Node3</title>
<g id="a_Node000003"><a xlink:href="structcsl_1_1wf_1_1mp_1_1is__invocable.html" target="_top" xlink:title=" ">
<polygon fill="white" stroke="#bfbfbf" points="316,-41 143,-41 143,0 316,0 316,-41"/>
<text text-anchor="start" x="151" y="-29" font-family="Helvetica,sans-Serif" font-size="10.00">csl::wf::mp::is_invocable</text>
<text text-anchor="start" x="151" y="-18" font-family="Helvetica,sans-Serif" font-size="10.00">&lt; F, std::remove_cvref</text>
<text text-anchor="middle" x="229.5" y="-7" font-family="Helvetica,sans-Serif" font-size="10.00">_t&lt; ttps_type &gt;, args_types... &gt;</text>
</a>
</g>
</g>
<!-- Node2&#45;&gt;Node3 -->
<g id="edge3_Node000003_Node000002" class="edge">
<title>Node2&#45;&gt;Node3</title>
<g id="a_edge3_Node000003_Node000002"><a xlink:title=" ">
<path fill="none" stroke="#63b8ff" d="M117.19,-35.85C125.54,-34.7 134.23,-33.5 142.89,-32.31"/>
<polygon fill="#63b8ff" stroke="#63b8ff" points="116.61,-32.4 107.18,-37.23 117.56,-39.33 116.61,-32.4"/>
</a>
</g>
</g>
<!-- Node3&#45;&gt;Node1 -->
<g id="edge2_Node000001_Node000003" class="edge">
<title>Node3&#45;&gt;Node1</title>
<g id="a_edge2_Node000001_Node000003"><a xlink:title=" ">
<path fill="none" stroke="#63b8ff" d="M326.12,-31.8C334.77,-32.83 343.47,-33.86 351.99,-34.86"/>
<polygon fill="#63b8ff" stroke="#63b8ff" points="326.34,-28.31 316,-30.61 325.52,-35.26 326.34,-28.31"/>
</a>
</g>
</g>
</g>
</svg>
