<?xml version="1.0" encoding="UTF-8" standalone="no"?>
<!DOCTYPE svg PUBLIC "-//W3C//DTD SVG 1.1//EN"
 "http://www.w3.org/Graphics/SVG/1.1/DTD/svg11.dtd">
<!-- Generated by graphviz version 2.43.0 (0)
 -->
<!-- Title: csl::wf::mp::is_nothrow_invocable_r&lt; R, F, ttps&lt;&gt;, args_types... &gt; Pages: 1 -->
<svg width="491pt" height="73pt"
 viewBox="0.00 0.00 491.00 73.00" xmlns="http://www.w3.org/2000/svg" xmlns:xlink="http://www.w3.org/1999/xlink">
<g id="graph0" class="graph" transform="scale(1 1) rotate(0) translate(4 69)">
<title>csl::wf::mp::is_nothrow_invocable_r&lt; R, F, ttps&lt;&gt;, args_types... &gt;</title>
<!-- Node1 -->
<g id="Node000001" class="node">
<title>Node1</title>
<g id="a_Node000001"><a xlink:title=" ">
<polygon fill="#999999" stroke="#666666" points="483,-65 350,-65 350,-24 483,-24 483,-65"/>
<text text-anchor="start" x="358" y="-53" font-family="Helvetica,sans-Serif" font-size="10.00">csl::wf::mp::is_nothrow</text>
<text text-anchor="start" x="358" y="-42" font-family="Helvetica,sans-Serif" font-size="10.00">_invocable_r&lt; R, F, ttps</text>
<text text-anchor="middle" x="416.5" y="-31" font-family="Helvetica,sans-Serif" font-size="10.00">&lt;&gt;, args_types... &gt;</text>
</a>
</g>
</g>
<!-- Node2 -->
<g id="Node000002" class="node">
<title>Node2</title>
<g id="a_Node000002"><a xlink:title=" ">
<polygon fill="white" stroke="#bfbfbf" points="143,-59.5 0,-59.5 0,-29.5 143,-29.5 143,-59.5"/>
<text text-anchor="start" x="8" y="-47.5" font-family="Helvetica,sans-Serif" font-size="10.00">std::is_nothrow_invocable</text>
<text text-anchor="middle" x="71.5" y="-36.5" font-family="Helvetica,sans-Serif" font-size="10.00">_r&lt; R, F, args_types... &gt;</text>
</a>
</g>
</g>
<!-- Node2&#45;&gt;Node1 -->
<g id="edge1_Node000001_Node000002" class="edge">
<title>Node2&#45;&gt;Node1</title>
<g id="a_edge1_Node000001_Node000002"><a xlink:title=" ">
<path fill="none" stroke="#63b8ff" d="M153.35,-49.53C162.01,-49.93 170.68,-50.27 179,-50.5 238.98,-52.19 254.03,-52.27 314,-50.5 325.56,-50.16 337.84,-49.6 349.73,-48.96"/>
<polygon fill="#63b8ff" stroke="#63b8ff" points="153.38,-46.03 143.23,-49.04 153.04,-53.02 153.38,-46.03"/>
</a>
</g>
</g>
<!-- Node3 -->
<g id="Node000003" class="node">
<title>Node3</title>
<g id="a_Node000003"><a xlink:href="structcsl_1_1wf_1_1mp_1_1is__nothrow__invocable__r.html" target="_top" xlink:title=" ">
<polygon fill="white" stroke="#bfbfbf" points="314,-41 179,-41 179,0 314,0 314,-41"/>
<text text-anchor="start" x="187" y="-29" font-family="Helvetica,sans-Serif" font-size="10.00">csl::wf::mp::is_nothrow</text>
<text text-anchor="start" x="187" y="-18" font-family="Helvetica,sans-Serif" font-size="10.00">_invocable_r&lt; R, F, args</text>
<text text-anchor="middle" x="246.5" y="-7" font-family="Helvetica,sans-Serif" font-size="10.00">_types... &gt;</text>
</a>
</g>
</g>
<!-- Node2&#45;&gt;Node3 -->
<g id="edge3_Node000003_Node000002" class="edge">
<title>Node2&#45;&gt;Node3</title>
<g id="a_edge3_Node000003_Node000002"><a xlink:title=" ">
<path fill="none" stroke="#63b8ff" d="M153.36,-33.28C161.92,-32.09 170.55,-30.9 178.92,-29.74"/>
<polygon fill="#63b8ff" stroke="#63b8ff" points="152.79,-29.83 143.36,-34.67 153.75,-36.76 152.79,-29.83"/>
</a>
</g>
</g>
<!-- Node3&#45;&gt;Node1 -->
<g id="edge2_Node000001_Node000003" class="edge">
<title>Node3&#45;&gt;Node1</title>
<g id="a_edge2_Node000001_Node000003"><a xlink:title=" ">
<path fill="none" stroke="#63b8ff" d="M324.35,-31.48C332.9,-32.7 341.55,-33.94 349.95,-35.14"/>
<polygon fill="#63b8ff" stroke="#63b8ff" points="324.78,-28 314.38,-30.05 323.79,-34.93 324.78,-28"/>
</a>
</g>
</g>
</g>
</svg>
