<?xml version="1.0" encoding="UTF-8" standalone="no"?>
<!DOCTYPE svg PUBLIC "-//W3C//DTD SVG 1.1//EN"
 "http://www.w3.org/Graphics/SVG/1.1/DTD/svg11.dtd">
<!-- Generated by graphviz version 2.43.0 (0)
 -->
<!-- Title: csl::wf::mp::invoke_result&lt; F, ttps&lt;&gt;, args_types... &gt; Pages: 1 -->
<svg width="450pt" height="65pt"
 viewBox="0.00 0.00 450.00 64.50" xmlns="http://www.w3.org/2000/svg" xmlns:xlink="http://www.w3.org/1999/xlink">
<g id="graph0" class="graph" transform="scale(1 1) rotate(0) translate(4 60.5)">
<title>csl::wf::mp::invoke_result&lt; F, ttps&lt;&gt;, args_types... &gt;</title>
<!-- Node1 -->
<g id="Node000001" class="node">
<title>Node1</title>
<g id="a_Node000001"><a xlink:title=" ">
<polygon fill="#999999" stroke="#666666" points="442,-56.5 331,-56.5 331,-15.5 442,-15.5 442,-56.5"/>
<text text-anchor="start" x="339" y="-44.5" font-family="Helvetica,sans-Serif" font-size="10.00">csl::wf::mp::invoke</text>
<text text-anchor="start" x="339" y="-33.5" font-family="Helvetica,sans-Serif" font-size="10.00">_result&lt; F, ttps&lt;&gt;,</text>
<text text-anchor="middle" x="386.5" y="-22.5" font-family="Helvetica,sans-Serif" font-size="10.00"> args_types... &gt;</text>
</a>
</g>
</g>
<!-- Node2 -->
<g id="Node000002" class="node">
<title>Node2</title>
<g id="a_Node000002"><a xlink:title=" ">
<polygon fill="white" stroke="#bfbfbf" points="113,-51 0,-51 0,-21 113,-21 113,-51"/>
<text text-anchor="start" x="8" y="-39" font-family="Helvetica,sans-Serif" font-size="10.00">std::invoke_result</text>
<text text-anchor="middle" x="56.5" y="-28" font-family="Helvetica,sans-Serif" font-size="10.00">&lt; F, args_types... &gt;</text>
</a>
</g>
</g>
<!-- Node2&#45;&gt;Node1 -->
<g id="edge1_Node000001_Node000002" class="edge">
<title>Node2&#45;&gt;Node1</title>
<g id="a_edge1_Node000001_Node000002"><a xlink:title=" ">
<path fill="none" stroke="#63b8ff" d="M123.23,-38.41C131.9,-38.66 140.66,-38.86 149,-39 213.88,-40.06 230.12,-40.08 295,-39 306.63,-38.81 319.1,-38.48 330.95,-38.1"/>
<polygon fill="#63b8ff" stroke="#63b8ff" points="123.24,-34.91 113.14,-38.12 123.03,-41.91 123.24,-34.91"/>
</a>
</g>
</g>
<!-- Node3 -->
<g id="Node000003" class="node">
<title>Node3</title>
<g id="a_Node000003"><a xlink:href="structcsl_1_1wf_1_1mp_1_1invoke__result.html" target="_top" xlink:title=" ">
<polygon fill="white" stroke="#bfbfbf" points="295,-30 149,-30 149,0 295,0 295,-30"/>
<text text-anchor="start" x="157" y="-18" font-family="Helvetica,sans-Serif" font-size="10.00">csl::wf::mp::invoke</text>
<text text-anchor="middle" x="222" y="-7" font-family="Helvetica,sans-Serif" font-size="10.00">_result&lt; F, args_types... &gt;</text>
</a>
</g>
</g>
<!-- Node2&#45;&gt;Node3 -->
<g id="edge3_Node000003_Node000002" class="edge">
<title>Node2&#45;&gt;Node3</title>
<g id="a_edge3_Node000003_Node000002"><a xlink:title=" ">
<path fill="none" stroke="#63b8ff" d="M123.42,-27.53C131.83,-26.45 140.47,-25.34 148.96,-24.25"/>
<polygon fill="#63b8ff" stroke="#63b8ff" points="122.78,-24.09 113.31,-28.83 123.67,-31.03 122.78,-24.09"/>
</a>
</g>
</g>
<!-- Node3&#45;&gt;Node1 -->
<g id="edge2_Node000001_Node000003" class="edge">
<title>Node3&#45;&gt;Node1</title>
<g id="a_edge2_Node000001_Node000003"><a xlink:title=" ">
<path fill="none" stroke="#63b8ff" d="M305.27,-25.63C313.85,-26.74 322.41,-27.85 330.57,-28.9"/>
<polygon fill="#63b8ff" stroke="#63b8ff" points="305.59,-22.14 295.22,-24.33 304.69,-29.09 305.59,-22.14"/>
</a>
</g>
</g>
</g>
</svg>
