<?xml version="1.0" encoding="UTF-8" standalone="no"?>
<!DOCTYPE svg PUBLIC "-//W3C//DTD SVG 1.1//EN"
 "http://www.w3.org/Graphics/SVG/1.1/DTD/svg11.dtd">
<!-- Generated by graphviz version 2.43.0 (0)
 -->
<!-- Title: csl::wf::mp::is_invocable&lt; F, ttps&lt; ttps_args... &gt;, args_types... &gt; Pages: 1 -->
<svg width="159pt" height="192pt"
 viewBox="0.00 0.00 159.00 192.00" xmlns="http://www.w3.org/2000/svg" xmlns:xlink="http://www.w3.org/1999/xlink">
<g id="graph0" class="graph" transform="scale(1 1) rotate(0) translate(4 188)">
<title>csl::wf::mp::is_invocable&lt; F, ttps&lt; ttps_args... &gt;, args_types... &gt;</title>
<!-- Node1 -->
<g id="Node000001" class="node">
<title>Node1</title>
<g id="a_Node000001"><a xlink:title=" ">
<polygon fill="#999999" stroke="#666666" points="143.5,-118 7.5,-118 7.5,-77 143.5,-77 143.5,-118"/>
<text text-anchor="start" x="15.5" y="-106" font-family="Helvetica,sans-Serif" font-size="10.00">csl::wf::mp::is_invocable</text>
<text text-anchor="start" x="15.5" y="-95" font-family="Helvetica,sans-Serif" font-size="10.00">&lt; F, ttps&lt; ttps_args...</text>
<text text-anchor="middle" x="75.5" y="-84" font-family="Helvetica,sans-Serif" font-size="10.00"> &gt;, args_types... &gt;</text>
</a>
</g>
</g>
<!-- Node3 -->
<g id="Node000003" class="node">
<title>Node3</title>
<g id="a_Node000003"><a xlink:href="structcsl_1_1wf_1_1mp_1_1is__invocable__with_3_01F_00_01ttps_3_01ttps__args_8_8_8_01_4_00_01args6c0024fa11d1ff50fd9c101bdc9a5f76.html" target="_top" xlink:title=" ">
<polygon fill="white" stroke="#bfbfbf" points="151,-41 0,-41 0,0 151,0 151,-41"/>
<text text-anchor="start" x="8" y="-29" font-family="Helvetica,sans-Serif" font-size="10.00">csl::wf::mp::is_invocable</text>
<text text-anchor="start" x="8" y="-18" font-family="Helvetica,sans-Serif" font-size="10.00">_with&lt; F, ttps&lt; ttps_args...</text>
<text text-anchor="middle" x="75.5" y="-7" font-family="Helvetica,sans-Serif" font-size="10.00"> &gt;, args&lt; args_types... &gt; &gt;</text>
</a>
</g>
</g>
<!-- Node1&#45;&gt;Node3 -->
<g id="edge2_Node000001_Node000003" class="edge">
<title>Node1&#45;&gt;Node3</title>
<g id="a_edge2_Node000001_Node000003"><a xlink:title=" ">
<path fill="none" stroke="#63b8ff" d="M75.5,-66.69C75.5,-58.08 75.5,-48.9 75.5,-41.07"/>
<polygon fill="#63b8ff" stroke="#63b8ff" points="72,-66.79 75.5,-76.79 79,-66.79 72,-66.79"/>
</a>
</g>
</g>
<!-- Node2 -->
<g id="Node000002" class="node">
<title>Node2</title>
<g id="a_Node000002"><a xlink:title=" ">
<polygon fill="white" stroke="#bfbfbf" points="129,-184 22,-184 22,-154 129,-154 129,-184"/>
<text text-anchor="start" x="30" y="-172" font-family="Helvetica,sans-Serif" font-size="10.00">std::is_invocable&lt;</text>
<text text-anchor="middle" x="75.5" y="-161" font-family="Helvetica,sans-Serif" font-size="10.00"> F, args_types... &gt;</text>
</a>
</g>
</g>
<!-- Node2&#45;&gt;Node1 -->
<g id="edge1_Node000001_Node000002" class="edge">
<title>Node2&#45;&gt;Node1</title>
<g id="a_edge1_Node000001_Node000002"><a xlink:title=" ">
<path fill="none" stroke="#63b8ff" d="M75.5,-143.91C75.5,-135.47 75.5,-126.1 75.5,-118.07"/>
<polygon fill="#63b8ff" stroke="#63b8ff" points="72,-143.94 75.5,-153.94 79,-143.94 72,-143.94"/>
</a>
</g>
</g>
</g>
</svg>
