<?xml version="1.0" encoding="UTF-8" standalone="no"?>
<!DOCTYPE svg PUBLIC "-//W3C//DTD SVG 1.1//EN"
 "http://www.w3.org/Graphics/SVG/1.1/DTD/svg11.dtd">
<!-- Generated by graphviz version 2.43.0 (0)
 -->
<!-- Title: csl::wf::mp::is_invocable_r&lt; R, F, ttps&lt;&gt;, args_types... &gt; Pages: 1 -->
<svg width="478pt" height="65pt"
 viewBox="0.00 0.00 478.00 64.50" xmlns="http://www.w3.org/2000/svg" xmlns:xlink="http://www.w3.org/1999/xlink">
<g id="graph0" class="graph" transform="scale(1 1) rotate(0) translate(4 60.5)">
<title>csl::wf::mp::is_invocable_r&lt; R, F, ttps&lt;&gt;, args_types... &gt;</title>
<!-- Node1 -->
<g id="Node000001" class="node">
<title>Node1</title>
<g id="a_Node000001"><a xlink:title=" ">
<polygon fill="#999999" stroke="#666666" points="470,-56.5 334,-56.5 334,-15.5 470,-15.5 470,-56.5"/>
<text text-anchor="start" x="342" y="-44.5" font-family="Helvetica,sans-Serif" font-size="10.00">csl::wf::mp::is_invocable</text>
<text text-anchor="start" x="342" y="-33.5" font-family="Helvetica,sans-Serif" font-size="10.00">_r&lt; R, F, ttps&lt;&gt;, args</text>
<text text-anchor="middle" x="402" y="-22.5" font-family="Helvetica,sans-Serif" font-size="10.00">_types... &gt;</text>
</a>
</g>
</g>
<!-- Node2 -->
<g id="Node000002" class="node">
<title>Node2</title>
<g id="a_Node000002"><a xlink:title=" ">
<polygon fill="white" stroke="#bfbfbf" points="126,-51 0,-51 0,-21 126,-21 126,-51"/>
<text text-anchor="start" x="8" y="-39" font-family="Helvetica,sans-Serif" font-size="10.00">std::is_invocable_r</text>
<text text-anchor="middle" x="63" y="-28" font-family="Helvetica,sans-Serif" font-size="10.00">&lt; R, F, args_types... &gt;</text>
</a>
</g>
</g>
<!-- Node2&#45;&gt;Node1 -->
<g id="edge1_Node000001_Node000002" class="edge">
<title>Node2&#45;&gt;Node1</title>
<g id="a_edge1_Node000001_Node000002"><a xlink:title=" ">
<path fill="none" stroke="#63b8ff" d="M136.31,-38.46C144.97,-38.68 153.68,-38.87 162,-39 222.44,-39.92 237.56,-39.88 298,-39 309.63,-38.83 321.99,-38.55 333.97,-38.24"/>
<polygon fill="#63b8ff" stroke="#63b8ff" points="136.3,-34.96 126.2,-38.19 136.11,-41.96 136.3,-34.96"/>
</a>
</g>
</g>
<!-- Node3 -->
<g id="Node000003" class="node">
<title>Node3</title>
<g id="a_Node000003"><a xlink:href="structcsl_1_1wf_1_1mp_1_1is__invocable__r.html" target="_top" xlink:title=" ">
<polygon fill="white" stroke="#bfbfbf" points="298,-30 162,-30 162,0 298,0 298,-30"/>
<text text-anchor="start" x="170" y="-18" font-family="Helvetica,sans-Serif" font-size="10.00">csl::wf::mp::is_invocable</text>
<text text-anchor="middle" x="230" y="-7" font-family="Helvetica,sans-Serif" font-size="10.00">_r&lt; R, F, args_types... &gt;</text>
</a>
</g>
</g>
<!-- Node2&#45;&gt;Node3 -->
<g id="edge3_Node000003_Node000002" class="edge">
<title>Node2&#45;&gt;Node3</title>
<g id="a_edge3_Node000003_Node000002"><a xlink:title=" ">
<path fill="none" stroke="#63b8ff" d="M136.55,-26.77C144.96,-25.7 153.51,-24.61 161.85,-23.55"/>
<polygon fill="#63b8ff" stroke="#63b8ff" points="135.86,-23.33 126.38,-28.06 136.74,-30.27 135.86,-23.33"/>
</a>
</g>
</g>
<!-- Node3&#45;&gt;Node1 -->
<g id="edge2_Node000001_Node000003" class="edge">
<title>Node3&#45;&gt;Node1</title>
<g id="a_edge2_Node000001_Node000003"><a xlink:title=" ">
<path fill="none" stroke="#63b8ff" d="M308.15,-24.53C316.69,-25.58 325.34,-26.65 333.74,-27.69"/>
<polygon fill="#63b8ff" stroke="#63b8ff" points="308.54,-21.05 298.19,-23.3 307.68,-28 308.54,-21.05"/>
</a>
</g>
</g>
</g>
</svg>
