<?xml version="1.0" encoding="UTF-8" standalone="no"?>
<!DOCTYPE svg PUBLIC "-//W3C//DTD SVG 1.1//EN"
 "http://www.w3.org/Graphics/SVG/1.1/DTD/svg11.dtd">
<!-- Generated by graphviz version 2.43.0 (0)
 -->
<!-- Title: csl::wf::mp::is_nothrow_invocable_r&lt; R, F, ttps_type, args_types... &gt; Pages: 1 -->
<svg width="512pt" height="82pt"
 viewBox="0.00 0.00 512.00 81.50" xmlns="http://www.w3.org/2000/svg" xmlns:xlink="http://www.w3.org/1999/xlink">
<g id="graph0" class="graph" transform="scale(1 1) rotate(0) translate(4 77.5)">
<title>csl::wf::mp::is_nothrow_invocable_r&lt; R, F, ttps_type, args_types... &gt;</title>
<!-- Node1 -->
<g id="Node000001" class="node">
<title>Node1</title>
<g id="a_Node000001"><a xlink:title=" ">
<polygon fill="#999999" stroke="#666666" points="504,-73.5 371,-73.5 371,-32.5 504,-32.5 504,-73.5"/>
<text text-anchor="start" x="379" y="-61.5" font-family="Helvetica,sans-Serif" font-size="10.00">csl::wf::mp::is_nothrow</text>
<text text-anchor="start" x="379" y="-50.5" font-family="Helvetica,sans-Serif" font-size="10.00">_invocable_r&lt; R, F, ttps</text>
<text text-anchor="middle" x="437.5" y="-39.5" font-family="Helvetica,sans-Serif" font-size="10.00">_type, args_types... &gt;</text>
</a>
</g>
</g>
<!-- Node2 -->
<g id="Node000002" class="node">
<title>Node2</title>
<g id="a_Node000002"><a xlink:title=" ">
<polygon fill="white" stroke="#bfbfbf" points="143,-68 0,-68 0,-38 143,-38 143,-68"/>
<text text-anchor="start" x="8" y="-56" font-family="Helvetica,sans-Serif" font-size="10.00">std::is_nothrow_invocable</text>
<text text-anchor="middle" x="71.5" y="-45" font-family="Helvetica,sans-Serif" font-size="10.00">_r&lt; R, F, args_types... &gt;</text>
</a>
</g>
</g>
<!-- Node2&#45;&gt;Node1 -->
<g id="edge1_Node000001_Node000002" class="edge">
<title>Node2&#45;&gt;Node1</title>
<g id="a_edge1_Node000001_Node000002"><a xlink:title=" ">
<path fill="none" stroke="#63b8ff" d="M153.34,-59.71C161.99,-60.24 170.68,-60.69 179,-61 248.28,-63.6 265.72,-63.73 335,-61 346.57,-60.54 358.86,-59.8 370.75,-58.94"/>
<polygon fill="#63b8ff" stroke="#63b8ff" points="153.41,-56.21 143.21,-59.06 152.96,-63.19 153.41,-56.21"/>
</a>
</g>
</g>
<!-- Node3 -->
<g id="Node000003" class="node">
<title>Node3</title>
<g id="a_Node000003"><a xlink:href="structcsl_1_1wf_1_1mp_1_1is__nothrow__invocable__r.html" target="_top" xlink:title=" ">
<polygon fill="white" stroke="#bfbfbf" points="335,-52 179,-52 179,0 335,0 335,-52"/>
<text text-anchor="start" x="187" y="-40" font-family="Helvetica,sans-Serif" font-size="10.00">csl::wf::mp::is_nothrow</text>
<text text-anchor="start" x="187" y="-29" font-family="Helvetica,sans-Serif" font-size="10.00">_invocable_r&lt; R, F, std</text>
<text text-anchor="start" x="187" y="-18" font-family="Helvetica,sans-Serif" font-size="10.00">::remove_cvref_t&lt; ttps_type</text>
<text text-anchor="middle" x="257" y="-7" font-family="Helvetica,sans-Serif" font-size="10.00"> &gt;, args_types... &gt;</text>
</a>
</g>
</g>
<!-- Node2&#45;&gt;Node3 -->
<g id="edge3_Node000003_Node000002" class="edge">
<title>Node2&#45;&gt;Node3</title>
<g id="a_edge3_Node000003_Node000002"><a xlink:title=" ">
<path fill="none" stroke="#63b8ff" d="M153.16,-41.13C161.73,-39.87 170.43,-38.59 178.95,-37.34"/>
<polygon fill="#63b8ff" stroke="#63b8ff" points="152.57,-37.68 143.18,-42.6 153.59,-44.61 152.57,-37.68"/>
</a>
</g>
</g>
<!-- Node3&#45;&gt;Node1 -->
<g id="edge2_Node000001_Node000003" class="edge">
<title>Node3&#45;&gt;Node1</title>
<g id="a_edge2_Node000001_Node000003"><a xlink:title=" ">
<path fill="none" stroke="#63b8ff" d="M345.32,-39.21C353.92,-40.51 362.55,-41.81 370.87,-43.07"/>
<polygon fill="#63b8ff" stroke="#63b8ff" points="345.67,-35.72 335.25,-37.69 344.62,-42.64 345.67,-35.72"/>
</a>
</g>
</g>
</g>
</svg>
