<?xml version="1.0" encoding="UTF-8" standalone="no"?>
<!DOCTYPE svg PUBLIC "-//W3C//DTD SVG 1.1//EN"
 "http://www.w3.org/Graphics/SVG/1.1/DTD/svg11.dtd">
<!-- Generated by graphviz version 2.43.0 (0)
 -->
<!-- Title: csl::wf::mp::is_invocable&lt; F, ttps&lt;&gt;, args_types... &gt; Pages: 1 -->
<svg width="478pt" height="59pt"
 viewBox="0.00 0.00 478.00 59.00" xmlns="http://www.w3.org/2000/svg" xmlns:xlink="http://www.w3.org/1999/xlink">
<g id="graph0" class="graph" transform="scale(1 1) rotate(0) translate(4 55)">
<title>csl::wf::mp::is_invocable&lt; F, ttps&lt;&gt;, args_types... &gt;</title>
<!-- Node1 -->
<g id="Node000001" class="node">
<title>Node1</title>
<g id="a_Node000001"><a xlink:title=" ">
<polygon fill="#999999" stroke="#666666" points="470,-51 315,-51 315,-21 470,-21 470,-51"/>
<text text-anchor="start" x="323" y="-39" font-family="Helvetica,sans-Serif" font-size="10.00">csl::wf::mp::is_invocable</text>
<text text-anchor="middle" x="392.5" y="-28" font-family="Helvetica,sans-Serif" font-size="10.00">&lt; F, ttps&lt;&gt;, args_types... &gt;</text>
</a>
</g>
</g>
<!-- Node2 -->
<g id="Node000002" class="node">
<title>Node2</title>
<g id="a_Node000002"><a xlink:title=" ">
<polygon fill="white" stroke="#bfbfbf" points="107,-51 0,-51 0,-21 107,-21 107,-51"/>
<text text-anchor="start" x="8" y="-39" font-family="Helvetica,sans-Serif" font-size="10.00">std::is_invocable&lt;</text>
<text text-anchor="middle" x="53.5" y="-28" font-family="Helvetica,sans-Serif" font-size="10.00"> F, args_types... &gt;</text>
</a>
</g>
</g>
<!-- Node2&#45;&gt;Node1 -->
<g id="edge1_Node000001_Node000002" class="edge">
<title>Node2&#45;&gt;Node1</title>
<g id="a_edge1_Node000001_Node000002"><a xlink:title=" ">
<path fill="none" stroke="#63b8ff" d="M117.39,-38.39C125.99,-38.65 134.71,-38.86 143,-39 203.44,-40.02 218.56,-39.81 279,-39 290.62,-38.85 302.92,-38.6 314.95,-38.32"/>
<polygon fill="#63b8ff" stroke="#63b8ff" points="117.48,-34.9 107.37,-38.09 117.26,-41.89 117.48,-34.9"/>
</a>
</g>
</g>
<!-- Node3 -->
<g id="Node000003" class="node">
<title>Node3</title>
<g id="a_Node000003"><a xlink:href="structcsl_1_1wf_1_1mp_1_1is__invocable.html" target="_top" xlink:title=" ">
<polygon fill="white" stroke="#bfbfbf" points="279,-30 143,-30 143,0 279,0 279,-30"/>
<text text-anchor="start" x="151" y="-18" font-family="Helvetica,sans-Serif" font-size="10.00">csl::wf::mp::is_invocable</text>
<text text-anchor="middle" x="211" y="-7" font-family="Helvetica,sans-Serif" font-size="10.00">&lt; F, args_types... &gt;</text>
</a>
</g>
</g>
<!-- Node2&#45;&gt;Node3 -->
<g id="edge3_Node000003_Node000002" class="edge">
<title>Node2&#45;&gt;Node3</title>
<g id="a_edge3_Node000003_Node000002"><a xlink:title=" ">
<path fill="none" stroke="#63b8ff" d="M117.25,-27.53C125.66,-26.39 134.32,-25.22 142.8,-24.08"/>
<polygon fill="#63b8ff" stroke="#63b8ff" points="116.59,-24.08 107.15,-28.89 117.52,-31.02 116.59,-24.08"/>
</a>
</g>
</g>
<!-- Node3&#45;&gt;Node1 -->
<g id="edge2_Node000001_Node000003" class="edge">
<title>Node3&#45;&gt;Node1</title>
<g id="a_edge2_Node000001_Node000003"><a xlink:title=" ">
<path fill="none" stroke="#63b8ff" d="M289.03,-24.01C297.58,-25.01 306.28,-26.03 314.82,-27.03"/>
<polygon fill="#63b8ff" stroke="#63b8ff" points="289.43,-20.54 279.09,-22.85 288.62,-27.49 289.43,-20.54"/>
</a>
</g>
</g>
</g>
</svg>
