<?xml version="1.0" encoding="UTF-8" standalone="no"?>
<!DOCTYPE svg PUBLIC "-//W3C//DTD SVG 1.1//EN"
 "http://www.w3.org/Graphics/SVG/1.1/DTD/svg11.dtd">
<!-- Generated by graphviz version 2.43.0 (0)
 -->
<!-- Title: csl::wf::mp::is_invocable_r&lt; R, F, ttps_type, args_types... &gt; Pages: 1 -->
<svg width="515pt" height="49pt"
 viewBox="0.00 0.00 515.00 49.00" xmlns="http://www.w3.org/2000/svg" xmlns:xlink="http://www.w3.org/1999/xlink">
<g id="graph0" class="graph" transform="scale(1 1) rotate(0) translate(4 45)">
<title>csl::wf::mp::is_invocable_r&lt; R, F, ttps_type, args_types... &gt;</title>
<!-- Node1 -->
<g id="Node000001" class="node">
<title>Node1</title>
<g id="a_Node000001"><a xlink:title=" ">
<polygon fill="#999999" stroke="#666666" points="507,-41 371,-41 371,0 507,0 507,-41"/>
<text text-anchor="start" x="379" y="-29" font-family="Helvetica,sans-Serif" font-size="10.00">csl::wf::mp::is_invocable</text>
<text text-anchor="start" x="379" y="-18" font-family="Helvetica,sans-Serif" font-size="10.00">_r&lt; R, F, ttps_type, args</text>
<text text-anchor="middle" x="439" y="-7" font-family="Helvetica,sans-Serif" font-size="10.00">_types... &gt;</text>
</a>
</g>
</g>
<!-- Node2 -->
<g id="Node000002" class="node">
<title>Node2</title>
<g id="a_Node000002"><a xlink:href="structcsl_1_1wf_1_1mp_1_1is__invocable__r.html" target="_top" xlink:title=" ">
<polygon fill="white" stroke="#bfbfbf" points="335,-41 162,-41 162,0 335,0 335,-41"/>
<text text-anchor="start" x="170" y="-29" font-family="Helvetica,sans-Serif" font-size="10.00">csl::wf::mp::is_invocable</text>
<text text-anchor="start" x="170" y="-18" font-family="Helvetica,sans-Serif" font-size="10.00">_r&lt; R, F, std::remove_cvref</text>
<text text-anchor="middle" x="248.5" y="-7" font-family="Helvetica,sans-Serif" font-size="10.00">_t&lt; ttps_type &gt;, args_types... &gt;</text>
</a>
</g>
</g>
<!-- Node2&#45;&gt;Node1 -->
<g id="edge1_Node000001_Node000002" class="edge">
<title>Node2&#45;&gt;Node1</title>
<g id="a_edge1_Node000001_Node000002"><a xlink:title=" ">
<path fill="none" stroke="#63b8ff" d="M345.32,-20.5C353.95,-20.5 362.56,-20.5 370.86,-20.5"/>
<polygon fill="#63b8ff" stroke="#63b8ff" points="345.2,-17 335.2,-20.5 345.2,-24 345.2,-17"/>
</a>
</g>
</g>
<!-- Node3 -->
<g id="Node000003" class="node">
<title>Node3</title>
<g id="a_Node000003"><a xlink:title=" ">
<polygon fill="white" stroke="#bfbfbf" points="126,-35.5 0,-35.5 0,-5.5 126,-5.5 126,-35.5"/>
<text text-anchor="start" x="8" y="-23.5" font-family="Helvetica,sans-Serif" font-size="10.00">std::is_invocable_r</text>
<text text-anchor="middle" x="63" y="-12.5" font-family="Helvetica,sans-Serif" font-size="10.00">&lt; R, F, args_types... &gt;</text>
</a>
</g>
</g>
<!-- Node3&#45;&gt;Node2 -->
<g id="edge2_Node000002_Node000003" class="edge">
<title>Node3&#45;&gt;Node2</title>
<g id="a_edge2_Node000002_Node000003"><a xlink:title=" ">
<path fill="none" stroke="#63b8ff" d="M136.2,-20.5C144.56,-20.5 153.15,-20.5 161.68,-20.5"/>
<polygon fill="#63b8ff" stroke="#63b8ff" points="136.12,-17 126.12,-20.5 136.12,-24 136.12,-17"/>
</a>
</g>
</g>
</g>
</svg>
