<?xml version="1.0" encoding="UTF-8" standalone="no"?>
<!DOCTYPE svg PUBLIC "-//W3C//DTD SVG 1.1//EN"
 "http://www.w3.org/Graphics/SVG/1.1/DTD/svg11.dtd">
<!-- Generated by graphviz version 2.43.0 (0)
 -->
<!-- Title: csl::wf::mp::is_nothrow_invocable&lt; F, ttps_type, args_types... &gt; Pages: 1 -->
<svg width="515pt" height="82pt"
 viewBox="0.00 0.00 515.00 81.50" xmlns="http://www.w3.org/2000/svg" xmlns:xlink="http://www.w3.org/1999/xlink">
<g id="graph0" class="graph" transform="scale(1 1) rotate(0) translate(4 77.5)">
<title>csl::wf::mp::is_nothrow_invocable&lt; F, ttps_type, args_types... &gt;</title>
<!-- Node1 -->
<g id="Node000001" class="node">
<title>Node1</title>
<g id="a_Node000001"><a xlink:title=" ">
<polygon fill="#999999" stroke="#666666" points="507,-73.5 366,-73.5 366,-32.5 507,-32.5 507,-73.5"/>
<text text-anchor="start" x="374" y="-61.5" font-family="Helvetica,sans-Serif" font-size="10.00">csl::wf::mp::is_nothrow</text>
<text text-anchor="start" x="374" y="-50.5" font-family="Helvetica,sans-Serif" font-size="10.00">_invocable&lt; F, ttps_type,</text>
<text text-anchor="middle" x="436.5" y="-39.5" font-family="Helvetica,sans-Serif" font-size="10.00"> args_types... &gt;</text>
</a>
</g>
</g>
<!-- Node2 -->
<g id="Node000002" class="node">
<title>Node2</title>
<g id="a_Node000002"><a xlink:title=" ">
<polygon fill="white" stroke="#bfbfbf" points="143,-68 0,-68 0,-38 143,-38 143,-68"/>
<text text-anchor="start" x="8" y="-56" font-family="Helvetica,sans-Serif" font-size="10.00">std::is_nothrow_invocable</text>
<text text-anchor="middle" x="71.5" y="-45" font-family="Helvetica,sans-Serif" font-size="10.00">&lt; F, args_types... &gt;</text>
</a>
</g>
</g>
<!-- Node2&#45;&gt;Node1 -->
<g id="edge1_Node000001_Node000002" class="edge">
<title>Node2&#45;&gt;Node1</title>
<g id="a_edge1_Node000001_Node000002"><a xlink:title=" ">
<path fill="none" stroke="#63b8ff" d="M153.34,-59.71C161.99,-60.24 170.68,-60.69 179,-61 246.06,-63.52 262.94,-63.54 330,-61 341.56,-60.56 353.83,-59.86 365.74,-59.04"/>
<polygon fill="#63b8ff" stroke="#63b8ff" points="153.41,-56.21 143.21,-59.06 152.96,-63.19 153.41,-56.21"/>
</a>
</g>
</g>
<!-- Node3 -->
<g id="Node000003" class="node">
<title>Node3</title>
<g id="a_Node000003"><a xlink:href="structcsl_1_1wf_1_1mp_1_1is__nothrow__invocable.html" target="_top" xlink:title=" ">
<polygon fill="white" stroke="#bfbfbf" points="330,-52 179,-52 179,0 330,0 330,-52"/>
<text text-anchor="start" x="187" y="-40" font-family="Helvetica,sans-Serif" font-size="10.00">csl::wf::mp::is_nothrow</text>
<text text-anchor="start" x="187" y="-29" font-family="Helvetica,sans-Serif" font-size="10.00">_invocable&lt; F, std::remove</text>
<text text-anchor="start" x="187" y="-18" font-family="Helvetica,sans-Serif" font-size="10.00">_cvref_t&lt; ttps_type &gt;, args</text>
<text text-anchor="middle" x="254.5" y="-7" font-family="Helvetica,sans-Serif" font-size="10.00">_types... &gt;</text>
</a>
</g>
</g>
<!-- Node2&#45;&gt;Node3 -->
<g id="edge3_Node000003_Node000002" class="edge">
<title>Node2&#45;&gt;Node3</title>
<g id="a_edge3_Node000003_Node000002"><a xlink:title=" ">
<path fill="none" stroke="#63b8ff" d="M153.22,-40.96C161.77,-39.68 170.44,-38.39 178.91,-37.13"/>
<polygon fill="#63b8ff" stroke="#63b8ff" points="152.63,-37.51 143.26,-42.45 153.66,-44.43 152.63,-37.51"/>
</a>
</g>
</g>
<!-- Node3&#45;&gt;Node1 -->
<g id="edge2_Node000001_Node000003" class="edge">
<title>Node3&#45;&gt;Node1</title>
<g id="a_edge2_Node000001_Node000003"><a xlink:title=" ">
<path fill="none" stroke="#63b8ff" d="M340.12,-38.69C348.77,-39.99 357.49,-41.3 365.95,-42.57"/>
<polygon fill="#63b8ff" stroke="#63b8ff" points="340.42,-35.2 330.01,-37.18 339.38,-42.12 340.42,-35.2"/>
</a>
</g>
</g>
</g>
</svg>
