<?xml version="1.0" encoding="UTF-8" standalone="no"?>
<!DOCTYPE svg PUBLIC "-//W3C//DTD SVG 1.1//EN"
 "http://www.w3.org/Graphics/SVG/1.1/DTD/svg11.dtd">
<!-- Generated by graphviz version 2.43.0 (0)
 -->
<!-- Title: csl::wf::mp::invoke_result&lt; F, ttps_type, args_types... &gt; Pages: 1 -->
<svg width="446pt" height="82pt"
 viewBox="0.00 0.00 446.00 81.50" xmlns="http://www.w3.org/2000/svg" xmlns:xlink="http://www.w3.org/1999/xlink">
<g id="graph0" class="graph" transform="scale(1 1) rotate(0) translate(4 77.5)">
<title>csl::wf::mp::invoke_result&lt; F, ttps_type, args_types... &gt;</title>
<!-- Node1 -->
<g id="Node000001" class="node">
<title>Node1</title>
<g id="a_Node000001"><a xlink:title=" ">
<polygon fill="#999999" stroke="#666666" points="438,-73.5 316,-73.5 316,-32.5 438,-32.5 438,-73.5"/>
<text text-anchor="start" x="324" y="-61.5" font-family="Helvetica,sans-Serif" font-size="10.00">csl::wf::mp::invoke</text>
<text text-anchor="start" x="324" y="-50.5" font-family="Helvetica,sans-Serif" font-size="10.00">_result&lt; F, ttps_type,</text>
<text text-anchor="middle" x="377" y="-39.5" font-family="Helvetica,sans-Serif" font-size="10.00"> args_types... &gt;</text>
</a>
</g>
</g>
<!-- Node2 -->
<g id="Node000002" class="node">
<title>Node2</title>
<g id="a_Node000002"><a xlink:title=" ">
<polygon fill="white" stroke="#bfbfbf" points="113,-68 0,-68 0,-38 113,-38 113,-68"/>
<text text-anchor="start" x="8" y="-56" font-family="Helvetica,sans-Serif" font-size="10.00">std::invoke_result</text>
<text text-anchor="middle" x="56.5" y="-45" font-family="Helvetica,sans-Serif" font-size="10.00">&lt; F, args_types... &gt;</text>
</a>
</g>
</g>
<!-- Node2&#45;&gt;Node1 -->
<g id="edge1_Node000001_Node000002" class="edge">
<title>Node2&#45;&gt;Node1</title>
<g id="a_edge1_Node000001_Node000002"><a xlink:title=" ">
<path fill="none" stroke="#63b8ff" d="M123.19,-59.44C131.87,-60.08 140.64,-60.64 149,-61 207.17,-63.54 221.83,-63.42 280,-61 291.61,-60.52 304,-59.71 315.88,-58.78"/>
<polygon fill="#63b8ff" stroke="#63b8ff" points="123.34,-55.94 113.09,-58.64 122.79,-62.92 123.34,-55.94"/>
</a>
</g>
</g>
<!-- Node3 -->
<g id="Node000003" class="node">
<title>Node3</title>
<g id="a_Node000003"><a xlink:href="structcsl_1_1wf_1_1mp_1_1invoke__result.html" target="_top" xlink:title=" ">
<polygon fill="white" stroke="#bfbfbf" points="280,-52 149,-52 149,0 280,0 280,-52"/>
<text text-anchor="start" x="157" y="-40" font-family="Helvetica,sans-Serif" font-size="10.00">csl::wf::mp::invoke</text>
<text text-anchor="start" x="157" y="-29" font-family="Helvetica,sans-Serif" font-size="10.00">_result&lt; F, std::remove</text>
<text text-anchor="start" x="157" y="-18" font-family="Helvetica,sans-Serif" font-size="10.00">_cvref_t&lt; ttps_type &gt;,</text>
<text text-anchor="middle" x="214.5" y="-7" font-family="Helvetica,sans-Serif" font-size="10.00"> args_types... &gt;</text>
</a>
</g>
</g>
<!-- Node2&#45;&gt;Node3 -->
<g id="edge3_Node000003_Node000002" class="edge">
<title>Node2&#45;&gt;Node3</title>
<g id="a_edge3_Node000003_Node000002"><a xlink:title=" ">
<path fill="none" stroke="#63b8ff" d="M123.26,-41.62C131.77,-40.15 140.49,-38.64 148.98,-37.17"/>
<polygon fill="#63b8ff" stroke="#63b8ff" points="122.64,-38.17 113.38,-43.33 123.83,-45.07 122.64,-38.17"/>
</a>
</g>
</g>
<!-- Node3&#45;&gt;Node1 -->
<g id="edge2_Node000001_Node000003" class="edge">
<title>Node3&#45;&gt;Node1</title>
<g id="a_edge2_Node000001_Node000003"><a xlink:title=" ">
<path fill="none" stroke="#63b8ff" d="M290.31,-38.59C298.88,-40.03 307.53,-41.48 315.87,-42.88"/>
<polygon fill="#63b8ff" stroke="#63b8ff" points="290.76,-35.11 280.32,-36.9 289.6,-42.01 290.76,-35.11"/>
</a>
</g>
</g>
</g>
</svg>
