<?xml version="1.0" encoding="UTF-8" standalone="no"?>
<!DOCTYPE svg PUBLIC "-//W3C//DTD SVG 1.1//EN"
 "http://www.w3.org/Graphics/SVG/1.1/DTD/svg11.dtd">
<!-- Generated by graphviz version 2.43.0 (0)
 -->
<!-- Title: Graphical Class Hierarchy Pages: 1 -->
<svg width="430pt" height="101pt"
 viewBox="0.00 0.00 430.00 101.00" xmlns="http://www.w3.org/2000/svg" xmlns:xlink="http://www.w3.org/1999/xlink">
<g id="graph0" class="graph" transform="scale(1 1) rotate(0) translate(4 97)">
<title>Graphical Class Hierarchy</title>
<!-- Node0 -->
<g id="Node000000" class="node">
<title>Node0</title>
<g id="a_Node000000"><a xlink:title=" ">
<polygon fill="#e0e0e0" stroke="#999999" points="122,-74 0,-74 0,-55 122,-55 122,-74"/>
<text text-anchor="middle" x="61" y="-62" font-family="Helvetica,sans-Serif" font-size="10.00">std::integral_constant</text>
</a>
</g>
</g>
<!-- Node1 -->
<g id="Node000001" class="node">
<title>Node1</title>
<g id="a_Node000001"><a xlink:href="structcsl_1_1ag_1_1size.html" target="_top" xlink:title=" ">
<polygon fill="white" stroke="#666666" points="275,-93 173,-93 173,-74 275,-74 275,-93"/>
<text text-anchor="middle" x="224" y="-81" font-family="Helvetica,sans-Serif" font-size="10.00">csl::ag::size&lt; T &gt;</text>
</a>
</g>
</g>
<!-- Node0&#45;&gt;Node1 -->
<g id="edge5_Node000000_Node000001" class="edge">
<title>Node0&#45;&gt;Node1</title>
<g id="a_edge5_Node000000_Node000001"><a xlink:title=" ">
<path fill="none" stroke="#63b8ff" d="M132.65,-72.84C146.16,-74.43 160.06,-76.07 172.77,-77.57"/>
<polygon fill="#63b8ff" stroke="#63b8ff" points="132.75,-69.33 122.41,-71.63 131.93,-76.28 132.75,-69.33"/>
</a>
</g>
</g>
<!-- Node4 -->
<g id="Node000004" class="node">
<title>Node4</title>
<g id="a_Node000004"><a xlink:href="structcsl_1_1ag_1_1tuple__size.html" target="_top" xlink:title=" ">
<polygon fill="white" stroke="#666666" points="290,-56 158,-56 158,-37 290,-37 290,-56"/>
<text text-anchor="middle" x="224" y="-44" font-family="Helvetica,sans-Serif" font-size="10.00">csl::ag::tuple_size&lt; T &gt;</text>
</a>
</g>
</g>
<!-- Node0&#45;&gt;Node4 -->
<g id="edge7_Node000000_Node000004" class="edge">
<title>Node0&#45;&gt;Node4</title>
<g id="a_edge7_Node000000_Node000004"><a xlink:title=" ">
<path fill="none" stroke="#63b8ff" d="M132.59,-56.61C141.02,-55.67 149.6,-54.71 157.94,-53.77"/>
<polygon fill="#63b8ff" stroke="#63b8ff" points="131.96,-53.16 122.41,-57.75 132.74,-60.11 131.96,-53.16"/>
</a>
</g>
</g>
<!-- Node2 -->
<g id="Node000002" class="node">
<title>Node2</title>
<g id="a_Node000002"><a xlink:href="structcsl_1_1ag_1_1tuplelike_1_1size_3_01T_01_4.html" target="_top" xlink:title=" ">
<polygon fill="white" stroke="#666666" points="422,-61.5 326,-61.5 326,-31.5 422,-31.5 422,-61.5"/>
<text text-anchor="start" x="334" y="-49.5" font-family="Helvetica,sans-Serif" font-size="10.00">csl::ag::tuplelike</text>
<text text-anchor="middle" x="374" y="-38.5" font-family="Helvetica,sans-Serif" font-size="10.00">::size&lt; T &gt;</text>
</a>
</g>
</g>
<!-- Node1&#45;&gt;Node2 -->
<g id="edge6_Node000001_Node000002" class="edge">
<title>Node1&#45;&gt;Node2</title>
<g id="a_edge6_Node000001_Node000002"><a xlink:title=" ">
<path fill="none" stroke="#63b8ff" d="M272.82,-71.54C289.78,-67.31 308.84,-62.54 325.75,-58.31"/>
<polygon fill="#63b8ff" stroke="#63b8ff" points="271.97,-68.15 263.11,-73.97 273.66,-74.94 271.97,-68.15"/>
</a>
</g>
</g>
<!-- Node3 -->
<g id="Node000003" class="node">
<title>Node3</title>
<g id="a_Node000003"><a xlink:title=" ">
<polygon fill="#e0e0e0" stroke="#999999" points="267.5,-19 180.5,-19 180.5,0 267.5,0 267.5,-19"/>
<text text-anchor="middle" x="224" y="-7" font-family="Helvetica,sans-Serif" font-size="10.00">std::tuple_size</text>
</a>
</g>
</g>
<!-- Node3&#45;&gt;Node2 -->
<g id="edge8_Node000003_Node000002" class="edge">
<title>Node3&#45;&gt;Node2</title>
<g id="a_edge8_Node000003_Node000002"><a xlink:title=" ">
<path fill="none" stroke="#63b8ff" d="M272.82,-21.46C289.78,-25.69 308.84,-30.46 325.75,-34.69"/>
<polygon fill="#63b8ff" stroke="#63b8ff" points="273.66,-18.06 263.11,-19.03 271.97,-24.85 273.66,-18.06"/>
</a>
</g>
</g>
</g>
</svg>
