<?xml version="1.0" encoding="UTF-8" standalone="no"?>
<!DOCTYPE svg PUBLIC "-//W3C//DTD SVG 1.1//EN"
 "http://www.w3.org/Graphics/SVG/1.1/DTD/svg11.dtd">
<!-- Generated by graphviz version 2.43.0 (0)
 -->
<!-- Title: Graphical Class Hierarchy Pages: 1 -->
<svg width="275pt" height="86pt"
 viewBox="0.00 0.00 275.00 86.00" xmlns="http://www.w3.org/2000/svg" xmlns:xlink="http://www.w3.org/1999/xlink">
<g id="graph0" class="graph" transform="scale(1 1) rotate(0) translate(4 82)">
<title>Graphical Class Hierarchy</title>
<!-- Node0 -->
<g id="Node000000" class="node">
<title>Node0</title>
<g id="a_Node000000"><a xlink:title=" ">
<polygon fill="#e0e0e0" stroke="#999999" points="101.5,-72.5 6.5,-72.5 6.5,-53.5 101.5,-53.5 101.5,-72.5"/>
<text text-anchor="middle" x="54" y="-60.5" font-family="Helvetica,sans-Serif" font-size="10.00">csl::ag::element</text>
</a>
</g>
</g>
<!-- Node1 -->
<g id="Node000001" class="node">
<title>Node1</title>
<g id="a_Node000001"><a xlink:href="structcsl_1_1ag_1_1tuplelike_1_1element_3_01I_00_01T_01_4.html" target="_top" xlink:title=" ">
<polygon fill="white" stroke="#666666" points="256,-78 155,-78 155,-48 256,-48 256,-78"/>
<text text-anchor="start" x="163" y="-66" font-family="Helvetica,sans-Serif" font-size="10.00">csl::ag::tuplelike</text>
<text text-anchor="middle" x="205.5" y="-55" font-family="Helvetica,sans-Serif" font-size="10.00">::element&lt; I, T &gt;</text>
</a>
</g>
</g>
<!-- Node0&#45;&gt;Node1 -->
<g id="edge1_Node000000_Node000001" class="edge">
<title>Node0&#45;&gt;Node1</title>
<g id="a_edge1_Node000000_Node000001"><a xlink:title=" ">
<path fill="none" stroke="#63b8ff" d="M112,-63C126.14,-63 141.18,-63 154.93,-63"/>
<polygon fill="#63b8ff" stroke="#63b8ff" points="111.89,-59.5 101.89,-63 111.89,-66.5 111.89,-59.5"/>
</a>
</g>
</g>
<!-- Node2 -->
<g id="Node000002" class="node">
<title>Node2</title>
<g id="a_Node000002"><a xlink:title=" ">
<polygon fill="#e0e0e0" stroke="#999999" points="108,-30.5 0,-30.5 0,-11.5 108,-11.5 108,-30.5"/>
<text text-anchor="middle" x="54" y="-18.5" font-family="Helvetica,sans-Serif" font-size="10.00">std::tuple_element</text>
</a>
</g>
</g>
<!-- Node2&#45;&gt;Node1 -->
<g id="edge2_Node000002_Node000001" class="edge">
<title>Node2&#45;&gt;Node1</title>
<g id="a_edge2_Node000002_Node000001"><a xlink:title=" ">
<path fill="none" stroke="#63b8ff" d="M98.9,-33.33C116.45,-38.26 136.74,-43.96 154.83,-49.04"/>
<polygon fill="#63b8ff" stroke="#63b8ff" points="99.5,-29.87 88.92,-30.53 97.6,-36.6 99.5,-29.87"/>
</a>
</g>
</g>
<!-- Node3 -->
<g id="Node000003" class="node">
<title>Node3</title>
<g id="a_Node000003"><a xlink:href="structcsl_1_1ag_1_1view__element.html" target="_top" xlink:title=" ">
<polygon fill="white" stroke="#666666" points="267,-30 144,-30 144,0 267,0 267,-30"/>
<text text-anchor="start" x="152" y="-18" font-family="Helvetica,sans-Serif" font-size="10.00">csl::ag::view_element</text>
<text text-anchor="middle" x="205.5" y="-7" font-family="Helvetica,sans-Serif" font-size="10.00">&lt; N, T &gt;</text>
</a>
</g>
</g>
<!-- Node2&#45;&gt;Node3 -->
<g id="edge3_Node000002_Node000003" class="edge">
<title>Node2&#45;&gt;Node3</title>
<g id="a_edge3_Node000002_Node000003"><a xlink:title=" ">
<path fill="none" stroke="#63b8ff" d="M118.33,-18.46C126.8,-18.12 135.48,-17.77 143.9,-17.43"/>
<polygon fill="#63b8ff" stroke="#63b8ff" points="117.98,-14.97 108.13,-18.87 118.26,-21.96 117.98,-14.97"/>
</a>
</g>
</g>
</g>
</svg>
