<?xml version="1.0" encoding="UTF-8" standalone="no"?>
<!DOCTYPE svg PUBLIC "-//W3C//DTD SVG 1.1//EN"
 "http://www.w3.org/Graphics/SVG/1.1/DTD/svg11.dtd">
<!-- Generated by graphviz version 2.43.0 (0)
 -->
<!-- Title: csl::ag::tuplelike::size&lt; T &gt; Pages: 1 -->
<svg width="430pt" height="86pt"
 viewBox="0.00 0.00 430.00 86.00" xmlns="http://www.w3.org/2000/svg" xmlns:xlink="http://www.w3.org/1999/xlink">
<g id="graph0" class="graph" transform="scale(1 1) rotate(0) translate(4 82)">
<title>csl::ag::tuplelike::size&lt; T &gt;</title>
<!-- Node1 -->
<g id="Node000001" class="node">
<title>Node1</title>
<g id="a_Node000001"><a xlink:title=" ">
<polygon fill="#999999" stroke="#666666" points="422,-42.5 326,-42.5 326,-12.5 422,-12.5 422,-42.5"/>
<text text-anchor="start" x="334" y="-30.5" font-family="Helvetica,sans-Serif" font-size="10.00">csl::ag::tuplelike</text>
<text text-anchor="middle" x="374" y="-19.5" font-family="Helvetica,sans-Serif" font-size="10.00">::size&lt; T &gt;</text>
</a>
</g>
</g>
<!-- Node2 -->
<g id="Node000002" class="node">
<title>Node2</title>
<g id="a_Node000002"><a xlink:href="structcsl_1_1ag_1_1size.html" target="_top" xlink:title=" ">
<polygon fill="white" stroke="#bfbfbf" points="283,-56 181,-56 181,-37 283,-37 283,-56"/>
<text text-anchor="middle" x="232" y="-44" font-family="Helvetica,sans-Serif" font-size="10.00">csl::ag::size&lt; T &gt;</text>
</a>
</g>
</g>
<!-- Node2&#45;&gt;Node1 -->
<g id="edge1_Node000001_Node000002" class="edge">
<title>Node2&#45;&gt;Node1</title>
<g id="a_edge1_Node000001_Node000002"><a xlink:title=" ">
<path fill="none" stroke="#63b8ff" d="M293.34,-38.31C304.11,-36.85 315.2,-35.34 325.54,-33.94"/>
<polygon fill="#63b8ff" stroke="#63b8ff" points="292.59,-34.88 283.15,-39.69 293.53,-41.82 292.59,-34.88"/>
</a>
</g>
</g>
<!-- Node3 -->
<g id="Node000003" class="node">
<title>Node3</title>
<g id="a_Node000003"><a xlink:title=" ">
<polygon fill="white" stroke="#bfbfbf" points="138,-78 0,-78 0,-15 138,-15 138,-78"/>
<text text-anchor="start" x="8" y="-66" font-family="Helvetica,sans-Serif" font-size="10.00">std::integral_constant</text>
<text text-anchor="start" x="8" y="-55" font-family="Helvetica,sans-Serif" font-size="10.00">&lt; std::size_t, details</text>
<text text-anchor="start" x="8" y="-44" font-family="Helvetica,sans-Serif" font-size="10.00">::probing::fields_count</text>
<text text-anchor="start" x="8" y="-33" font-family="Helvetica,sans-Serif" font-size="10.00">&lt; std::remove_reference</text>
<text text-anchor="middle" x="69" y="-22" font-family="Helvetica,sans-Serif" font-size="10.00">_t&lt; T &gt; &gt; &gt;</text>
</a>
</g>
</g>
<!-- Node3&#45;&gt;Node2 -->
<g id="edge2_Node000002_Node000003" class="edge">
<title>Node3&#45;&gt;Node2</title>
<g id="a_edge2_Node000002_Node000003"><a xlink:title=" ">
<path fill="none" stroke="#63b8ff" d="M148.34,-46.5C159.35,-46.5 170.4,-46.5 180.69,-46.5"/>
<polygon fill="#63b8ff" stroke="#63b8ff" points="148.28,-43 138.28,-46.5 148.28,-50 148.28,-43"/>
</a>
</g>
</g>
<!-- Node4 -->
<g id="Node000004" class="node">
<title>Node4</title>
<g id="a_Node000004"><a xlink:title=" ">
<polygon fill="white" stroke="#bfbfbf" points="290,-19 174,-19 174,0 290,0 290,-19"/>
<text text-anchor="middle" x="232" y="-7" font-family="Helvetica,sans-Serif" font-size="10.00">std::tuple_size&lt; T &gt;</text>
</a>
</g>
</g>
<!-- Node4&#45;&gt;Node1 -->
<g id="edge3_Node000001_Node000004" class="edge">
<title>Node4&#45;&gt;Node1</title>
<g id="a_edge3_Node000001_Node000004"><a xlink:title=" ">
<path fill="none" stroke="#63b8ff" d="M300.37,-18.16C308.96,-19.27 317.6,-20.38 325.78,-21.43"/>
<polygon fill="#63b8ff" stroke="#63b8ff" points="300.71,-14.68 290.35,-16.87 299.82,-21.62 300.71,-14.68"/>
</a>
</g>
</g>
</g>
</svg>
