<?xml version="1.0" encoding="UTF-8" standalone="no"?>
<!DOCTYPE svg PUBLIC "-//W3C//DTD SVG 1.1//EN"
 "http://www.w3.org/Graphics/SVG/1.1/DTD/svg11.dtd">
<!-- Generated by graphviz version 2.43.0 (0)
 -->
<!-- Title: csl::ag::size&lt; T &gt; Pages: 1 -->
<svg width="416pt" height="71pt"
 viewBox="0.00 0.00 416.00 71.00" xmlns="http://www.w3.org/2000/svg" xmlns:xlink="http://www.w3.org/1999/xlink">
<g id="graph0" class="graph" transform="scale(1 1) rotate(0) translate(4 67)">
<title>csl::ag::size&lt; T &gt;</title>
<!-- Node1 -->
<g id="Node000001" class="node">
<title>Node1</title>
<g id="a_Node000001"><a xlink:title=" ">
<polygon fill="#999999" stroke="#666666" points="276,-41 174,-41 174,-22 276,-22 276,-41"/>
<text text-anchor="middle" x="225" y="-29" font-family="Helvetica,sans-Serif" font-size="10.00">csl::ag::size&lt; T &gt;</text>
</a>
</g>
</g>
<!-- Node3 -->
<g id="Node000003" class="node">
<title>Node3</title>
<g id="a_Node000003"><a xlink:href="structcsl_1_1ag_1_1tuplelike_1_1size_3_01T_01_4.html" target="_top" xlink:title=" ">
<polygon fill="white" stroke="#bfbfbf" points="408,-46.5 312,-46.5 312,-16.5 408,-16.5 408,-46.5"/>
<text text-anchor="start" x="320" y="-34.5" font-family="Helvetica,sans-Serif" font-size="10.00">csl::ag::tuplelike</text>
<text text-anchor="middle" x="360" y="-23.5" font-family="Helvetica,sans-Serif" font-size="10.00">::size&lt; T &gt;</text>
</a>
</g>
</g>
<!-- Node1&#45;&gt;Node3 -->
<g id="edge2_Node000001_Node000003" class="edge">
<title>Node1&#45;&gt;Node3</title>
<g id="a_edge2_Node000001_Node000003"><a xlink:title=" ">
<path fill="none" stroke="#63b8ff" d="M286.5,-31.5C294.96,-31.5 303.55,-31.5 311.72,-31.5"/>
<polygon fill="#63b8ff" stroke="#63b8ff" points="286.28,-28 276.28,-31.5 286.28,-35 286.28,-28"/>
</a>
</g>
</g>
<!-- Node2 -->
<g id="Node000002" class="node">
<title>Node2</title>
<g id="a_Node000002"><a xlink:title=" ">
<polygon fill="white" stroke="#bfbfbf" points="138,-63 0,-63 0,0 138,0 138,-63"/>
<text text-anchor="start" x="8" y="-51" font-family="Helvetica,sans-Serif" font-size="10.00">std::integral_constant</text>
<text text-anchor="start" x="8" y="-40" font-family="Helvetica,sans-Serif" font-size="10.00">&lt; std::size_t, details</text>
<text text-anchor="start" x="8" y="-29" font-family="Helvetica,sans-Serif" font-size="10.00">::probing::fields_count</text>
<text text-anchor="start" x="8" y="-18" font-family="Helvetica,sans-Serif" font-size="10.00">&lt; std::remove_reference</text>
<text text-anchor="middle" x="69" y="-7" font-family="Helvetica,sans-Serif" font-size="10.00">_t&lt; T &gt; &gt; &gt;</text>
</a>
</g>
</g>
<!-- Node2&#45;&gt;Node1 -->
<g id="edge1_Node000001_Node000002" class="edge">
<title>Node2&#45;&gt;Node1</title>
<g id="a_edge1_Node000001_Node000002"><a xlink:title=" ">
<path fill="none" stroke="#63b8ff" d="M148.51,-31.5C157.11,-31.5 165.67,-31.5 173.78,-31.5"/>
<polygon fill="#63b8ff" stroke="#63b8ff" points="148.44,-28 138.44,-31.5 148.44,-35 148.44,-28"/>
</a>
</g>
</g>
</g>
</svg>
