<?xml version="1.0" encoding="UTF-8" standalone="no"?>
<!DOCTYPE svg PUBLIC "-//W3C//DTD SVG 1.1//EN"
 "http://www.w3.org/Graphics/SVG/1.1/DTD/svg11.dtd">
<!-- Generated by graphviz version 2.43.0 (0)
 -->
<!-- Title: Graphical Class Hierarchy Pages: 1 -->
<svg width="319pt" height="134pt"
 viewBox="0.00 0.00 319.00 134.00" xmlns="http://www.w3.org/2000/svg" xmlns:xlink="http://www.w3.org/1999/xlink">
<g id="graph0" class="graph" transform="scale(1 1) rotate(0) translate(4 130)">
<title>Graphical Class Hierarchy</title>
<!-- Node0 -->
<g id="Node000000" class="node">
<title>Node0</title>
<g id="a_Node000000"><a xlink:title=" ">
<polygon fill="#e0e0e0" stroke="#999999" points="143,-120.5 0,-120.5 0,-101.5 143,-101.5 143,-120.5"/>
<text text-anchor="middle" x="71.5" y="-108.5" font-family="Helvetica,sans-Serif" font-size="10.00">std::add_lvalue_reference</text>
</a>
</g>
</g>
<!-- Node1 -->
<g id="Node000001" class="node">
<title>Node1</title>
<g id="a_Node000001"><a xlink:href="structP1450_1_1copy__ref_3_01from_01_6_00_01to_01_4.html" target="_top" xlink:title=" ">
<polygon fill="white" stroke="#666666" points="309.5,-126 180.5,-126 180.5,-96 309.5,-96 309.5,-126"/>
<text text-anchor="start" x="188.5" y="-114" font-family="Helvetica,sans-Serif" font-size="10.00">P1450::copy_ref&lt; from</text>
<text text-anchor="middle" x="245" y="-103" font-family="Helvetica,sans-Serif" font-size="10.00"> &amp;, to &gt;</text>
</a>
</g>
</g>
<!-- Node0&#45;&gt;Node1 -->
<g id="edge70_Node000000_Node000001" class="edge">
<title>Node0&#45;&gt;Node1</title>
<g id="a_edge70_Node000000_Node000001"><a xlink:title=" ">
<path fill="none" stroke="#63b8ff" d="M153.39,-111C162.41,-111 171.51,-111 180.28,-111"/>
<polygon fill="#63b8ff" stroke="#63b8ff" points="153.25,-107.5 143.25,-111 153.25,-114.5 153.25,-107.5"/>
</a>
</g>
</g>
<!-- Node4 -->
<g id="Node000004" class="node">
<title>Node4</title>
<g id="a_Node000004"><a xlink:title=" ">
<polygon fill="#e0e0e0" stroke="#999999" points="143,-24.5 0,-24.5 0,-5.5 143,-5.5 143,-24.5"/>
<text text-anchor="middle" x="71.5" y="-12.5" font-family="Helvetica,sans-Serif" font-size="10.00">std::add_rvalue_reference</text>
</a>
</g>
</g>
<!-- Node3 -->
<g id="Node000003" class="node">
<title>Node3</title>
<g id="a_Node000003"><a xlink:href="structP1450_1_1copy__ref_3_01from_01_6_6_00_01to_01_4.html" target="_top" xlink:title=" ">
<polygon fill="white" stroke="#666666" points="309.5,-30 180.5,-30 180.5,0 309.5,0 309.5,-30"/>
<text text-anchor="start" x="188.5" y="-18" font-family="Helvetica,sans-Serif" font-size="10.00">P1450::copy_ref&lt; from</text>
<text text-anchor="middle" x="245" y="-7" font-family="Helvetica,sans-Serif" font-size="10.00"> &amp;&amp;, to &gt;</text>
</a>
</g>
</g>
<!-- Node4&#45;&gt;Node3 -->
<g id="edge71_Node000004_Node000003" class="edge">
<title>Node4&#45;&gt;Node3</title>
<g id="a_edge71_Node000004_Node000003"><a xlink:title=" ">
<path fill="none" stroke="#63b8ff" d="M153.39,-15C162.41,-15 171.51,-15 180.28,-15"/>
<polygon fill="#63b8ff" stroke="#63b8ff" points="153.25,-11.5 143.25,-15 153.25,-18.5 153.25,-11.5"/>
</a>
</g>
</g>
<!-- Node2 -->
<g id="Node000002" class="node">
<title>Node2</title>
<g id="a_Node000002"><a xlink:title=" ">
<polygon fill="#e0e0e0" stroke="#999999" points="135,-72.5 8,-72.5 8,-53.5 135,-53.5 135,-72.5"/>
<text text-anchor="middle" x="71.5" y="-60.5" font-family="Helvetica,sans-Serif" font-size="10.00">std::remove_reference</text>
</a>
</g>
</g>
<!-- Node2&#45;&gt;Node1 -->
<g id="edge73_Node000002_Node000001" class="edge">
<title>Node2&#45;&gt;Node1</title>
<g id="a_edge73_Node000002_Node000001"><a xlink:title=" ">
<path fill="none" stroke="#63b8ff" d="M116.71,-75.37C139.13,-81.65 166.54,-89.32 190.18,-95.94"/>
<polygon fill="#63b8ff" stroke="#63b8ff" points="117.37,-71.92 106.79,-72.6 115.48,-78.66 117.37,-71.92"/>
</a>
</g>
</g>
<!-- Node2&#45;&gt;Node3 -->
<g id="edge72_Node000002_Node000003" class="edge">
<title>Node2&#45;&gt;Node3</title>
<g id="a_edge72_Node000002_Node000003"><a xlink:title=" ">
<path fill="none" stroke="#63b8ff" d="M116.71,-50.63C139.13,-44.35 166.54,-36.68 190.18,-30.06"/>
<polygon fill="#63b8ff" stroke="#63b8ff" points="115.48,-47.34 106.79,-53.4 117.37,-54.08 115.48,-47.34"/>
</a>
</g>
</g>
<!-- Node5 -->
<g id="Node000005" class="node">
<title>Node5</title>
<g id="a_Node000005"><a xlink:href="structP1450_1_1copy__ref.html" target="_top" xlink:title=" ">
<polygon fill="white" stroke="#666666" points="311,-78 179,-78 179,-48 311,-48 311,-78"/>
<text text-anchor="start" x="187" y="-66" font-family="Helvetica,sans-Serif" font-size="10.00">P1450::copy_ref&lt; from,</text>
<text text-anchor="middle" x="245" y="-55" font-family="Helvetica,sans-Serif" font-size="10.00"> to &gt;</text>
</a>
</g>
</g>
<!-- Node2&#45;&gt;Node5 -->
<g id="edge74_Node000002_Node000005" class="edge">
<title>Node2&#45;&gt;Node5</title>
<g id="a_edge74_Node000002_Node000005"><a xlink:title=" ">
<path fill="none" stroke="#63b8ff" d="M145.46,-63C156.54,-63 167.92,-63 178.82,-63"/>
<polygon fill="#63b8ff" stroke="#63b8ff" points="145.39,-59.5 135.39,-63 145.39,-66.5 145.39,-59.5"/>
</a>
</g>
</g>
</g>
</svg>
