<?xml version="1.0" encoding="UTF-8" standalone="no"?>
<!DOCTYPE svg PUBLIC "-//W3C//DTD SVG 1.1//EN"
 "http://www.w3.org/Graphics/SVG/1.1/DTD/svg11.dtd">
<!-- Generated by graphviz version 2.43.0 (0)
 -->
<!-- Title: Graphical Class Hierarchy Pages: 1 -->
<svg width="497pt" height="770pt"
 viewBox="0.00 0.00 497.00 769.50" xmlns="http://www.w3.org/2000/svg" xmlns:xlink="http://www.w3.org/1999/xlink">
<g id="graph0" class="graph" transform="scale(1 1) rotate(0) translate(4 765.5)">
<title>Graphical Class Hierarchy</title>
<!-- Node0 -->
<g id="Node000000" class="node">
<title>Node0</title>
<g id="a_Node000000"><a xlink:title=" ">
<polygon fill="#e0e0e0" stroke="#999999" points="89,-412.5 0,-412.5 0,-393.5 89,-393.5 89,-412.5"/>
<text text-anchor="middle" x="44.5" y="-400.5" font-family="Helvetica,sans-Serif" font-size="10.00">std::false_type</text>
</a>
</g>
</g>
<!-- Node1 -->
<g id="Node000001" class="node">
<title>Node1</title>
<g id="a_Node000001"><a xlink:href="structcsl_1_1mp_1_1type__traits_1_1support__get__by__type.html" target="_top" xlink:title=" ">
<polygon fill="white" stroke="#666666" points="277,-761.5 152,-761.5 152,-720.5 277,-720.5 277,-761.5"/>
<text text-anchor="start" x="160" y="-749.5" font-family="Helvetica,sans-Serif" font-size="10.00">csl::mp::type_traits</text>
<text text-anchor="start" x="160" y="-738.5" font-family="Helvetica,sans-Serif" font-size="10.00">::support_get_by_type</text>
<text text-anchor="middle" x="214.5" y="-727.5" font-family="Helvetica,sans-Serif" font-size="10.00">&lt; tuple_type &gt;</text>
</a>
</g>
</g>
<!-- Node0&#45;&gt;Node1 -->
<g id="edge36_Node000000_Node000001" class="edge">
<title>Node0&#45;&gt;Node1</title>
<g id="a_edge36_Node000000_Node000001"><a xlink:title=" ">
<path fill="none" stroke="#63b8ff" d="M48.09,-422.77C56.47,-484 84.7,-669 125,-712 132.3,-719.79 141.71,-725.49 151.67,-729.66"/>
<polygon fill="#63b8ff" stroke="#63b8ff" points="51.51,-421.99 46.71,-412.54 44.58,-422.92 51.51,-421.99"/>
</a>
</g>
</g>
<!-- Node3 -->
<g id="Node000003" class="node">
<title>Node3</title>
<g id="a_Node000003"><a xlink:href="structcsl_1_1mp_1_1is__index__sequence.html" target="_top" xlink:title=" ">
<polygon fill="white" stroke="#666666" points="304,-702.5 125,-702.5 125,-683.5 304,-683.5 304,-702.5"/>
<text text-anchor="middle" x="214.5" y="-690.5" font-family="Helvetica,sans-Serif" font-size="10.00">csl::mp::is_index_sequence&lt; T &gt;</text>
</a>
</g>
</g>
<!-- Node0&#45;&gt;Node3 -->
<g id="edge38_Node000000_Node000003" class="edge">
<title>Node0&#45;&gt;Node3</title>
<g id="a_edge38_Node000000_Node000003"><a xlink:title=" ">
<path fill="none" stroke="#63b8ff" d="M44.87,-422.93C44.44,-473.34 50.75,-606.72 125,-675 128.58,-678.29 132.59,-681.05 136.87,-683.35"/>
<polygon fill="#63b8ff" stroke="#63b8ff" points="48.37,-422.8 45.06,-412.74 41.37,-422.67 48.37,-422.8"/>
</a>
</g>
</g>
<!-- Node4 -->
<g id="Node000004" class="node">
<title>Node4</title>
<g id="a_Node000004"><a xlink:href="structcsl_1_1mp_1_1is__sequence.html" target="_top" xlink:title=" ">
<polygon fill="white" stroke="#666666" points="287.5,-665.5 141.5,-665.5 141.5,-646.5 287.5,-646.5 287.5,-665.5"/>
<text text-anchor="middle" x="214.5" y="-653.5" font-family="Helvetica,sans-Serif" font-size="10.00">csl::mp::is_sequence&lt; T &gt;</text>
</a>
</g>
</g>
<!-- Node0&#45;&gt;Node4 -->
<g id="edge39_Node000000_Node000004" class="edge">
<title>Node0&#45;&gt;Node4</title>
<g id="a_edge39_Node000000_Node000004"><a xlink:title=" ">
<path fill="none" stroke="#63b8ff" d="M46.01,-422.84C48.32,-468.14 60.6,-579.67 125,-637 129.81,-641.28 135.35,-644.68 141.27,-647.37"/>
<polygon fill="#63b8ff" stroke="#63b8ff" points="49.51,-422.68 45.62,-412.83 42.52,-422.96 49.51,-422.68"/>
</a>
</g>
</g>
<!-- Node5 -->
<g id="Node000005" class="node">
<title>Node5</title>
<g id="a_Node000005"><a xlink:href="structcsl_1_1mp_1_1is__tuple.html" target="_top" xlink:title=" ">
<polygon fill="white" stroke="#666666" points="266.5,-628 162.5,-628 162.5,-598 266.5,-598 266.5,-628"/>
<text text-anchor="start" x="170.5" y="-616" font-family="Helvetica,sans-Serif" font-size="10.00">csl::mp::is_tuple&lt;</text>
<text text-anchor="middle" x="214.5" y="-605" font-family="Helvetica,sans-Serif" font-size="10.00"> typename &gt;</text>
</a>
</g>
</g>
<!-- Node0&#45;&gt;Node5 -->
<g id="edge40_Node000000_Node000005" class="edge">
<title>Node0&#45;&gt;Node5</title>
<g id="a_edge40_Node000000_Node000005"><a xlink:title=" ">
<path fill="none" stroke="#63b8ff" d="M48.28,-423.15C54.64,-461.36 73.85,-544.51 125,-589 135.45,-598.09 149.02,-603.77 162.38,-607.31"/>
<polygon fill="#63b8ff" stroke="#63b8ff" points="51.67,-422.18 46.7,-412.83 44.75,-423.24 51.67,-422.18"/>
</a>
</g>
</g>
<!-- Node6 -->
<g id="Node000006" class="node">
<title>Node6</title>
<g id="a_Node000006"><a xlink:href="structcsl_1_1mp_1_1type__traits_1_1empty.html" target="_top" xlink:title=" ">
<polygon fill="white" stroke="#666666" points="277.5,-580 151.5,-580 151.5,-550 277.5,-550 277.5,-580"/>
<text text-anchor="start" x="159.5" y="-568" font-family="Helvetica,sans-Serif" font-size="10.00">csl::mp::type_traits</text>
<text text-anchor="middle" x="214.5" y="-557" font-family="Helvetica,sans-Serif" font-size="10.00">::empty&lt; typename &gt;</text>
</a>
</g>
</g>
<!-- Node0&#45;&gt;Node6 -->
<g id="edge41_Node000000_Node000006" class="edge">
<title>Node0&#45;&gt;Node6</title>
<g id="a_edge41_Node000000_Node000006"><a xlink:title=" ">
<path fill="none" stroke="#63b8ff" d="M51.35,-422.5C61.4,-452.58 84.82,-510.04 125,-541 132.69,-546.93 141.74,-551.39 151.07,-554.76"/>
<polygon fill="#63b8ff" stroke="#63b8ff" points="54.62,-421.22 48.25,-412.76 47.95,-423.35 54.62,-421.22"/>
</a>
</g>
</g>
<!-- Node7 -->
<g id="Node000007" class="node">
<title>Node7</title>
<g id="a_Node000007"><a xlink:href="structcsl_1_1mp_1_1type__traits_1_1is__constrained__by.html" target="_top" xlink:title=" ">
<polygon fill="white" stroke="#666666" points="282.5,-531.5 146.5,-531.5 146.5,-490.5 282.5,-490.5 282.5,-531.5"/>
<text text-anchor="start" x="154.5" y="-519.5" font-family="Helvetica,sans-Serif" font-size="10.00">csl::mp::type_traits</text>
<text text-anchor="start" x="154.5" y="-508.5" font-family="Helvetica,sans-Serif" font-size="10.00">::is_constrained_by&lt;</text>
<text text-anchor="middle" x="214.5" y="-497.5" font-family="Helvetica,sans-Serif" font-size="10.00"> typename, typename &gt;</text>
</a>
</g>
</g>
<!-- Node0&#45;&gt;Node7 -->
<g id="edge42_Node000000_Node000007" class="edge">
<title>Node0&#45;&gt;Node7</title>
<g id="a_edge42_Node000000_Node000007"><a xlink:title=" ">
<path fill="none" stroke="#63b8ff" d="M59.11,-420.33C73.7,-437.86 98.39,-464.64 125,-481 131.63,-485.08 138.89,-488.68 146.3,-491.85"/>
<polygon fill="#63b8ff" stroke="#63b8ff" points="61.82,-418.11 52.79,-412.56 56.38,-422.52 61.82,-418.11"/>
</a>
</g>
</g>
<!-- Node8 -->
<g id="Node000008" class="node">
<title>Node8</title>
<g id="a_Node000008"><a xlink:href="structcsl_1_1mp_1_1type__traits_1_1is__homogeneous.html" target="_top" xlink:title=" ">
<polygon fill="white" stroke="#666666" points="281.5,-472 147.5,-472 147.5,-442 281.5,-442 281.5,-472"/>
<text text-anchor="start" x="155.5" y="-460" font-family="Helvetica,sans-Serif" font-size="10.00">csl::mp::type_traits</text>
<text text-anchor="middle" x="214.5" y="-449" font-family="Helvetica,sans-Serif" font-size="10.00">::is_homogeneous&lt; T &gt;</text>
</a>
</g>
</g>
<!-- Node0&#45;&gt;Node8 -->
<g id="edge43_Node000000_Node000008" class="edge">
<title>Node0&#45;&gt;Node8</title>
<g id="a_edge43_Node000000_Node000008"><a xlink:title=" ">
<path fill="none" stroke="#63b8ff" d="M78.32,-416.2C92.56,-421.71 109.49,-427.98 125,-433 134.54,-436.09 144.75,-439.11 154.71,-441.91"/>
<polygon fill="#63b8ff" stroke="#63b8ff" points="79.53,-412.91 68.95,-412.53 76.98,-419.43 79.53,-412.91"/>
</a>
</g>
</g>
<!-- Node9 -->
<g id="Node000009" class="node">
<title>Node9</title>
<g id="a_Node000009"><a xlink:href="structcsl_1_1mp_1_1type__traits_1_1is__index__gettable.html" target="_top" xlink:title=" ">
<polygon fill="white" stroke="#666666" points="273,-423.5 156,-423.5 156,-382.5 273,-382.5 273,-423.5"/>
<text text-anchor="start" x="164" y="-411.5" font-family="Helvetica,sans-Serif" font-size="10.00">csl::mp::type_traits</text>
<text text-anchor="start" x="164" y="-400.5" font-family="Helvetica,sans-Serif" font-size="10.00">::is_index_gettable&lt;</text>
<text text-anchor="middle" x="214.5" y="-389.5" font-family="Helvetica,sans-Serif" font-size="10.00"> typename, size_t &gt;</text>
</a>
</g>
</g>
<!-- Node0&#45;&gt;Node9 -->
<g id="edge44_Node000000_Node000009" class="edge">
<title>Node0&#45;&gt;Node9</title>
<g id="a_edge44_Node000000_Node000009"><a xlink:title=" ">
<path fill="none" stroke="#63b8ff" d="M99.25,-403C117.28,-403 137.46,-403 155.78,-403"/>
<polygon fill="#63b8ff" stroke="#63b8ff" points="99.2,-399.5 89.2,-403 99.2,-406.5 99.2,-399.5"/>
</a>
</g>
</g>
<!-- Node10 -->
<g id="Node000010" class="node">
<title>Node10</title>
<g id="a_Node000010"><a xlink:href="structcsl_1_1mp_1_1type__traits_1_1is__instance.html" target="_top" xlink:title=" ">
<polygon fill="white" stroke="#666666" points="295.5,-364 133.5,-364 133.5,-334 295.5,-334 295.5,-364"/>
<text text-anchor="start" x="141.5" y="-352" font-family="Helvetica,sans-Serif" font-size="10.00">csl::mp::type_traits</text>
<text text-anchor="middle" x="214.5" y="-341" font-family="Helvetica,sans-Serif" font-size="10.00">::is_instance&lt; pack_type, T &gt;</text>
</a>
</g>
</g>
<!-- Node0&#45;&gt;Node10 -->
<g id="edge45_Node000000_Node000010" class="edge">
<title>Node0&#45;&gt;Node10</title>
<g id="a_edge45_Node000000_Node000010"><a xlink:title=" ">
<path fill="none" stroke="#63b8ff" d="M80.05,-389.76C93.94,-384.61 110.15,-378.8 125,-374 135.48,-370.61 146.74,-367.24 157.6,-364.11"/>
<polygon fill="#63b8ff" stroke="#63b8ff" points="78.54,-386.59 70.4,-393.38 80.99,-393.15 78.54,-386.59"/>
</a>
</g>
</g>
<!-- Node11 -->
<g id="Node000011" class="node">
<title>Node11</title>
<g id="a_Node000011"><a xlink:href="structcsl_1_1mp_1_1type__traits_1_1is__same__template.html" target="_top" xlink:title=" ">
<polygon fill="white" stroke="#666666" points="302.5,-315.5 126.5,-315.5 126.5,-274.5 302.5,-274.5 302.5,-315.5"/>
<text text-anchor="start" x="134.5" y="-303.5" font-family="Helvetica,sans-Serif" font-size="10.00">csl::mp::type_traits</text>
<text text-anchor="start" x="134.5" y="-292.5" font-family="Helvetica,sans-Serif" font-size="10.00">::is_same_template&lt; typename,</text>
<text text-anchor="middle" x="214.5" y="-281.5" font-family="Helvetica,sans-Serif" font-size="10.00"> typename &gt;</text>
</a>
</g>
</g>
<!-- Node0&#45;&gt;Node11 -->
<g id="edge46_Node000000_Node000011" class="edge">
<title>Node0&#45;&gt;Node11</title>
<g id="a_edge46_Node000000_Node000011"><a xlink:title=" ">
<path fill="none" stroke="#63b8ff" d="M59.11,-385.67C73.7,-368.14 98.39,-341.36 125,-325 130.67,-321.52 136.79,-318.38 143.07,-315.57"/>
<polygon fill="#63b8ff" stroke="#63b8ff" points="56.38,-383.48 52.79,-393.44 61.82,-387.89 56.38,-383.48"/>
</a>
</g>
</g>
<!-- Node12 -->
<g id="Node000012" class="node">
<title>Node12</title>
<g id="a_Node000012"><a xlink:href="structcsl_1_1mp_1_1type__traits_1_1is__std__array.html" target="_top" xlink:title=" ">
<polygon fill="white" stroke="#666666" points="269.5,-256 159.5,-256 159.5,-226 269.5,-226 269.5,-256"/>
<text text-anchor="start" x="167.5" y="-244" font-family="Helvetica,sans-Serif" font-size="10.00">csl::mp::type_traits</text>
<text text-anchor="middle" x="214.5" y="-233" font-family="Helvetica,sans-Serif" font-size="10.00">::is_std_array&lt; T &gt;</text>
</a>
</g>
</g>
<!-- Node0&#45;&gt;Node12 -->
<g id="edge47_Node000000_Node000012" class="edge">
<title>Node0&#45;&gt;Node12</title>
<g id="a_edge47_Node000000_Node000012"><a xlink:title=" ">
<path fill="none" stroke="#63b8ff" d="M51.43,-383.69C61.58,-353.9 85.15,-296.94 125,-266 134.96,-258.27 147.2,-252.92 159.37,-249.23"/>
<polygon fill="#63b8ff" stroke="#63b8ff" points="48.06,-382.75 48.29,-393.34 54.71,-384.91 48.06,-382.75"/>
</a>
</g>
</g>
<!-- Node13 -->
<g id="Node000013" class="node">
<title>Node13</title>
<g id="a_Node000013"><a xlink:href="structcsl_1_1mp_1_1type__traits_1_1is__type__gettable.html" target="_top" xlink:title=" ">
<polygon fill="white" stroke="#666666" points="298,-207.5 131,-207.5 131,-166.5 298,-166.5 298,-207.5"/>
<text text-anchor="start" x="139" y="-195.5" font-family="Helvetica,sans-Serif" font-size="10.00">csl::mp::type_traits</text>
<text text-anchor="start" x="139" y="-184.5" font-family="Helvetica,sans-Serif" font-size="10.00">::is_type_gettable&lt; typename,</text>
<text text-anchor="middle" x="214.5" y="-173.5" font-family="Helvetica,sans-Serif" font-size="10.00"> typename &gt;</text>
</a>
</g>
</g>
<!-- Node0&#45;&gt;Node13 -->
<g id="edge48_Node000000_Node000013" class="edge">
<title>Node0&#45;&gt;Node13</title>
<g id="a_edge48_Node000000_Node000013"><a xlink:title=" ">
<path fill="none" stroke="#63b8ff" d="M48.53,-383.13C55.33,-345.41 75.26,-263.05 125,-217 128.81,-213.47 133.05,-210.36 137.55,-207.61"/>
<polygon fill="#63b8ff" stroke="#63b8ff" points="45.03,-382.88 46.83,-393.32 51.93,-384.04 45.03,-382.88"/>
</a>
</g>
</g>
<!-- Node14 -->
<g id="Node000014" class="node">
<title>Node14</title>
<g id="a_Node000014"><a xlink:href="structcsl_1_1mp_1_1type__traits_1_1support__get__by__index.html" target="_top" xlink:title=" ">
<polygon fill="white" stroke="#666666" points="279.5,-148.5 149.5,-148.5 149.5,-107.5 279.5,-107.5 279.5,-148.5"/>
<text text-anchor="start" x="157.5" y="-136.5" font-family="Helvetica,sans-Serif" font-size="10.00">csl::mp::type_traits</text>
<text text-anchor="start" x="157.5" y="-125.5" font-family="Helvetica,sans-Serif" font-size="10.00">::support_get_by_index</text>
<text text-anchor="middle" x="214.5" y="-114.5" font-family="Helvetica,sans-Serif" font-size="10.00">&lt; typename &gt;</text>
</a>
</g>
</g>
<!-- Node0&#45;&gt;Node14 -->
<g id="edge49_Node000000_Node000014" class="edge">
<title>Node0&#45;&gt;Node14</title>
<g id="a_edge49_Node000000_Node000014"><a xlink:title=" ">
<path fill="none" stroke="#63b8ff" d="M46.15,-383.4C48.75,-337.54 61.58,-222.25 125,-158 131.84,-151.07 140.33,-145.74 149.33,-141.65"/>
<polygon fill="#63b8ff" stroke="#63b8ff" points="42.65,-383.34 45.69,-393.49 49.65,-383.66 42.65,-383.34"/>
</a>
</g>
</g>
<!-- Node15 -->
<g id="Node000015" class="node">
<title>Node15</title>
<g id="a_Node000015"><a xlink:href="structcsl_1_1mp_1_1type__traits_1_1support__get__by__type.html" target="_top" xlink:title=" ">
<polygon fill="white" stroke="#666666" points="277,-89.5 152,-89.5 152,-48.5 277,-48.5 277,-89.5"/>
<text text-anchor="start" x="160" y="-77.5" font-family="Helvetica,sans-Serif" font-size="10.00">csl::mp::type_traits</text>
<text text-anchor="start" x="160" y="-66.5" font-family="Helvetica,sans-Serif" font-size="10.00">::support_get_by_type</text>
<text text-anchor="middle" x="214.5" y="-55.5" font-family="Helvetica,sans-Serif" font-size="10.00">&lt; typename &gt;</text>
</a>
</g>
</g>
<!-- Node0&#45;&gt;Node15 -->
<g id="edge50_Node000000_Node000015" class="edge">
<title>Node0&#45;&gt;Node15</title>
<g id="a_edge50_Node000000_Node000015"><a xlink:title=" ">
<path fill="none" stroke="#63b8ff" d="M44.67,-383.16C43.55,-329.81 47.93,-181.75 125,-99 132.3,-91.16 141.71,-85.38 151.67,-81.1"/>
<polygon fill="#63b8ff" stroke="#63b8ff" points="41.17,-383.42 44.98,-393.31 48.17,-383.21 41.17,-383.42"/>
</a>
</g>
</g>
<!-- Node16 -->
<g id="Node000016" class="node">
<title>Node16</title>
<g id="a_Node000016"><a xlink:href="structdeprecated__by__P2593R0_1_1dependent__false.html" target="_top" xlink:title=" ">
<polygon fill="white" stroke="#666666" points="283,-30 146,-30 146,0 283,0 283,-30"/>
<text text-anchor="start" x="154" y="-18" font-family="Helvetica,sans-Serif" font-size="10.00">deprecated_by_P2593R0</text>
<text text-anchor="middle" x="214.5" y="-7" font-family="Helvetica,sans-Serif" font-size="10.00">::dependent_false&lt;... &gt;</text>
</a>
</g>
</g>
<!-- Node0&#45;&gt;Node16 -->
<g id="edge51_Node000000_Node000016" class="edge">
<title>Node0&#45;&gt;Node16</title>
<g id="a_edge51_Node000000_Node000016"><a xlink:title=" ">
<path fill="none" stroke="#63b8ff" d="M47.22,-382.9C53.47,-314.28 77.22,-90.72 125,-40 130.8,-33.84 138,-29.16 145.75,-25.61"/>
<polygon fill="#63b8ff" stroke="#63b8ff" points="43.7,-382.92 46.31,-393.19 50.67,-383.54 43.7,-382.92"/>
</a>
</g>
</g>
<!-- Node2 -->
<g id="Node000002" class="node">
<title>Node2</title>
<g id="a_Node000002"><a xlink:href="structcsl_1_1mp_1_1type__traits_1_1is__uniqued_3_01tuple__type_01_4.html" target="_top" xlink:title=" ">
<polygon fill="white" stroke="#666666" points="489,-756 340,-756 340,-726 489,-726 489,-756"/>
<text text-anchor="start" x="348" y="-744" font-family="Helvetica,sans-Serif" font-size="10.00">csl::mp::type_traits</text>
<text text-anchor="middle" x="414.5" y="-733" font-family="Helvetica,sans-Serif" font-size="10.00">::is_uniqued&lt; tuple_type &gt;</text>
</a>
</g>
</g>
<!-- Node1&#45;&gt;Node2 -->
<g id="edge37_Node000001_Node000002" class="edge">
<title>Node1&#45;&gt;Node2</title>
<g id="a_edge37_Node000001_Node000002"><a xlink:title=" ">
<path fill="none" stroke="#63b8ff" d="M287.5,-741C304.52,-741 322.7,-741 339.81,-741"/>
<polygon fill="#63b8ff" stroke="#63b8ff" points="287.06,-737.5 277.06,-741 287.06,-744.5 287.06,-737.5"/>
</a>
</g>
</g>
</g>
</svg>
