<?xml version="1.0" encoding="UTF-8" standalone="no"?>
<!DOCTYPE svg PUBLIC "-//W3C//DTD SVG 1.1//EN"
 "http://www.w3.org/Graphics/SVG/1.1/DTD/svg11.dtd">
<!-- Generated by graphviz version 2.43.0 (0)
 -->
<!-- Title: Graphical Class Hierarchy Pages: 1 -->
<svg width="481pt" height="469pt"
 viewBox="0.00 0.00 481.00 468.50" xmlns="http://www.w3.org/2000/svg" xmlns:xlink="http://www.w3.org/1999/xlink">
<g id="graph0" class="graph" transform="scale(1 1) rotate(0) translate(4 464.5)">
<title>Graphical Class Hierarchy</title>
<!-- Node0 -->
<g id="Node000000" class="node">
<title>Node0</title>
<g id="a_Node000000"><a xlink:title=" ">
<polygon fill="#e0e0e0" stroke="#999999" points="122,-239.5 0,-239.5 0,-220.5 122,-220.5 122,-239.5"/>
<text text-anchor="middle" x="61" y="-227.5" font-family="Helvetica,sans-Serif" font-size="10.00">csl::mp::type_identity</text>
</a>
</g>
</g>
<!-- Node1 -->
<g id="Node000001" class="node">
<title>Node1</title>
<g id="a_Node000001"><a xlink:href="structcsl_1_1mp_1_1type__traits_1_1cat__result.html" target="_top" xlink:title=" ">
<polygon fill="white" stroke="#666666" points="315,-460.5 158,-460.5 158,-397.5 315,-397.5 315,-460.5"/>
<text text-anchor="start" x="166" y="-448.5" font-family="Helvetica,sans-Serif" font-size="10.00">csl::mp::type_traits</text>
<text text-anchor="start" x="166" y="-437.5" font-family="Helvetica,sans-Serif" font-size="10.00">::cat_result&lt; std::conditional</text>
<text text-anchor="start" x="166" y="-426.5" font-family="Helvetica,sans-Serif" font-size="10.00">_t&lt; predicate&lt; Ts &gt;::value,</text>
<text text-anchor="start" x="166" y="-415.5" font-family="Helvetica,sans-Serif" font-size="10.00"> csl::mp::tuple&lt; Ts &gt;, csl::</text>
<text text-anchor="middle" x="236.5" y="-404.5" font-family="Helvetica,sans-Serif" font-size="10.00">mp::tuple&lt;&gt; &gt;... &gt;</text>
</a>
</g>
</g>
<!-- Node0&#45;&gt;Node1 -->
<g id="edge9_Node000000_Node000001" class="edge">
<title>Node0&#45;&gt;Node1</title>
<g id="a_edge9_Node000000_Node000001"><a xlink:title=" ">
<path fill="none" stroke="#63b8ff" d="M69.67,-249.34C83.27,-281.59 114.35,-346.86 158,-388 161.55,-391.34 165.41,-394.49 169.47,-397.43"/>
<polygon fill="#63b8ff" stroke="#63b8ff" points="72.77,-247.67 65.73,-239.75 66.29,-250.33 72.77,-247.67"/>
</a>
</g>
</g>
<!-- Node3 -->
<g id="Node000003" class="node">
<title>Node3</title>
<g id="a_Node000003"><a xlink:href="structcsl_1_1mp_1_1type__traits_1_1value__type_3_01T_0fN_0e_4.html" target="_top" xlink:title=" ">
<polygon fill="white" stroke="#666666" points="295,-379 178,-379 178,-349 295,-349 295,-379"/>
<text text-anchor="start" x="186" y="-367" font-family="Helvetica,sans-Serif" font-size="10.00">csl::mp::type_traits</text>
<text text-anchor="middle" x="236.5" y="-356" font-family="Helvetica,sans-Serif" font-size="10.00">::value_type&lt; T[N]&gt;</text>
</a>
</g>
</g>
<!-- Node0&#45;&gt;Node3 -->
<g id="edge11_Node000000_Node000003" class="edge">
<title>Node0&#45;&gt;Node3</title>
<g id="a_edge11_Node000000_Node000003"><a xlink:title=" ">
<path fill="none" stroke="#63b8ff" d="M73.16,-248.15C89.05,-272.53 120.49,-315.59 158,-340 164.14,-343.99 170.98,-347.36 177.99,-350.18"/>
<polygon fill="#63b8ff" stroke="#63b8ff" points="75.99,-246.08 67.67,-239.52 70.08,-249.84 75.99,-246.08"/>
</a>
</g>
</g>
<!-- Node4 -->
<g id="Node000004" class="node">
<title>Node4</title>
<g id="a_Node000004"><a xlink:href="structcsl_1_1mp_1_1member__value.html" target="_top" xlink:title=" ">
<polygon fill="white" stroke="#666666" points="302,-331 171,-331 171,-301 302,-301 302,-331"/>
<text text-anchor="start" x="179" y="-319" font-family="Helvetica,sans-Serif" font-size="10.00">csl::mp::member_value</text>
<text text-anchor="middle" x="236.5" y="-308" font-family="Helvetica,sans-Serif" font-size="10.00">&lt; I, T &gt;</text>
</a>
</g>
</g>
<!-- Node0&#45;&gt;Node4 -->
<g id="edge12_Node000000_Node000004" class="edge">
<title>Node0&#45;&gt;Node4</title>
<g id="a_edge12_Node000000_Node000004"><a xlink:title=" ">
<path fill="none" stroke="#63b8ff" d="M82.51,-245.62C101.33,-259.35 130.38,-279.1 158,-292 165.02,-295.28 172.6,-298.25 180.18,-300.91"/>
<polygon fill="#63b8ff" stroke="#63b8ff" points="84.51,-242.74 74.39,-239.6 80.34,-248.36 84.51,-242.74"/>
</a>
</g>
</g>
<!-- Node5 -->
<g id="Node000005" class="node">
<title>Node5</title>
<g id="a_Node000005"><a xlink:href="structcsl_1_1mp_1_1reverse_3_01T_01_4.html" target="_top" xlink:title=" ">
<polygon fill="white" stroke="#666666" points="298,-282.5 175,-282.5 175,-263.5 298,-263.5 298,-282.5"/>
<text text-anchor="middle" x="236.5" y="-270.5" font-family="Helvetica,sans-Serif" font-size="10.00">csl::mp::reverse&lt; T &gt;</text>
</a>
</g>
</g>
<!-- Node0&#45;&gt;Node5 -->
<g id="edge13_Node000000_Node000005" class="edge">
<title>Node0&#45;&gt;Node5</title>
<g id="a_edge13_Node000000_Node000005"><a xlink:title=" ">
<path fill="none" stroke="#63b8ff" d="M109.68,-241.97C125.09,-245.82 142.27,-250.11 158,-254 170.51,-257.1 184.15,-260.45 196.46,-263.47"/>
<polygon fill="#63b8ff" stroke="#63b8ff" points="110.38,-238.53 99.83,-239.5 108.68,-245.32 110.38,-238.53"/>
</a>
</g>
</g>
<!-- Node6 -->
<g id="Node000006" class="node">
<title>Node6</title>
<g id="a_Node000006"><a xlink:href="structcsl_1_1mp_1_1type__traits_1_1cat__result.html" target="_top" xlink:title=" ">
<polygon fill="white" stroke="#666666" points="311.5,-245 161.5,-245 161.5,-215 311.5,-215 311.5,-245"/>
<text text-anchor="start" x="169.5" y="-233" font-family="Helvetica,sans-Serif" font-size="10.00">csl::mp::type_traits</text>
<text text-anchor="middle" x="236.5" y="-222" font-family="Helvetica,sans-Serif" font-size="10.00">::cat_result&lt; tuple_types &gt;</text>
</a>
</g>
</g>
<!-- Node0&#45;&gt;Node6 -->
<g id="edge14_Node000000_Node000006" class="edge">
<title>Node0&#45;&gt;Node6</title>
<g id="a_edge14_Node000000_Node000006"><a xlink:title=" ">
<path fill="none" stroke="#63b8ff" d="M132.41,-230C141.94,-230 151.75,-230 161.34,-230"/>
<polygon fill="#63b8ff" stroke="#63b8ff" points="132.19,-226.5 122.19,-230 132.19,-233.5 132.19,-226.5"/>
</a>
</g>
</g>
<!-- Node7 -->
<g id="Node000007" class="node">
<title>Node7</title>
<g id="a_Node000007"><a xlink:href="structcsl_1_1mp_1_1type__traits_1_1fold__left__result.html" target="_top" xlink:title=" ">
<polygon fill="white" stroke="#666666" points="294.5,-196.5 178.5,-196.5 178.5,-155.5 294.5,-155.5 294.5,-196.5"/>
<text text-anchor="start" x="186.5" y="-184.5" font-family="Helvetica,sans-Serif" font-size="10.00">csl::mp::type_traits</text>
<text text-anchor="start" x="186.5" y="-173.5" font-family="Helvetica,sans-Serif" font-size="10.00">::fold_left_result&lt; T,</text>
<text text-anchor="middle" x="236.5" y="-162.5" font-family="Helvetica,sans-Serif" font-size="10.00"> F, init &gt;</text>
</a>
</g>
</g>
<!-- Node0&#45;&gt;Node7 -->
<g id="edge15_Node000000_Node000007" class="edge">
<title>Node0&#45;&gt;Node7</title>
<g id="a_edge15_Node000000_Node000007"><a xlink:title=" ">
<path fill="none" stroke="#63b8ff" d="M102.22,-217.48C124.79,-210.46 153.32,-201.58 178.2,-193.83"/>
<polygon fill="#63b8ff" stroke="#63b8ff" points="101.13,-214.16 92.62,-220.47 103.21,-220.84 101.13,-214.16"/>
</a>
</g>
</g>
<!-- Node8 -->
<g id="Node000008" class="node">
<title>Node8</title>
<g id="a_Node000008"><a xlink:href="structcsl_1_1mp_1_1type__traits_1_1fold__right__result.html" target="_top" xlink:title=" ">
<polygon fill="white" stroke="#666666" points="291.5,-137.5 181.5,-137.5 181.5,-96.5 291.5,-96.5 291.5,-137.5"/>
<text text-anchor="start" x="189.5" y="-125.5" font-family="Helvetica,sans-Serif" font-size="10.00">csl::mp::type_traits</text>
<text text-anchor="start" x="189.5" y="-114.5" font-family="Helvetica,sans-Serif" font-size="10.00">::fold_right_result&lt;</text>
<text text-anchor="middle" x="236.5" y="-103.5" font-family="Helvetica,sans-Serif" font-size="10.00"> T, F, init &gt;</text>
</a>
</g>
</g>
<!-- Node0&#45;&gt;Node8 -->
<g id="edge16_Node000000_Node000008" class="edge">
<title>Node0&#45;&gt;Node8</title>
<g id="a_edge16_Node000000_Node000008"><a xlink:title=" ">
<path fill="none" stroke="#63b8ff" d="M78.32,-212.72C96.38,-194.4 127.05,-165.6 158,-147 165.3,-142.62 173.35,-138.66 181.41,-135.16"/>
<polygon fill="#63b8ff" stroke="#63b8ff" points="75.4,-210.71 70.95,-220.33 80.42,-215.58 75.4,-210.71"/>
</a>
</g>
</g>
<!-- Node9 -->
<g id="Node000009" class="node">
<title>Node9</title>
<g id="a_Node000009"><a xlink:href="structcsl_1_1mp_1_1type__traits_1_1unique_3_01T_01_4.html" target="_top" xlink:title=" ">
<polygon fill="white" stroke="#666666" points="291.5,-78 181.5,-78 181.5,-48 291.5,-48 291.5,-78"/>
<text text-anchor="start" x="189.5" y="-66" font-family="Helvetica,sans-Serif" font-size="10.00">csl::mp::type_traits</text>
<text text-anchor="middle" x="236.5" y="-55" font-family="Helvetica,sans-Serif" font-size="10.00">::unique&lt; T &gt;</text>
</a>
</g>
</g>
<!-- Node0&#45;&gt;Node9 -->
<g id="edge17_Node000000_Node000009" class="edge">
<title>Node0&#45;&gt;Node9</title>
<g id="a_edge17_Node000000_Node000009"><a xlink:title=" ">
<path fill="none" stroke="#63b8ff" d="M69.86,-211C83.39,-180.6 113.94,-121.09 158,-88 164.9,-82.82 172.91,-78.69 181.11,-75.4"/>
<polygon fill="#63b8ff" stroke="#63b8ff" points="66.53,-209.88 65.79,-220.45 72.96,-212.65 66.53,-209.88"/>
</a>
</g>
</g>
<!-- Node10 -->
<g id="Node000010" class="node">
<title>Node10</title>
<g id="a_Node000010"><a xlink:href="structcsl_1_1mp_1_1type__traits_1_1value__type.html" target="_top" xlink:title=" ">
<polygon fill="white" stroke="#666666" points="291.5,-30 181.5,-30 181.5,0 291.5,0 291.5,-30"/>
<text text-anchor="start" x="189.5" y="-18" font-family="Helvetica,sans-Serif" font-size="10.00">csl::mp::type_traits</text>
<text text-anchor="middle" x="236.5" y="-7" font-family="Helvetica,sans-Serif" font-size="10.00">::value_type&lt; T &gt;</text>
</a>
</g>
</g>
<!-- Node0&#45;&gt;Node10 -->
<g id="edge18_Node000000_Node000010" class="edge">
<title>Node0&#45;&gt;Node10</title>
<g id="a_edge18_Node000000_Node000010"><a xlink:title=" ">
<path fill="none" stroke="#63b8ff" d="M66.38,-210.47C76.04,-171.91 102.84,-85.72 158,-39 164.77,-33.27 172.9,-28.9 181.32,-25.58"/>
<polygon fill="#63b8ff" stroke="#63b8ff" points="62.93,-209.87 64.01,-220.41 69.73,-211.49 62.93,-209.87"/>
</a>
</g>
</g>
<!-- Node2 -->
<g id="Node000002" class="node">
<title>Node2</title>
<g id="a_Node000002"><a xlink:href="structcsl_1_1mp_1_1type__traits_1_1filter_3_01csl_1_1mp_1_1tuple_3_01Ts_8_8_8_01_4_00_01predicate_01_4.html" target="_top" xlink:title=" ">
<polygon fill="white" stroke="#666666" points="473,-449.5 351,-449.5 351,-408.5 473,-408.5 473,-449.5"/>
<text text-anchor="start" x="359" y="-437.5" font-family="Helvetica,sans-Serif" font-size="10.00">csl::mp::type_traits</text>
<text text-anchor="start" x="359" y="-426.5" font-family="Helvetica,sans-Serif" font-size="10.00">::filter&lt; csl::mp::tuple</text>
<text text-anchor="middle" x="412" y="-415.5" font-family="Helvetica,sans-Serif" font-size="10.00">&lt; Ts... &gt;, predicate &gt;</text>
</a>
</g>
</g>
<!-- Node1&#45;&gt;Node2 -->
<g id="edge10_Node000001_Node000002" class="edge">
<title>Node1&#45;&gt;Node2</title>
<g id="a_edge10_Node000001_Node000002"><a xlink:title=" ">
<path fill="none" stroke="#63b8ff" d="M325.28,-429C333.94,-429 342.6,-429 350.89,-429"/>
<polygon fill="#63b8ff" stroke="#63b8ff" points="325.12,-425.5 315.12,-429 325.12,-432.5 325.12,-425.5"/>
</a>
</g>
</g>
</g>
</svg>
