<?xml version="1.0" encoding="UTF-8" standalone="no"?>
<!DOCTYPE svg PUBLIC "-//W3C//DTD SVG 1.1//EN"
 "http://www.w3.org/Graphics/SVG/1.1/DTD/svg11.dtd">
<!-- Generated by graphviz version 2.43.0 (0)
 -->
<!-- Title: Graphical Class Hierarchy Pages: 1 -->
<svg width="329pt" height="645pt"
 viewBox="0.00 0.00 329.00 645.00" xmlns="http://www.w3.org/2000/svg" xmlns:xlink="http://www.w3.org/1999/xlink">
<g id="graph0" class="graph" transform="scale(1 1) rotate(0) translate(4 641)">
<title>Graphical Class Hierarchy</title>
<!-- Node0 -->
<g id="Node000000" class="node">
<title>Node0</title>
<g id="a_Node000000"><a xlink:title=" ">
<polygon fill="#e0e0e0" stroke="#999999" points="106,-508 0,-508 0,-489 106,-489 106,-508"/>
<text text-anchor="middle" x="53" y="-496" font-family="Helvetica,sans-Serif" font-size="10.00">std::bool_constant</text>
</a>
</g>
</g>
<!-- Node1 -->
<g id="Node000001" class="node">
<title>Node1</title>
<g id="a_Node000001"><a xlink:href="structcsl_1_1mp_1_1type__traits_1_1contains_3_01csl_1_1mp_1_1tuple_3_01Ts_8_8_8_01_4_00_01T_01_4.html" target="_top" xlink:title=" ">
<polygon fill="white" stroke="#666666" points="289.5,-637 173.5,-637 173.5,-596 289.5,-596 289.5,-637"/>
<text text-anchor="start" x="181.5" y="-625" font-family="Helvetica,sans-Serif" font-size="10.00">csl::mp::type_traits</text>
<text text-anchor="start" x="181.5" y="-614" font-family="Helvetica,sans-Serif" font-size="10.00">::contains&lt; csl::mp::</text>
<text text-anchor="middle" x="231.5" y="-603" font-family="Helvetica,sans-Serif" font-size="10.00">tuple&lt; Ts... &gt;, T &gt;</text>
</a>
</g>
</g>
<!-- Node0&#45;&gt;Node1 -->
<g id="edge23_Node000000_Node000001" class="edge">
<title>Node0&#45;&gt;Node1</title>
<g id="a_edge23_Node000000_Node000001"><a xlink:title=" ">
<path fill="none" stroke="#63b8ff" d="M67.01,-515.97C82.72,-535.92 110.93,-568.29 142,-587.5 151.63,-593.45 162.6,-598.32 173.48,-602.25"/>
<polygon fill="#63b8ff" stroke="#63b8ff" points="69.76,-513.8 60.88,-508.01 64.21,-518.07 69.76,-513.8"/>
</a>
</g>
</g>
<!-- Node2 -->
<g id="Node000002" class="node">
<title>Node2</title>
<g id="a_Node000002"><a xlink:href="structcsl_1_1mp_1_1type__traits_1_1is__constrained__by_3_01T_00_01predicate_01_4.html" target="_top" xlink:title=" ">
<polygon fill="white" stroke="#666666" points="291,-578 172,-578 172,-537 291,-537 291,-578"/>
<text text-anchor="start" x="180" y="-566" font-family="Helvetica,sans-Serif" font-size="10.00">csl::mp::type_traits</text>
<text text-anchor="start" x="180" y="-555" font-family="Helvetica,sans-Serif" font-size="10.00">::is_constrained_by&lt;</text>
<text text-anchor="middle" x="231.5" y="-544" font-family="Helvetica,sans-Serif" font-size="10.00"> T, predicate &gt;</text>
</a>
</g>
</g>
<!-- Node0&#45;&gt;Node2 -->
<g id="edge24_Node000000_Node000002" class="edge">
<title>Node0&#45;&gt;Node2</title>
<g id="a_edge24_Node000000_Node000002"><a xlink:title=" ">
<path fill="none" stroke="#63b8ff" d="M91.53,-511.4C107.13,-516.74 125.42,-522.96 142,-528.5 151.66,-531.73 161.93,-535.13 171.91,-538.41"/>
<polygon fill="#63b8ff" stroke="#63b8ff" points="92.31,-507.97 81.72,-508.04 90.04,-514.59 92.31,-507.97"/>
</a>
</g>
</g>
<!-- Node3 -->
<g id="Node000003" class="node">
<title>Node3</title>
<g id="a_Node000003"><a xlink:href="structcsl_1_1mp_1_1type__traits_1_1is__homogeneous_3_01T_01_4.html" target="_top" xlink:title=" ">
<polygon fill="white" stroke="#666666" points="298.5,-411.5 164.5,-411.5 164.5,-381.5 298.5,-381.5 298.5,-411.5"/>
<text text-anchor="start" x="172.5" y="-399.5" font-family="Helvetica,sans-Serif" font-size="10.00">csl::mp::type_traits</text>
<text text-anchor="middle" x="231.5" y="-388.5" font-family="Helvetica,sans-Serif" font-size="10.00">::is_homogeneous&lt; T &gt;</text>
</a>
</g>
</g>
<!-- Node0&#45;&gt;Node3 -->
<g id="edge25_Node000000_Node000003" class="edge">
<title>Node0&#45;&gt;Node3</title>
<g id="a_edge25_Node000000_Node000003"><a xlink:title=" ">
<path fill="none" stroke="#63b8ff" d="M69.24,-480.88C85.54,-463.13 112.98,-436.17 142,-420.5 149,-416.72 156.65,-413.5 164.42,-410.77"/>
<polygon fill="#63b8ff" stroke="#63b8ff" points="66.24,-478.99 62.18,-488.77 71.46,-483.66 66.24,-478.99"/>
</a>
</g>
</g>
<!-- Node12 -->
<g id="Node000012" class="node">
<title>Node12</title>
<g id="a_Node000012"><a xlink:href="structcsl_1_1mp_1_1type__traits_1_1is__uniqued_3_01std_1_1array_3_01T_00_01N_01_4_01_4.html" target="_top" xlink:title=" ">
<polygon fill="white" stroke="#666666" points="298,-519 165,-519 165,-478 298,-478 298,-519"/>
<text text-anchor="start" x="173" y="-507" font-family="Helvetica,sans-Serif" font-size="10.00">csl::mp::type_traits</text>
<text text-anchor="start" x="173" y="-496" font-family="Helvetica,sans-Serif" font-size="10.00">::is_uniqued&lt; std::array</text>
<text text-anchor="middle" x="231.5" y="-485" font-family="Helvetica,sans-Serif" font-size="10.00">&lt; T, N &gt; &gt;</text>
</a>
</g>
</g>
<!-- Node0&#45;&gt;Node12 -->
<g id="edge26_Node000000_Node000012" class="edge">
<title>Node0&#45;&gt;Node12</title>
<g id="a_edge26_Node000000_Node000012"><a xlink:title=" ">
<path fill="none" stroke="#63b8ff" d="M116.15,-498.5C131.89,-498.5 148.84,-498.5 164.75,-498.5"/>
<polygon fill="#63b8ff" stroke="#63b8ff" points="116,-495 106,-498.5 116,-502 116,-495"/>
</a>
</g>
</g>
<!-- Node13 -->
<g id="Node000013" class="node">
<title>Node13</title>
<g id="a_Node000013"><a xlink:href="structcsl_1_1mp_1_1type__traits_1_1negate_1_1type.html" target="_top" xlink:title=" ">
<polygon fill="white" stroke="#666666" points="302,-459.5 161,-459.5 161,-429.5 302,-429.5 302,-459.5"/>
<text text-anchor="start" x="169" y="-447.5" font-family="Helvetica,sans-Serif" font-size="10.00">csl::mp::type_traits</text>
<text text-anchor="middle" x="231.5" y="-436.5" font-family="Helvetica,sans-Serif" font-size="10.00">::negate&lt; P &gt;::type&lt; T &gt;</text>
</a>
</g>
</g>
<!-- Node0&#45;&gt;Node13 -->
<g id="edge27_Node000000_Node000013" class="edge">
<title>Node0&#45;&gt;Node13</title>
<g id="a_edge27_Node000000_Node000013"><a xlink:title=" ">
<path fill="none" stroke="#63b8ff" d="M91.8,-485.65C107.31,-480.48 125.47,-474.56 142,-469.5 152.84,-466.18 164.47,-462.79 175.63,-459.6"/>
<polygon fill="#63b8ff" stroke="#63b8ff" points="90.41,-482.42 82.04,-488.92 92.63,-489.06 90.41,-482.42"/>
</a>
</g>
</g>
<!-- Node4 -->
<g id="Node000004" class="node">
<title>Node4</title>
<g id="a_Node000004"><a xlink:title=" ">
<polygon fill="#e0e0e0" stroke="#999999" points="95,-226 11,-226 11,-207 95,-207 95,-226"/>
<text text-anchor="middle" x="53" y="-214" font-family="Helvetica,sans-Serif" font-size="10.00">std::true_type</text>
</a>
</g>
</g>
<!-- Node4&#45;&gt;Node3 -->
<g id="edge32_Node000004_Node000003" class="edge">
<title>Node4&#45;&gt;Node3</title>
<g id="a_edge32_Node000004_Node000003"><a xlink:title=" ">
<path fill="none" stroke="#63b8ff" d="M59.6,-236.2C70.09,-269.46 95.91,-336.65 142,-372.5 148.66,-377.68 156.36,-381.74 164.37,-384.93"/>
<polygon fill="#63b8ff" stroke="#63b8ff" points="62.86,-234.88 56.62,-226.31 56.15,-236.89 62.86,-234.88"/>
</a>
</g>
</g>
<!-- Node5 -->
<g id="Node000005" class="node">
<title>Node5</title>
<g id="a_Node000005"><a xlink:href="structcsl_1_1mp_1_1is__index__sequence_3_01std_1_1index__sequence_3_01Is_8_8_8_01_4_01_4.html" target="_top" xlink:title=" ">
<polygon fill="white" stroke="#666666" points="321,-363.5 142,-363.5 142,-333.5 321,-333.5 321,-363.5"/>
<text text-anchor="start" x="150" y="-351.5" font-family="Helvetica,sans-Serif" font-size="10.00">csl::mp::is_index_sequence</text>
<text text-anchor="middle" x="231.5" y="-340.5" font-family="Helvetica,sans-Serif" font-size="10.00">&lt; std::index_sequence&lt; Is... &gt; &gt;</text>
</a>
</g>
</g>
<!-- Node4&#45;&gt;Node5 -->
<g id="edge28_Node000004_Node000005" class="edge">
<title>Node4&#45;&gt;Node5</title>
<g id="a_edge28_Node000004_Node000005"><a xlink:title=" ">
<path fill="none" stroke="#63b8ff" d="M64.22,-235.21C78.45,-259.49 106.52,-301.46 142,-324.5 147.34,-327.97 153.17,-330.94 159.21,-333.48"/>
<polygon fill="#63b8ff" stroke="#63b8ff" points="67.13,-233.24 59.14,-226.28 61.04,-236.7 67.13,-233.24"/>
</a>
</g>
</g>
<!-- Node6 -->
<g id="Node000006" class="node">
<title>Node6</title>
<g id="a_Node000006"><a xlink:href="structcsl_1_1mp_1_1is__sequence_3_01std_1_1integer__sequence_3_01T_00_01values_8_8_8_01_4_01_4.html" target="_top" xlink:title=" ">
<polygon fill="white" stroke="#666666" points="299,-315 164,-315 164,-274 299,-274 299,-315"/>
<text text-anchor="start" x="172" y="-303" font-family="Helvetica,sans-Serif" font-size="10.00">csl::mp::is_sequence</text>
<text text-anchor="start" x="172" y="-292" font-family="Helvetica,sans-Serif" font-size="10.00">&lt; std::integer_sequence</text>
<text text-anchor="middle" x="231.5" y="-281" font-family="Helvetica,sans-Serif" font-size="10.00">&lt; T, values... &gt; &gt;</text>
</a>
</g>
</g>
<!-- Node4&#45;&gt;Node6 -->
<g id="edge29_Node000004_Node000006" class="edge">
<title>Node4&#45;&gt;Node6</title>
<g id="a_edge29_Node000004_Node000006"><a xlink:title=" ">
<path fill="none" stroke="#63b8ff" d="M78.38,-231.28C95.73,-241.43 119.81,-254.77 142,-264.5 149.58,-267.82 157.65,-271.01 165.72,-273.99"/>
<polygon fill="#63b8ff" stroke="#63b8ff" points="79.87,-228.1 69.48,-226.01 76.3,-234.12 79.87,-228.1"/>
</a>
</g>
</g>
<!-- Node7 -->
<g id="Node000007" class="node">
<title>Node7</title>
<g id="a_Node000007"><a xlink:href="structcsl_1_1mp_1_1is__tuple_3_01tuple_3_01Ts_8_8_8_01_4_01_4.html" target="_top" xlink:title=" ">
<polygon fill="white" stroke="#666666" points="283.5,-255.5 179.5,-255.5 179.5,-225.5 283.5,-225.5 283.5,-255.5"/>
<text text-anchor="start" x="187.5" y="-243.5" font-family="Helvetica,sans-Serif" font-size="10.00">csl::mp::is_tuple&lt;</text>
<text text-anchor="middle" x="231.5" y="-232.5" font-family="Helvetica,sans-Serif" font-size="10.00"> tuple&lt; Ts... &gt; &gt;</text>
</a>
</g>
</g>
<!-- Node4&#45;&gt;Node7 -->
<g id="edge30_Node000004_Node000007" class="edge">
<title>Node4&#45;&gt;Node7</title>
<g id="a_edge30_Node000004_Node000007"><a xlink:title=" ">
<path fill="none" stroke="#63b8ff" d="M105.4,-223.49C128.65,-226.65 156.05,-230.38 179.28,-233.54"/>
<polygon fill="#63b8ff" stroke="#63b8ff" points="105.76,-220.01 95.38,-222.13 104.82,-226.94 105.76,-220.01"/>
</a>
</g>
</g>
<!-- Node8 -->
<g id="Node000008" class="node">
<title>Node8</title>
<g id="a_Node000008"><a xlink:href="structcsl_1_1mp_1_1type__traits_1_1contains_3_01tuple__type_00_01T_01_4.html" target="_top" xlink:title=" ">
<polygon fill="white" stroke="#666666" points="306.5,-207.5 156.5,-207.5 156.5,-177.5 306.5,-177.5 306.5,-207.5"/>
<text text-anchor="start" x="164.5" y="-195.5" font-family="Helvetica,sans-Serif" font-size="10.00">csl::mp::type_traits</text>
<text text-anchor="middle" x="231.5" y="-184.5" font-family="Helvetica,sans-Serif" font-size="10.00">::contains&lt; tuple_type, T &gt;</text>
</a>
</g>
</g>
<!-- Node4&#45;&gt;Node8 -->
<g id="edge31_Node000004_Node000008" class="edge">
<title>Node4&#45;&gt;Node8</title>
<g id="a_edge31_Node000004_Node000008"><a xlink:title=" ">
<path fill="none" stroke="#63b8ff" d="M105.49,-209.5C121.34,-207.34 139.11,-204.93 156.17,-202.61"/>
<polygon fill="#63b8ff" stroke="#63b8ff" points="104.82,-206.06 95.38,-210.87 105.76,-212.99 104.82,-206.06"/>
</a>
</g>
</g>
<!-- Node9 -->
<g id="Node000009" class="node">
<title>Node9</title>
<g id="a_Node000009"><a xlink:href="structcsl_1_1mp_1_1type__traits_1_1is__instance_3_01pack__type_00_01pack__type_3_01Ts_8_8_8_01_4_01_4.html" target="_top" xlink:title=" ">
<polygon fill="white" stroke="#666666" points="302.5,-159 160.5,-159 160.5,-118 302.5,-118 302.5,-159"/>
<text text-anchor="start" x="168.5" y="-147" font-family="Helvetica,sans-Serif" font-size="10.00">csl::mp::type_traits</text>
<text text-anchor="start" x="168.5" y="-136" font-family="Helvetica,sans-Serif" font-size="10.00">::is_instance&lt; pack_type,</text>
<text text-anchor="middle" x="231.5" y="-125" font-family="Helvetica,sans-Serif" font-size="10.00"> pack_type&lt; Ts... &gt; &gt;</text>
</a>
</g>
</g>
<!-- Node4&#45;&gt;Node9 -->
<g id="edge33_Node000004_Node000009" class="edge">
<title>Node4&#45;&gt;Node9</title>
<g id="a_edge33_Node000004_Node000009"><a xlink:title=" ">
<path fill="none" stroke="#63b8ff" d="M78.38,-201.72C95.73,-191.57 119.81,-178.23 142,-168.5 149.58,-165.18 157.65,-161.99 165.72,-159.01"/>
<polygon fill="#63b8ff" stroke="#63b8ff" points="76.3,-198.88 69.48,-206.99 79.87,-204.9 76.3,-198.88"/>
</a>
</g>
</g>
<!-- Node10 -->
<g id="Node000010" class="node">
<title>Node10</title>
<g id="a_Node000010"><a xlink:href="structcsl_1_1mp_1_1type__traits_1_1is__same__template_3_01T_3_01Ts_8_8_8_01_4_00_01T_3_01Us_8_8_8_01_4_01_4.html" target="_top" xlink:title=" ">
<polygon fill="white" stroke="#666666" points="296.5,-100 166.5,-100 166.5,-59 296.5,-59 296.5,-100"/>
<text text-anchor="start" x="174.5" y="-88" font-family="Helvetica,sans-Serif" font-size="10.00">csl::mp::type_traits</text>
<text text-anchor="start" x="174.5" y="-77" font-family="Helvetica,sans-Serif" font-size="10.00">::is_same_template&lt; T</text>
<text text-anchor="middle" x="231.5" y="-66" font-family="Helvetica,sans-Serif" font-size="10.00">&lt; Ts... &gt;, T&lt; Us... &gt; &gt;</text>
</a>
</g>
</g>
<!-- Node4&#45;&gt;Node10 -->
<g id="edge34_Node000004_Node000010" class="edge">
<title>Node4&#45;&gt;Node10</title>
<g id="a_edge34_Node000004_Node000010"><a xlink:title=" ">
<path fill="none" stroke="#63b8ff" d="M64.48,-198.29C79,-174.6 107.39,-133.42 142,-109.5 149.34,-104.43 157.61,-100.15 166.08,-96.56"/>
<polygon fill="#63b8ff" stroke="#63b8ff" points="61.4,-196.61 59.29,-207 67.42,-200.2 61.4,-196.61"/>
</a>
</g>
</g>
<!-- Node11 -->
<g id="Node000011" class="node">
<title>Node11</title>
<g id="a_Node000011"><a xlink:href="structcsl_1_1mp_1_1type__traits_1_1is__std__array_3_01std_1_1array_3_01T_00_01N_01_4_01_4.html" target="_top" xlink:title=" ">
<polygon fill="white" stroke="#666666" points="288.5,-41 174.5,-41 174.5,0 288.5,0 288.5,-41"/>
<text text-anchor="start" x="182.5" y="-29" font-family="Helvetica,sans-Serif" font-size="10.00">csl::mp::type_traits</text>
<text text-anchor="start" x="182.5" y="-18" font-family="Helvetica,sans-Serif" font-size="10.00">::is_std_array&lt; std::</text>
<text text-anchor="middle" x="231.5" y="-7" font-family="Helvetica,sans-Serif" font-size="10.00">array&lt; T, N &gt; &gt;</text>
</a>
</g>
</g>
<!-- Node4&#45;&gt;Node11 -->
<g id="edge35_Node000004_Node000011" class="edge">
<title>Node4&#45;&gt;Node11</title>
<g id="a_edge35_Node000004_Node000011"><a xlink:title=" ">
<path fill="none" stroke="#63b8ff" d="M58.98,-197.15C68.89,-162.51 94.33,-89.76 142,-49.5 151.27,-41.68 162.7,-35.95 174.23,-31.76"/>
<polygon fill="#63b8ff" stroke="#63b8ff" points="55.56,-196.4 56.3,-206.97 62.31,-198.24 55.56,-196.4"/>
</a>
</g>
</g>
</g>
</svg>
