<?xml version="1.0" encoding="UTF-8" standalone="no"?>
<!DOCTYPE svg PUBLIC "-//W3C//DTD SVG 1.1//EN"
 "http://www.w3.org/Graphics/SVG/1.1/DTD/svg11.dtd">
<!-- Generated by graphviz version 2.43.0 (0)
 -->
<!-- Title: Graphical Class Hierarchy Pages: 1 -->
<svg width="336pt" height="409pt"
 viewBox="0.00 0.00 336.00 409.00" xmlns="http://www.w3.org/2000/svg" xmlns:xlink="http://www.w3.org/1999/xlink">
<g id="graph0" class="graph" transform="scale(1 1) rotate(0) translate(4 405)">
<title>Graphical Class Hierarchy</title>
<!-- Node0 -->
<g id="Node000000" class="node">
<title>Node0</title>
<g id="a_Node000000"><a xlink:title=" ">
<polygon fill="#e0e0e0" stroke="#999999" points="122,-194.5 0,-194.5 0,-175.5 122,-175.5 122,-194.5"/>
<text text-anchor="middle" x="61" y="-182.5" font-family="Helvetica,sans-Serif" font-size="10.00">std::integral_constant</text>
</a>
</g>
</g>
<!-- Node1 -->
<g id="Node000001" class="node">
<title>Node1</title>
<g id="a_Node000001"><a xlink:href="structcsl_1_1mp_1_1at_3_01index_00_01std_1_1integer__sequence_3_01T_00_01values_8_8_8_01_4_01_4.html" target="_top" xlink:title=" ">
<polygon fill="white" stroke="#666666" points="306.5,-352.5 179.5,-352.5 179.5,-311.5 306.5,-311.5 306.5,-352.5"/>
<text text-anchor="start" x="187.5" y="-340.5" font-family="Helvetica,sans-Serif" font-size="10.00">csl::mp::at&lt; index,</text>
<text text-anchor="start" x="187.5" y="-329.5" font-family="Helvetica,sans-Serif" font-size="10.00"> std::integer_sequence</text>
<text text-anchor="middle" x="243" y="-318.5" font-family="Helvetica,sans-Serif" font-size="10.00">&lt; T, values... &gt; &gt;</text>
</a>
</g>
</g>
<!-- Node0&#45;&gt;Node1 -->
<g id="edge52_Node000000_Node000001" class="edge">
<title>Node0&#45;&gt;Node1</title>
<g id="a_edge52_Node000000_Node000001"><a xlink:title=" ">
<path fill="none" stroke="#63b8ff" d="M72.59,-203.37C88.2,-228.91 119.71,-275.04 158,-302 164.46,-306.55 171.68,-310.47 179.1,-313.84"/>
<polygon fill="#63b8ff" stroke="#63b8ff" points="75.54,-201.47 67.41,-194.67 69.52,-205.05 75.54,-201.47"/>
</a>
</g>
</g>
<!-- Node2 -->
<g id="Node000002" class="node">
<title>Node2</title>
<g id="a_Node000002"><a xlink:href="structcsl_1_1mp_1_1size_3_01std_1_1integer__sequence_3_01T_00_01values_8_8_8_01_4_01_4.html" target="_top" xlink:title=" ">
<polygon fill="white" stroke="#666666" points="301.5,-293.5 184.5,-293.5 184.5,-252.5 301.5,-252.5 301.5,-293.5"/>
<text text-anchor="start" x="192.5" y="-281.5" font-family="Helvetica,sans-Serif" font-size="10.00">csl::mp::size&lt; std</text>
<text text-anchor="start" x="192.5" y="-270.5" font-family="Helvetica,sans-Serif" font-size="10.00">::integer_sequence&lt;</text>
<text text-anchor="middle" x="243" y="-259.5" font-family="Helvetica,sans-Serif" font-size="10.00"> T, values... &gt; &gt;</text>
</a>
</g>
</g>
<!-- Node0&#45;&gt;Node2 -->
<g id="edge53_Node000000_Node000002" class="edge">
<title>Node0&#45;&gt;Node2</title>
<g id="a_edge53_Node000000_Node000002"><a xlink:title=" ">
<path fill="none" stroke="#63b8ff" d="M84.35,-200.27C103.37,-212.82 131.7,-230.51 158,-243 166.39,-246.98 175.47,-250.75 184.44,-254.18"/>
<polygon fill="#63b8ff" stroke="#63b8ff" points="86.08,-197.21 75.82,-194.57 82.19,-203.03 86.08,-197.21"/>
</a>
</g>
</g>
<!-- Node3 -->
<g id="Node000003" class="node">
<title>Node3</title>
<g id="a_Node000003"><a xlink:href="structcsl_1_1mp_1_1type__traits_1_1count_3_01std_1_1array_3_01value__type_00_01N_01_4_00_01T_01_4.html" target="_top" xlink:title=" ">
<polygon fill="white" stroke="#666666" points="304,-234.5 182,-234.5 182,-193.5 304,-193.5 304,-234.5"/>
<text text-anchor="start" x="190" y="-222.5" font-family="Helvetica,sans-Serif" font-size="10.00">csl::mp::type_traits</text>
<text text-anchor="start" x="190" y="-211.5" font-family="Helvetica,sans-Serif" font-size="10.00">::count&lt; std::array&lt;</text>
<text text-anchor="middle" x="243" y="-200.5" font-family="Helvetica,sans-Serif" font-size="10.00"> value_type, N &gt;, T &gt;</text>
</a>
</g>
</g>
<!-- Node0&#45;&gt;Node3 -->
<g id="edge54_Node000000_Node000003" class="edge">
<title>Node0&#45;&gt;Node3</title>
<g id="a_edge54_Node000000_Node000003"><a xlink:title=" ">
<path fill="none" stroke="#63b8ff" d="M131.59,-196.21C148.12,-198.87 165.62,-201.69 181.7,-204.29"/>
<polygon fill="#63b8ff" stroke="#63b8ff" points="131.87,-192.71 121.44,-194.58 130.75,-199.62 131.87,-192.71"/>
</a>
</g>
</g>
<!-- Node4 -->
<g id="Node000004" class="node">
<title>Node4</title>
<g id="a_Node000004"><a xlink:href="structcsl_1_1mp_1_1type__traits_1_1count_3_01tuple__type_00_01T_01_4.html" target="_top" xlink:title=" ">
<polygon fill="white" stroke="#666666" points="311,-401 175,-401 175,-371 311,-371 311,-401"/>
<text text-anchor="start" x="183" y="-389" font-family="Helvetica,sans-Serif" font-size="10.00">csl::mp::type_traits</text>
<text text-anchor="middle" x="243" y="-378" font-family="Helvetica,sans-Serif" font-size="10.00">::count&lt; tuple_type, T &gt;</text>
</a>
</g>
</g>
<!-- Node0&#45;&gt;Node4 -->
<g id="edge55_Node000000_Node000004" class="edge">
<title>Node0&#45;&gt;Node4</title>
<g id="a_edge55_Node000000_Node000004"><a xlink:title=" ">
<path fill="none" stroke="#63b8ff" d="M67.16,-204.71C77.79,-241.34 105.61,-319.97 158,-362 163.09,-366.08 168.84,-369.47 174.88,-372.28"/>
<polygon fill="#63b8ff" stroke="#63b8ff" points="70.45,-203.48 64.41,-194.78 63.71,-205.35 70.45,-203.48"/>
</a>
</g>
</g>
<!-- Node6 -->
<g id="Node000006" class="node">
<title>Node6</title>
<g id="a_Node000006"><a xlink:href="structcsl_1_1mp_1_1type__traits_1_1count__if_3_01std_1_1array_3_01value__type_00_01N_01_4_00_01predicate_01_4.html" target="_top" xlink:title=" ">
<polygon fill="white" stroke="#666666" points="328,-175.5 158,-175.5 158,-134.5 328,-134.5 328,-175.5"/>
<text text-anchor="start" x="166" y="-163.5" font-family="Helvetica,sans-Serif" font-size="10.00">csl::mp::type_traits</text>
<text text-anchor="start" x="166" y="-152.5" font-family="Helvetica,sans-Serif" font-size="10.00">::count_if&lt; std::array</text>
<text text-anchor="middle" x="243" y="-141.5" font-family="Helvetica,sans-Serif" font-size="10.00">&lt; value_type, N &gt;, predicate &gt;</text>
</a>
</g>
</g>
<!-- Node0&#45;&gt;Node6 -->
<g id="edge56_Node000000_Node000006" class="edge">
<title>Node0&#45;&gt;Node6</title>
<g id="a_edge56_Node000000_Node000006"><a xlink:title=" ">
<path fill="none" stroke="#63b8ff" d="M129.38,-173.77C138.68,-172.22 148.32,-170.61 157.87,-169.02"/>
<polygon fill="#63b8ff" stroke="#63b8ff" points="128.74,-170.33 119.45,-175.43 129.89,-177.23 128.74,-170.33"/>
</a>
</g>
</g>
<!-- Node7 -->
<g id="Node000007" class="node">
<title>Node7</title>
<g id="a_Node000007"><a xlink:href="structcsl_1_1mp_1_1type__traits_1_1empty_3_01T_01_4.html" target="_top" xlink:title=" ">
<polygon fill="white" stroke="#666666" points="298,-116 188,-116 188,-86 298,-86 298,-116"/>
<text text-anchor="start" x="196" y="-104" font-family="Helvetica,sans-Serif" font-size="10.00">csl::mp::type_traits</text>
<text text-anchor="middle" x="243" y="-93" font-family="Helvetica,sans-Serif" font-size="10.00">::empty&lt; T &gt;</text>
</a>
</g>
</g>
<!-- Node0&#45;&gt;Node7 -->
<g id="edge57_Node000000_Node000007" class="edge">
<title>Node0&#45;&gt;Node7</title>
<g id="a_edge57_Node000000_Node000007"><a xlink:title=" ">
<path fill="none" stroke="#63b8ff" d="M82.85,-169.56C101.67,-156.21 130.56,-137.2 158,-125 167.42,-120.81 177.77,-117.15 187.88,-114.04"/>
<polygon fill="#63b8ff" stroke="#63b8ff" points="80.77,-166.74 74.7,-175.42 84.86,-172.42 80.77,-166.74"/>
</a>
</g>
</g>
<!-- Node8 -->
<g id="Node000008" class="node">
<title>Node8</title>
<g id="a_Node000008"><a xlink:href="structindexing_1_1index__t.html" target="_top" xlink:title=" ">
<polygon fill="white" stroke="#666666" points="308.5,-67.5 177.5,-67.5 177.5,-48.5 308.5,-48.5 308.5,-67.5"/>
<text text-anchor="middle" x="243" y="-55.5" font-family="Helvetica,sans-Serif" font-size="10.00">indexing::index_t&lt; N &gt;</text>
</a>
</g>
</g>
<!-- Node0&#45;&gt;Node8 -->
<g id="edge58_Node000000_Node000008" class="edge">
<title>Node0&#45;&gt;Node8</title>
<g id="a_edge58_Node000000_Node000008"><a xlink:title=" ">
<path fill="none" stroke="#63b8ff" d="M72.98,-166.76C88.66,-142.35 119.86,-99.52 158,-77 164.57,-73.12 171.85,-70.04 179.31,-67.58"/>
<polygon fill="#63b8ff" stroke="#63b8ff" points="69.9,-165.08 67.57,-175.42 75.83,-168.79 69.9,-165.08"/>
</a>
</g>
</g>
<!-- Node9 -->
<g id="Node000009" class="node">
<title>Node9</title>
<g id="a_Node000009"><a xlink:href="structstd_1_1tuple__size_3_01csl_1_1mp_1_1tuple_3_01Ts_8_8_8_01_4_01_4.html" target="_top" xlink:title=" ">
<polygon fill="white" stroke="#666666" points="304,-30 182,-30 182,0 304,0 304,-30"/>
<text text-anchor="start" x="190" y="-18" font-family="Helvetica,sans-Serif" font-size="10.00">std::tuple_size&lt; csl</text>
<text text-anchor="middle" x="243" y="-7" font-family="Helvetica,sans-Serif" font-size="10.00">::mp::tuple&lt; Ts... &gt; &gt;</text>
</a>
</g>
</g>
<!-- Node0&#45;&gt;Node9 -->
<g id="edge59_Node000000_Node000009" class="edge">
<title>Node0&#45;&gt;Node9</title>
<g id="a_edge59_Node000000_Node000009"><a xlink:title=" ">
<path fill="none" stroke="#63b8ff" d="M69.23,-166.16C82.17,-134.93 112.32,-72.57 158,-39 165.09,-33.79 173.28,-29.71 181.7,-26.51"/>
<polygon fill="#63b8ff" stroke="#63b8ff" points="65.97,-164.88 65.5,-175.47 72.46,-167.49 65.97,-164.88"/>
</a>
</g>
</g>
<!-- Node5 -->
<g id="Node000005" class="node">
<title>Node5</title>
<g id="a_Node000005"><a xlink:title=" ">
<polygon fill="#e0e0e0" stroke="#999999" points="122,-401 0,-401 0,-371 122,-371 122,-401"/>
<text text-anchor="start" x="8" y="-389" font-family="Helvetica,sans-Serif" font-size="10.00">std::integral_constant</text>
<text text-anchor="middle" x="61" y="-378" font-family="Helvetica,sans-Serif" font-size="10.00"> std::size_t</text>
</a>
</g>
</g>
<!-- Node5&#45;&gt;Node4 -->
<g id="edge60_Node000005_Node000004" class="edge">
<title>Node5&#45;&gt;Node4</title>
<g id="a_edge60_Node000005_Node000004"><a xlink:title=" ">
<path fill="none" stroke="#63b8ff" d="M132.23,-386C146.21,-386 160.86,-386 174.73,-386"/>
<polygon fill="#63b8ff" stroke="#63b8ff" points="132.19,-382.5 122.19,-386 132.19,-389.5 132.19,-382.5"/>
</a>
</g>
</g>
</g>
</svg>
