<?xml version="1.0" encoding="UTF-8" standalone="no"?>
<!DOCTYPE svg PUBLIC "-//W3C//DTD SVG 1.1//EN"
 "http://www.w3.org/Graphics/SVG/1.1/DTD/svg11.dtd">
<!-- Generated by graphviz version 2.43.0 (0)
 -->
<!-- Title: Graphical Class Hierarchy Pages: 1 -->
<svg width="616pt" height="417pt"
 viewBox="0.00 0.00 616.00 417.00" xmlns="http://www.w3.org/2000/svg" xmlns:xlink="http://www.w3.org/1999/xlink">
<g id="graph0" class="graph" transform="scale(1 1) rotate(0) translate(4 413)">
<title>Graphical Class Hierarchy</title>
<!-- Node0 -->
<g id="Node000000" class="node">
<title>Node0</title>
<g id="a_Node000000"><a xlink:title=" ">
<polygon fill="#e0e0e0" stroke="#999999" points="81,-207.5 0,-207.5 0,-188.5 81,-188.5 81,-207.5"/>
<text text-anchor="middle" x="40.5" y="-195.5" font-family="Helvetica,sans-Serif" font-size="10.00">type_identity</text>
</a>
</g>
</g>
<!-- Node1 -->
<g id="Node000001" class="node">
<title>Node1</title>
<g id="a_Node000001"><a xlink:href="structP1450_1_1add__const.html" target="_top" xlink:title=" ">
<polygon fill="white" stroke="#666666" points="257,-409 126,-409 126,-379 257,-379 257,-409"/>
<text text-anchor="start" x="134" y="-397" font-family="Helvetica,sans-Serif" font-size="10.00">P1450::add_const&lt; add</text>
<text text-anchor="middle" x="191.5" y="-386" font-family="Helvetica,sans-Serif" font-size="10.00">_volatile&lt; T &gt;::type &gt;</text>
</a>
</g>
</g>
<!-- Node0&#45;&gt;Node1 -->
<g id="edge92_Node000000_Node000001" class="edge">
<title>Node0&#45;&gt;Node1</title>
<g id="a_edge92_Node000000_Node000001"><a xlink:title=" ">
<path fill="none" stroke="#63b8ff" d="M44.77,-217.88C51.66,-253.49 71,-328.3 117,-370 120.78,-373.43 125.06,-376.36 129.6,-378.88"/>
<polygon fill="#63b8ff" stroke="#63b8ff" points="48.17,-217.01 42.95,-207.79 41.28,-218.25 48.17,-217.01"/>
</a>
</g>
</g>
<!-- Node3 -->
<g id="Node000003" class="node">
<title>Node3</title>
<g id="a_Node000003"><a xlink:href="structP1450_1_1add__const.html" target="_top" xlink:title=" ">
<polygon fill="white" stroke="#666666" points="258.5,-360.5 124.5,-360.5 124.5,-341.5 258.5,-341.5 258.5,-360.5"/>
<text text-anchor="middle" x="191.5" y="-348.5" font-family="Helvetica,sans-Serif" font-size="10.00">P1450::add_const&lt; to &gt;</text>
</a>
</g>
</g>
<!-- Node0&#45;&gt;Node3 -->
<g id="edge94_Node000000_Node000003" class="edge">
<title>Node0&#45;&gt;Node3</title>
<g id="a_edge94_Node000000_Node000003"><a xlink:title=" ">
<path fill="none" stroke="#63b8ff" d="M47.02,-217.37C56.4,-246.75 78.33,-302.27 117,-332 122.02,-335.86 127.73,-338.93 133.72,-341.39"/>
<polygon fill="#63b8ff" stroke="#63b8ff" points="50.28,-216.06 44.02,-207.5 43.58,-218.09 50.28,-216.06"/>
</a>
</g>
</g>
<!-- Node5 -->
<g id="Node000005" class="node">
<title>Node5</title>
<g id="a_Node000005"><a xlink:href="structP1450_1_1add__const.html" target="_top" xlink:title=" ">
<polygon fill="white" stroke="#666666" points="257,-323 126,-323 126,-293 257,-293 257,-323"/>
<text text-anchor="start" x="134" y="-311" font-family="Helvetica,sans-Serif" font-size="10.00">P1450::add_const&lt; add</text>
<text text-anchor="middle" x="191.5" y="-300" font-family="Helvetica,sans-Serif" font-size="10.00">_volatile&lt; to &gt;::type &gt;</text>
</a>
</g>
</g>
<!-- Node0&#45;&gt;Node5 -->
<g id="edge96_Node000000_Node000005" class="edge">
<title>Node0&#45;&gt;Node5</title>
<g id="a_edge96_Node000000_Node000005"><a xlink:title=" ">
<path fill="none" stroke="#63b8ff" d="M52.96,-216.03C66.18,-235.44 89.63,-265.95 117,-284 122.15,-287.4 127.83,-290.35 133.67,-292.91"/>
<polygon fill="#63b8ff" stroke="#63b8ff" points="55.76,-213.91 47.33,-207.5 49.92,-217.77 55.76,-213.91"/>
</a>
</g>
</g>
<!-- Node6 -->
<g id="Node000006" class="node">
<title>Node6</title>
<g id="a_Node000006"><a xlink:href="structP1450_1_1add__volatile.html" target="_top" xlink:title=" ">
<polygon fill="white" stroke="#666666" points="248,-275 135,-275 135,-245 248,-245 248,-275"/>
<text text-anchor="start" x="143" y="-263" font-family="Helvetica,sans-Serif" font-size="10.00">P1450::add_volatile</text>
<text text-anchor="middle" x="191.5" y="-252" font-family="Helvetica,sans-Serif" font-size="10.00">&lt; to &gt;</text>
</a>
</g>
</g>
<!-- Node0&#45;&gt;Node6 -->
<g id="edge97_Node000000_Node000006" class="edge">
<title>Node0&#45;&gt;Node6</title>
<g id="a_edge97_Node000000_Node000006"><a xlink:title=" ">
<path fill="none" stroke="#63b8ff" d="M68.7,-212.38C82.9,-219.61 100.67,-228.25 117,-235 125.35,-238.45 134.36,-241.8 143.12,-244.88"/>
<polygon fill="#63b8ff" stroke="#63b8ff" points="70,-209.11 59.51,-207.64 66.79,-215.33 70,-209.11"/>
</a>
</g>
</g>
<!-- Node8 -->
<g id="Node000008" class="node">
<title>Node8</title>
<g id="a_Node000008"><a xlink:href="structP1450_1_1add__const.html" target="_top" xlink:title=" ">
<polygon fill="white" stroke="#666666" points="257,-226.5 126,-226.5 126,-207.5 257,-207.5 257,-226.5"/>
<text text-anchor="middle" x="191.5" y="-214.5" font-family="Helvetica,sans-Serif" font-size="10.00">P1450::add_const&lt; T &gt;</text>
</a>
</g>
</g>
<!-- Node0&#45;&gt;Node8 -->
<g id="edge99_Node000000_Node000008" class="edge">
<title>Node0&#45;&gt;Node8</title>
<g id="a_edge99_Node000000_Node000008"><a xlink:title=" ">
<path fill="none" stroke="#63b8ff" d="M91.04,-204.32C102.24,-205.74 114.28,-207.28 125.99,-208.77"/>
<polygon fill="#63b8ff" stroke="#63b8ff" points="91.4,-200.83 81.04,-203.04 90.52,-207.78 91.4,-200.83"/>
</a>
</g>
</g>
<!-- Node11 -->
<g id="Node000011" class="node">
<title>Node11</title>
<g id="a_Node000011"><a xlink:href="structP1450_1_1add__const_3_01T_01_6_01_4.html" target="_top" xlink:title=" ">
<polygon fill="white" stroke="#666666" points="262,-189.5 121,-189.5 121,-170.5 262,-170.5 262,-189.5"/>
<text text-anchor="middle" x="191.5" y="-177.5" font-family="Helvetica,sans-Serif" font-size="10.00">P1450::add_const&lt; T &amp; &gt;</text>
</a>
</g>
</g>
<!-- Node0&#45;&gt;Node11 -->
<g id="edge102_Node000000_Node000011" class="edge">
<title>Node0&#45;&gt;Node11</title>
<g id="a_edge102_Node000000_Node000011"><a xlink:title=" ">
<path fill="none" stroke="#63b8ff" d="M91.1,-192.01C100.63,-190.86 110.78,-189.63 120.81,-188.42"/>
<polygon fill="#63b8ff" stroke="#63b8ff" points="90.55,-188.55 81.04,-193.22 91.39,-195.5 90.55,-188.55"/>
</a>
</g>
</g>
<!-- Node12 -->
<g id="Node000012" class="node">
<title>Node12</title>
<g id="a_Node000012"><a xlink:href="structP1450_1_1add__const_3_01T_01_6_6_01_4.html" target="_top" xlink:title=" ">
<polygon fill="white" stroke="#666666" points="266,-152.5 117,-152.5 117,-133.5 266,-133.5 266,-152.5"/>
<text text-anchor="middle" x="191.5" y="-140.5" font-family="Helvetica,sans-Serif" font-size="10.00">P1450::add_const&lt; T &amp;&amp; &gt;</text>
</a>
</g>
</g>
<!-- Node0&#45;&gt;Node12 -->
<g id="edge103_Node000000_Node000012" class="edge">
<title>Node0&#45;&gt;Node12</title>
<g id="a_edge103_Node000000_Node000012"><a xlink:title=" ">
<path fill="none" stroke="#63b8ff" d="M67.62,-183.46C81.89,-175.97 100.05,-167.15 117,-161 125.89,-157.78 135.6,-154.94 144.95,-152.53"/>
<polygon fill="#63b8ff" stroke="#63b8ff" points="65.59,-180.58 58.43,-188.39 68.9,-186.75 65.59,-180.58"/>
</a>
</g>
</g>
<!-- Node13 -->
<g id="Node000013" class="node">
<title>Node13</title>
<g id="a_Node000013"><a xlink:href="structP1450_1_1add__volatile.html" target="_top" xlink:title=" ">
<polygon fill="white" stroke="#666666" points="262,-115.5 121,-115.5 121,-96.5 262,-96.5 262,-115.5"/>
<text text-anchor="middle" x="191.5" y="-103.5" font-family="Helvetica,sans-Serif" font-size="10.00">P1450::add_volatile&lt; T &gt;</text>
</a>
</g>
</g>
<!-- Node0&#45;&gt;Node13 -->
<g id="edge104_Node000000_Node000013" class="edge">
<title>Node0&#45;&gt;Node13</title>
<g id="a_edge104_Node000000_Node000013"><a xlink:title=" ">
<path fill="none" stroke="#63b8ff" d="M54.76,-180.37C68.48,-163.38 91.46,-138.21 117,-124 123.08,-120.61 129.8,-117.86 136.62,-115.62"/>
<polygon fill="#63b8ff" stroke="#63b8ff" points="51.87,-178.38 48.46,-188.41 57.38,-182.69 51.87,-178.38"/>
</a>
</g>
</g>
<!-- Node14 -->
<g id="Node000014" class="node">
<title>Node14</title>
<g id="a_Node000014"><a xlink:href="structP1450_1_1add__volatile_3_01T_01_6_01_4.html" target="_top" xlink:title=" ">
<polygon fill="white" stroke="#666666" points="248,-78 135,-78 135,-48 248,-48 248,-78"/>
<text text-anchor="start" x="143" y="-66" font-family="Helvetica,sans-Serif" font-size="10.00">P1450::add_volatile</text>
<text text-anchor="middle" x="191.5" y="-55" font-family="Helvetica,sans-Serif" font-size="10.00">&lt; T &amp; &gt;</text>
</a>
</g>
</g>
<!-- Node0&#45;&gt;Node14 -->
<g id="edge105_Node000000_Node000014" class="edge">
<title>Node0&#45;&gt;Node14</title>
<g id="a_edge105_Node000000_Node000014"><a xlink:title=" ">
<path fill="none" stroke="#63b8ff" d="M49.6,-179.05C61.09,-154.38 84.4,-111.51 117,-87 122.37,-82.97 128.44,-79.59 134.74,-76.78"/>
<polygon fill="#63b8ff" stroke="#63b8ff" points="46.3,-177.85 45.41,-188.41 52.69,-180.72 46.3,-177.85"/>
</a>
</g>
</g>
<!-- Node15 -->
<g id="Node000015" class="node">
<title>Node15</title>
<g id="a_Node000015"><a xlink:href="structP1450_1_1add__volatile_3_01T_01_6_6_01_4.html" target="_top" xlink:title=" ">
<polygon fill="white" stroke="#666666" points="248,-30 135,-30 135,0 248,0 248,-30"/>
<text text-anchor="start" x="143" y="-18" font-family="Helvetica,sans-Serif" font-size="10.00">P1450::add_volatile</text>
<text text-anchor="middle" x="191.5" y="-7" font-family="Helvetica,sans-Serif" font-size="10.00">&lt; T &amp;&amp; &gt;</text>
</a>
</g>
</g>
<!-- Node0&#45;&gt;Node15 -->
<g id="edge106_Node000000_Node000015" class="edge">
<title>Node0&#45;&gt;Node15</title>
<g id="a_edge106_Node000000_Node000015"><a xlink:title=" ">
<path fill="none" stroke="#63b8ff" d="M45.55,-178.22C53.42,-144.75 73.92,-76.9 117,-39 122.24,-34.39 128.38,-30.66 134.85,-27.65"/>
<polygon fill="#63b8ff" stroke="#63b8ff" points="42.09,-177.64 43.35,-188.16 48.93,-179.15 42.09,-177.64"/>
</a>
</g>
</g>
<!-- Node2 -->
<g id="Node000002" class="node">
<title>Node2</title>
<g id="a_Node000002"><a xlink:href="structP1450_1_1add__cv.html" target="_top" xlink:title=" ">
<polygon fill="white" stroke="#666666" points="430,-403.5 314,-403.5 314,-384.5 430,-384.5 430,-403.5"/>
<text text-anchor="middle" x="372" y="-391.5" font-family="Helvetica,sans-Serif" font-size="10.00">P1450::add_cv&lt; T &gt;</text>
</a>
</g>
</g>
<!-- Node1&#45;&gt;Node2 -->
<g id="edge93_Node000001_Node000002" class="edge">
<title>Node1&#45;&gt;Node2</title>
<g id="a_edge93_Node000001_Node000002"><a xlink:title=" ">
<path fill="none" stroke="#63b8ff" d="M267.33,-394C282.91,-394 299.09,-394 313.91,-394"/>
<polygon fill="#63b8ff" stroke="#63b8ff" points="267.2,-390.5 257.19,-394 267.19,-397.5 267.2,-390.5"/>
</a>
</g>
</g>
<!-- Node4 -->
<g id="Node000004" class="node">
<title>Node4</title>
<g id="a_Node000004"><a xlink:href="structP1450_1_1copy__cv_3_01const_01from_00_01to_01_4.html" target="_top" xlink:title=" ">
<polygon fill="white" stroke="#666666" points="437,-366 307,-366 307,-336 437,-336 437,-366"/>
<text text-anchor="start" x="315" y="-354" font-family="Helvetica,sans-Serif" font-size="10.00">P1450::copy_cv&lt; const</text>
<text text-anchor="middle" x="372" y="-343" font-family="Helvetica,sans-Serif" font-size="10.00"> from, to &gt;</text>
</a>
</g>
</g>
<!-- Node3&#45;&gt;Node4 -->
<g id="edge95_Node000003_Node000004" class="edge">
<title>Node3&#45;&gt;Node4</title>
<g id="a_edge95_Node000003_Node000004"><a xlink:title=" ">
<path fill="none" stroke="#63b8ff" d="M268.81,-351C281.53,-351 294.6,-351 306.97,-351"/>
<polygon fill="#63b8ff" stroke="#63b8ff" points="268.71,-347.5 258.71,-351 268.71,-354.5 268.71,-347.5"/>
</a>
</g>
</g>
<!-- Node7 -->
<g id="Node000007" class="node">
<title>Node7</title>
<g id="a_Node000007"><a xlink:href="structP1450_1_1copy__cv_3_01volatile_01from_00_01to_01_4.html" target="_top" xlink:title=" ">
<polygon fill="white" stroke="#666666" points="442,-275 302,-275 302,-245 442,-245 442,-275"/>
<text text-anchor="start" x="310" y="-263" font-family="Helvetica,sans-Serif" font-size="10.00">P1450::copy_cv&lt; volatile</text>
<text text-anchor="middle" x="372" y="-252" font-family="Helvetica,sans-Serif" font-size="10.00"> from, to &gt;</text>
</a>
</g>
</g>
<!-- Node6&#45;&gt;Node7 -->
<g id="edge98_Node000006_Node000007" class="edge">
<title>Node6&#45;&gt;Node7</title>
<g id="a_edge98_Node000006_Node000007"><a xlink:title=" ">
<path fill="none" stroke="#63b8ff" d="M258.15,-260C272.33,-260 287.37,-260 301.68,-260"/>
<polygon fill="#63b8ff" stroke="#63b8ff" points="258,-256.5 248,-260 258,-263.5 258,-256.5"/>
</a>
</g>
</g>
<!-- Node9 -->
<g id="Node000009" class="node">
<title>Node9</title>
<g id="a_Node000009"><a xlink:href="structP1450_1_1add__cv.html" target="_top" xlink:title=" ">
<polygon fill="white" stroke="#666666" points="431.5,-226.5 312.5,-226.5 312.5,-207.5 431.5,-207.5 431.5,-226.5"/>
<text text-anchor="middle" x="372" y="-214.5" font-family="Helvetica,sans-Serif" font-size="10.00">P1450::add_cv&lt; to &gt;</text>
</a>
</g>
</g>
<!-- Node8&#45;&gt;Node9 -->
<g id="edge100_Node000008_Node000009" class="edge">
<title>Node8&#45;&gt;Node9</title>
<g id="a_edge100_Node000008_Node000009"><a xlink:title=" ">
<path fill="none" stroke="#63b8ff" d="M267.48,-217C282.51,-217 298.08,-217 312.45,-217"/>
<polygon fill="#63b8ff" stroke="#63b8ff" points="267.2,-213.5 257.19,-217 267.19,-220.5 267.2,-213.5"/>
</a>
</g>
</g>
<!-- Node10 -->
<g id="Node000010" class="node">
<title>Node10</title>
<g id="a_Node000010"><a xlink:href="structP1450_1_1copy__cv_3_01const_01volatile_01from_00_01to_01_4.html" target="_top" xlink:title=" ">
<polygon fill="white" stroke="#666666" points="608,-232 478,-232 478,-202 608,-202 608,-232"/>
<text text-anchor="start" x="486" y="-220" font-family="Helvetica,sans-Serif" font-size="10.00">P1450::copy_cv&lt; const</text>
<text text-anchor="middle" x="543" y="-209" font-family="Helvetica,sans-Serif" font-size="10.00"> volatile from, to &gt;</text>
</a>
</g>
</g>
<!-- Node9&#45;&gt;Node10 -->
<g id="edge101_Node000009_Node000010" class="edge">
<title>Node9&#45;&gt;Node10</title>
<g id="a_edge101_Node000009_Node000010"><a xlink:title=" ">
<path fill="none" stroke="#63b8ff" d="M441.97,-217C453.88,-217 466.22,-217 477.99,-217"/>
<polygon fill="#63b8ff" stroke="#63b8ff" points="441.63,-213.5 431.63,-217 441.63,-220.5 441.63,-213.5"/>
</a>
</g>
</g>
</g>
</svg>
