<?xml version="1.0" encoding="UTF-8" standalone="no"?>
<!DOCTYPE svg PUBLIC "-//W3C//DTD SVG 1.1//EN"
 "http://www.w3.org/Graphics/SVG/1.1/DTD/svg11.dtd">
<!-- Generated by graphviz version 2.43.0 (0)
 -->
<!-- Title: Graphical Class Hierarchy Pages: 1 -->
<svg width="586pt" height="254pt"
 viewBox="0.00 0.00 586.00 254.00" xmlns="http://www.w3.org/2000/svg" xmlns:xlink="http://www.w3.org/1999/xlink">
<g id="graph0" class="graph" transform="scale(1 1) rotate(0) translate(4 250)">
<title>Graphical Class Hierarchy</title>
<!-- Node0 -->
<g id="Node000000" class="node">
<title>Node0</title>
<g id="a_Node000000"><a xlink:title=" ">
<polygon fill="#e0e0e0" stroke="#999999" points="162.5,-188 68.5,-188 68.5,-169 162.5,-169 162.5,-188"/>
<text text-anchor="middle" x="115.5" y="-176" font-family="Helvetica,sans-Serif" font-size="10.00">csl::mp::index_t</text>
</a>
</g>
</g>
<!-- Node1 -->
<g id="Node000001" class="node">
<title>Node1</title>
<g id="a_Node000001"><a xlink:href="structcsl_1_1mp_1_1type__traits_1_1index__of_3_01std_1_1array_3_01T_00_01N_01_4_00_01T_01_4.html" target="_top" xlink:title=" ">
<polygon fill="white" stroke="#666666" points="403.5,-246 281.5,-246 281.5,-205 403.5,-205 403.5,-246"/>
<text text-anchor="start" x="289.5" y="-234" font-family="Helvetica,sans-Serif" font-size="10.00">csl::mp::type_traits</text>
<text text-anchor="start" x="289.5" y="-223" font-family="Helvetica,sans-Serif" font-size="10.00">::index_of&lt; std::array</text>
<text text-anchor="middle" x="342.5" y="-212" font-family="Helvetica,sans-Serif" font-size="10.00">&lt; T, N &gt;, T &gt;</text>
</a>
</g>
</g>
<!-- Node0&#45;&gt;Node1 -->
<g id="edge1_Node000000_Node000001" class="edge">
<title>Node0&#45;&gt;Node1</title>
<g id="a_edge1_Node000000_Node000001"><a xlink:title=" ">
<path fill="none" stroke="#63b8ff" d="M172,-190.09C205.11,-197.01 247.16,-205.79 281.1,-212.88"/>
<polygon fill="#63b8ff" stroke="#63b8ff" points="172.54,-186.63 162.03,-188.01 171.11,-193.48 172.54,-186.63"/>
</a>
</g>
</g>
<!-- Node2 -->
<g id="Node000002" class="node">
<title>Node2</title>
<g id="a_Node000002"><a xlink:href="structcsl_1_1mp_1_1type__traits_1_1index__of_3_01tuple__type_00_01T_01_4.html" target="_top" xlink:title=" ">
<polygon fill="white" stroke="#666666" points="418,-103.5 267,-103.5 267,-73.5 418,-73.5 418,-103.5"/>
<text text-anchor="start" x="275" y="-91.5" font-family="Helvetica,sans-Serif" font-size="10.00">csl::mp::type_traits</text>
<text text-anchor="middle" x="342.5" y="-80.5" font-family="Helvetica,sans-Serif" font-size="10.00">::index_of&lt; tuple_type, T &gt;</text>
</a>
</g>
</g>
<!-- Node0&#45;&gt;Node2 -->
<g id="edge2_Node000000_Node000002" class="edge">
<title>Node0&#45;&gt;Node2</title>
<g id="a_edge2_Node000000_Node000002"><a xlink:title=" ">
<path fill="none" stroke="#63b8ff" d="M172.53,-174.47C191.54,-171.86 212.61,-167.56 231,-160.5 233.4,-159.58 287.06,-124.36 318.7,-103.53"/>
<polygon fill="#63b8ff" stroke="#63b8ff" points="171.99,-171.01 162.5,-175.72 172.86,-177.95 171.99,-171.01"/>
</a>
</g>
</g>
<!-- Node6 -->
<g id="Node000006" class="node">
<title>Node6</title>
<g id="a_Node000006"><a xlink:href="structcsl_1_1mp_1_1type__traits_1_1last__index__of_3_01std_1_1array_3_01T_00_01N_01_4_00_01T_01_4.html" target="_top" xlink:title=" ">
<polygon fill="white" stroke="#666666" points="399.5,-187 285.5,-187 285.5,-146 399.5,-146 399.5,-187"/>
<text text-anchor="start" x="293.5" y="-175" font-family="Helvetica,sans-Serif" font-size="10.00">csl::mp::type_traits</text>
<text text-anchor="start" x="293.5" y="-164" font-family="Helvetica,sans-Serif" font-size="10.00">::last_index_of&lt; std</text>
<text text-anchor="middle" x="342.5" y="-153" font-family="Helvetica,sans-Serif" font-size="10.00">::array&lt; T, N &gt;, T &gt;</text>
</a>
</g>
</g>
<!-- Node0&#45;&gt;Node6 -->
<g id="edge4_Node000000_Node000006" class="edge">
<title>Node0&#45;&gt;Node6</title>
<g id="a_edge4_Node000000_Node000006"><a xlink:title=" ">
<path fill="none" stroke="#63b8ff" d="M172.9,-175.49C207.19,-173.66 250.83,-171.34 285.12,-169.51"/>
<polygon fill="#63b8ff" stroke="#63b8ff" points="172.37,-172.01 162.58,-176.04 172.75,-179.01 172.37,-172.01"/>
</a>
</g>
</g>
<!-- Node3 -->
<g id="Node000003" class="node">
<title>Node3</title>
<g id="a_Node000003"><a xlink:href="structcsl_1_1mp_1_1type__traits_1_1last__index__of_3_01tuple__type_00_01T_01_4.html" target="_top" xlink:title=" ">
<polygon fill="white" stroke="#666666" points="578,-85 454,-85 454,-44 578,-44 578,-85"/>
<text text-anchor="start" x="462" y="-73" font-family="Helvetica,sans-Serif" font-size="10.00">csl::mp::type_traits</text>
<text text-anchor="start" x="462" y="-62" font-family="Helvetica,sans-Serif" font-size="10.00">::last_index_of&lt; tuple</text>
<text text-anchor="middle" x="516" y="-51" font-family="Helvetica,sans-Serif" font-size="10.00">_type, T &gt;</text>
</a>
</g>
</g>
<!-- Node2&#45;&gt;Node3 -->
<g id="edge3_Node000002_Node000003" class="edge">
<title>Node2&#45;&gt;Node3</title>
<g id="a_edge3_Node000002_Node000003"><a xlink:title=" ">
<path fill="none" stroke="#63b8ff" d="M428.32,-76.63C436.95,-75.42 445.59,-74.21 453.89,-73.05"/>
<polygon fill="#63b8ff" stroke="#63b8ff" points="427.64,-73.19 418.22,-78.04 428.61,-80.12 427.64,-73.19"/>
</a>
</g>
</g>
<!-- Node5 -->
<g id="Node000005" class="node">
<title>Node5</title>
<g id="a_Node000005"><a xlink:title=" ">
<polygon fill="#e0e0e0" stroke="#999999" points="231,-151 0,-151 0,0 231,0 231,-151"/>
<text text-anchor="start" x="8" y="-139" font-family="Helvetica,sans-Serif" font-size="10.00">csl::mp::index_t&lt;[]</text>
<text text-anchor="start" x="8" y="-128" font-family="Helvetica,sans-Serif" font-size="10.00">&lt; std::size_t ... indexes</text>
<text text-anchor="start" x="8" y="-117" font-family="Helvetica,sans-Serif" font-size="10.00"> &gt;(std::index_sequence&lt;</text>
<text text-anchor="start" x="8" y="-106" font-family="Helvetica,sans-Serif" font-size="10.00"> indexes... &gt;){ constexpr</text>
<text text-anchor="start" x="8" y="-95" font-family="Helvetica,sans-Serif" font-size="10.00"> bool matches[]={ std::is</text>
<text text-anchor="start" x="8" y="-84" font-family="Helvetica,sans-Serif" font-size="10.00">_same_v&lt; T, std::tuple_element</text>
<text text-anchor="start" x="8" y="-73" font-family="Helvetica,sans-Serif" font-size="10.00">_t&lt; indexes, std::remove_cvref</text>
<text text-anchor="start" x="8" y="-62" font-family="Helvetica,sans-Serif" font-size="10.00">_t&lt; tuple_type &gt; &gt; &gt;... };for(std</text>
<text text-anchor="start" x="8" y="-51" font-family="Helvetica,sans-Serif" font-size="10.00">::size_t i=0;i&lt; sizeof...(indexes)</text>
<text text-anchor="start" x="8" y="-40" font-family="Helvetica,sans-Serif" font-size="10.00">;++i) if(matches[i]) return i;return</text>
<text text-anchor="start" x="8" y="-29" font-family="Helvetica,sans-Serif" font-size="10.00"> sizeof...(indexes);}(std::make_index</text>
<text text-anchor="start" x="8" y="-18" font-family="Helvetica,sans-Serif" font-size="10.00">_sequence&lt; std::tuple_size_v&lt; std::remove</text>
<text text-anchor="middle" x="115.5" y="-7" font-family="Helvetica,sans-Serif" font-size="10.00">_cvref_t&lt; tuple_type &gt; &gt; &gt;{}) &gt;</text>
</a>
</g>
</g>
<!-- Node5&#45;&gt;Node2 -->
<g id="edge5_Node000005_Node000002" class="edge">
<title>Node5&#45;&gt;Node2</title>
<g id="a_edge5_Node000005_Node000002"><a xlink:title=" ">
<path fill="none" stroke="#63b8ff" d="M241.43,-82.72C250.03,-83.22 258.53,-83.71 266.73,-84.18"/>
<polygon fill="#63b8ff" stroke="#63b8ff" points="241.49,-79.22 231.31,-82.13 241.09,-86.2 241.49,-79.22"/>
</a>
</g>
</g>
<!-- Node4 -->
<g id="Node000004" class="node">
<title>Node4</title>
<g id="a_Node000004"><a xlink:title=" ">
<polygon fill="#e0e0e0" stroke="#999999" points="398.5,-55.5 286.5,-55.5 286.5,-25.5 398.5,-25.5 398.5,-55.5"/>
<text text-anchor="start" x="294.5" y="-43.5" font-family="Helvetica,sans-Serif" font-size="10.00">csl::mp::index_t std</text>
<text text-anchor="middle" x="342.5" y="-32.5" font-family="Helvetica,sans-Serif" font-size="10.00">::size_t</text>
</a>
</g>
</g>
<!-- Node4&#45;&gt;Node3 -->
<g id="edge6_Node000004_Node000003" class="edge">
<title>Node4&#45;&gt;Node3</title>
<g id="a_edge6_Node000004_Node000003"><a xlink:title=" ">
<path fill="none" stroke="#63b8ff" d="M408.81,-49.64C423.63,-51.71 439.32,-53.91 453.95,-55.96"/>
<polygon fill="#63b8ff" stroke="#63b8ff" points="409.1,-46.15 398.71,-48.23 408.13,-53.08 409.1,-46.15"/>
</a>
</g>
</g>
</g>
</svg>
