<?xml version="1.0" encoding="UTF-8" standalone="no"?>
<!DOCTYPE svg PUBLIC "-//W3C//DTD SVG 1.1//EN"
 "http://www.w3.org/Graphics/SVG/1.1/DTD/svg11.dtd">
<!-- Generated by graphviz version 2.43.0 (0)
 -->
<!-- Title: Graphical Class Hierarchy Pages: 1 -->
<svg width="325pt" height="1160pt"
 viewBox="0.00 0.00 325.00 1160.00" xmlns="http://www.w3.org/2000/svg" xmlns:xlink="http://www.w3.org/1999/xlink">
<g id="graph0" class="graph" transform="scale(1 1) rotate(0) translate(4 1156)">
<title>Graphical Class Hierarchy</title>
<!-- Node0 -->
<g id="Node000000" class="node">
<title>Node0</title>
<g id="a_Node000000"><a xlink:title=" ">
<polygon fill="#e0e0e0" stroke="#999999" points="102,-590 0,-590 0,-571 102,-571 102,-590"/>
<text text-anchor="middle" x="51" y="-578" font-family="Helvetica,sans-Serif" font-size="10.00">std::type_identity</text>
</a>
</g>
</g>
<!-- Node1 -->
<g id="Node000001" class="node">
<title>Node1</title>
<g id="a_Node000001"><a xlink:href="structcsl_1_1mp_1_1element_3_01I_00_01std_1_1integer__sequence_3_01T_00_01values_8_8_8_01_4_01_4.html" target="_top" xlink:title=" ">
<polygon fill="white" stroke="#666666" points="291,-1152 164,-1152 164,-1111 291,-1111 291,-1152"/>
<text text-anchor="start" x="172" y="-1140" font-family="Helvetica,sans-Serif" font-size="10.00">csl::mp::element&lt; I,</text>
<text text-anchor="start" x="172" y="-1129" font-family="Helvetica,sans-Serif" font-size="10.00"> std::integer_sequence</text>
<text text-anchor="middle" x="227.5" y="-1118" font-family="Helvetica,sans-Serif" font-size="10.00">&lt; T, values... &gt; &gt;</text>
</a>
</g>
</g>
<!-- Node0&#45;&gt;Node1 -->
<g id="edge72_Node000000_Node000001" class="edge">
<title>Node0&#45;&gt;Node1</title>
<g id="a_edge72_Node000000_Node000001"><a xlink:title=" ">
<path fill="none" stroke="#63b8ff" d="M52.59,-600.13C55.52,-685.63 71.28,-1024.67 138,-1102.5 144.84,-1110.48 153.91,-1116.28 163.64,-1120.48"/>
<polygon fill="#63b8ff" stroke="#63b8ff" points="56.08,-599.88 52.26,-590 49.08,-600.11 56.08,-599.88"/>
</a>
</g>
</g>
<!-- Node2 -->
<g id="Node000002" class="node">
<title>Node2</title>
<g id="a_Node000002"><a xlink:href="structcsl_1_1mp_1_1member__value_3_01I_00_01std_1_1integer__sequence_3_01T_00_01values_8_8_8_01_4_01_4.html" target="_top" xlink:title=" ">
<polygon fill="white" stroke="#666666" points="299.5,-1093 155.5,-1093 155.5,-1052 299.5,-1052 299.5,-1093"/>
<text text-anchor="start" x="163.5" y="-1081" font-family="Helvetica,sans-Serif" font-size="10.00">csl::mp::member_value</text>
<text text-anchor="start" x="163.5" y="-1070" font-family="Helvetica,sans-Serif" font-size="10.00">&lt; I, std::integer_sequence</text>
<text text-anchor="middle" x="227.5" y="-1059" font-family="Helvetica,sans-Serif" font-size="10.00">&lt; T, values... &gt; &gt;</text>
</a>
</g>
</g>
<!-- Node0&#45;&gt;Node2 -->
<g id="edge73_Node000000_Node000002" class="edge">
<title>Node0&#45;&gt;Node2</title>
<g id="a_edge73_Node000000_Node000002"><a xlink:title=" ">
<path fill="none" stroke="#63b8ff" d="M53.04,-600.15C57.62,-679.52 78.47,-975.48 138,-1043.5 142.9,-1049.1 148.89,-1053.62 155.43,-1057.27"/>
<polygon fill="#63b8ff" stroke="#63b8ff" points="56.53,-599.85 52.48,-590.06 49.54,-600.24 56.53,-599.85"/>
</a>
</g>
</g>
<!-- Node3 -->
<g id="Node000003" class="node">
<title>Node3</title>
<g id="a_Node000003"><a xlink:href="structcsl_1_1mp_1_1type__traits_1_1apply__result.html" target="_top" xlink:title=" ">
<polygon fill="white" stroke="#666666" points="287,-1034 168,-1034 168,-993 287,-993 287,-1034"/>
<text text-anchor="start" x="176" y="-1022" font-family="Helvetica,sans-Serif" font-size="10.00">csl::mp::type_traits</text>
<text text-anchor="start" x="176" y="-1011" font-family="Helvetica,sans-Serif" font-size="10.00">::apply_result&lt; tuple</text>
<text text-anchor="middle" x="227.5" y="-1000" font-family="Helvetica,sans-Serif" font-size="10.00">_type, F &gt;</text>
</a>
</g>
</g>
<!-- Node0&#45;&gt;Node3 -->
<g id="edge74_Node000000_Node000003" class="edge">
<title>Node0&#45;&gt;Node3</title>
<g id="a_edge74_Node000000_Node000003"><a xlink:title=" ">
<path fill="none" stroke="#63b8ff" d="M53.64,-600.4C60.05,-673.53 85.68,-926.27 138,-984.5 145.89,-993.28 156.47,-999.41 167.58,-1003.69"/>
<polygon fill="#63b8ff" stroke="#63b8ff" points="57.11,-599.92 52.78,-590.26 50.14,-600.52 57.11,-599.92"/>
</a>
</g>
</g>
<!-- Node4 -->
<g id="Node000004" class="node">
<title>Node4</title>
<g id="a_Node000004"><a xlink:href="structcsl_1_1mp_1_1type__traits_1_1filter_3_01std_1_1array_3_01T_00_01N_01_4_00_01predicate_01_4.html" target="_top" xlink:title=" ">
<polygon fill="white" stroke="#666666" points="288.5,-975 166.5,-975 166.5,-934 288.5,-934 288.5,-975"/>
<text text-anchor="start" x="174.5" y="-963" font-family="Helvetica,sans-Serif" font-size="10.00">csl::mp::type_traits</text>
<text text-anchor="start" x="174.5" y="-952" font-family="Helvetica,sans-Serif" font-size="10.00">::filter&lt; std::array</text>
<text text-anchor="middle" x="227.5" y="-941" font-family="Helvetica,sans-Serif" font-size="10.00">&lt; T, N &gt;, predicate &gt;</text>
</a>
</g>
</g>
<!-- Node0&#45;&gt;Node4 -->
<g id="edge75_Node000000_Node000004" class="edge">
<title>Node0&#45;&gt;Node4</title>
<g id="a_edge75_Node000000_Node000004"><a xlink:title=" ">
<path fill="none" stroke="#63b8ff" d="M54.42,-600.4C62.84,-666.43 92.79,-876.89 138,-925.5 145.71,-933.79 155.82,-939.71 166.44,-943.94"/>
<polygon fill="#63b8ff" stroke="#63b8ff" points="57.85,-599.62 53.14,-590.13 50.91,-600.49 57.85,-599.62"/>
</a>
</g>
</g>
<!-- Node5 -->
<g id="Node000005" class="node">
<title>Node5</title>
<g id="a_Node000005"><a xlink:href="structcsl_1_1mp_1_1type__traits_1_1filter_3_01std_1_1pair_3_01Ts_8_8_8_01_4_00_01predicate_01_4.html" target="_top" xlink:title=" ">
<polygon fill="white" stroke="#666666" points="284,-916 171,-916 171,-875 284,-875 284,-916"/>
<text text-anchor="start" x="179" y="-904" font-family="Helvetica,sans-Serif" font-size="10.00">csl::mp::type_traits</text>
<text text-anchor="start" x="179" y="-893" font-family="Helvetica,sans-Serif" font-size="10.00">::filter&lt; std::pair&lt;</text>
<text text-anchor="middle" x="227.5" y="-882" font-family="Helvetica,sans-Serif" font-size="10.00"> Ts... &gt;, predicate &gt;</text>
</a>
</g>
</g>
<!-- Node0&#45;&gt;Node5 -->
<g id="edge76_Node000000_Node000005" class="edge">
<title>Node0&#45;&gt;Node5</title>
<g id="a_edge76_Node000000_Node000005"><a xlink:title=" ">
<path fill="none" stroke="#63b8ff" d="M52.03,-600.28C53.18,-651.55 63.43,-790.08 138,-866.5 146.92,-875.64 158.76,-881.9 170.87,-886.19"/>
<polygon fill="#63b8ff" stroke="#63b8ff" points="55.52,-600.16 51.89,-590.2 48.52,-600.25 55.52,-600.16"/>
</a>
</g>
</g>
<!-- Node6 -->
<g id="Node000006" class="node">
<title>Node6</title>
<g id="a_Node000006"><a xlink:href="structcsl_1_1mp_1_1type__traits_1_1for__each__enumerate__nttp__result.html" target="_top" xlink:title=" ">
<polygon fill="white" stroke="#666666" points="289,-857 166,-857 166,-816 289,-816 289,-857"/>
<text text-anchor="start" x="174" y="-845" font-family="Helvetica,sans-Serif" font-size="10.00">csl::mp::type_traits</text>
<text text-anchor="start" x="174" y="-834" font-family="Helvetica,sans-Serif" font-size="10.00">::for_each_enumerate</text>
<text text-anchor="middle" x="227.5" y="-823" font-family="Helvetica,sans-Serif" font-size="10.00">_nttp_result&lt; T, F &gt;</text>
</a>
</g>
</g>
<!-- Node0&#45;&gt;Node6 -->
<g id="edge77_Node000000_Node000006" class="edge">
<title>Node0&#45;&gt;Node6</title>
<g id="a_edge77_Node000000_Node000006"><a xlink:title=" ">
<path fill="none" stroke="#63b8ff" d="M53.86,-600.5C59,-644.32 77.3,-749.5 138,-807.5 145.83,-814.98 155.63,-820.54 165.82,-824.66"/>
<polygon fill="#63b8ff" stroke="#63b8ff" points="57.31,-599.88 52.78,-590.3 50.35,-600.61 57.31,-599.88"/>
</a>
</g>
</g>
<!-- Node7 -->
<g id="Node000007" class="node">
<title>Node7</title>
<g id="a_Node000007"><a xlink:href="structcsl_1_1mp_1_1type__traits_1_1for__each__enumerate__result.html" target="_top" xlink:title=" ">
<polygon fill="white" stroke="#666666" points="289,-798 166,-798 166,-757 289,-757 289,-798"/>
<text text-anchor="start" x="174" y="-786" font-family="Helvetica,sans-Serif" font-size="10.00">csl::mp::type_traits</text>
<text text-anchor="start" x="174" y="-775" font-family="Helvetica,sans-Serif" font-size="10.00">::for_each_enumerate</text>
<text text-anchor="middle" x="227.5" y="-764" font-family="Helvetica,sans-Serif" font-size="10.00">_result&lt; T, F &gt;</text>
</a>
</g>
</g>
<!-- Node0&#45;&gt;Node7 -->
<g id="edge78_Node000000_Node000007" class="edge">
<title>Node0&#45;&gt;Node7</title>
<g id="a_edge78_Node000000_Node000007"><a xlink:title=" ">
<path fill="none" stroke="#63b8ff" d="M56.78,-599.8C66.32,-634.36 90.95,-706.98 138,-747.5 145.99,-754.38 155.63,-759.7 165.56,-763.81"/>
<polygon fill="#63b8ff" stroke="#63b8ff" points="60.13,-598.78 54.2,-590 53.36,-600.56 60.13,-598.78"/>
</a>
</g>
</g>
<!-- Node8 -->
<g id="Node000008" class="node">
<title>Node8</title>
<g id="a_Node000008"><a xlink:href="structcsl_1_1mp_1_1type__traits_1_1for__each__result.html" target="_top" xlink:title=" ">
<polygon fill="white" stroke="#666666" points="296.5,-738.5 158.5,-738.5 158.5,-708.5 296.5,-708.5 296.5,-738.5"/>
<text text-anchor="start" x="166.5" y="-726.5" font-family="Helvetica,sans-Serif" font-size="10.00">csl::mp::type_traits</text>
<text text-anchor="middle" x="227.5" y="-715.5" font-family="Helvetica,sans-Serif" font-size="10.00">::for_each_result&lt; T, F &gt;</text>
</a>
</g>
</g>
<!-- Node0&#45;&gt;Node8 -->
<g id="edge79_Node000000_Node000008" class="edge">
<title>Node0&#45;&gt;Node8</title>
<g id="a_edge79_Node000000_Node000008"><a xlink:title=" ">
<path fill="none" stroke="#63b8ff" d="M60.62,-599.58C73.58,-626.07 100.61,-673.65 138,-699.5 144.15,-703.76 151.03,-707.26 158.16,-710.14"/>
<polygon fill="#63b8ff" stroke="#63b8ff" points="63.65,-597.79 56.21,-590.24 57.32,-600.78 63.65,-597.79"/>
</a>
</g>
</g>
<!-- Node9 -->
<g id="Node000009" class="node">
<title>Node9</title>
<g id="a_Node000009"><a xlink:href="structcsl_1_1mp_1_1type__traits_1_1pop__back_3_01std_1_1array_3_01T_00_01N_01_4_01_4.html" target="_top" xlink:title=" ">
<polygon fill="white" stroke="#666666" points="291,-690 164,-690 164,-649 291,-649 291,-690"/>
<text text-anchor="start" x="172" y="-678" font-family="Helvetica,sans-Serif" font-size="10.00">csl::mp::type_traits</text>
<text text-anchor="start" x="172" y="-667" font-family="Helvetica,sans-Serif" font-size="10.00">::pop_back&lt; std::array</text>
<text text-anchor="middle" x="227.5" y="-656" font-family="Helvetica,sans-Serif" font-size="10.00">&lt; T, N &gt; &gt;</text>
</a>
</g>
</g>
<!-- Node0&#45;&gt;Node9 -->
<g id="edge80_Node000000_Node000009" class="edge">
<title>Node0&#45;&gt;Node9</title>
<g id="a_edge80_Node000000_Node000009"><a xlink:title=" ">
<path fill="none" stroke="#63b8ff" d="M71.21,-596.38C87.99,-609.62 113.45,-628.25 138,-640.5 146.1,-644.54 154.89,-648.21 163.69,-651.46"/>
<polygon fill="#63b8ff" stroke="#63b8ff" points="73.27,-593.54 63.28,-590 68.88,-599 73.27,-593.54"/>
</a>
</g>
</g>
<!-- Node10 -->
<g id="Node000010" class="node">
<title>Node10</title>
<g id="a_Node000010"><a xlink:href="structcsl_1_1mp_1_1type__traits_1_1pop__front_3_01std_1_1array_3_01T_00_01N_01_4_01_4.html" target="_top" xlink:title=" ">
<polygon fill="white" stroke="#666666" points="291,-631 164,-631 164,-590 291,-590 291,-631"/>
<text text-anchor="start" x="172" y="-619" font-family="Helvetica,sans-Serif" font-size="10.00">csl::mp::type_traits</text>
<text text-anchor="start" x="172" y="-608" font-family="Helvetica,sans-Serif" font-size="10.00">::pop_front&lt; std::array</text>
<text text-anchor="middle" x="227.5" y="-597" font-family="Helvetica,sans-Serif" font-size="10.00">&lt; T, N &gt; &gt;</text>
</a>
</g>
</g>
<!-- Node0&#45;&gt;Node10 -->
<g id="edge81_Node000000_Node000010" class="edge">
<title>Node0&#45;&gt;Node10</title>
<g id="a_edge81_Node000000_Node000010"><a xlink:title=" ">
<path fill="none" stroke="#63b8ff" d="M112.16,-590.84C128.82,-593.71 146.94,-596.82 163.74,-599.71"/>
<polygon fill="#63b8ff" stroke="#63b8ff" points="112.45,-587.34 102,-589.1 111.27,-594.24 112.45,-587.34"/>
</a>
</g>
</g>
<!-- Node11 -->
<g id="Node000011" class="node">
<title>Node11</title>
<g id="a_Node000011"><a xlink:href="structcsl_1_1mp_1_1type__traits_1_1push__back_3_01TTP_3_01Ts_8_8_8_01_4_00_01U_01_4.html" target="_top" xlink:title=" ">
<polygon fill="white" stroke="#666666" points="294.5,-572 160.5,-572 160.5,-531 294.5,-531 294.5,-572"/>
<text text-anchor="start" x="168.5" y="-560" font-family="Helvetica,sans-Serif" font-size="10.00">csl::mp::type_traits</text>
<text text-anchor="start" x="168.5" y="-549" font-family="Helvetica,sans-Serif" font-size="10.00">::push_back&lt; TTP&lt; Ts...</text>
<text text-anchor="middle" x="227.5" y="-538" font-family="Helvetica,sans-Serif" font-size="10.00"> &gt;, U &gt;</text>
</a>
</g>
</g>
<!-- Node0&#45;&gt;Node11 -->
<g id="edge82_Node000000_Node000011" class="edge">
<title>Node0&#45;&gt;Node11</title>
<g id="a_edge82_Node000000_Node000011"><a xlink:title=" ">
<path fill="none" stroke="#63b8ff" d="M112.01,-570.53C127.55,-567.94 144.37,-565.15 160.21,-562.52"/>
<polygon fill="#63b8ff" stroke="#63b8ff" points="111.3,-567.1 102,-572.19 112.44,-574 111.3,-567.1"/>
</a>
</g>
</g>
<!-- Node12 -->
<g id="Node000012" class="node">
<title>Node12</title>
<g id="a_Node000012"><a xlink:href="structcsl_1_1mp_1_1type__traits_1_1push__back_3_01std_1_1array_3_01T_00_01N_01_4_00_01T_01_4.html" target="_top" xlink:title=" ">
<polygon fill="white" stroke="#666666" points="293.5,-513 161.5,-513 161.5,-472 293.5,-472 293.5,-513"/>
<text text-anchor="start" x="169.5" y="-501" font-family="Helvetica,sans-Serif" font-size="10.00">csl::mp::type_traits</text>
<text text-anchor="start" x="169.5" y="-490" font-family="Helvetica,sans-Serif" font-size="10.00">::push_back&lt; std::array</text>
<text text-anchor="middle" x="227.5" y="-479" font-family="Helvetica,sans-Serif" font-size="10.00">&lt; T, N &gt;, T &gt;</text>
</a>
</g>
</g>
<!-- Node0&#45;&gt;Node12 -->
<g id="edge83_Node000000_Node000012" class="edge">
<title>Node0&#45;&gt;Node12</title>
<g id="a_edge83_Node000000_Node000012"><a xlink:title=" ">
<path fill="none" stroke="#63b8ff" d="M71.9,-564.82C88.76,-552.11 113.95,-534.42 138,-522.5 145.41,-518.83 153.39,-515.43 161.4,-512.33"/>
<polygon fill="#63b8ff" stroke="#63b8ff" points="69.71,-562.1 63.9,-570.96 73.97,-567.65 69.71,-562.1"/>
</a>
</g>
</g>
<!-- Node13 -->
<g id="Node000013" class="node">
<title>Node13</title>
<g id="a_Node000013"><a xlink:href="structcsl_1_1mp_1_1type__traits_1_1push__front_3_01TTP_3_01Ts_8_8_8_01_4_00_01U_01_4.html" target="_top" xlink:title=" ">
<polygon fill="white" stroke="#666666" points="294.5,-454 160.5,-454 160.5,-413 294.5,-413 294.5,-454"/>
<text text-anchor="start" x="168.5" y="-442" font-family="Helvetica,sans-Serif" font-size="10.00">csl::mp::type_traits</text>
<text text-anchor="start" x="168.5" y="-431" font-family="Helvetica,sans-Serif" font-size="10.00">::push_front&lt; TTP&lt; Ts...</text>
<text text-anchor="middle" x="227.5" y="-420" font-family="Helvetica,sans-Serif" font-size="10.00"> &gt;, U &gt;</text>
</a>
</g>
</g>
<!-- Node0&#45;&gt;Node13 -->
<g id="edge84_Node000000_Node000013" class="edge">
<title>Node0&#45;&gt;Node13</title>
<g id="a_edge84_Node000000_Node000013"><a xlink:title=" ">
<path fill="none" stroke="#63b8ff" d="M61.13,-561.67C74.53,-535.93 101.9,-489.92 138,-463.5 144.81,-458.52 152.5,-454.32 160.44,-450.8"/>
<polygon fill="#63b8ff" stroke="#63b8ff" points="57.92,-560.26 56.54,-570.76 64.17,-563.41 57.92,-560.26"/>
</a>
</g>
</g>
<!-- Node14 -->
<g id="Node000014" class="node">
<title>Node14</title>
<g id="a_Node000014"><a xlink:href="structcsl_1_1mp_1_1type__traits_1_1push__front_3_01std_1_1array_3_01T_00_01N_01_4_00_01T_01_4.html" target="_top" xlink:title=" ">
<polygon fill="white" stroke="#666666" points="293.5,-395 161.5,-395 161.5,-354 293.5,-354 293.5,-395"/>
<text text-anchor="start" x="169.5" y="-383" font-family="Helvetica,sans-Serif" font-size="10.00">csl::mp::type_traits</text>
<text text-anchor="start" x="169.5" y="-372" font-family="Helvetica,sans-Serif" font-size="10.00">::push_front&lt; std::array</text>
<text text-anchor="middle" x="227.5" y="-361" font-family="Helvetica,sans-Serif" font-size="10.00">&lt; T, N &gt;, T &gt;</text>
</a>
</g>
</g>
<!-- Node0&#45;&gt;Node14 -->
<g id="edge85_Node000000_Node000014" class="edge">
<title>Node0&#45;&gt;Node14</title>
<g id="a_edge85_Node000000_Node000014"><a xlink:title=" ">
<path fill="none" stroke="#63b8ff" d="M56.23,-561.16C65.08,-525.17 88.95,-447.66 138,-404.5 144.82,-398.5 152.89,-393.69 161.34,-389.83"/>
<polygon fill="#63b8ff" stroke="#63b8ff" points="52.82,-560.38 53.95,-570.91 59.63,-561.97 52.82,-560.38"/>
</a>
</g>
</g>
<!-- Node15 -->
<g id="Node000015" class="node">
<title>Node15</title>
<g id="a_Node000015"><a xlink:href="structcsl_1_1mp_1_1type__traits_1_1rebind_3_01csl_1_1mp_1_1tuple_3_01Ts_8_8_8_01_4_00_01Us_8_8_8_01_4.html" target="_top" xlink:title=" ">
<polygon fill="white" stroke="#666666" points="293,-336 162,-336 162,-295 293,-295 293,-336"/>
<text text-anchor="start" x="170" y="-324" font-family="Helvetica,sans-Serif" font-size="10.00">csl::mp::type_traits</text>
<text text-anchor="start" x="170" y="-313" font-family="Helvetica,sans-Serif" font-size="10.00">::rebind&lt; csl::mp::tuple</text>
<text text-anchor="middle" x="227.5" y="-302" font-family="Helvetica,sans-Serif" font-size="10.00">&lt; Ts... &gt;, Us... &gt;</text>
</a>
</g>
</g>
<!-- Node0&#45;&gt;Node15 -->
<g id="edge86_Node000000_Node000015" class="edge">
<title>Node0&#45;&gt;Node15</title>
<g id="a_edge86_Node000000_Node000015"><a xlink:title=" ">
<path fill="none" stroke="#63b8ff" d="M53.58,-560.76C58.21,-516.08 75.66,-406.36 138,-345.5 144.73,-338.93 152.96,-333.79 161.65,-329.78"/>
<polygon fill="#63b8ff" stroke="#63b8ff" points="50.08,-560.6 52.64,-570.88 57.05,-561.24 50.08,-560.6"/>
</a>
</g>
</g>
<!-- Node16 -->
<g id="Node000016" class="node">
<title>Node16</title>
<g id="a_Node000016"><a xlink:href="structcsl_1_1mp_1_1type__traits_1_1rebind_3_01std_1_1array_3_01T_00_01N_01_4_00_01Us__0_00_01Us__N_8_8_8_01_4.html" target="_top" xlink:title=" ">
<polygon fill="white" stroke="#666666" points="297.5,-277 157.5,-277 157.5,-236 297.5,-236 297.5,-277"/>
<text text-anchor="start" x="165.5" y="-265" font-family="Helvetica,sans-Serif" font-size="10.00">csl::mp::type_traits</text>
<text text-anchor="start" x="165.5" y="-254" font-family="Helvetica,sans-Serif" font-size="10.00">::rebind&lt; std::array</text>
<text text-anchor="middle" x="227.5" y="-243" font-family="Helvetica,sans-Serif" font-size="10.00">&lt; T, N &gt;, Us_0, Us_N... &gt;</text>
</a>
</g>
</g>
<!-- Node0&#45;&gt;Node16 -->
<g id="edge87_Node000000_Node000016" class="edge">
<title>Node0&#45;&gt;Node16</title>
<g id="a_edge87_Node000000_Node000016"><a xlink:title=" ">
<path fill="none" stroke="#63b8ff" d="M51.88,-560.58C52.66,-508.3 62.04,-365.73 138,-286.5 143.5,-280.76 150.14,-276.12 157.28,-272.37"/>
<polygon fill="#63b8ff" stroke="#63b8ff" points="48.38,-560.81 51.82,-570.83 55.38,-560.85 48.38,-560.81"/>
</a>
</g>
</g>
<!-- Node17 -->
<g id="Node000017" class="node">
<title>Node17</title>
<g id="a_Node000017"><a xlink:href="structcsl_1_1mp_1_1type__traits_1_1rebind_3_01std_1_1pair_3_01T0_00_01T1_01_4_00_01U0_00_01U1_01_4.html" target="_top" xlink:title=" ">
<polygon fill="white" stroke="#666666" points="284,-218 171,-218 171,-177 284,-177 284,-218"/>
<text text-anchor="start" x="179" y="-206" font-family="Helvetica,sans-Serif" font-size="10.00">csl::mp::type_traits</text>
<text text-anchor="start" x="179" y="-195" font-family="Helvetica,sans-Serif" font-size="10.00">::rebind&lt; std::pair&lt;</text>
<text text-anchor="middle" x="227.5" y="-184" font-family="Helvetica,sans-Serif" font-size="10.00"> T0, T1 &gt;, U0, U1 &gt;</text>
</a>
</g>
</g>
<!-- Node0&#45;&gt;Node17 -->
<g id="edge88_Node000000_Node000017" class="edge">
<title>Node0&#45;&gt;Node17</title>
<g id="a_edge88_Node000000_Node000017"><a xlink:title=" ">
<path fill="none" stroke="#63b8ff" d="M54.27,-561.02C62.4,-494.51 91.99,-277.74 138,-227.5 146.77,-217.93 158.7,-211.41 170.96,-206.97"/>
<polygon fill="#63b8ff" stroke="#63b8ff" points="50.79,-560.65 53.08,-570.99 57.74,-561.48 50.79,-560.65"/>
</a>
</g>
</g>
<!-- Node18 -->
<g id="Node000018" class="node">
<title>Node18</title>
<g id="a_Node000018"><a xlink:href="structcsl_1_1mp_1_1type__traits_1_1rebind_3_01std_1_1tuple_3_01Ts_8_8_8_01_4_00_01Us_8_8_8_01_4.html" target="_top" xlink:title=" ">
<polygon fill="white" stroke="#666666" points="282.5,-159 172.5,-159 172.5,-118 282.5,-118 282.5,-159"/>
<text text-anchor="start" x="180.5" y="-147" font-family="Helvetica,sans-Serif" font-size="10.00">csl::mp::type_traits</text>
<text text-anchor="start" x="180.5" y="-136" font-family="Helvetica,sans-Serif" font-size="10.00">::rebind&lt; std::tuple</text>
<text text-anchor="middle" x="227.5" y="-125" font-family="Helvetica,sans-Serif" font-size="10.00">&lt; Ts... &gt;, Us... &gt;</text>
</a>
</g>
</g>
<!-- Node0&#45;&gt;Node18 -->
<g id="edge89_Node000000_Node000018" class="edge">
<title>Node0&#45;&gt;Node18</title>
<g id="a_edge89_Node000000_Node000018"><a xlink:title=" ">
<path fill="none" stroke="#63b8ff" d="M53.56,-560.71C59.78,-486.84 85,-228.34 138,-168.5 146.93,-158.42 159.37,-151.72 172.11,-147.27"/>
<polygon fill="#63b8ff" stroke="#63b8ff" points="50.05,-560.68 52.73,-570.93 57.03,-561.25 50.05,-560.68"/>
</a>
</g>
</g>
<!-- Node19 -->
<g id="Node000019" class="node">
<title>Node19</title>
<g id="a_Node000019"><a xlink:href="structcsl_1_1mp_1_1type__traits_1_1transform_3_01csl_1_1mp_1_1tuple_3_01Ts_8_8_8_01_4_00_01transformation_01_4.html" target="_top" xlink:title=" ">
<polygon fill="white" stroke="#666666" points="317,-100 138,-100 138,-59 317,-59 317,-100"/>
<text text-anchor="start" x="146" y="-88" font-family="Helvetica,sans-Serif" font-size="10.00">csl::mp::type_traits</text>
<text text-anchor="start" x="146" y="-77" font-family="Helvetica,sans-Serif" font-size="10.00">::transform&lt; csl::mp</text>
<text text-anchor="middle" x="227.5" y="-66" font-family="Helvetica,sans-Serif" font-size="10.00">::tuple&lt; Ts... &gt;, transformation &gt;</text>
</a>
</g>
</g>
<!-- Node0&#45;&gt;Node19 -->
<g id="edge90_Node000000_Node000019" class="edge">
<title>Node0&#45;&gt;Node19</title>
<g id="a_edge90_Node000000_Node000019"><a xlink:title=" ">
<path fill="none" stroke="#63b8ff" d="M53.01,-560.53C57.47,-479.86 77.94,-179.06 138,-109.5 141.07,-105.94 144.59,-102.8 148.4,-100.03"/>
<polygon fill="#63b8ff" stroke="#63b8ff" points="49.5,-560.61 52.46,-570.78 56.49,-560.98 49.5,-560.61"/>
</a>
</g>
</g>
<!-- Node20 -->
<g id="Node000020" class="node">
<title>Node20</title>
<g id="a_Node000020"><a xlink:href="structcsl_1_1mp_1_1type__traits_1_1unfold_3_01destination_3_01Ts_8_8_8_01_4_00_01destination_01_4.html" target="_top" xlink:title=" ">
<polygon fill="white" stroke="#666666" points="292.5,-41 162.5,-41 162.5,0 292.5,0 292.5,-41"/>
<text text-anchor="start" x="170.5" y="-29" font-family="Helvetica,sans-Serif" font-size="10.00">csl::mp::type_traits</text>
<text text-anchor="start" x="170.5" y="-18" font-family="Helvetica,sans-Serif" font-size="10.00">::unfold&lt; destination</text>
<text text-anchor="middle" x="227.5" y="-7" font-family="Helvetica,sans-Serif" font-size="10.00">&lt; Ts... &gt;, destination &gt;</text>
</a>
</g>
</g>
<!-- Node0&#45;&gt;Node20 -->
<g id="edge91_Node000000_Node000020" class="edge">
<title>Node0&#45;&gt;Node20</title>
<g id="a_edge91_Node000000_Node000020"><a xlink:title=" ">
<path fill="none" stroke="#63b8ff" d="M52.55,-560.85C55.37,-474.56 70.71,-130 138,-50.5 144.5,-42.82 153.04,-37.1 162.25,-32.85"/>
<polygon fill="#63b8ff" stroke="#63b8ff" points="49.05,-560.76 52.25,-570.86 56.05,-560.97 49.05,-560.76"/>
</a>
</g>
</g>
</g>
</svg>
