<?xml version="1.0" encoding="UTF-8" standalone="no"?>
<!DOCTYPE svg PUBLIC "-//W3C//DTD SVG 1.1//EN"
 "http://www.w3.org/Graphics/SVG/1.1/DTD/svg11.dtd">
<!-- Generated by graphviz version 2.43.0 (0)
 -->
<!-- Title: Graphical Class Hierarchy Pages: 1 -->
<svg width="445pt" height="146pt"
 viewBox="0.00 0.00 445.00 145.50" xmlns="http://www.w3.org/2000/svg" xmlns:xlink="http://www.w3.org/1999/xlink">
<g id="graph0" class="graph" transform="scale(1 1) rotate(0) translate(4 141.5)">
<title>Graphical Class Hierarchy</title>
<!-- Node0 -->
<g id="Node000000" class="node">
<title>Node0</title>
<g id="a_Node000000"><a xlink:title=" ">
<polygon fill="#e0e0e0" stroke="#999999" points="92,-72.5 0,-72.5 0,-53.5 92,-53.5 92,-72.5"/>
<text text-anchor="middle" x="46" y="-60.5" font-family="Helvetica,sans-Serif" font-size="10.00">std::remove_cv</text>
</a>
</g>
</g>
<!-- Node1 -->
<g id="Node000001" class="node">
<title>Node1</title>
<g id="a_Node000001"><a xlink:href="structP1450_1_1copy__cv.html" target="_top" xlink:title=" ">
<polygon fill="white" stroke="#666666" points="260,-137.5 139,-137.5 139,-96.5 260,-96.5 260,-137.5"/>
<text text-anchor="start" x="147" y="-125.5" font-family="Helvetica,sans-Serif" font-size="10.00">P1450::copy_cv&lt; std</text>
<text text-anchor="start" x="147" y="-114.5" font-family="Helvetica,sans-Serif" font-size="10.00">::remove_reference_t</text>
<text text-anchor="middle" x="199.5" y="-103.5" font-family="Helvetica,sans-Serif" font-size="10.00">&lt; from &gt;, to &gt;</text>
</a>
</g>
</g>
<!-- Node0&#45;&gt;Node1 -->
<g id="edge64_Node000000_Node000001" class="edge">
<title>Node0&#45;&gt;Node1</title>
<g id="a_edge64_Node000000_Node000001"><a xlink:title=" ">
<path fill="none" stroke="#63b8ff" d="M83.41,-75.98C100.65,-82.12 121.65,-89.61 140.97,-96.49"/>
<polygon fill="#63b8ff" stroke="#63b8ff" points="84.33,-72.59 73.74,-72.53 81.98,-79.18 84.33,-72.59"/>
</a>
</g>
</g>
<!-- Node3 -->
<g id="Node000003" class="node">
<title>Node3</title>
<g id="a_Node000003"><a xlink:href="structP1450_1_1copy__cv.html" target="_top" xlink:title=" ">
<polygon fill="white" stroke="#666666" points="271,-78 128,-78 128,-48 271,-48 271,-78"/>
<text text-anchor="start" x="136" y="-66" font-family="Helvetica,sans-Serif" font-size="10.00">P1450::copy_cv&lt; from,</text>
<text text-anchor="middle" x="199.5" y="-55" font-family="Helvetica,sans-Serif" font-size="10.00"> copy_ref_t&lt; from, to &gt; &gt;</text>
</a>
</g>
</g>
<!-- Node0&#45;&gt;Node3 -->
<g id="edge66_Node000000_Node000003" class="edge">
<title>Node0&#45;&gt;Node3</title>
<g id="a_edge66_Node000000_Node000003"><a xlink:title=" ">
<path fill="none" stroke="#63b8ff" d="M102.32,-63C110.61,-63 119.25,-63 127.8,-63"/>
<polygon fill="#63b8ff" stroke="#63b8ff" points="102.04,-59.5 92.04,-63 102.04,-66.5 102.04,-59.5"/>
</a>
</g>
</g>
<!-- Node5 -->
<g id="Node000005" class="node">
<title>Node5</title>
<g id="a_Node000005"><a xlink:href="structP1450_1_1copy__cv.html" target="_top" xlink:title=" ">
<polygon fill="white" stroke="#666666" points="264.5,-30 134.5,-30 134.5,0 264.5,0 264.5,-30"/>
<text text-anchor="start" x="142.5" y="-18" font-family="Helvetica,sans-Serif" font-size="10.00">P1450::copy_cv&lt; from,</text>
<text text-anchor="middle" x="199.5" y="-7" font-family="Helvetica,sans-Serif" font-size="10.00"> to &gt;</text>
</a>
</g>
</g>
<!-- Node0&#45;&gt;Node5 -->
<g id="edge68_Node000000_Node000005" class="edge">
<title>Node0&#45;&gt;Node5</title>
<g id="a_edge68_Node000000_Node000005"><a xlink:title=" ">
<path fill="none" stroke="#63b8ff" d="M86.86,-50.37C106.51,-44.14 130.36,-36.59 150.96,-30.06"/>
<polygon fill="#63b8ff" stroke="#63b8ff" points="85.77,-47.04 77.29,-53.4 87.88,-53.72 85.77,-47.04"/>
</a>
</g>
</g>
<!-- Node2 -->
<g id="Node000002" class="node">
<title>Node2</title>
<g id="a_Node000002"><a xlink:href="structP1450_1_1copy__cv_3_01from_00_01to_01_4.html" target="_top" xlink:title=" ">
<polygon fill="white" stroke="#666666" points="437,-132 307,-132 307,-102 437,-102 437,-132"/>
<text text-anchor="start" x="315" y="-120" font-family="Helvetica,sans-Serif" font-size="10.00">P1450::copy_cv&lt; from,</text>
<text text-anchor="middle" x="372" y="-109" font-family="Helvetica,sans-Serif" font-size="10.00"> to &gt;</text>
</a>
</g>
</g>
<!-- Node1&#45;&gt;Node2 -->
<g id="edge65_Node000001_Node000002" class="edge">
<title>Node1&#45;&gt;Node2</title>
<g id="a_edge65_Node000001_Node000002"><a xlink:title=" ">
<path fill="none" stroke="#63b8ff" d="M270.17,-117C282.27,-117 294.81,-117 306.76,-117"/>
<polygon fill="#63b8ff" stroke="#63b8ff" points="270.13,-113.5 260.13,-117 270.13,-120.5 270.13,-113.5"/>
</a>
</g>
</g>
<!-- Node4 -->
<g id="Node000004" class="node">
<title>Node4</title>
<g id="a_Node000004"><a xlink:href="structP1450_1_1copy__cvref.html" target="_top" xlink:title=" ">
<polygon fill="white" stroke="#666666" points="429,-78 315,-78 315,-48 429,-48 429,-78"/>
<text text-anchor="start" x="323" y="-66" font-family="Helvetica,sans-Serif" font-size="10.00">P1450::copy_cvref&lt;</text>
<text text-anchor="middle" x="372" y="-55" font-family="Helvetica,sans-Serif" font-size="10.00"> from, to &gt;</text>
</a>
</g>
</g>
<!-- Node3&#45;&gt;Node4 -->
<g id="edge67_Node000003_Node000004" class="edge">
<title>Node3&#45;&gt;Node4</title>
<g id="a_edge67_Node000003_Node000004"><a xlink:title=" ">
<path fill="none" stroke="#63b8ff" d="M281.63,-63C292.9,-63 304.27,-63 314.94,-63"/>
<polygon fill="#63b8ff" stroke="#63b8ff" points="281.33,-59.5 271.33,-63 281.33,-66.5 281.33,-59.5"/>
</a>
</g>
</g>
</g>
</svg>
