<?xml version="1.0" encoding="UTF-8" standalone="no"?>
<!DOCTYPE svg PUBLIC "-//W3C//DTD SVG 1.1//EN"
 "http://www.w3.org/Graphics/SVG/1.1/DTD/svg11.dtd">
<!-- Generated by graphviz version 2.43.0 (0)
 -->
<!-- Title: Graphical Class Hierarchy Pages: 1 -->
<svg width="481pt" height="469pt"
 viewBox="0.00 0.00 481.00 468.50" xmlns="http://www.w3.org/2000/svg" xmlns:xlink="http://www.w3.org/1999/xlink">
<g id="graph0" class="graph" transform="scale(1 1) rotate(0) translate(4 464.5)">
<title>Graphical Class Hierarchy</title>
<!-- Node0 -->
<g id="Node000000" class="node">
<title>Node0</title>
<g id="a_Node000000"><a xlink:title=" ">
<polygon fill="#e0e0e0" stroke="#999999" points="122,-233.5 0,-233.5 0,-214.5 122,-214.5 122,-233.5"/>
<text text-anchor="middle" x="61" y="-221.5" font-family="Helvetica,sans-Serif" font-size="10.00">csl::mp::type_identity</text>
</a>
</g>
</g>
<!-- Node1 -->
<g id="Node000001" class="node">
<title>Node1</title>
<g id="a_Node000001"><a xlink:href="structcsl_1_1mp_1_1type__traits_1_1cat__result.html" target="_top" xlink:title=" ">
<polygon fill="white" stroke="#666666" points="315,-460.5 158,-460.5 158,-397.5 315,-397.5 315,-460.5"/>
<text text-anchor="start" x="166" y="-448.5" font-family="Helvetica,sans-Serif" font-size="10.00">csl::mp::type_traits</text>
<text text-anchor="start" x="166" y="-437.5" font-family="Helvetica,sans-Serif" font-size="10.00">::cat_result&lt; std::conditional</text>
<text text-anchor="start" x="166" y="-426.5" font-family="Helvetica,sans-Serif" font-size="10.00">_t&lt; predicate&lt; Ts &gt;::value,</text>
<text text-anchor="start" x="166" y="-415.5" font-family="Helvetica,sans-Serif" font-size="10.00"> csl::mp::tuple&lt; Ts &gt;, csl::</text>
<text text-anchor="middle" x="236.5" y="-404.5" font-family="Helvetica,sans-Serif" font-size="10.00">mp::tuple&lt;&gt; &gt;... &gt;</text>
</a>
</g>
</g>
<!-- Node0&#45;&gt;Node1 -->
<g id="edge8_Node000000_Node000001" class="edge">
<title>Node0&#45;&gt;Node1</title>
<g id="a_edge8_Node000000_Node000001"><a xlink:title=" ">
<path fill="none" stroke="#63b8ff" d="M69.12,-243.17C82.24,-276.33 113.07,-344.96 158,-388 161.41,-391.26 165.13,-394.34 169.03,-397.22"/>
<polygon fill="#63b8ff" stroke="#63b8ff" points="72.34,-241.81 65.48,-233.73 65.81,-244.32 72.34,-241.81"/>
</a>
</g>
</g>
<!-- Node3 -->
<g id="Node000003" class="node">
<title>Node3</title>
<g id="a_Node000003"><a xlink:href="structcsl_1_1mp_1_1member__value.html" target="_top" xlink:title=" ">
<polygon fill="white" stroke="#666666" points="302,-379 171,-379 171,-349 302,-349 302,-379"/>
<text text-anchor="start" x="179" y="-367" font-family="Helvetica,sans-Serif" font-size="10.00">csl::mp::member_value</text>
<text text-anchor="middle" x="236.5" y="-356" font-family="Helvetica,sans-Serif" font-size="10.00">&lt; I, T &gt;</text>
</a>
</g>
</g>
<!-- Node0&#45;&gt;Node3 -->
<g id="edge10_Node000000_Node000003" class="edge">
<title>Node0&#45;&gt;Node3</title>
<g id="a_edge10_Node000000_Node000003"><a xlink:title=" ">
<path fill="none" stroke="#63b8ff" d="M72.48,-242.44C87.94,-268.03 119.28,-314.08 158,-340 163.15,-343.45 168.82,-346.42 174.68,-348.98"/>
<polygon fill="#63b8ff" stroke="#63b8ff" points="75.43,-240.56 67.34,-233.71 69.4,-244.11 75.43,-240.56"/>
</a>
</g>
</g>
<!-- Node4 -->
<g id="Node000004" class="node">
<title>Node4</title>
<g id="a_Node000004"><a xlink:href="structcsl_1_1mp_1_1reverse_3_01T_01_4.html" target="_top" xlink:title=" ">
<polygon fill="white" stroke="#666666" points="298,-330.5 175,-330.5 175,-311.5 298,-311.5 298,-330.5"/>
<text text-anchor="middle" x="236.5" y="-318.5" font-family="Helvetica,sans-Serif" font-size="10.00">csl::mp::reverse&lt; T &gt;</text>
</a>
</g>
</g>
<!-- Node0&#45;&gt;Node4 -->
<g id="edge11_Node000000_Node000004" class="edge">
<title>Node0&#45;&gt;Node4</title>
<g id="a_edge11_Node000000_Node000004"><a xlink:title=" ">
<path fill="none" stroke="#63b8ff" d="M78.1,-240.94C95.97,-258.75 126.48,-286.33 158,-302 165.69,-305.82 174.2,-308.91 182.69,-311.39"/>
<polygon fill="#63b8ff" stroke="#63b8ff" points="80.32,-238.2 70.82,-233.52 75.32,-243.11 80.32,-238.2"/>
</a>
</g>
</g>
<!-- Node5 -->
<g id="Node000005" class="node">
<title>Node5</title>
<g id="a_Node000005"><a xlink:href="structcsl_1_1mp_1_1type__traits_1_1cat__result.html" target="_top" xlink:title=" ">
<polygon fill="white" stroke="#666666" points="311.5,-293 161.5,-293 161.5,-263 311.5,-263 311.5,-293"/>
<text text-anchor="start" x="169.5" y="-281" font-family="Helvetica,sans-Serif" font-size="10.00">csl::mp::type_traits</text>
<text text-anchor="middle" x="236.5" y="-270" font-family="Helvetica,sans-Serif" font-size="10.00">::cat_result&lt; tuple_types &gt;</text>
</a>
</g>
</g>
<!-- Node0&#45;&gt;Node5 -->
<g id="edge12_Node000000_Node000005" class="edge">
<title>Node0&#45;&gt;Node5</title>
<g id="a_edge12_Node000000_Node000005"><a xlink:title=" ">
<path fill="none" stroke="#63b8ff" d="M102.39,-236.65C119.54,-242.01 139.74,-248.32 158,-254 167.28,-256.89 177.19,-259.96 186.71,-262.91"/>
<polygon fill="#63b8ff" stroke="#63b8ff" points="103.28,-233.26 92.69,-233.61 101.19,-239.94 103.28,-233.26"/>
</a>
</g>
</g>
<!-- Node6 -->
<g id="Node000006" class="node">
<title>Node6</title>
<g id="a_Node000006"><a xlink:href="structcsl_1_1mp_1_1type__traits_1_1fold__left__result.html" target="_top" xlink:title=" ">
<polygon fill="white" stroke="#666666" points="294.5,-244.5 178.5,-244.5 178.5,-203.5 294.5,-203.5 294.5,-244.5"/>
<text text-anchor="start" x="186.5" y="-232.5" font-family="Helvetica,sans-Serif" font-size="10.00">csl::mp::type_traits</text>
<text text-anchor="start" x="186.5" y="-221.5" font-family="Helvetica,sans-Serif" font-size="10.00">::fold_left_result&lt; T,</text>
<text text-anchor="middle" x="236.5" y="-210.5" font-family="Helvetica,sans-Serif" font-size="10.00"> F, init &gt;</text>
</a>
</g>
</g>
<!-- Node0&#45;&gt;Node6 -->
<g id="edge13_Node000000_Node000006" class="edge">
<title>Node0&#45;&gt;Node6</title>
<g id="a_edge13_Node000000_Node000006"><a xlink:title=" ">
<path fill="none" stroke="#63b8ff" d="M132.59,-224C147.81,-224 163.71,-224 178.33,-224"/>
<polygon fill="#63b8ff" stroke="#63b8ff" points="132.19,-220.5 122.19,-224 132.19,-227.5 132.19,-220.5"/>
</a>
</g>
</g>
<!-- Node7 -->
<g id="Node000007" class="node">
<title>Node7</title>
<g id="a_Node000007"><a xlink:href="structcsl_1_1mp_1_1type__traits_1_1fold__right__result.html" target="_top" xlink:title=" ">
<polygon fill="white" stroke="#666666" points="291.5,-185.5 181.5,-185.5 181.5,-144.5 291.5,-144.5 291.5,-185.5"/>
<text text-anchor="start" x="189.5" y="-173.5" font-family="Helvetica,sans-Serif" font-size="10.00">csl::mp::type_traits</text>
<text text-anchor="start" x="189.5" y="-162.5" font-family="Helvetica,sans-Serif" font-size="10.00">::fold_right_result&lt;</text>
<text text-anchor="middle" x="236.5" y="-151.5" font-family="Helvetica,sans-Serif" font-size="10.00"> T, F, init &gt;</text>
</a>
</g>
</g>
<!-- Node0&#45;&gt;Node7 -->
<g id="edge14_Node000000_Node000007" class="edge">
<title>Node0&#45;&gt;Node7</title>
<g id="a_edge14_Node000000_Node000007"><a xlink:title=" ">
<path fill="none" stroke="#63b8ff" d="M99.99,-211.08C123.82,-202.98 154.92,-192.4 181.32,-183.43"/>
<polygon fill="#63b8ff" stroke="#63b8ff" points="98.6,-207.86 90.26,-214.39 100.86,-214.48 98.6,-207.86"/>
</a>
</g>
</g>
<!-- Node8 -->
<g id="Node000008" class="node">
<title>Node8</title>
<g id="a_Node000008"><a xlink:href="structcsl_1_1mp_1_1type__traits_1_1unique_3_01T_01_4.html" target="_top" xlink:title=" ">
<polygon fill="white" stroke="#666666" points="291.5,-126 181.5,-126 181.5,-96 291.5,-96 291.5,-126"/>
<text text-anchor="start" x="189.5" y="-114" font-family="Helvetica,sans-Serif" font-size="10.00">csl::mp::type_traits</text>
<text text-anchor="middle" x="236.5" y="-103" font-family="Helvetica,sans-Serif" font-size="10.00">::unique&lt; T &gt;</text>
</a>
</g>
</g>
<!-- Node0&#45;&gt;Node8 -->
<g id="edge15_Node000000_Node000008" class="edge">
<title>Node0&#45;&gt;Node8</title>
<g id="a_edge15_Node000000_Node000008"><a xlink:title=" ">
<path fill="none" stroke="#63b8ff" d="M76.59,-206.73C94.09,-187.03 125.17,-155.1 158,-136 165.21,-131.8 173.21,-128.22 181.26,-125.18"/>
<polygon fill="#63b8ff" stroke="#63b8ff" points="73.89,-204.5 69.96,-214.34 79.17,-209.1 73.89,-204.5"/>
</a>
</g>
</g>
<!-- Node9 -->
<g id="Node000009" class="node">
<title>Node9</title>
<g id="a_Node000009"><a xlink:href="structcsl_1_1mp_1_1type__traits_1_1value__type.html" target="_top" xlink:title=" ">
<polygon fill="white" stroke="#666666" points="291.5,-78 181.5,-78 181.5,-48 291.5,-48 291.5,-78"/>
<text text-anchor="start" x="189.5" y="-66" font-family="Helvetica,sans-Serif" font-size="10.00">csl::mp::type_traits</text>
<text text-anchor="middle" x="236.5" y="-55" font-family="Helvetica,sans-Serif" font-size="10.00">::value_type&lt; T &gt;</text>
</a>
</g>
</g>
<!-- Node0&#45;&gt;Node9 -->
<g id="edge16_Node000000_Node000009" class="edge">
<title>Node0&#45;&gt;Node9</title>
<g id="a_edge16_Node000000_Node000009"><a xlink:title=" ">
<path fill="none" stroke="#63b8ff" d="M70.2,-205.19C84.03,-175.65 114.75,-118.53 158,-87 164.94,-81.94 172.98,-77.93 181.19,-74.75"/>
<polygon fill="#63b8ff" stroke="#63b8ff" points="66.97,-203.84 66.02,-214.4 73.34,-206.74 66.97,-203.84"/>
</a>
</g>
</g>
<!-- Node10 -->
<g id="Node000010" class="node">
<title>Node10</title>
<g id="a_Node000010"><a xlink:href="structcsl_1_1mp_1_1type__traits_1_1value__type_3_01T_0fN_0e_4.html" target="_top" xlink:title=" ">
<polygon fill="white" stroke="#666666" points="295,-30 178,-30 178,0 295,0 295,-30"/>
<text text-anchor="start" x="186" y="-18" font-family="Helvetica,sans-Serif" font-size="10.00">csl::mp::type_traits</text>
<text text-anchor="middle" x="236.5" y="-7" font-family="Helvetica,sans-Serif" font-size="10.00">::value_type&lt; T[N]&gt;</text>
</a>
</g>
</g>
<!-- Node0&#45;&gt;Node10 -->
<g id="edge17_Node000000_Node000010" class="edge">
<title>Node0&#45;&gt;Node10</title>
<g id="a_edge17_Node000000_Node000010"><a xlink:title=" ">
<path fill="none" stroke="#63b8ff" d="M66.71,-204.55C76.82,-166.93 104.18,-83.99 158,-39 163.84,-34.12 170.66,-30.23 177.79,-27.14"/>
<polygon fill="#63b8ff" stroke="#63b8ff" points="63.31,-203.72 64.21,-214.28 70.09,-205.46 63.31,-203.72"/>
</a>
</g>
</g>
<!-- Node2 -->
<g id="Node000002" class="node">
<title>Node2</title>
<g id="a_Node000002"><a xlink:href="structcsl_1_1mp_1_1type__traits_1_1filter_3_01csl_1_1mp_1_1tuple_3_01Ts_8_8_8_01_4_00_01predicate_01_4.html" target="_top" xlink:title=" ">
<polygon fill="white" stroke="#666666" points="473,-449.5 351,-449.5 351,-408.5 473,-408.5 473,-449.5"/>
<text text-anchor="start" x="359" y="-437.5" font-family="Helvetica,sans-Serif" font-size="10.00">csl::mp::type_traits</text>
<text text-anchor="start" x="359" y="-426.5" font-family="Helvetica,sans-Serif" font-size="10.00">::filter&lt; csl::mp::tuple</text>
<text text-anchor="middle" x="412" y="-415.5" font-family="Helvetica,sans-Serif" font-size="10.00">&lt; Ts... &gt;, predicate &gt;</text>
</a>
</g>
</g>
<!-- Node1&#45;&gt;Node2 -->
<g id="edge9_Node000001_Node000002" class="edge">
<title>Node1&#45;&gt;Node2</title>
<g id="a_edge9_Node000001_Node000002"><a xlink:title=" ">
<path fill="none" stroke="#63b8ff" d="M325.28,-429C333.94,-429 342.6,-429 350.89,-429"/>
<polygon fill="#63b8ff" stroke="#63b8ff" points="325.12,-425.5 315.12,-429 325.12,-432.5 325.12,-425.5"/>
</a>
</g>
</g>
</g>
</svg>
