<?xml version="1.0" encoding="UTF-8" standalone="no"?>
<!DOCTYPE svg PUBLIC "-//W3C//DTD SVG 1.1//EN"
 "http://www.w3.org/Graphics/SVG/1.1/DTD/svg11.dtd">
<!-- Generated by graphviz version 2.43.0 (0)
 -->
<!-- Title: csl::mp::type_traits::is_constrained_by&lt; T, predicate &gt; Pages: 1 -->
<svg width="323pt" height="164pt"
 viewBox="0.00 0.00 323.00 163.50" xmlns="http://www.w3.org/2000/svg" xmlns:xlink="http://www.w3.org/1999/xlink">
<g id="graph0" class="graph" transform="scale(1 1) rotate(0) translate(4 159.5)">
<title>csl::mp::type_traits::is_constrained_by&lt; T, predicate &gt;</title>
<!-- Node1 -->
<g id="Node000001" class="node">
<title>Node1</title>
<g id="a_Node000001"><a xlink:title=" ">
<polygon fill="#999999" stroke="#666666" points="315,-122.5 196,-122.5 196,-81.5 315,-81.5 315,-122.5"/>
<text text-anchor="start" x="204" y="-110.5" font-family="Helvetica,sans-Serif" font-size="10.00">csl::mp::type_traits</text>
<text text-anchor="start" x="204" y="-99.5" font-family="Helvetica,sans-Serif" font-size="10.00">::is_constrained_by&lt;</text>
<text text-anchor="middle" x="255.5" y="-88.5" font-family="Helvetica,sans-Serif" font-size="10.00"> T, predicate &gt;</text>
</a>
</g>
</g>
<!-- Node2 -->
<g id="Node000002" class="node">
<title>Node2</title>
<g id="a_Node000002"><a xlink:title=" ">
<polygon fill="white" stroke="#bfbfbf" points="124.5,-155.5 35.5,-155.5 35.5,-136.5 124.5,-136.5 124.5,-155.5"/>
<text text-anchor="middle" x="80" y="-143.5" font-family="Helvetica,sans-Serif" font-size="10.00">std::false_type</text>
</a>
</g>
</g>
<!-- Node2&#45;&gt;Node1 -->
<g id="edge1_Node000001_Node000002" class="edge">
<title>Node2&#45;&gt;Node1</title>
<g id="a_edge1_Node000001_Node000002"><a xlink:title=" ">
<path fill="none" stroke="#63b8ff" d="M131.39,-134.06C140.9,-131.76 150.76,-129.33 160,-127 171.6,-124.07 183.98,-120.86 195.83,-117.74"/>
<polygon fill="#63b8ff" stroke="#63b8ff" points="130.54,-130.67 121.64,-136.41 132.18,-137.47 130.54,-130.67"/>
</a>
</g>
</g>
<!-- Node3 -->
<g id="Node000003" class="node">
<title>Node3</title>
<g id="a_Node000003"><a xlink:title=" ">
<polygon fill="white" stroke="#bfbfbf" points="160,-118 0,-118 0,0 160,0 160,-118"/>
<text text-anchor="start" x="8" y="-106" font-family="Helvetica,sans-Serif" font-size="10.00">std::bool_constant</text>
<text text-anchor="start" x="8" y="-95" font-family="Helvetica,sans-Serif" font-size="10.00">&lt;[]&lt; std::size_t...</text>
<text text-anchor="start" x="8" y="-84" font-family="Helvetica,sans-Serif" font-size="10.00"> indexes &gt;(std::index</text>
<text text-anchor="start" x="8" y="-73" font-family="Helvetica,sans-Serif" font-size="10.00">_sequence&lt; indexes...</text>
<text text-anchor="start" x="8" y="-62" font-family="Helvetica,sans-Serif" font-size="10.00"> &gt;) { return(true and ...</text>
<text text-anchor="start" x="8" y="-51" font-family="Helvetica,sans-Serif" font-size="10.00"> and predicate&lt; csl::mp::</text>
<text text-anchor="start" x="8" y="-40" font-family="Helvetica,sans-Serif" font-size="10.00">element_t&lt; indexes, T &gt; &gt;</text>
<text text-anchor="start" x="8" y="-29" font-family="Helvetica,sans-Serif" font-size="10.00">::value);}(std::make_index</text>
<text text-anchor="start" x="8" y="-18" font-family="Helvetica,sans-Serif" font-size="10.00">_sequence&lt; csl::mp::size_v&lt;</text>
<text text-anchor="middle" x="80" y="-7" font-family="Helvetica,sans-Serif" font-size="10.00"> T &gt; &gt;{}) &gt;</text>
</a>
</g>
</g>
<!-- Node3&#45;&gt;Node1 -->
<g id="edge2_Node000001_Node000003" class="edge">
<title>Node3&#45;&gt;Node1</title>
<g id="a_edge2_Node000001_Node000003"><a xlink:title=" ">
<path fill="none" stroke="#63b8ff" d="M170.06,-81.07C178.85,-83.25 187.61,-85.42 195.98,-87.5"/>
<polygon fill="#63b8ff" stroke="#63b8ff" points="170.68,-77.62 160.13,-78.61 169,-84.42 170.68,-77.62"/>
</a>
</g>
</g>
</g>
</svg>
