<?xml version="1.0" encoding="UTF-8" standalone="no"?>
<!DOCTYPE svg PUBLIC "-//W3C//DTD SVG 1.1//EN"
 "http://www.w3.org/Graphics/SVG/1.1/DTD/svg11.dtd">
<!-- Generated by graphviz version 2.43.0 (0)
 -->
<!-- Title: csl::mp::type_traits::empty&lt; T &gt; Pages: 1 -->
<svg width="238pt" height="115pt"
 viewBox="0.00 0.00 237.50 115.00" xmlns="http://www.w3.org/2000/svg" xmlns:xlink="http://www.w3.org/1999/xlink">
<g id="graph0" class="graph" transform="scale(1 1) rotate(0) translate(4 111)">
<title>csl::mp::type_traits::empty&lt; T &gt;</title>
<!-- Node1 -->
<g id="Node000001" class="node">
<title>Node1</title>
<g id="a_Node000001"><a xlink:title=" ">
<polygon fill="#999999" stroke="#666666" points="161.5,-30 51.5,-30 51.5,0 161.5,0 161.5,-30"/>
<text text-anchor="start" x="59.5" y="-18" font-family="Helvetica,sans-Serif" font-size="10.00">csl::mp::type_traits</text>
<text text-anchor="middle" x="106.5" y="-7" font-family="Helvetica,sans-Serif" font-size="10.00">::empty&lt; T &gt;</text>
</a>
</g>
</g>
<!-- Node2 -->
<g id="Node000002" class="node">
<title>Node2</title>
<g id="a_Node000002"><a xlink:title=" ">
<polygon fill="white" stroke="#bfbfbf" points="89,-96 0,-96 0,-77 89,-77 89,-96"/>
<text text-anchor="middle" x="44.5" y="-84" font-family="Helvetica,sans-Serif" font-size="10.00">std::false_type</text>
</a>
</g>
</g>
<!-- Node2&#45;&gt;Node1 -->
<g id="edge1_Node000001_Node000002" class="edge">
<title>Node2&#45;&gt;Node1</title>
<g id="a_edge1_Node000001_Node000002"><a xlink:title=" ">
<path fill="none" stroke="#63b8ff" d="M59.06,-69.18C69.63,-57.33 83.8,-41.45 93.89,-30.14"/>
<polygon fill="#63b8ff" stroke="#63b8ff" points="56.15,-67.19 52.1,-76.98 61.37,-71.85 56.15,-67.19"/>
</a>
</g>
</g>
<!-- Node3 -->
<g id="Node000003" class="node">
<title>Node3</title>
<g id="a_Node000003"><a xlink:title=" ">
<polygon fill="white" stroke="#bfbfbf" points="229.5,-107 107.5,-107 107.5,-66 229.5,-66 229.5,-107"/>
<text text-anchor="start" x="115.5" y="-95" font-family="Helvetica,sans-Serif" font-size="10.00">std::integral_constant</text>
<text text-anchor="start" x="115.5" y="-84" font-family="Helvetica,sans-Serif" font-size="10.00">&lt; bool,(csl::mp::size</text>
<text text-anchor="middle" x="168.5" y="-73" font-family="Helvetica,sans-Serif" font-size="10.00">_v&lt; T &gt;==0)&gt;</text>
</a>
</g>
</g>
<!-- Node3&#45;&gt;Node1 -->
<g id="edge2_Node000001_Node000003" class="edge">
<title>Node3&#45;&gt;Node1</title>
<g id="a_edge2_Node000001_Node000003"><a xlink:title=" ">
<path fill="none" stroke="#63b8ff" d="M144.2,-58.26C135.59,-48.61 126.25,-38.14 119.02,-30.04"/>
<polygon fill="#63b8ff" stroke="#63b8ff" points="141.63,-60.64 150.9,-65.77 146.85,-55.98 141.63,-60.64"/>
</a>
</g>
</g>
</g>
</svg>
