<?xml version="1.0" encoding="UTF-8" standalone="no"?>
<!DOCTYPE svg PUBLIC "-//W3C//DTD SVG 1.1//EN"
 "http://www.w3.org/Graphics/SVG/1.1/DTD/svg11.dtd">
<!-- Generated by graphviz version 2.43.0 (0)
 -->
<!-- Title: csl::mp::size&lt; std::integer_sequence&lt; T, values... &gt; &gt; Pages: 1 -->
<svg width="300pt" height="98pt"
 viewBox="0.00 0.00 300.00 97.50" xmlns="http://www.w3.org/2000/svg" xmlns:xlink="http://www.w3.org/1999/xlink">
<g id="graph0" class="graph" transform="scale(1 1) rotate(0) translate(4 93.5)">
<title>csl::mp::size&lt; std::integer_sequence&lt; T, values... &gt; &gt;</title>
<!-- Node1 -->
<g id="Node000001" class="node">
<title>Node1</title>
<g id="a_Node000001"><a xlink:title=" ">
<polygon fill="#999999" stroke="#666666" points="292,-68 175,-68 175,-27 292,-27 292,-68"/>
<text text-anchor="start" x="183" y="-56" font-family="Helvetica,sans-Serif" font-size="10.00">csl::mp::size&lt; std</text>
<text text-anchor="start" x="183" y="-45" font-family="Helvetica,sans-Serif" font-size="10.00">::integer_sequence&lt;</text>
<text text-anchor="middle" x="233.5" y="-34" font-family="Helvetica,sans-Serif" font-size="10.00"> T, values... &gt; &gt;</text>
</a>
</g>
</g>
<!-- Node2 -->
<g id="Node000002" class="node">
<title>Node2</title>
<g id="a_Node000002"><a xlink:title=" ">
<polygon fill="white" stroke="#bfbfbf" points="139,-89.5 0,-89.5 0,-59.5 139,-59.5 139,-89.5"/>
<text text-anchor="start" x="8" y="-77.5" font-family="Helvetica,sans-Serif" font-size="10.00">std::tuple_size&lt; std</text>
<text text-anchor="middle" x="69.5" y="-66.5" font-family="Helvetica,sans-Serif" font-size="10.00">::remove_cvref_t&lt; T &gt; &gt;</text>
</a>
</g>
</g>
<!-- Node2&#45;&gt;Node1 -->
<g id="edge1_Node000001_Node000002" class="edge">
<title>Node2&#45;&gt;Node1</title>
<g id="a_edge1_Node000001_Node000002"><a xlink:title=" ">
<path fill="none" stroke="#63b8ff" d="M149.31,-61.37C157.95,-59.93 166.62,-58.48 174.93,-57.09"/>
<polygon fill="#63b8ff" stroke="#63b8ff" points="148.49,-57.95 139.2,-63.05 149.64,-64.86 148.49,-57.95"/>
</a>
</g>
</g>
<!-- Node3 -->
<g id="Node000003" class="node">
<title>Node3</title>
<g id="a_Node000003"><a xlink:title=" ">
<polygon fill="white" stroke="#bfbfbf" points="130.5,-41 8.5,-41 8.5,0 130.5,0 130.5,-41"/>
<text text-anchor="start" x="16.5" y="-29" font-family="Helvetica,sans-Serif" font-size="10.00">std::integral_constant</text>
<text text-anchor="start" x="16.5" y="-18" font-family="Helvetica,sans-Serif" font-size="10.00">&lt; std::size_t, sizeof...</text>
<text text-anchor="middle" x="69.5" y="-7" font-family="Helvetica,sans-Serif" font-size="10.00">(values)&gt;</text>
</a>
</g>
</g>
<!-- Node3&#45;&gt;Node1 -->
<g id="edge2_Node000001_Node000003" class="edge">
<title>Node3&#45;&gt;Node1</title>
<g id="a_edge2_Node000001_Node000003"><a xlink:title=" ">
<path fill="none" stroke="#63b8ff" d="M140.73,-32.2C152.11,-34.1 163.78,-36.05 174.81,-37.89"/>
<polygon fill="#63b8ff" stroke="#63b8ff" points="141.26,-28.75 130.82,-30.55 140.11,-35.65 141.26,-28.75"/>
</a>
</g>
</g>
</g>
</svg>
