<?xml version="1.0" encoding="UTF-8" standalone="no"?>
<!DOCTYPE svg PUBLIC "-//W3C//DTD SVG 1.1//EN"
 "http://www.w3.org/Graphics/SVG/1.1/DTD/svg11.dtd">
<!-- Generated by graphviz version 2.43.0 (0)
 -->
<!-- Title: csl::mp::type_traits::filter&lt; csl::mp::tuple&lt; Ts... &gt;, predicate &gt; Pages: 1 -->
<svg width="525pt" height="71pt"
 viewBox="0.00 0.00 525.00 71.00" xmlns="http://www.w3.org/2000/svg" xmlns:xlink="http://www.w3.org/1999/xlink">
<g id="graph0" class="graph" transform="scale(1 1) rotate(0) translate(4 67)">
<title>csl::mp::type_traits::filter&lt; csl::mp::tuple&lt; Ts... &gt;, predicate &gt;</title>
<!-- Node1 -->
<g id="Node000001" class="node">
<title>Node1</title>
<g id="a_Node000001"><a xlink:title=" ">
<polygon fill="#999999" stroke="#666666" points="517,-52 395,-52 395,-11 517,-11 517,-52"/>
<text text-anchor="start" x="403" y="-40" font-family="Helvetica,sans-Serif" font-size="10.00">csl::mp::type_traits</text>
<text text-anchor="start" x="403" y="-29" font-family="Helvetica,sans-Serif" font-size="10.00">::filter&lt; csl::mp::tuple</text>
<text text-anchor="middle" x="456" y="-18" font-family="Helvetica,sans-Serif" font-size="10.00">&lt; Ts... &gt;, predicate &gt;</text>
</a>
</g>
</g>
<!-- Node2 -->
<g id="Node000002" class="node">
<title>Node2</title>
<g id="a_Node000002"><a xlink:href="structcsl_1_1mp_1_1type__traits_1_1cat__result.html" target="_top" xlink:title=" ">
<polygon fill="white" stroke="#bfbfbf" points="359,-63 202,-63 202,0 359,0 359,-63"/>
<text text-anchor="start" x="210" y="-51" font-family="Helvetica,sans-Serif" font-size="10.00">csl::mp::type_traits</text>
<text text-anchor="start" x="210" y="-40" font-family="Helvetica,sans-Serif" font-size="10.00">::cat_result&lt; std::conditional</text>
<text text-anchor="start" x="210" y="-29" font-family="Helvetica,sans-Serif" font-size="10.00">_t&lt; predicate&lt; Ts &gt;::value,</text>
<text text-anchor="start" x="210" y="-18" font-family="Helvetica,sans-Serif" font-size="10.00"> csl::mp::tuple&lt; Ts &gt;, csl::</text>
<text text-anchor="middle" x="280.5" y="-7" font-family="Helvetica,sans-Serif" font-size="10.00">mp::tuple&lt;&gt; &gt;... &gt;</text>
</a>
</g>
</g>
<!-- Node2&#45;&gt;Node1 -->
<g id="edge1_Node000001_Node000002" class="edge">
<title>Node2&#45;&gt;Node1</title>
<g id="a_edge1_Node000001_Node000002"><a xlink:title=" ">
<path fill="none" stroke="#63b8ff" d="M369.28,-31.5C377.94,-31.5 386.6,-31.5 394.89,-31.5"/>
<polygon fill="#63b8ff" stroke="#63b8ff" points="369.12,-28 359.12,-31.5 369.12,-35 369.12,-28"/>
</a>
</g>
</g>
<!-- Node3 -->
<g id="Node000003" class="node">
<title>Node3</title>
<g id="a_Node000003"><a xlink:title=" ">
<polygon fill="white" stroke="#bfbfbf" points="166,-57.5 0,-57.5 0,-5.5 166,-5.5 166,-57.5"/>
<text text-anchor="start" x="8" y="-45.5" font-family="Helvetica,sans-Serif" font-size="10.00">csl::mp::type_identity</text>
<text text-anchor="start" x="8" y="-34.5" font-family="Helvetica,sans-Serif" font-size="10.00">&lt; decltype(csl::mp::functions</text>
<text text-anchor="start" x="8" y="-23.5" font-family="Helvetica,sans-Serif" font-size="10.00">::cat(std::declval&lt; tuple_types</text>
<text text-anchor="middle" x="83" y="-12.5" font-family="Helvetica,sans-Serif" font-size="10.00"> &gt;()...)) &gt;</text>
</a>
</g>
</g>
<!-- Node3&#45;&gt;Node2 -->
<g id="edge2_Node000002_Node000003" class="edge">
<title>Node3&#45;&gt;Node2</title>
<g id="a_edge2_Node000002_Node000003"><a xlink:title=" ">
<path fill="none" stroke="#63b8ff" d="M176.08,-31.5C184.65,-31.5 193.29,-31.5 201.71,-31.5"/>
<polygon fill="#63b8ff" stroke="#63b8ff" points="176.06,-28 166.06,-31.5 176.06,-35 176.06,-28"/>
</a>
</g>
</g>
</g>
</svg>
