<?xml version="1.0" encoding="UTF-8" standalone="no"?>
<!DOCTYPE svg PUBLIC "-//W3C//DTD SVG 1.1//EN"
 "http://www.w3.org/Graphics/SVG/1.1/DTD/svg11.dtd">
<!-- Generated by graphviz version 2.43.0 (0)
 -->
<!-- Title: csl::mp::type_traits::count&lt; tuple_type, T &gt; Pages: 1 -->
<svg width="339pt" height="120pt"
 viewBox="0.00 0.00 339.00 119.50" xmlns="http://www.w3.org/2000/svg" xmlns:xlink="http://www.w3.org/1999/xlink">
<g id="graph0" class="graph" transform="scale(1 1) rotate(0) translate(4 115.5)">
<title>csl::mp::type_traits::count&lt; tuple_type, T &gt;</title>
<!-- Node1 -->
<g id="Node000001" class="node">
<title>Node1</title>
<g id="a_Node000001"><a xlink:title=" ">
<polygon fill="#999999" stroke="#666666" points="331,-78.5 195,-78.5 195,-48.5 331,-48.5 331,-78.5"/>
<text text-anchor="start" x="203" y="-66.5" font-family="Helvetica,sans-Serif" font-size="10.00">csl::mp::type_traits</text>
<text text-anchor="middle" x="263" y="-55.5" font-family="Helvetica,sans-Serif" font-size="10.00">::count&lt; tuple_type, T &gt;</text>
</a>
</g>
</g>
<!-- Node2 -->
<g id="Node000002" class="node">
<title>Node2</title>
<g id="a_Node000002"><a xlink:title=" ">
<polygon fill="white" stroke="#bfbfbf" points="140.5,-111.5 18.5,-111.5 18.5,-81.5 140.5,-81.5 140.5,-111.5"/>
<text text-anchor="start" x="26.5" y="-99.5" font-family="Helvetica,sans-Serif" font-size="10.00">std::integral_constant</text>
<text text-anchor="middle" x="79.5" y="-88.5" font-family="Helvetica,sans-Serif" font-size="10.00">&lt; std::size_t, 1 &gt;</text>
</a>
</g>
</g>
<!-- Node2&#45;&gt;Node1 -->
<g id="edge1_Node000001_Node000002" class="edge">
<title>Node2&#45;&gt;Node1</title>
<g id="a_edge1_Node000001_Node000002"><a xlink:title=" ">
<path fill="none" stroke="#63b8ff" d="M150.59,-83.76C165.11,-81.12 180.37,-78.34 194.77,-75.72"/>
<polygon fill="#63b8ff" stroke="#63b8ff" points="149.9,-80.32 140.68,-85.56 151.15,-87.21 149.9,-80.32"/>
</a>
</g>
</g>
<!-- Node3 -->
<g id="Node000003" class="node">
<title>Node3</title>
<g id="a_Node000003"><a xlink:title=" ">
<polygon fill="white" stroke="#bfbfbf" points="159,-63 0,-63 0,0 159,0 159,-63"/>
<text text-anchor="start" x="8" y="-51" font-family="Helvetica,sans-Serif" font-size="10.00">std::integral_constant</text>
<text text-anchor="start" x="8" y="-40" font-family="Helvetica,sans-Serif" font-size="10.00">&lt; std::size_t,[]&lt; std</text>
<text text-anchor="start" x="8" y="-29" font-family="Helvetica,sans-Serif" font-size="10.00">::size_t... indexes &gt;(std</text>
<text text-anchor="start" x="8" y="-18" font-family="Helvetica,sans-Serif" font-size="10.00">::index_sequence&lt; indexes...</text>
<text text-anchor="middle" x="79.5" y="-7" font-family="Helvetica,sans-Serif" font-size="10.00"> &gt;) &#45;&gt; std::size_t</text>
</a>
</g>
</g>
<!-- Node3&#45;&gt;Node1 -->
<g id="edge2_Node000001_Node000003" class="edge">
<title>Node3&#45;&gt;Node1</title>
<g id="a_edge2_Node000001_Node000003"><a xlink:title=" ">
<path fill="none" stroke="#63b8ff" d="M168.92,-47.09C177.69,-48.64 186.49,-50.19 194.99,-51.69"/>
<polygon fill="#63b8ff" stroke="#63b8ff" points="169.51,-43.64 159.05,-45.35 168.29,-50.53 169.51,-43.64"/>
</a>
</g>
</g>
</g>
</svg>
