<?xml version="1.0" encoding="UTF-8" standalone="no"?>
<!DOCTYPE svg PUBLIC "-//W3C//DTD SVG 1.1//EN"
 "http://www.w3.org/Graphics/SVG/1.1/DTD/svg11.dtd">
<!-- Generated by graphviz version 2.43.0 (0)
 -->
<!-- Title: P1450::copy_ref&lt; from &amp;&amp;, to &gt; Pages: 1 -->
<svg width="316pt" height="98pt"
 viewBox="0.00 0.00 316.00 97.50" xmlns="http://www.w3.org/2000/svg" xmlns:xlink="http://www.w3.org/1999/xlink">
<g id="graph0" class="graph" transform="scale(1 1) rotate(0) translate(4 93.5)">
<title>P1450::copy_ref&lt; from &amp;&amp;, to &gt;</title>
<!-- Node1 -->
<g id="Node000001" class="node">
<title>Node1</title>
<g id="a_Node000001"><a xlink:title=" ">
<polygon fill="#999999" stroke="#666666" points="308,-62.5 179,-62.5 179,-32.5 308,-32.5 308,-62.5"/>
<text text-anchor="start" x="187" y="-50.5" font-family="Helvetica,sans-Serif" font-size="10.00">P1450::copy_ref&lt; from</text>
<text text-anchor="middle" x="243.5" y="-39.5" font-family="Helvetica,sans-Serif" font-size="10.00"> &amp;&amp;, to &gt;</text>
</a>
</g>
</g>
<!-- Node2 -->
<g id="Node000002" class="node">
<title>Node2</title>
<g id="a_Node000002"><a xlink:title=" ">
<polygon fill="white" stroke="#bfbfbf" points="135,-89.5 8,-89.5 8,-59.5 135,-59.5 135,-89.5"/>
<text text-anchor="start" x="16" y="-77.5" font-family="Helvetica,sans-Serif" font-size="10.00">std::remove_reference</text>
<text text-anchor="middle" x="71.5" y="-66.5" font-family="Helvetica,sans-Serif" font-size="10.00">&lt; to &gt;</text>
</a>
</g>
</g>
<!-- Node2&#45;&gt;Node1 -->
<g id="edge1_Node000001_Node000002" class="edge">
<title>Node2&#45;&gt;Node1</title>
<g id="a_edge1_Node000001_Node000002"><a xlink:title=" ">
<path fill="none" stroke="#63b8ff" d="M145.42,-62.92C156.53,-61.15 167.91,-59.35 178.8,-57.62"/>
<polygon fill="#63b8ff" stroke="#63b8ff" points="144.65,-59.5 135.32,-64.52 145.74,-66.41 144.65,-59.5"/>
</a>
</g>
</g>
<!-- Node3 -->
<g id="Node000003" class="node">
<title>Node3</title>
<g id="a_Node000003"><a xlink:title=" ">
<polygon fill="white" stroke="#bfbfbf" points="143,-41 0,-41 0,0 143,0 143,-41"/>
<text text-anchor="start" x="8" y="-29" font-family="Helvetica,sans-Serif" font-size="10.00">std::add_rvalue_reference</text>
<text text-anchor="start" x="8" y="-18" font-family="Helvetica,sans-Serif" font-size="10.00">&lt; std::remove_reference</text>
<text text-anchor="middle" x="71.5" y="-7" font-family="Helvetica,sans-Serif" font-size="10.00">_t&lt; to &gt; &gt;</text>
</a>
</g>
</g>
<!-- Node3&#45;&gt;Node1 -->
<g id="edge2_Node000001_Node000003" class="edge">
<title>Node3&#45;&gt;Node1</title>
<g id="a_edge2_Node000001_Node000003"><a xlink:title=" ">
<path fill="none" stroke="#63b8ff" d="M153.19,-33.32C161.82,-34.69 170.5,-36.07 178.89,-37.4"/>
<polygon fill="#63b8ff" stroke="#63b8ff" points="153.54,-29.83 143.12,-31.72 152.45,-36.74 153.54,-29.83"/>
</a>
</g>
</g>
</g>
</svg>
