<?xml version="1.0" encoding="UTF-8" standalone="no"?>
<!DOCTYPE svg PUBLIC "-//W3C//DTD SVG 1.1//EN"
 "http://www.w3.org/Graphics/SVG/1.1/DTD/svg11.dtd">
<!-- Generated by graphviz version 2.43.0 (0)
 -->
<!-- Title: csl::mp::type_traits::pop_back&lt; std::array&lt; T, N &gt; &gt; Pages: 1 -->
<svg width="327pt" height="152pt"
 viewBox="0.00 0.00 327.00 152.00" xmlns="http://www.w3.org/2000/svg" xmlns:xlink="http://www.w3.org/1999/xlink">
<g id="graph0" class="graph" transform="scale(1 1) rotate(0) translate(4 148)">
<title>csl::mp::type_traits::pop_back&lt; std::array&lt; T, N &gt; &gt;</title>
<!-- Node1 -->
<g id="Node000001" class="node">
<title>Node1</title>
<g id="a_Node000001"><a xlink:title=" ">
<polygon fill="#999999" stroke="#666666" points="319,-81 192,-81 192,-40 319,-40 319,-81"/>
<text text-anchor="start" x="200" y="-69" font-family="Helvetica,sans-Serif" font-size="10.00">csl::mp::type_traits</text>
<text text-anchor="start" x="200" y="-58" font-family="Helvetica,sans-Serif" font-size="10.00">::pop_back&lt; std::array</text>
<text text-anchor="middle" x="255.5" y="-47" font-family="Helvetica,sans-Serif" font-size="10.00">&lt; T, N &gt; &gt;</text>
</a>
</g>
</g>
<!-- Node2 -->
<g id="Node000002" class="node">
<title>Node2</title>
<g id="a_Node000002"><a xlink:href="structcsl_1_1mp_1_1type__traits_1_1rebind__N__elements.html" target="_top" xlink:title=" ">
<polygon fill="white" stroke="#bfbfbf" points="156,-144 0,-144 0,-59 156,-59 156,-144"/>
<text text-anchor="start" x="8" y="-132" font-family="Helvetica,sans-Serif" font-size="10.00">csl::mp::type_traits</text>
<text text-anchor="start" x="8" y="-121" font-family="Helvetica,sans-Serif" font-size="10.00">::rebind_N_elements&lt;</text>
<text text-anchor="start" x="8" y="-110" font-family="Helvetica,sans-Serif" font-size="10.00"> tuple_type, tuple_type,</text>
<text text-anchor="start" x="8" y="-99" font-family="Helvetica,sans-Serif" font-size="10.00"> std::make_index_sequence</text>
<text text-anchor="start" x="8" y="-88" font-family="Helvetica,sans-Serif" font-size="10.00">&lt; std::tuple_size_v&lt; std::</text>
<text text-anchor="start" x="8" y="-77" font-family="Helvetica,sans-Serif" font-size="10.00">remove_cvref_t&lt; tuple_type</text>
<text text-anchor="middle" x="78" y="-66" font-family="Helvetica,sans-Serif" font-size="10.00"> &gt; &gt; &#45; 1 &gt; &gt;</text>
</a>
</g>
</g>
<!-- Node2&#45;&gt;Node1 -->
<g id="edge1_Node000001_Node000002" class="edge">
<title>Node2&#45;&gt;Node1</title>
<g id="a_edge1_Node000001_Node000002"><a xlink:title=" ">
<path fill="none" stroke="#63b8ff" d="M166.08,-81.16C174.82,-79.11 183.57,-77.07 191.99,-75.1"/>
<polygon fill="#63b8ff" stroke="#63b8ff" points="165.17,-77.77 156.23,-83.46 166.77,-84.59 165.17,-77.77"/>
</a>
</g>
</g>
<!-- Node3 -->
<g id="Node000003" class="node">
<title>Node3</title>
<g id="a_Node000003"><a xlink:title=" ">
<polygon fill="white" stroke="#bfbfbf" points="132,-41 24,-41 24,0 132,0 132,-41"/>
<text text-anchor="start" x="32" y="-29" font-family="Helvetica,sans-Serif" font-size="10.00">std::type_identity</text>
<text text-anchor="start" x="32" y="-18" font-family="Helvetica,sans-Serif" font-size="10.00">&lt; std::array&lt; T, N </text>
<text text-anchor="middle" x="78" y="-7" font-family="Helvetica,sans-Serif" font-size="10.00">&#45; 1 &gt; &gt;</text>
</a>
</g>
</g>
<!-- Node3&#45;&gt;Node1 -->
<g id="edge2_Node000001_Node000003" class="edge">
<title>Node3&#45;&gt;Node1</title>
<g id="a_edge2_Node000001_Node000003"><a xlink:title=" ">
<path fill="none" stroke="#63b8ff" d="M142.06,-34.87C158.3,-38.57 175.77,-42.56 191.98,-46.25"/>
<polygon fill="#63b8ff" stroke="#63b8ff" points="142.66,-31.42 132.13,-32.61 141.1,-38.24 142.66,-31.42"/>
</a>
</g>
</g>
</g>
</svg>
