<?xml version="1.0" encoding="UTF-8" standalone="no"?>
<!DOCTYPE svg PUBLIC "-//W3C//DTD SVG 1.1//EN"
 "http://www.w3.org/Graphics/SVG/1.1/DTD/svg11.dtd">
<!-- Generated by graphviz version 2.43.0 (0)
 -->
<!-- Title: P1450::copy_cv&lt; const from, to &gt; Pages: 1 -->
<svg width="289pt" height="148pt"
 viewBox="0.00 0.00 288.50 148.00" xmlns="http://www.w3.org/2000/svg" xmlns:xlink="http://www.w3.org/1999/xlink">
<g id="graph0" class="graph" transform="scale(1 1) rotate(0) translate(4 144)">
<title>P1450::copy_cv&lt; const from, to &gt;</title>
<!-- Node1 -->
<g id="Node000001" class="node">
<title>Node1</title>
<g id="a_Node000001"><a xlink:title=" ">
<polygon fill="#999999" stroke="#666666" points="200,-30 70,-30 70,0 200,0 200,-30"/>
<text text-anchor="start" x="78" y="-18" font-family="Helvetica,sans-Serif" font-size="10.00">P1450::copy_cv&lt; const</text>
<text text-anchor="middle" x="135" y="-7" font-family="Helvetica,sans-Serif" font-size="10.00"> from, to &gt;</text>
</a>
</g>
</g>
<!-- Node2 -->
<g id="Node000002" class="node">
<title>Node2</title>
<g id="a_Node000002"><a xlink:title=" ">
<polygon fill="white" stroke="#bfbfbf" points="124,-85 0,-85 0,-66 124,-66 124,-85"/>
<text text-anchor="middle" x="62" y="-73" font-family="Helvetica,sans-Serif" font-size="10.00">std::remove_cv&lt; to &gt;</text>
</a>
</g>
</g>
<!-- Node2&#45;&gt;Node1 -->
<g id="edge1_Node000001_Node000002" class="edge">
<title>Node2&#45;&gt;Node1</title>
<g id="a_edge1_Node000001_Node000002"><a xlink:title=" ">
<path fill="none" stroke="#63b8ff" d="M80.72,-59.5C92.01,-50.45 106.3,-39 117.39,-30.11"/>
<polygon fill="#63b8ff" stroke="#63b8ff" points="78.39,-56.88 72.77,-65.87 82.76,-62.35 78.39,-56.88"/>
</a>
</g>
</g>
<!-- Node3 -->
<g id="Node000003" class="node">
<title>Node3</title>
<g id="a_Node000003"><a xlink:href="structP1450_1_1add__const.html" target="_top" xlink:title=" ">
<polygon fill="white" stroke="#bfbfbf" points="276,-85 142,-85 142,-66 276,-66 276,-85"/>
<text text-anchor="middle" x="209" y="-73" font-family="Helvetica,sans-Serif" font-size="10.00">P1450::add_const&lt; to &gt;</text>
</a>
</g>
</g>
<!-- Node3&#45;&gt;Node1 -->
<g id="edge2_Node000001_Node000003" class="edge">
<title>Node3&#45;&gt;Node1</title>
<g id="a_edge2_Node000001_Node000003"><a xlink:title=" ">
<path fill="none" stroke="#63b8ff" d="M190.03,-59.5C178.58,-50.45 164.09,-39 152.85,-30.11"/>
<polygon fill="#63b8ff" stroke="#63b8ff" points="188.07,-62.41 198.08,-65.87 192.41,-56.92 188.07,-62.41"/>
</a>
</g>
</g>
<!-- Node4 -->
<g id="Node000004" class="node">
<title>Node4</title>
<g id="a_Node000004"><a xlink:title=" ">
<polygon fill="white" stroke="#bfbfbf" points="280.5,-140 137.5,-140 137.5,-121 280.5,-121 280.5,-140"/>
<text text-anchor="middle" x="209" y="-128" font-family="Helvetica,sans-Serif" font-size="10.00">type_identity&lt; const to &gt;</text>
</a>
</g>
</g>
<!-- Node4&#45;&gt;Node3 -->
<g id="edge3_Node000003_Node000004" class="edge">
<title>Node4&#45;&gt;Node3</title>
<g id="a_edge3_Node000003_Node000004"><a xlink:title=" ">
<path fill="none" stroke="#63b8ff" d="M209,-110.66C209,-101.93 209,-91.99 209,-85.09"/>
<polygon fill="#63b8ff" stroke="#63b8ff" points="205.5,-110.75 209,-120.75 212.5,-110.75 205.5,-110.75"/>
</a>
</g>
</g>
</g>
</svg>
