<?xml version="1.0" encoding="UTF-8" standalone="no"?>
<!DOCTYPE svg PUBLIC "-//W3C//DTD SVG 1.1//EN"
 "http://www.w3.org/Graphics/SVG/1.1/DTD/svg11.dtd">
<!-- Generated by graphviz version 2.43.0 (0)
 -->
<!-- Title: P1450::copy_cvref&lt; from, to &gt; Pages: 1 -->
<svg width="151pt" height="170pt"
 viewBox="0.00 0.00 151.00 170.00" xmlns="http://www.w3.org/2000/svg" xmlns:xlink="http://www.w3.org/1999/xlink">
<g id="graph0" class="graph" transform="scale(1 1) rotate(0) translate(4 166)">
<title>P1450::copy_cvref&lt; from, to &gt;</title>
<!-- Node1 -->
<g id="Node000001" class="node">
<title>Node1</title>
<g id="a_Node000001"><a xlink:title=" ">
<polygon fill="#999999" stroke="#666666" points="128.5,-30 14.5,-30 14.5,0 128.5,0 128.5,-30"/>
<text text-anchor="start" x="22.5" y="-18" font-family="Helvetica,sans-Serif" font-size="10.00">P1450::copy_cvref&lt;</text>
<text text-anchor="middle" x="71.5" y="-7" font-family="Helvetica,sans-Serif" font-size="10.00"> from, to &gt;</text>
</a>
</g>
</g>
<!-- Node2 -->
<g id="Node000002" class="node">
<title>Node2</title>
<g id="a_Node000002"><a xlink:href="structP1450_1_1copy__cv.html" target="_top" xlink:title=" ">
<polygon fill="white" stroke="#bfbfbf" points="143,-96 0,-96 0,-66 143,-66 143,-96"/>
<text text-anchor="start" x="8" y="-84" font-family="Helvetica,sans-Serif" font-size="10.00">P1450::copy_cv&lt; from,</text>
<text text-anchor="middle" x="71.5" y="-73" font-family="Helvetica,sans-Serif" font-size="10.00"> copy_ref_t&lt; from, to &gt; &gt;</text>
</a>
</g>
</g>
<!-- Node2&#45;&gt;Node1 -->
<g id="edge1_Node000001_Node000002" class="edge">
<title>Node2&#45;&gt;Node1</title>
<g id="a_edge1_Node000001_Node000002"><a xlink:title=" ">
<path fill="none" stroke="#63b8ff" d="M71.5,-55.54C71.5,-46.96 71.5,-37.61 71.5,-30.16"/>
<polygon fill="#63b8ff" stroke="#63b8ff" points="68,-55.8 71.5,-65.8 75,-55.8 68,-55.8"/>
</a>
</g>
</g>
<!-- Node3 -->
<g id="Node000003" class="node">
<title>Node3</title>
<g id="a_Node000003"><a xlink:title=" ">
<polygon fill="white" stroke="#bfbfbf" points="134.5,-162 8.5,-162 8.5,-132 134.5,-132 134.5,-162"/>
<text text-anchor="start" x="16.5" y="-150" font-family="Helvetica,sans-Serif" font-size="10.00">std::remove_cv&lt; copy</text>
<text text-anchor="middle" x="71.5" y="-139" font-family="Helvetica,sans-Serif" font-size="10.00">_ref_t&lt; from, to &gt; &gt;</text>
</a>
</g>
</g>
<!-- Node3&#45;&gt;Node2 -->
<g id="edge2_Node000002_Node000003" class="edge">
<title>Node3&#45;&gt;Node2</title>
<g id="a_edge2_Node000002_Node000003"><a xlink:title=" ">
<path fill="none" stroke="#63b8ff" d="M71.5,-121.54C71.5,-112.96 71.5,-103.61 71.5,-96.16"/>
<polygon fill="#63b8ff" stroke="#63b8ff" points="68,-121.8 71.5,-131.8 75,-121.8 68,-121.8"/>
</a>
</g>
</g>
</g>
</svg>
