<?xml version="1.0" encoding="UTF-8" standalone="no"?>
<!DOCTYPE svg PUBLIC "-//W3C//DTD SVG 1.1//EN"
 "http://www.w3.org/Graphics/SVG/1.1/DTD/svg11.dtd">
<!-- Generated by graphviz version 2.43.0 (0)
 -->
<!-- Title: csl::mp::type_traits::is_homogeneous&lt; T &gt; Pages: 1 -->
<svg width="361pt" height="164pt"
 viewBox="0.00 0.00 361.00 163.50" xmlns="http://www.w3.org/2000/svg" xmlns:xlink="http://www.w3.org/1999/xlink">
<g id="graph0" class="graph" transform="scale(1 1) rotate(0) translate(4 159.5)">
<title>csl::mp::type_traits::is_homogeneous&lt; T &gt;</title>
<!-- Node1 -->
<g id="Node000001" class="node">
<title>Node1</title>
<g id="a_Node000001"><a xlink:title=" ">
<polygon fill="#999999" stroke="#666666" points="353,-117 219,-117 219,-87 353,-87 353,-117"/>
<text text-anchor="start" x="227" y="-105" font-family="Helvetica,sans-Serif" font-size="10.00">csl::mp::type_traits</text>
<text text-anchor="middle" x="286" y="-94" font-family="Helvetica,sans-Serif" font-size="10.00">::is_homogeneous&lt; T &gt;</text>
</a>
</g>
</g>
<!-- Node2 -->
<g id="Node000002" class="node">
<title>Node2</title>
<g id="a_Node000002"><a xlink:title=" ">
<polygon fill="white" stroke="#bfbfbf" points="133.5,-155.5 49.5,-155.5 49.5,-136.5 133.5,-136.5 133.5,-155.5"/>
<text text-anchor="middle" x="91.5" y="-143.5" font-family="Helvetica,sans-Serif" font-size="10.00">std::true_type</text>
</a>
</g>
</g>
<!-- Node2&#45;&gt;Node1 -->
<g id="edge1_Node000001_Node000002" class="edge">
<title>Node2&#45;&gt;Node1</title>
<g id="a_edge1_Node000001_Node000002"><a xlink:title=" ">
<path fill="none" stroke="#63b8ff" d="M143.65,-135.57C156.51,-132.87 170.28,-129.89 183,-127 196.69,-123.89 211.37,-120.38 225.21,-117.01"/>
<polygon fill="#63b8ff" stroke="#63b8ff" points="142.63,-132.21 133.56,-137.68 144.06,-139.06 142.63,-132.21"/>
</a>
</g>
</g>
<!-- Node3 -->
<g id="Node000003" class="node">
<title>Node3</title>
<g id="a_Node000003"><a xlink:title=" ">
<polygon fill="white" stroke="#bfbfbf" points="183,-118 0,-118 0,0 183,0 183,-118"/>
<text text-anchor="start" x="8" y="-106" font-family="Helvetica,sans-Serif" font-size="10.00">std::bool_constant</text>
<text text-anchor="start" x="8" y="-95" font-family="Helvetica,sans-Serif" font-size="10.00">&lt;[]&lt; std::size_t...</text>
<text text-anchor="start" x="8" y="-84" font-family="Helvetica,sans-Serif" font-size="10.00"> indexes &gt;(std::index</text>
<text text-anchor="start" x="8" y="-73" font-family="Helvetica,sans-Serif" font-size="10.00">_sequence&lt; indexes...</text>
<text text-anchor="start" x="8" y="-62" font-family="Helvetica,sans-Serif" font-size="10.00"> &gt;) { return(true and ...</text>
<text text-anchor="start" x="8" y="-51" font-family="Helvetica,sans-Serif" font-size="10.00"> and std::same_as&lt; csl::mp</text>
<text text-anchor="start" x="8" y="-40" font-family="Helvetica,sans-Serif" font-size="10.00">::element_t&lt; 0, T &gt;, csl::mp</text>
<text text-anchor="start" x="8" y="-29" font-family="Helvetica,sans-Serif" font-size="10.00">::element_t&lt; indexes, T &gt; &gt;);</text>
<text text-anchor="start" x="8" y="-18" font-family="Helvetica,sans-Serif" font-size="10.00">}(std::make_index_sequence&lt; csl</text>
<text text-anchor="middle" x="91.5" y="-7" font-family="Helvetica,sans-Serif" font-size="10.00">::mp::size_v&lt; T &gt; &gt;{}) &gt;</text>
</a>
</g>
</g>
<!-- Node3&#45;&gt;Node1 -->
<g id="edge2_Node000001_Node000003" class="edge">
<title>Node3&#45;&gt;Node1</title>
<g id="a_edge2_Node000001_Node000003"><a xlink:title=" ">
<path fill="none" stroke="#63b8ff" d="M193.04,-81.46C201.83,-83.42 210.58,-85.38 218.98,-87.25"/>
<polygon fill="#63b8ff" stroke="#63b8ff" points="193.64,-78.01 183.11,-79.24 192.11,-84.84 193.64,-78.01"/>
</a>
</g>
</g>
</g>
</svg>
