<?xml version="1.0" encoding="UTF-8" standalone="no"?>
<!DOCTYPE svg PUBLIC "-//W3C//DTD SVG 1.1//EN"
 "http://www.w3.org/Graphics/SVG/1.1/DTD/svg11.dtd">
<!-- Generated by graphviz version 2.43.0 (0)
 -->
<!-- Title: csl::mp::member_value&lt; I, std::integer_sequence&lt; T, values... &gt; &gt; Pages: 1 -->
<svg width="292pt" height="126pt"
 viewBox="0.00 0.00 291.50 126.00" xmlns="http://www.w3.org/2000/svg" xmlns:xlink="http://www.w3.org/1999/xlink">
<g id="graph0" class="graph" transform="scale(1 1) rotate(0) translate(4 122)">
<title>csl::mp::member_value&lt; I, std::integer_sequence&lt; T, values... &gt; &gt;</title>
<!-- Node1 -->
<g id="Node000001" class="node">
<title>Node1</title>
<g id="a_Node000001"><a xlink:title=" ">
<polygon fill="#999999" stroke="#666666" points="214,-41 70,-41 70,0 214,0 214,-41"/>
<text text-anchor="start" x="78" y="-29" font-family="Helvetica,sans-Serif" font-size="10.00">csl::mp::member_value</text>
<text text-anchor="start" x="78" y="-18" font-family="Helvetica,sans-Serif" font-size="10.00">&lt; I, std::integer_sequence</text>
<text text-anchor="middle" x="142" y="-7" font-family="Helvetica,sans-Serif" font-size="10.00">&lt; T, values... &gt; &gt;</text>
</a>
</g>
</g>
<!-- Node2 -->
<g id="Node000002" class="node">
<title>Node2</title>
<g id="a_Node000002"><a xlink:title=" ">
<polygon fill="white" stroke="#bfbfbf" points="134,-118 0,-118 0,-77 134,-77 134,-118"/>
<text text-anchor="start" x="8" y="-106" font-family="Helvetica,sans-Serif" font-size="10.00">type_identity&lt; decltype</text>
<text text-anchor="start" x="8" y="-95" font-family="Helvetica,sans-Serif" font-size="10.00">(get&lt; I &gt;(std::declval</text>
<text text-anchor="middle" x="67" y="-84" font-family="Helvetica,sans-Serif" font-size="10.00">&lt; T &gt;()))&gt;</text>
</a>
</g>
</g>
<!-- Node2&#45;&gt;Node1 -->
<g id="edge1_Node000001_Node000002" class="edge">
<title>Node2&#45;&gt;Node1</title>
<g id="a_edge1_Node000001_Node000002"><a xlink:title=" ">
<path fill="none" stroke="#63b8ff" d="M93.99,-69.51C103.39,-60.11 113.74,-49.76 122.43,-41.07"/>
<polygon fill="#63b8ff" stroke="#63b8ff" points="91.3,-67.25 86.71,-76.79 96.25,-72.2 91.3,-67.25"/>
</a>
</g>
</g>
<!-- Node3 -->
<g id="Node000003" class="node">
<title>Node3</title>
<g id="a_Node000003"><a xlink:title=" ">
<polygon fill="white" stroke="#bfbfbf" points="283.5,-107 152.5,-107 152.5,-88 283.5,-88 283.5,-107"/>
<text text-anchor="middle" x="218" y="-95" font-family="Helvetica,sans-Serif" font-size="10.00">std::type_identity&lt; T &gt;</text>
</a>
</g>
</g>
<!-- Node3&#45;&gt;Node1 -->
<g id="edge2_Node000001_Node000003" class="edge">
<title>Node3&#45;&gt;Node1</title>
<g id="a_edge2_Node000001_Node000003"><a xlink:title=" ">
<path fill="none" stroke="#63b8ff" d="M201.98,-80.69C190.32,-69.18 174.45,-53.53 161.97,-41.21"/>
<polygon fill="#63b8ff" stroke="#63b8ff" points="199.71,-83.36 209.28,-87.9 204.62,-78.38 199.71,-83.36"/>
</a>
</g>
</g>
</g>
</svg>
