<?xml version="1.0" encoding="UTF-8" standalone="no"?>
<!DOCTYPE svg PUBLIC "-//W3C//DTD SVG 1.1//EN"
 "http://www.w3.org/Graphics/SVG/1.1/DTD/svg11.dtd">
<!-- Generated by graphviz version 2.43.0 (0)
 -->
<!-- Title: csl::mp::type_traits::count_if&lt; std::array&lt; value_type, N &gt;, predicate &gt; Pages: 1 -->
<svg width="382pt" height="130pt"
 viewBox="0.00 0.00 382.00 130.00" xmlns="http://www.w3.org/2000/svg" xmlns:xlink="http://www.w3.org/1999/xlink">
<g id="graph0" class="graph" transform="scale(1 1) rotate(0) translate(4 126)">
<title>csl::mp::type_traits::count_if&lt; std::array&lt; value_type, N &gt;, predicate &gt;</title>
<!-- Node1 -->
<g id="Node000001" class="node">
<title>Node1</title>
<g id="a_Node000001"><a xlink:title=" ">
<polygon fill="#999999" stroke="#666666" points="374,-76 204,-76 204,-35 374,-35 374,-76"/>
<text text-anchor="start" x="212" y="-64" font-family="Helvetica,sans-Serif" font-size="10.00">csl::mp::type_traits</text>
<text text-anchor="start" x="212" y="-53" font-family="Helvetica,sans-Serif" font-size="10.00">::count_if&lt; std::array</text>
<text text-anchor="middle" x="289" y="-42" font-family="Helvetica,sans-Serif" font-size="10.00">&lt; value_type, N &gt;, predicate &gt;</text>
</a>
</g>
</g>
<!-- Node2 -->
<g id="Node000002" class="node">
<title>Node2</title>
<g id="a_Node000002"><a xlink:title=" ">
<polygon fill="white" stroke="#bfbfbf" points="163.5,-122 4.5,-122 4.5,-59 163.5,-59 163.5,-122"/>
<text text-anchor="start" x="12.5" y="-110" font-family="Helvetica,sans-Serif" font-size="10.00">std::integral_constant</text>
<text text-anchor="start" x="12.5" y="-99" font-family="Helvetica,sans-Serif" font-size="10.00">&lt; std::size_t,[]&lt; std</text>
<text text-anchor="start" x="12.5" y="-88" font-family="Helvetica,sans-Serif" font-size="10.00">::size_t... indexes &gt;(std</text>
<text text-anchor="start" x="12.5" y="-77" font-family="Helvetica,sans-Serif" font-size="10.00">::index_sequence&lt; indexes...</text>
<text text-anchor="middle" x="84" y="-66" font-family="Helvetica,sans-Serif" font-size="10.00"> &gt;) constexpr &#45;&gt; std::size_t</text>
</a>
</g>
</g>
<!-- Node2&#45;&gt;Node1 -->
<g id="edge1_Node000001_Node000002" class="edge">
<title>Node2&#45;&gt;Node1</title>
<g id="a_edge1_Node000001_Node000002"><a xlink:title=" ">
<path fill="none" stroke="#63b8ff" d="M173.72,-75.2C183.74,-73.48 193.93,-71.72 203.89,-70"/>
<polygon fill="#63b8ff" stroke="#63b8ff" points="173.04,-71.77 163.78,-76.92 174.22,-78.67 173.04,-71.77"/>
</a>
</g>
</g>
<!-- Node3 -->
<g id="Node000003" class="node">
<title>Node3</title>
<g id="a_Node000003"><a xlink:title=" ">
<polygon fill="white" stroke="#bfbfbf" points="168,-41 0,-41 0,0 168,0 168,-41"/>
<text text-anchor="start" x="8" y="-29" font-family="Helvetica,sans-Serif" font-size="10.00">std::integral_constant</text>
<text text-anchor="start" x="8" y="-18" font-family="Helvetica,sans-Serif" font-size="10.00">&lt; std::size_t, predicate</text>
<text text-anchor="middle" x="84" y="-7" font-family="Helvetica,sans-Serif" font-size="10.00">&lt; value_type &gt;::value ? N :0 &gt;</text>
</a>
</g>
</g>
<!-- Node3&#45;&gt;Node1 -->
<g id="edge2_Node000001_Node000003" class="edge">
<title>Node3&#45;&gt;Node1</title>
<g id="a_edge2_Node000001_Node000003"><a xlink:title=" ">
<path fill="none" stroke="#63b8ff" d="M178.2,-36.57C186.8,-38.05 195.48,-39.55 203.99,-41.02"/>
<polygon fill="#63b8ff" stroke="#63b8ff" points="178.6,-33.09 168.15,-34.84 177.41,-39.99 178.6,-33.09"/>
</a>
</g>
</g>
</g>
</svg>
