<?xml version="1.0" encoding="UTF-8" standalone="no"?>
<!DOCTYPE svg PUBLIC "-//W3C//DTD SVG 1.1//EN"
 "http://www.w3.org/Graphics/SVG/1.1/DTD/svg11.dtd">
<!-- Generated by graphviz version 2.43.0 (0)
 -->
<!-- Title: csl::mp::type_traits::is_homogeneous&lt; T &gt; Pages: 1 -->
<svg width="361pt" height="201pt"
 viewBox="0.00 0.00 361.00 200.50" xmlns="http://www.w3.org/2000/svg" xmlns:xlink="http://www.w3.org/1999/xlink">
<g id="graph0" class="graph" transform="scale(1 1) rotate(0) translate(4 196.5)">
<title>csl::mp::type_traits::is_homogeneous&lt; T &gt;</title>
<!-- Node1 -->
<g id="Node000001" class="node">
<title>Node1</title>
<g id="a_Node000001"><a xlink:title=" ">
<polygon fill="#999999" stroke="#666666" points="353,-161 219,-161 219,-131 353,-131 353,-161"/>
<text text-anchor="start" x="227" y="-149" font-family="Helvetica,sans-Serif" font-size="10.00">csl::mp::type_traits</text>
<text text-anchor="middle" x="286" y="-138" font-family="Helvetica,sans-Serif" font-size="10.00">::is_homogeneous&lt; T &gt;</text>
</a>
</g>
</g>
<!-- Node2 -->
<g id="Node000002" class="node">
<title>Node2</title>
<g id="a_Node000002"><a xlink:title=" ">
<polygon fill="white" stroke="#bfbfbf" points="136,-192.5 47,-192.5 47,-173.5 136,-173.5 136,-192.5"/>
<text text-anchor="middle" x="91.5" y="-180.5" font-family="Helvetica,sans-Serif" font-size="10.00">std::false_type</text>
</a>
</g>
</g>
<!-- Node2&#45;&gt;Node1 -->
<g id="edge1_Node000001_Node000002" class="edge">
<title>Node2&#45;&gt;Node1</title>
<g id="a_edge1_Node000001_Node000002"><a xlink:title=" ">
<path fill="none" stroke="#63b8ff" d="M146.23,-172.67C168.73,-168.35 195.12,-163.28 218.81,-158.72"/>
<polygon fill="#63b8ff" stroke="#63b8ff" points="145.34,-169.28 136.18,-174.6 146.66,-176.15 145.34,-169.28"/>
</a>
</g>
</g>
<!-- Node3 -->
<g id="Node000003" class="node">
<title>Node3</title>
<g id="a_Node000003"><a xlink:title=" ">
<polygon fill="white" stroke="#bfbfbf" points="133.5,-155.5 49.5,-155.5 49.5,-136.5 133.5,-136.5 133.5,-155.5"/>
<text text-anchor="middle" x="91.5" y="-143.5" font-family="Helvetica,sans-Serif" font-size="10.00">std::true_type</text>
</a>
</g>
</g>
<!-- Node3&#45;&gt;Node1 -->
<g id="edge2_Node000001_Node000003" class="edge">
<title>Node3&#45;&gt;Node1</title>
<g id="a_edge2_Node000001_Node000003"><a xlink:title=" ">
<path fill="none" stroke="#63b8ff" d="M144.02,-146C166.98,-146 194.32,-146 218.79,-146"/>
<polygon fill="#63b8ff" stroke="#63b8ff" points="143.8,-142.5 133.8,-146 143.8,-149.5 143.8,-142.5"/>
</a>
</g>
</g>
<!-- Node4 -->
<g id="Node000004" class="node">
<title>Node4</title>
<g id="a_Node000004"><a xlink:title=" ">
<polygon fill="white" stroke="#bfbfbf" points="183,-118 0,-118 0,0 183,0 183,-118"/>
<text text-anchor="start" x="8" y="-106" font-family="Helvetica,sans-Serif" font-size="10.00">std::bool_constant</text>
<text text-anchor="start" x="8" y="-95" font-family="Helvetica,sans-Serif" font-size="10.00">&lt;[]&lt; std::size_t...</text>
<text text-anchor="start" x="8" y="-84" font-family="Helvetica,sans-Serif" font-size="10.00"> indexes &gt;(std::index</text>
<text text-anchor="start" x="8" y="-73" font-family="Helvetica,sans-Serif" font-size="10.00">_sequence&lt; indexes...</text>
<text text-anchor="start" x="8" y="-62" font-family="Helvetica,sans-Serif" font-size="10.00"> &gt;) { return(true and ...</text>
<text text-anchor="start" x="8" y="-51" font-family="Helvetica,sans-Serif" font-size="10.00"> and std::same_as&lt; csl::mp</text>
<text text-anchor="start" x="8" y="-40" font-family="Helvetica,sans-Serif" font-size="10.00">::element_t&lt; 0, T &gt;, csl::mp</text>
<text text-anchor="start" x="8" y="-29" font-family="Helvetica,sans-Serif" font-size="10.00">::element_t&lt; indexes, T &gt; &gt;);</text>
<text text-anchor="start" x="8" y="-18" font-family="Helvetica,sans-Serif" font-size="10.00">}(std::make_index_sequence&lt; csl</text>
<text text-anchor="middle" x="91.5" y="-7" font-family="Helvetica,sans-Serif" font-size="10.00">::mp::size_v&lt; T &gt; &gt;{}) &gt;</text>
</a>
</g>
</g>
<!-- Node4&#45;&gt;Node1 -->
<g id="edge3_Node000001_Node000004" class="edge">
<title>Node4&#45;&gt;Node1</title>
<g id="a_edge3_Node000001_Node000004"><a xlink:title=" ">
<path fill="none" stroke="#63b8ff" d="M192.27,-104.09C213.62,-113.74 234.74,-123.28 251.42,-130.82"/>
<polygon fill="#63b8ff" stroke="#63b8ff" points="193.67,-100.88 183.11,-99.95 190.78,-107.26 193.67,-100.88"/>
</a>
</g>
</g>
</g>
</svg>
