<?xml version="1.0" encoding="UTF-8" standalone="no"?>
<!DOCTYPE svg PUBLIC "-//W3C//DTD SVG 1.1//EN"
 "http://www.w3.org/Graphics/SVG/1.1/DTD/svg11.dtd">
<!-- Generated by graphviz version 2.43.0 (0)
 -->
<!-- Title: P1450::copy_cv&lt; from, to &gt; Pages: 1 -->
<svg width="138pt" height="170pt"
 viewBox="0.00 0.00 138.00 170.00" xmlns="http://www.w3.org/2000/svg" xmlns:xlink="http://www.w3.org/1999/xlink">
<g id="graph0" class="graph" transform="scale(1 1) rotate(0) translate(4 166)">
<title>P1450::copy_cv&lt; from, to &gt;</title>
<!-- Node1 -->
<g id="Node000001" class="node">
<title>Node1</title>
<g id="a_Node000001"><a xlink:title=" ">
<polygon fill="#999999" stroke="#666666" points="130,-30 0,-30 0,0 130,0 130,-30"/>
<text text-anchor="start" x="8" y="-18" font-family="Helvetica,sans-Serif" font-size="10.00">P1450::copy_cv&lt; from,</text>
<text text-anchor="middle" x="65" y="-7" font-family="Helvetica,sans-Serif" font-size="10.00"> to &gt;</text>
</a>
</g>
</g>
<!-- Node2 -->
<g id="Node000002" class="node">
<title>Node2</title>
<g id="a_Node000002"><a xlink:href="structP1450_1_1copy__cv.html" target="_top" xlink:title=" ">
<polygon fill="white" stroke="#bfbfbf" points="125.5,-107 4.5,-107 4.5,-66 125.5,-66 125.5,-107"/>
<text text-anchor="start" x="12.5" y="-95" font-family="Helvetica,sans-Serif" font-size="10.00">P1450::copy_cv&lt; std</text>
<text text-anchor="start" x="12.5" y="-84" font-family="Helvetica,sans-Serif" font-size="10.00">::remove_reference_t</text>
<text text-anchor="middle" x="65" y="-73" font-family="Helvetica,sans-Serif" font-size="10.00">&lt; from &gt;, to &gt;</text>
</a>
</g>
</g>
<!-- Node2&#45;&gt;Node1 -->
<g id="edge1_Node000001_Node000002" class="edge">
<title>Node2&#45;&gt;Node1</title>
<g id="a_edge1_Node000001_Node000002"><a xlink:title=" ">
<path fill="none" stroke="#63b8ff" d="M65,-55.66C65,-46.76 65,-37.42 65,-30.04"/>
<polygon fill="#63b8ff" stroke="#63b8ff" points="61.5,-55.77 65,-65.77 68.5,-55.77 61.5,-55.77"/>
</a>
</g>
</g>
<!-- Node3 -->
<g id="Node000003" class="node">
<title>Node3</title>
<g id="a_Node000003"><a xlink:title=" ">
<polygon fill="white" stroke="#bfbfbf" points="127,-162 3,-162 3,-143 127,-143 127,-162"/>
<text text-anchor="middle" x="65" y="-150" font-family="Helvetica,sans-Serif" font-size="10.00">std::remove_cv&lt; to &gt;</text>
</a>
</g>
</g>
<!-- Node3&#45;&gt;Node2 -->
<g id="edge2_Node000002_Node000003" class="edge">
<title>Node3&#45;&gt;Node2</title>
<g id="a_edge2_Node000002_Node000003"><a xlink:title=" ">
<path fill="none" stroke="#63b8ff" d="M65,-132.63C65,-124.56 65,-115.15 65,-107.01"/>
<polygon fill="#63b8ff" stroke="#63b8ff" points="61.5,-132.87 65,-142.87 68.5,-132.87 61.5,-132.87"/>
</a>
</g>
</g>
</g>
</svg>
