<?xml version="1.0" encoding="UTF-8" standalone="no"?>
<!DOCTYPE svg PUBLIC "-//W3C//DTD SVG 1.1//EN"
 "http://www.w3.org/Graphics/SVG/1.1/DTD/svg11.dtd">
<!-- Generated by graphviz version 2.43.0 (0)
 -->
<!-- Title: csl::mp::element&lt; I, std::integer_sequence&lt; T, values... &gt; &gt; Pages: 1 -->
<svg width="282pt" height="126pt"
 viewBox="0.00 0.00 282.00 126.00" xmlns="http://www.w3.org/2000/svg" xmlns:xlink="http://www.w3.org/1999/xlink">
<g id="graph0" class="graph" transform="scale(1 1) rotate(0) translate(4 122)">
<title>csl::mp::element&lt; I, std::integer_sequence&lt; T, values... &gt; &gt;</title>
<!-- Node1 -->
<g id="Node000001" class="node">
<title>Node1</title>
<g id="a_Node000001"><a xlink:title=" ">
<polygon fill="#999999" stroke="#666666" points="199,-41 72,-41 72,0 199,0 199,-41"/>
<text text-anchor="start" x="80" y="-29" font-family="Helvetica,sans-Serif" font-size="10.00">csl::mp::element&lt; I,</text>
<text text-anchor="start" x="80" y="-18" font-family="Helvetica,sans-Serif" font-size="10.00"> std::integer_sequence</text>
<text text-anchor="middle" x="135.5" y="-7" font-family="Helvetica,sans-Serif" font-size="10.00">&lt; T, values... &gt; &gt;</text>
</a>
</g>
</g>
<!-- Node2 -->
<g id="Node000002" class="node">
<title>Node2</title>
<g id="a_Node000002"><a xlink:title=" ">
<polygon fill="white" stroke="#bfbfbf" points="125,-118 0,-118 0,-77 125,-77 125,-118"/>
<text text-anchor="start" x="8" y="-106" font-family="Helvetica,sans-Serif" font-size="10.00">std::tuple_element</text>
<text text-anchor="start" x="8" y="-95" font-family="Helvetica,sans-Serif" font-size="10.00">&lt; I, std::remove_cvref</text>
<text text-anchor="middle" x="62.5" y="-84" font-family="Helvetica,sans-Serif" font-size="10.00">_t&lt; T &gt; &gt;</text>
</a>
</g>
</g>
<!-- Node2&#45;&gt;Node1 -->
<g id="edge1_Node000001_Node000002" class="edge">
<title>Node2&#45;&gt;Node1</title>
<g id="a_edge1_Node000001_Node000002"><a xlink:title=" ">
<path fill="none" stroke="#63b8ff" d="M88.77,-69.51C97.92,-60.11 108,-49.76 116.45,-41.07"/>
<polygon fill="#63b8ff" stroke="#63b8ff" points="86.15,-67.19 81.68,-76.79 91.16,-72.07 86.15,-67.19"/>
</a>
</g>
</g>
<!-- Node3 -->
<g id="Node000003" class="node">
<title>Node3</title>
<g id="a_Node000003"><a xlink:title=" ">
<polygon fill="white" stroke="#bfbfbf" points="274,-107 143,-107 143,-88 274,-88 274,-107"/>
<text text-anchor="middle" x="208.5" y="-95" font-family="Helvetica,sans-Serif" font-size="10.00">std::type_identity&lt; T &gt;</text>
</a>
</g>
</g>
<!-- Node3&#45;&gt;Node1 -->
<g id="edge2_Node000001_Node000003" class="edge">
<title>Node3&#45;&gt;Node1</title>
<g id="a_edge2_Node000001_Node000003"><a xlink:title=" ">
<path fill="none" stroke="#63b8ff" d="M193.11,-80.69C181.91,-69.18 166.67,-53.53 154.68,-41.21"/>
<polygon fill="#63b8ff" stroke="#63b8ff" points="190.64,-83.17 200.13,-87.9 195.66,-78.29 190.64,-83.17"/>
</a>
</g>
</g>
</g>
</svg>
