<?xml version="1.0" encoding="UTF-8" standalone="no"?>
<!DOCTYPE svg PUBLIC "-//W3C//DTD SVG 1.1//EN"
 "http://www.w3.org/Graphics/SVG/1.1/DTD/svg11.dtd">
<!-- Generated by graphviz version 2.43.0 (0)
 -->
<!-- Title: csl::mp::type_traits::value_type&lt; T[N]&gt; Pages: 1 -->
<svg width="300pt" height="104pt"
 viewBox="0.00 0.00 299.50 104.00" xmlns="http://www.w3.org/2000/svg" xmlns:xlink="http://www.w3.org/1999/xlink">
<g id="graph0" class="graph" transform="scale(1 1) rotate(0) translate(4 100)">
<title>csl::mp::type_traits::value_type&lt; T[N]&gt;</title>
<!-- Node1 -->
<g id="Node000001" class="node">
<title>Node1</title>
<g id="a_Node000001"><a xlink:title=" ">
<polygon fill="#999999" stroke="#666666" points="196.5,-30 79.5,-30 79.5,0 196.5,0 196.5,-30"/>
<text text-anchor="start" x="87.5" y="-18" font-family="Helvetica,sans-Serif" font-size="10.00">csl::mp::type_traits</text>
<text text-anchor="middle" x="138" y="-7" font-family="Helvetica,sans-Serif" font-size="10.00">::value_type&lt; T[N]&gt;</text>
</a>
</g>
</g>
<!-- Node2 -->
<g id="Node000002" class="node">
<title>Node2</title>
<g id="a_Node000002"><a xlink:title=" ">
<polygon fill="white" stroke="#bfbfbf" points="122,-96 0,-96 0,-66 122,-66 122,-96"/>
<text text-anchor="start" x="8" y="-84" font-family="Helvetica,sans-Serif" font-size="10.00">csl::mp::type_identity</text>
<text text-anchor="middle" x="61" y="-73" font-family="Helvetica,sans-Serif" font-size="10.00">&lt; T::value_type &gt;</text>
</a>
</g>
</g>
<!-- Node2&#45;&gt;Node1 -->
<g id="edge1_Node000001_Node000002" class="edge">
<title>Node2&#45;&gt;Node1</title>
<g id="a_edge1_Node000001_Node000002"><a xlink:title=" ">
<path fill="none" stroke="#63b8ff" d="M86.02,-59.2C97.45,-49.7 110.7,-38.69 120.96,-30.16"/>
<polygon fill="#63b8ff" stroke="#63b8ff" points="83.54,-56.71 78.09,-65.8 88.02,-62.1 83.54,-56.71"/>
</a>
</g>
</g>
<!-- Node3 -->
<g id="Node000003" class="node">
<title>Node3</title>
<g id="a_Node000003"><a xlink:title=" ">
<polygon fill="white" stroke="#bfbfbf" points="291.5,-90.5 140.5,-90.5 140.5,-71.5 291.5,-71.5 291.5,-90.5"/>
<text text-anchor="middle" x="216" y="-78.5" font-family="Helvetica,sans-Serif" font-size="10.00">csl::mp::type_identity&lt; T &gt;</text>
</a>
</g>
</g>
<!-- Node3&#45;&gt;Node1 -->
<g id="edge2_Node000001_Node000003" class="edge">
<title>Node3&#45;&gt;Node1</title>
<g id="a_edge2_Node000001_Node000003"><a xlink:title=" ">
<path fill="none" stroke="#63b8ff" d="M197.74,-65.02C184.89,-54.48 167.81,-40.46 155.2,-30.12"/>
<polygon fill="#63b8ff" stroke="#63b8ff" points="195.53,-67.73 205.48,-71.37 199.97,-62.32 195.53,-67.73"/>
</a>
</g>
</g>
</g>
</svg>
