<?xml version="1.0" encoding="UTF-8" standalone="no"?>
<!DOCTYPE svg PUBLIC "-//W3C//DTD SVG 1.1//EN"
 "http://www.w3.org/Graphics/SVG/1.1/DTD/svg11.dtd">
<!-- Generated by graphviz version 2.43.0 (0)
 -->
<!-- Title: P1450::copy_cv&lt; volatile from, to &gt; Pages: 1 -->
<svg width="284pt" height="159pt"
 viewBox="0.00 0.00 283.50 159.00" xmlns="http://www.w3.org/2000/svg" xmlns:xlink="http://www.w3.org/1999/xlink">
<g id="graph0" class="graph" transform="scale(1 1) rotate(0) translate(4 155)">
<title>P1450::copy_cv&lt; volatile from, to &gt;</title>
<!-- Node1 -->
<g id="Node000001" class="node">
<title>Node1</title>
<g id="a_Node000001"><a xlink:title=" ">
<polygon fill="#999999" stroke="#666666" points="200,-30 60,-30 60,0 200,0 200,-30"/>
<text text-anchor="start" x="68" y="-18" font-family="Helvetica,sans-Serif" font-size="10.00">P1450::copy_cv&lt; volatile</text>
<text text-anchor="middle" x="130" y="-7" font-family="Helvetica,sans-Serif" font-size="10.00"> from, to &gt;</text>
</a>
</g>
</g>
<!-- Node2 -->
<g id="Node000002" class="node">
<title>Node2</title>
<g id="a_Node000002"><a xlink:title=" ">
<polygon fill="white" stroke="#bfbfbf" points="124,-90.5 0,-90.5 0,-71.5 124,-71.5 124,-90.5"/>
<text text-anchor="middle" x="62" y="-78.5" font-family="Helvetica,sans-Serif" font-size="10.00">std::remove_cv&lt; to &gt;</text>
</a>
</g>
</g>
<!-- Node2&#45;&gt;Node1 -->
<g id="edge1_Node000001_Node000002" class="edge">
<title>Node2&#45;&gt;Node1</title>
<g id="a_edge1_Node000001_Node000002"><a xlink:title=" ">
<path fill="none" stroke="#63b8ff" d="M78.56,-64.41C89.69,-53.94 104.22,-40.26 115,-30.12"/>
<polygon fill="#63b8ff" stroke="#63b8ff" points="76.05,-61.97 71.17,-71.37 80.85,-67.06 76.05,-61.97"/>
</a>
</g>
</g>
<!-- Node3 -->
<g id="Node000003" class="node">
<title>Node3</title>
<g id="a_Node000003"><a xlink:href="structP1450_1_1add__volatile.html" target="_top" xlink:title=" ">
<polygon fill="white" stroke="#bfbfbf" points="255.5,-96 142.5,-96 142.5,-66 255.5,-66 255.5,-96"/>
<text text-anchor="start" x="150.5" y="-84" font-family="Helvetica,sans-Serif" font-size="10.00">P1450::add_volatile</text>
<text text-anchor="middle" x="199" y="-73" font-family="Helvetica,sans-Serif" font-size="10.00">&lt; to &gt;</text>
</a>
</g>
</g>
<!-- Node3&#45;&gt;Node1 -->
<g id="edge2_Node000001_Node000003" class="edge">
<title>Node3&#45;&gt;Node1</title>
<g id="a_edge2_Node000001_Node000003"><a xlink:title=" ">
<path fill="none" stroke="#63b8ff" d="M176.28,-58.92C166.1,-49.49 154.37,-38.61 145.27,-30.16"/>
<polygon fill="#63b8ff" stroke="#63b8ff" points="173.97,-61.56 183.69,-65.8 178.74,-56.43 173.97,-61.56"/>
</a>
</g>
</g>
<!-- Node4 -->
<g id="Node000004" class="node">
<title>Node4</title>
<g id="a_Node000004"><a xlink:title=" ">
<polygon fill="white" stroke="#bfbfbf" points="275.5,-151 122.5,-151 122.5,-132 275.5,-132 275.5,-151"/>
<text text-anchor="middle" x="199" y="-139" font-family="Helvetica,sans-Serif" font-size="10.00">type_identity&lt; volatile to &gt;</text>
</a>
</g>
</g>
<!-- Node4&#45;&gt;Node3 -->
<g id="edge3_Node000003_Node000004" class="edge">
<title>Node4&#45;&gt;Node3</title>
<g id="a_edge3_Node000003_Node000004"><a xlink:title=" ">
<path fill="none" stroke="#63b8ff" d="M199,-121.65C199,-113.36 199,-103.78 199,-96.11"/>
<polygon fill="#63b8ff" stroke="#63b8ff" points="195.5,-121.87 199,-131.87 202.5,-121.87 195.5,-121.87"/>
</a>
</g>
</g>
</g>
</svg>
